<?xml version="1.0" encoding="UTF-8"?>
<svg id="Capa_1" data-name="Capa 1" xmlns="http://www.w3.org/2000/svg" viewBox="0 0 776.17 126.14">
  <defs>
    <style>
      .cls-1 {
        fill: #fff;
      }
    </style>
  </defs>
  <rect x="225.94" y="23.94" width="536.76" height="25.65" rx="5.76" ry="5.76"/>
  <g>
    <path class="cls-1" d="M235.63,43.6v-12.48h1.83v12.48h-1.83ZM237.34,43.6v-1.67h1.32c1.28,0,2.25-.37,2.9-1.1.65-.73.97-1.83.97-3.3,0-1.59-.32-2.78-.97-3.56-.65-.79-1.61-1.18-2.9-1.18h-1.28l-.21-1.67h1.49c3.81,0,5.71,2.14,5.71,6.42,0,4.04-1.9,6.06-5.71,6.06h-1.32Z"/>
    <path class="cls-1" d="M246.35,43.6v-1.63h3.73v1.63h-3.73ZM246.88,35.91v-1.63h4.89v1.63h-4.89ZM250.77,32.8c-.36,0-.66-.13-.92-.38-.25-.25-.38-.56-.38-.92s.13-.67.38-.92c.26-.25.56-.38.92-.38s.67.13.92.38.38.56.38.92-.13.66-.38.92-.56.38-.92.38ZM249.9,43.6v-8.79h1.86v8.79h-1.86ZM251.59,43.6v-1.63h3.04v1.63h-3.04Z"/>
    <path class="cls-1" d="M259.4,43.77c-.97,0-1.73-.23-2.26-.7s-.8-1.13-.8-1.99c0-.98.37-1.74,1.1-2.27.73-.53,1.77-.79,3.12-.79.56,0,1.05.03,1.49.1.44.07.82.17,1.16.3l-.39,1.27c-.39-.09-.78-.14-1.15-.15s-.76-.02-1.15-.02c-1.62,0-2.43.49-2.43,1.48,0,.41.14.73.42.95.28.22.67.33,1.18.33.58,0,1.06-.1,1.46-.3.39-.2.68-.45.87-.76s.29-.63.29-.96v-1.02l.54,2.39h-.74l.3-.28c0,.54-.12.99-.37,1.35-.25.36-.6.63-1.05.81s-.98.27-1.6.27ZM262.68,43.68l-.12-2.76-.25-.77v-2.41c0-.62-.22-1.08-.65-1.37-.44-.29-1.09-.45-1.95-.47l-2.23-.06.18-1.65,1.88.03c1.54.02,2.69.36,3.43,1,.75.64,1.12,1.58,1.12,2.81v3.88l1.58.19v1.49l-2.99.09ZM259.7,32.63l1.49-3.34h1.86l-1.67,3.34h-1.69Z"/>
    <path class="cls-1" d="M266.9,32.05v-1.63h2.9v1.63h-2.9ZM272.7,43.77c-1.08,0-1.86-.29-2.34-.88s-.72-1.52-.72-2.81v-9.67h1.86v9.58c0,.49.05.89.14,1.2s.28.54.55.69c.27.15.68.22,1.21.22.49,0,1.11-.11,1.86-.33l.21,1.63c-.47.13-.93.22-1.37.28s-.91.09-1.41.09Z"/>
    <path class="cls-1" d="M281.86,43.77c-1.29,0-2.29-.42-3.01-1.27s-1.07-2.03-1.07-3.57.36-2.73,1.07-3.57,1.72-1.26,3.01-1.26,2.3.42,3.01,1.26c.71.84,1.07,2.03,1.07,3.57s-.36,2.72-1.07,3.57c-.71.84-1.71,1.27-3.01,1.27ZM281.86,42.1c.69,0,1.21-.28,1.59-.83s.56-1.33.56-2.34-.19-1.79-.56-2.34-.9-.82-1.59-.82-1.21.27-1.59.82c-.37.55-.56,1.33-.56,2.34s.19,1.79.56,2.34c.37.55.9.83,1.59.83Z"/>
    <path class="cls-1" d="M291.7,43.77c-1.22,0-2.14-.4-2.77-1.2-.63-.8-.95-1.98-.95-3.54s.31-2.84.95-3.67c.63-.83,1.55-1.25,2.77-1.25.73,0,1.32.16,1.77.49s.71.79.79,1.37h.72l-.63,2.65c0-.96-.19-1.69-.57-2.19-.38-.5-.93-.75-1.67-.75s-1.32.28-1.71.84-.58,1.39-.58,2.5c0,1.04.19,1.83.58,2.36s.96.8,1.71.8,1.29-.25,1.67-.75c.38-.5.57-1.23.57-2.19l.63,2.65h-.81c-.06.59-.31,1.04-.74,1.37-.44.33-1.01.49-1.73.49ZM288.73,47.8l-.09-1.71,2.99-.09c.94-.03,1.63-.29,2.06-.78s.64-1.22.65-2.17v-6.8l.18-1.97h1.69v8.49c0,1.66-.38,2.88-1.13,3.67s-1.96,1.21-3.61,1.27l-2.72.09Z"/>
    <path class="cls-1" d="M302.95,43.77c-1.29,0-2.29-.42-3.01-1.27s-1.07-2.03-1.07-3.57.36-2.73,1.07-3.57,1.72-1.26,3.01-1.26,2.3.42,3.01,1.26c.71.84,1.07,2.03,1.07,3.57s-.36,2.72-1.07,3.57c-.71.84-1.71,1.27-3.01,1.27ZM302.95,42.1c.69,0,1.21-.28,1.59-.83s.56-1.33.56-2.34-.19-1.79-.56-2.34-.9-.82-1.59-.82-1.21.27-1.59.82c-.37.55-.56,1.33-.56,2.34s.19,1.79.56,2.34c.37.55.9.83,1.59.83Z"/>
    <path class="cls-1" d="M322.97,43.6l-3.71-9.32h1.93l3.04,7.91h.28v1.41h-1.55ZM319.43,47.81l-.09-1.67,1.46-.18c.62-.08,1.14-.24,1.58-.5s.81-.64,1.12-1.15.58-1.17.82-1.99l2.32-8.05h1.93l-2.69,8.49c-.35,1.11-.75,2.01-1.18,2.69s-.95,1.19-1.55,1.53-1.31.56-2.14.65l-1.58.18Z"/>
    <path class="cls-1" d="M346.04,43.77c-1.59,0-2.81-.42-3.68-1.25-.87-.83-1.3-2.03-1.3-3.6s.41-2.71,1.23-3.55c.82-.84,1.98-1.27,3.5-1.27.91,0,1.69.17,2.33.51.65.34,1.11.81,1.38,1.43l-1.43,1.08c-.26-.43-.6-.76-1.01-.99s-.86-.35-1.34-.35c-.88,0-1.56.27-2.05.8s-.73,1.28-.73,2.26c0,1.06.29,1.87.86,2.43.57.56,1.39.84,2.45.84.43,0,.87-.02,1.3-.06s.86-.1,1.27-.17l.21,1.63c-.48.11-.98.18-1.49.21s-1.01.05-1.5.05Z"/>
    <path class="cls-1" d="M355.69,43.77c-1.29,0-2.29-.42-3.01-1.27s-1.07-2.03-1.07-3.57.36-2.73,1.07-3.57,1.72-1.26,3.01-1.26,2.3.42,3.01,1.26c.71.84,1.07,2.03,1.07,3.57s-.36,2.72-1.07,3.57c-.71.84-1.71,1.27-3.01,1.27ZM355.69,42.1c.69,0,1.21-.28,1.59-.83s.56-1.33.56-2.34-.19-1.79-.56-2.34-.9-.82-1.59-.82-1.21.27-1.59.82c-.37.55-.56,1.33-.56,2.34s.19,1.79.56,2.34c.37.55.9.83,1.59.83Z"/>
    <path class="cls-1" d="M361.82,32.05v-1.63h2.9v1.63h-2.9ZM367.62,43.77c-1.08,0-1.86-.29-2.34-.88s-.72-1.52-.72-2.81v-9.67h1.86v9.58c0,.49.05.89.14,1.2s.28.54.55.69c.27.15.68.22,1.21.22.49,0,1.11-.11,1.86-.33l.21,1.63c-.47.13-.93.22-1.37.28s-.91.09-1.41.09Z"/>
    <path class="cls-1" d="M375.41,43.77c-.97,0-1.73-.23-2.26-.7s-.8-1.13-.8-1.99c0-.98.37-1.74,1.1-2.27.73-.53,1.77-.79,3.12-.79.56,0,1.05.03,1.49.1.44.07.82.17,1.16.3l-.39,1.27c-.39-.09-.78-.14-1.15-.15s-.76-.02-1.15-.02c-1.62,0-2.43.49-2.43,1.48,0,.41.14.73.42.95.28.22.67.33,1.18.33.58,0,1.06-.1,1.46-.3.39-.2.68-.45.87-.76s.29-.63.29-.96v-1.02l.54,2.39h-.74l.3-.28c0,.54-.12.99-.37,1.35-.25.36-.6.63-1.05.81s-.98.27-1.6.27ZM378.7,43.68l-.12-2.76-.25-.77v-2.41c0-.62-.22-1.08-.65-1.37-.44-.29-1.09-.45-1.95-.47l-2.23-.06.18-1.65,1.88.03c1.54.02,2.69.36,3.43,1,.75.64,1.12,1.58,1.12,2.81v3.88l1.58.19v1.49l-2.99.09Z"/>
    <path class="cls-1" d="M383.49,43.6v-13.18h1.86v13.03l-1.86.16ZM385.98,43.77c-.42,0-.84-.02-1.25-.05s-.83-.07-1.25-.13l.72-1.71c.31.15.65.23,1.03.26s.75.04,1.12.04c1.12,0,1.98-.34,2.6-1.01s.92-1.63.92-2.86c0-.84-.19-1.49-.56-1.95-.37-.46-.9-.69-1.59-.69-1.58,0-2.37.89-2.37,2.67l-.54-2.39h.72c.09-1.24.85-1.86,2.29-1.86,1.24,0,2.2.37,2.88,1.1s1.02,1.77,1.02,3.12c0,1.73-.5,3.07-1.5,4.02s-2.41,1.43-4.23,1.43Z"/>
    <path class="cls-1" d="M397.88,43.77c-1.29,0-2.29-.42-3.01-1.27s-1.07-2.03-1.07-3.57.36-2.73,1.07-3.57,1.72-1.26,3.01-1.26,2.3.42,3.01,1.26c.71.84,1.07,2.03,1.07,3.57s-.36,2.72-1.07,3.57c-.71.84-1.71,1.27-3.01,1.27ZM397.88,42.1c.69,0,1.21-.28,1.59-.83s.56-1.33.56-2.34-.19-1.79-.56-2.34-.9-.82-1.59-.82-1.21.27-1.59.82c-.37.55-.56,1.33-.56,2.34s.19,1.79.56,2.34c.37.55.9.83,1.59.83Z"/>
    <path class="cls-1" d="M403.85,43.6v-1.63h6.22v1.63h-6.22ZM404.2,35.91v-1.63h3.11l.18,1.63h-3.29ZM405.93,43.6v-9.32h1.51l.35,2.67v6.64h-1.86ZM407.79,39.59l-.54-2.92h.72c.11-1.71.96-2.57,2.57-2.57.96,0,1.66.28,2.09.83s.65,1.44.65,2.67h-1.85c0-.68-.1-1.17-.3-1.47-.2-.3-.53-.45-.98-.45-.79,0-1.38.34-1.77,1.02s-.58,1.64-.58,2.89Z"/>
    <path class="cls-1" d="M417.6,43.77c-.97,0-1.73-.23-2.26-.7s-.8-1.13-.8-1.99c0-.98.37-1.74,1.1-2.27.73-.53,1.77-.79,3.12-.79.56,0,1.05.03,1.49.1.44.07.82.17,1.16.3l-.39,1.27c-.39-.09-.78-.14-1.15-.15s-.76-.02-1.15-.02c-1.62,0-2.43.49-2.43,1.48,0,.41.14.73.42.95.28.22.67.33,1.18.33.58,0,1.06-.1,1.46-.3.39-.2.68-.45.87-.76s.29-.63.29-.96v-1.02l.54,2.39h-.74l.3-.28c0,.54-.12.99-.37,1.35-.25.36-.6.63-1.05.81s-.98.27-1.6.27ZM420.89,43.68l-.12-2.76-.25-.77v-2.41c0-.62-.22-1.08-.65-1.37-.44-.29-1.09-.45-1.95-.47l-2.23-.06.18-1.65,1.88.03c1.54.02,2.69.36,3.43,1,.75.64,1.12,1.58,1.12,2.81v3.88l1.58.19v1.49l-2.99.09Z"/>
    <path class="cls-1" d="M430.41,43.77c-1.59,0-2.81-.42-3.68-1.25-.87-.83-1.3-2.03-1.3-3.6s.41-2.71,1.23-3.55c.82-.84,1.98-1.27,3.5-1.27.91,0,1.69.17,2.33.51.65.34,1.11.81,1.38,1.43l-1.43,1.08c-.26-.43-.6-.76-1.01-.99s-.86-.35-1.34-.35c-.88,0-1.56.27-2.05.8s-.73,1.28-.73,2.26c0,1.06.29,1.87.86,2.43.57.56,1.39.84,2.45.84.43,0,.87-.02,1.3-.06s.86-.1,1.27-.17l.21,1.63c-.48.11-.98.18-1.49.21s-1.01.05-1.5.05Z"/>
    <path class="cls-1" d="M436.2,43.6v-1.63h3.73v1.63h-3.73ZM436.72,35.91v-1.63h4.89v1.63h-4.89ZM440.62,32.8c-.36,0-.66-.13-.92-.38-.25-.25-.38-.56-.38-.92s.13-.67.38-.92c.26-.25.56-.38.92-.38s.67.13.92.38.38.56.38.92-.13.66-.38.92-.56.38-.92.38ZM439.75,43.6v-8.79h1.86v8.79h-1.86ZM441.43,43.6v-1.63h3.04v1.63h-3.04Z"/>
    <path class="cls-1" d="M450.61,43.77c-1.29,0-2.29-.42-3.01-1.27s-1.07-2.03-1.07-3.57.36-2.73,1.07-3.57,1.72-1.26,3.01-1.26,2.3.42,3.01,1.26c.71.84,1.07,2.03,1.07,3.57s-.36,2.72-1.07,3.57c-.71.84-1.71,1.27-3.01,1.27ZM450.61,42.1c.69,0,1.21-.28,1.59-.83s.56-1.33.56-2.34-.19-1.79-.56-2.34-.9-.82-1.59-.82-1.21.27-1.59.82c-.37.55-.56,1.33-.56,2.34s.19,1.79.56,2.34c.37.55.9.83,1.59.83ZM449.72,32.63l1.49-3.34h1.86l-1.67,3.34h-1.69Z"/>
    <path class="cls-1" d="M457.36,43.6v-9.32h1.69l.18,1.97v7.35h-1.86ZM463.09,43.6v-6.06c0-.56-.15-1-.44-1.3s-.7-.46-1.23-.46c-1.46,0-2.2.86-2.2,2.58l-.54-2.39h.72c.05-.63.28-1.09.69-1.4s1-.46,1.78-.46c.98,0,1.75.3,2.29.9s.81,1.44.81,2.53v6.06h-1.86Z"/>
    <path class="cls-1" d="M478.45,47.64v-13.36h1.69l.18,1.97v11.39h-1.86ZM482.96,43.77c-.71,0-1.29-.16-1.73-.49s-.68-.79-.74-1.37h-.81l.63-2.65c0,.96.19,1.69.57,2.19.38.5.93.75,1.67.75s1.32-.27,1.71-.8.58-1.32.58-2.36c0-1.1-.19-1.93-.58-2.5s-.96-.84-1.71-.84-1.29.25-1.67.75c-.38.5-.57,1.23-.57,2.19l-.63-2.65h.72c.08-.59.35-1.04.79-1.37.45-.33,1.04-.49,1.76-.49,1.22,0,2.15.42,2.78,1.25s.94,2.06.94,3.67-.31,2.74-.94,3.54-1.55,1.2-2.78,1.2Z"/>
    <path class="cls-1" d="M491.43,43.77c-.97,0-1.73-.23-2.26-.7s-.8-1.13-.8-1.99c0-.98.37-1.74,1.1-2.27.73-.53,1.77-.79,3.12-.79.56,0,1.05.03,1.49.1.44.07.82.17,1.16.3l-.39,1.27c-.39-.09-.78-.14-1.15-.15s-.76-.02-1.15-.02c-1.62,0-2.43.49-2.43,1.48,0,.41.14.73.42.95.28.22.67.33,1.18.33.58,0,1.06-.1,1.46-.3.39-.2.68-.45.87-.76s.29-.63.29-.96v-1.02l.54,2.39h-.74l.3-.28c0,.54-.12.99-.37,1.35-.25.36-.6.63-1.05.81s-.98.27-1.6.27ZM494.71,43.68l-.12-2.76-.25-.77v-2.41c0-.62-.22-1.08-.65-1.37-.44-.29-1.09-.45-1.95-.47l-2.23-.06.18-1.65,1.88.03c1.54.02,2.69.36,3.43,1,.75.64,1.12,1.58,1.12,2.81v3.88l1.58.19v1.49l-2.99.09Z"/>
    <path class="cls-1" d="M498.77,43.6v-1.63h6.22v1.63h-6.22ZM499.13,35.91v-1.63h3.11l.18,1.63h-3.29ZM500.85,43.6v-9.32h1.51l.35,2.67v6.64h-1.86ZM502.71,39.59l-.54-2.92h.72c.11-1.71.96-2.57,2.57-2.57.96,0,1.66.28,2.09.83s.65,1.44.65,2.67h-1.85c0-.68-.1-1.17-.3-1.47-.2-.3-.53-.45-.98-.45-.79,0-1.38.34-1.77,1.02s-.58,1.64-.58,2.89Z"/>
    <path class="cls-1" d="M512.52,43.77c-.97,0-1.73-.23-2.26-.7s-.8-1.13-.8-1.99c0-.98.37-1.74,1.1-2.27.73-.53,1.77-.79,3.12-.79.56,0,1.05.03,1.49.1.44.07.82.17,1.16.3l-.39,1.27c-.39-.09-.78-.14-1.15-.15s-.76-.02-1.15-.02c-1.62,0-2.43.49-2.43,1.48,0,.41.14.73.42.95.28.22.67.33,1.18.33.58,0,1.06-.1,1.46-.3.39-.2.68-.45.87-.76s.29-.63.29-.96v-1.02l.54,2.39h-.74l.3-.28c0,.54-.12.99-.37,1.35-.25.36-.6.63-1.05.81s-.98.27-1.6.27ZM515.81,43.68l-.12-2.76-.25-.77v-2.41c0-.62-.22-1.08-.65-1.37-.44-.29-1.09-.45-1.95-.47l-2.23-.06.18-1.65,1.88.03c1.54.02,2.69.36,3.43,1,.75.64,1.12,1.58,1.12,2.81v3.88l1.58.19v1.49l-2.99.09Z"/>
    <path class="cls-1" d="M530.31,37.97v-1.63h8.61v1.63h-8.61ZM533.25,43.6v-8.53c0-3.22,1.47-4.83,4.41-4.83.67,0,1.31.06,1.93.18l-.19,1.62c-.37-.05-.69-.08-.98-.1s-.55-.03-.82-.03c-1.66,0-2.5,1.03-2.5,3.08v8.61h-1.86Z"/>
    <path class="cls-1" d="M545.53,43.77c-1.29,0-2.29-.42-3.01-1.27s-1.07-2.03-1.07-3.57.36-2.73,1.07-3.57,1.72-1.26,3.01-1.26,2.3.42,3.01,1.26c.71.84,1.07,2.03,1.07,3.57s-.36,2.72-1.07,3.57c-.71.84-1.71,1.27-3.01,1.27ZM545.53,42.1c.69,0,1.21-.28,1.59-.83s.56-1.33.56-2.34-.19-1.79-.56-2.34-.9-.82-1.59-.82-1.21.27-1.59.82c-.37.55-.56,1.33-.56,2.34s.19,1.79.56,2.34c.37.55.9.83,1.59.83Z"/>
    <path class="cls-1" d="M551.51,43.6v-1.63h6.22v1.63h-6.22ZM551.86,35.91v-1.63h3.11l.18,1.63h-3.29ZM553.58,43.6v-9.32h1.51l.35,2.67v6.64h-1.86ZM555.45,39.59l-.54-2.92h.72c.11-1.71.96-2.57,2.57-2.57.96,0,1.66.28,2.09.83s.65,1.44.65,2.67h-1.85c0-.68-.1-1.17-.3-1.47-.2-.3-.53-.45-.98-.45-.79,0-1.38.34-1.77,1.02s-.58,1.64-.58,2.89Z"/>
    <path class="cls-1" d="M561.97,35.91v-1.63h8.44v1.63h-8.44ZM564.31,39.2v-7.73h1.86v7.73h-1.86ZM568.31,43.77c-1.41,0-2.43-.29-3.06-.88-.63-.59-.95-1.52-.95-2.81v-1.58h1.86v1.49c0,.74.18,1.27.54,1.61.36.33.95.5,1.78.5.29,0,.6-.02.93-.05s.7-.07,1.12-.13l.21,1.63c-.41.07-.81.12-1.2.16-.39.04-.8.05-1.24.05Z"/>
    <path class="cls-1" d="M575.8,43.77c-.97,0-1.73-.23-2.26-.7s-.8-1.13-.8-1.99c0-.98.37-1.74,1.1-2.27.73-.53,1.77-.79,3.12-.79.56,0,1.05.03,1.49.1.44.07.82.17,1.16.3l-.39,1.27c-.39-.09-.78-.14-1.15-.15s-.76-.02-1.15-.02c-1.62,0-2.43.49-2.43,1.48,0,.41.14.73.42.95.28.22.67.33,1.18.33.58,0,1.06-.1,1.46-.3.39-.2.68-.45.87-.76s.29-.63.29-.96v-1.02l.54,2.39h-.74l.3-.28c0,.54-.12.99-.37,1.35-.25.36-.6.63-1.05.81s-.98.27-1.6.27ZM579.09,43.68l-.12-2.76-.25-.77v-2.41c0-.62-.22-1.08-.65-1.37-.44-.29-1.09-.45-1.95-.47l-2.23-.06.18-1.65,1.88.03c1.54.02,2.69.36,3.43,1,.75.64,1.12,1.58,1.12,2.81v3.88l1.58.19v1.49l-2.99.09Z"/>
    <path class="cls-1" d="M583.31,32.05v-1.63h2.9v1.63h-2.9ZM589.11,43.77c-1.08,0-1.86-.29-2.34-.88s-.72-1.52-.72-2.81v-9.67h1.86v9.58c0,.49.05.89.14,1.2s.28.54.55.69c.27.15.68.22,1.21.22.49,0,1.11-.11,1.86-.33l.21,1.63c-.47.13-.93.22-1.37.28s-.91.09-1.41.09Z"/>
    <path class="cls-1" d="M599.08,43.77c-1.59,0-2.81-.42-3.68-1.25-.87-.83-1.3-2.03-1.3-3.6s.37-2.71,1.1-3.55,1.77-1.27,3.1-1.27c1.26,0,2.23.38,2.92,1.14s1.03,1.87,1.03,3.32c0,.43-.02.83-.05,1.2h-6.54v-1.42h4.9c0-.84-.2-1.48-.6-1.93s-.95-.67-1.65-.67c-.79,0-1.41.27-1.84.81s-.65,1.3-.65,2.29c0,1.08.3,1.9.9,2.46s1.46.84,2.56.84c.39,0,.77-.02,1.14-.07s.76-.1,1.14-.18l.23,1.63c-.55.11-1.05.17-1.51.2s-.86.04-1.21.04Z"/>
    <path class="cls-1" d="M609.71,43.77c-1.59,0-2.81-.42-3.68-1.25-.87-.83-1.3-2.03-1.3-3.6s.41-2.71,1.23-3.55c.82-.84,1.98-1.27,3.5-1.27.91,0,1.69.17,2.33.51.65.34,1.11.81,1.38,1.43l-1.43,1.08c-.26-.43-.6-.76-1.01-.99s-.86-.35-1.34-.35c-.88,0-1.56.27-2.05.8s-.73,1.28-.73,2.26c0,1.06.29,1.87.86,2.43.57.56,1.39.84,2.45.84.43,0,.87-.02,1.3-.06s.86-.1,1.27-.17l.21,1.63c-.48.11-.98.18-1.49.21s-1.01.05-1.5.05Z"/>
    <path class="cls-1" d="M620.17,43.77c-1.59,0-2.81-.42-3.68-1.25-.87-.83-1.3-2.03-1.3-3.6s.37-2.71,1.1-3.55,1.77-1.27,3.1-1.27c1.26,0,2.23.38,2.92,1.14s1.03,1.87,1.03,3.32c0,.43-.02.83-.05,1.2h-6.54v-1.42h4.9c0-.84-.2-1.48-.6-1.93s-.95-.67-1.65-.67c-.79,0-1.41.27-1.84.81s-.65,1.3-.65,2.29c0,1.08.3,1.9.9,2.46s1.46.84,2.56.84c.39,0,.77-.02,1.14-.07s.76-.1,1.14-.18l.23,1.63c-.55.11-1.05.17-1.51.2s-.86.04-1.21.04Z"/>
    <path class="cls-1" d="M625.34,43.6v-1.63h6.22v1.63h-6.22ZM625.69,35.91v-1.63h3.11l.18,1.63h-3.29ZM627.41,43.6v-9.32h1.51l.35,2.67v6.64h-1.86ZM629.27,39.59l-.54-2.92h.72c.11-1.71.96-2.57,2.57-2.57.96,0,1.66.28,2.09.83s.65,1.44.65,2.67h-1.85c0-.68-.1-1.17-.3-1.47-.2-.3-.53-.45-.98-.45-.79,0-1.38.34-1.77,1.02s-.58,1.64-.58,2.89Z"/>
    <path class="cls-1" d="M651.81,43.77c-1.59,0-2.81-.42-3.68-1.25-.87-.83-1.3-2.03-1.3-3.6s.37-2.71,1.1-3.55,1.77-1.27,3.1-1.27c1.26,0,2.23.38,2.92,1.14s1.03,1.87,1.03,3.32c0,.43-.02.83-.05,1.2h-6.54v-1.42h4.9c0-.84-.2-1.48-.6-1.93s-.95-.67-1.65-.67c-.79,0-1.41.27-1.84.81s-.65,1.3-.65,2.29c0,1.08.3,1.9.9,2.46s1.46.84,2.56.84c.39,0,.77-.02,1.14-.07s.76-.1,1.14-.18l.23,1.63c-.55.11-1.05.17-1.51.2s-.86.04-1.21.04Z"/>
    <path class="cls-1" d="M657.14,32.05v-1.63h2.9v1.63h-2.9ZM662.94,43.77c-1.08,0-1.86-.29-2.34-.88s-.72-1.52-.72-2.81v-9.67h1.86v9.58c0,.49.05.89.14,1.2s.28.54.55.69c.27.15.68.22,1.21.22.49,0,1.11-.11,1.86-.33l.21,1.63c-.47.13-.93.22-1.37.28s-.91.09-1.41.09Z"/>
    <path class="cls-1" d="M682.21,43.77c-.71,0-1.37-.06-1.99-.17s-1.19-.29-1.72-.51l.23-1.78c.64.28,1.27.48,1.87.63.6.14,1.18.22,1.75.22.82,0,1.43-.14,1.83-.43s.6-.72.6-1.31c0-.74-.38-1.29-1.14-1.63l-2.16-.98c-.85-.39-1.5-.85-1.96-1.4s-.68-1.22-.68-2.03c0-1.09.33-1.93.98-2.53s1.58-.9,2.79-.9c.84,0,1.58.12,2.22.37s1.27.65,1.86,1.2l-1.23,1.25c-.52-.42-1-.73-1.45-.92-.45-.19-.92-.29-1.4-.29-.6,0-1.07.15-1.4.44-.33.29-.5.72-.5,1.29,0,.4.11.73.33.99s.54.48.96.68l1.83.86c.93.43,1.63.92,2.11,1.47s.72,1.25.72,2.1c0,1.13-.37,1.98-1.1,2.54-.74.57-1.85.85-3.34.85Z"/>
    <path class="cls-1" d="M689.32,43.6v-1.63h3.73v1.63h-3.73ZM689.85,35.91v-1.63h4.89v1.63h-4.89ZM693.74,32.8c-.36,0-.66-.13-.92-.38-.25-.25-.38-.56-.38-.92s.13-.67.38-.92c.26-.25.56-.38.92-.38s.67.13.92.38.38.56.38.92-.13.66-.38.92-.56.38-.92.38ZM692.87,43.6v-8.79h1.86v8.79h-1.86ZM694.56,43.6v-1.63h3.04v1.63h-3.04Z"/>
    <path class="cls-1" d="M703.01,43.77c-.7,0-1.3-.02-1.81-.06-.5-.04-.96-.11-1.38-.2l.21-1.69c.62.09,1.16.16,1.63.21.47.05.92.07,1.34.07.94,0,1.63-.09,2.05-.28.42-.18.64-.48.64-.88,0-.28-.07-.49-.22-.63-.15-.14-.38-.24-.69-.32l-2.14-.54c-.92-.23-1.6-.52-2.03-.87-.43-.35-.65-.87-.65-1.57,0-1.02.39-1.76,1.17-2.21.78-.46,2.04-.69,3.78-.69.45,0,.87.01,1.26.04.39.03.79.07,1.2.14l-.19,1.62c-.47-.05-.89-.08-1.26-.1s-.72-.03-1.06-.03c-1.04,0-1.8.09-2.27.27s-.7.47-.7.87c0,.27.1.46.29.58s.49.23.89.33l1.72.42c.98.23,1.69.55,2.15.94s.68.96.68,1.71c0,1-.37,1.73-1.1,2.18s-1.91.68-3.52.68Z"/>
    <path class="cls-1" d="M709.62,35.91v-1.63h8.44v1.63h-8.44ZM711.96,39.2v-7.73h1.86v7.73h-1.86ZM715.97,43.77c-1.41,0-2.43-.29-3.06-.88-.63-.59-.95-1.52-.95-2.81v-1.58h1.86v1.49c0,.74.18,1.27.54,1.61.36.33.95.5,1.78.5.29,0,.6-.02.93-.05s.7-.07,1.12-.13l.21,1.63c-.41.07-.81.12-1.2.16-.39.04-.8.05-1.24.05Z"/>
    <path class="cls-1" d="M725.64,43.77c-1.59,0-2.81-.42-3.68-1.25-.87-.83-1.3-2.03-1.3-3.6s.37-2.71,1.1-3.55,1.77-1.27,3.1-1.27c1.26,0,2.23.38,2.92,1.14s1.03,1.87,1.03,3.32c0,.43-.02.83-.05,1.2h-6.54v-1.42h4.9c0-.84-.2-1.48-.6-1.93s-.95-.67-1.65-.67c-.79,0-1.41.27-1.84.81s-.65,1.3-.65,2.29c0,1.08.3,1.9.9,2.46s1.46.84,2.56.84c.39,0,.77-.02,1.14-.07s.76-.1,1.14-.18l.23,1.63c-.55.11-1.05.17-1.51.2s-.86.04-1.21.04Z"/>
    <path class="cls-1" d="M731.09,43.6v-9.32h1.65l.21,1.97v7.35h-1.86ZM734.59,43.6v-7.29c0-.53-.25-.79-.74-.79-.6,0-.9.42-.9,1.27l-.54-1.34h.6c.07-.89.6-1.34,1.6-1.34.49,0,.87.17,1.15.5s.42.84.42,1.52v7.47h-1.58ZM737.8,43.6v-7.12c0-.64-.24-.97-.72-.97-.61,0-.91.42-.91,1.27l-.63-1.34h.72c.03-.36.17-.68.44-.94.26-.26.64-.4,1.13-.4.64,0,1.11.17,1.41.52s.44.91.44,1.68v7.29h-1.86Z"/>
    <path class="cls-1" d="M744.55,43.77c-.97,0-1.73-.23-2.26-.7s-.8-1.13-.8-1.99c0-.98.37-1.74,1.1-2.27.73-.53,1.77-.79,3.12-.79.56,0,1.05.03,1.49.1.44.07.82.17,1.16.3l-.39,1.27c-.39-.09-.78-.14-1.15-.15s-.76-.02-1.15-.02c-1.62,0-2.43.49-2.43,1.48,0,.41.14.73.42.95.28.22.67.33,1.18.33.58,0,1.06-.1,1.46-.3.39-.2.68-.45.87-.76s.29-.63.29-.96v-1.02l.54,2.39h-.74l.3-.28c0,.54-.12.99-.37,1.35-.25.36-.6.63-1.05.81s-.98.27-1.6.27ZM747.84,43.68l-.12-2.76-.25-.77v-2.41c0-.62-.22-1.08-.65-1.37-.44-.29-1.09-.45-1.95-.47l-2.23-.06.18-1.65,1.88.03c1.54.02,2.69.36,3.43,1,.75.64,1.12,1.58,1.12,2.81v3.88l1.58.19v1.49l-2.99.09Z"/>
  </g>
  <g>
    <path d="M249.17,62.05v37.95h-9.47v-2.26c-.91.94-1.86,1.64-2.86,2.11s-2.05.7-3.14.7c-1.47,0-2.74-.39-3.82-1.16s-1.77-1.67-2.07-2.68-.46-2.67-.46-4.97v-14.55c0-2.39.15-4.09.46-5.09s1-1.88,2.1-2.64,2.4-1.14,3.91-1.14c1.17,0,2.25.21,3.22.63.98.42,1.86,1.06,2.66,1.9v-8.82h9.47ZM239.7,76.72c0-1.14-.1-1.91-.29-2.3s-.58-.59-1.16-.59-.94.18-1.14.53-.29,1.14-.29,2.36v15.23c0,1.27.09,2.1.28,2.5s.55.6,1.08.6c.61,0,1.02-.22,1.22-.67s.3-1.54.3-3.27v-14.39Z"/>
    <path d="M274.01,84.99h-12.26v6.73c0,1.41.1,2.31.3,2.72s.59.61,1.17.61c.72,0,1.2-.27,1.44-.81s.36-1.58.36-3.13v-4.1h8.98v2.3c0,1.92-.12,3.4-.36,4.43s-.81,2.13-1.7,3.3-2.02,2.05-3.39,2.64-3.08.88-5.14.88-3.77-.29-5.3-.87-2.72-1.37-3.57-2.38-1.44-2.12-1.77-3.33-.49-2.97-.49-5.29v-9.07c0-2.72.37-4.86,1.1-6.43s1.94-2.77,3.61-3.61,3.59-1.25,5.77-1.25c2.66,0,4.85.5,6.57,1.51s2.94,2.34,3.63,4.01,1.04,4,1.04,7.02v4.12ZM264.52,79.93v-2.27c0-1.61-.09-2.65-.26-3.12s-.52-.7-1.05-.7c-.66,0-1.06.2-1.22.6s-.23,1.47-.23,3.22v2.27h2.77Z"/>
    <path d="M304.9,78.83h-8.39v-1.69c0-1.44-.08-2.35-.25-2.73s-.57-.57-1.23-.57c-.53,0-.93.18-1.2.53s-.4.88-.4,1.58c0,.95.07,1.65.2,2.1s.53.93,1.2,1.46,2.03,1.3,4.09,2.32c2.75,1.34,4.55,2.61,5.41,3.8s1.29,2.91,1.29,5.18c0,2.53-.33,4.44-.98,5.73s-1.75,2.28-3.29,2.98-3.39,1.04-5.57,1.04c-2.41,0-4.46-.38-6.18-1.12s-2.89-1.77-3.53-3.05-.96-3.22-.96-5.81v-1.5h8.39v1.97c0,1.67.11,2.76.32,3.26s.63.75,1.25.75c.67,0,1.14-.17,1.41-.5s.4-1.04.4-2.12c0-1.48-.17-2.41-.52-2.79-.36-.38-2.2-1.48-5.51-3.33-2.78-1.56-4.48-2.98-5.09-4.25s-.91-2.79-.91-4.54c0-2.48.33-4.32.98-5.5s1.77-2.09,3.34-2.73,3.39-.96,5.47-.96,3.82.26,5.26.79,2.55,1.21,3.33,2.07,1.24,1.66,1.41,2.39.25,1.88.25,3.45v1.8Z"/>
    <path d="M329.84,68.89v31.1h-9.63l.16-2.58c-.66,1.05-1.46,1.84-2.43,2.36-.96.52-2.07.79-3.32.79-1.42,0-2.6-.25-3.54-.75s-1.63-1.16-2.07-1.99-.72-1.69-.83-2.59-.16-2.68-.16-5.36v-20.98h9.47v21.16c0,2.42.07,3.86.22,4.31s.55.68,1.21.68c.7,0,1.12-.23,1.25-.7s.2-1.98.2-4.52v-20.93h9.47Z"/>
    <path d="M342.87,68.89l-.16,2.75c.84-1.11,1.77-1.94,2.79-2.49s2.12-.82,3.33-.82c1.47,0,2.74.39,3.81,1.18s1.74,1.7,2,2.73.4,2.78.4,5.25v13.1c0,2.83-.17,4.84-.5,6.04s-1.02,2.15-2.06,2.86-2.29,1.07-3.76,1.07c-1.17,0-2.26-.27-3.26-.82-1-.55-1.91-1.36-2.74-2.44v7.13h-9.47v-35.53h9.63ZM345.56,77.94c0-1.92-.07-3.09-.21-3.49s-.53-.61-1.17-.61-1.03.23-1.21.7-.27,1.6-.27,3.4v12.89c0,1.88.09,3.05.28,3.52s.59.7,1.22.7.99-.21,1.14-.64.22-1.47.22-3.13v-13.34Z"/>
    <path d="M379.59,84.99h-12.26v6.73c0,1.41.1,2.31.3,2.72s.59.61,1.17.61c.72,0,1.2-.27,1.44-.81s.36-1.58.36-3.13v-4.1h8.98v2.3c0,1.92-.12,3.4-.36,4.43s-.81,2.13-1.7,3.3-2.02,2.05-3.39,2.64-3.08.88-5.14.88-3.77-.29-5.3-.87-2.72-1.37-3.57-2.38-1.44-2.12-1.77-3.33-.49-2.97-.49-5.29v-9.07c0-2.72.37-4.86,1.1-6.43s1.94-2.77,3.61-3.61,3.59-1.25,5.77-1.25c2.66,0,4.85.5,6.57,1.51s2.94,2.34,3.63,4.01,1.04,4,1.04,7.02v4.12ZM370.1,79.93v-2.27c0-1.61-.09-2.65-.26-3.12s-.52-.7-1.05-.7c-.66,0-1.06.2-1.22.6s-.23,1.47-.23,3.22v2.27h2.77Z"/>
    <path d="M392.16,68.89l-.38,4.09c1.38-2.93,3.37-4.48,5.98-4.65v10.95c-1.73,0-3.01.23-3.82.7s-1.31,1.12-1.5,1.96-.28,2.76-.28,5.78v12.28h-9.47v-31.1h9.47Z"/>
    <path d="M420.33,68.89l-4.43,31.1h-12.38l-4.76-31.1h8.46l2.67,22.71c.21-1.67.56-5.74,1.07-12.21.27-3.61.58-7.11.92-10.5h8.46Z"/>
    <path d="M431.46,62.05v4.95h-9.75v-4.95h9.75ZM431.46,68.89v31.1h-9.75v-31.1h9.75Z"/>
    <path d="M454.2,78.83h-8.39v-1.69c0-1.44-.08-2.35-.25-2.73s-.57-.57-1.23-.57c-.53,0-.93.18-1.2.53s-.4.88-.4,1.58c0,.95.07,1.65.2,2.1s.53.93,1.2,1.46,2.03,1.3,4.09,2.32c2.75,1.34,4.55,2.61,5.41,3.8s1.29,2.91,1.29,5.18c0,2.53-.33,4.44-.98,5.73s-1.75,2.28-3.29,2.98-3.39,1.04-5.57,1.04c-2.41,0-4.46-.38-6.18-1.12s-2.89-1.77-3.53-3.05-.96-3.22-.96-5.81v-1.5h8.39v1.97c0,1.67.11,2.76.32,3.26s.63.75,1.25.75c.67,0,1.14-.17,1.41-.5s.4-1.04.4-2.12c0-1.48-.17-2.41-.52-2.79-.36-.38-2.2-1.48-5.51-3.33-2.78-1.56-4.48-2.98-5.09-4.25s-.91-2.79-.91-4.54c0-2.48.33-4.32.98-5.5s1.77-2.09,3.34-2.73,3.39-.96,5.47-.96,3.82.26,5.26.79,2.55,1.21,3.33,2.07,1.24,1.66,1.41,2.39.25,1.88.25,3.45v1.8Z"/>
    <path d="M467.2,62.05v4.95h-9.75v-4.95h9.75ZM467.2,68.89v31.1h-9.75v-31.1h9.75Z"/>
    <path d="M492.02,79.81v7.62c0,2.8-.14,4.85-.42,6.15s-.88,2.52-1.8,3.66-2.11,1.97-3.55,2.51-3.11.81-4.98.81c-2.09,0-3.87-.23-5.32-.69s-2.58-1.16-3.39-2.09-1.38-2.05-1.72-3.38-.52-3.3-.52-5.94v-7.97c0-2.89.31-5.15.94-6.77s1.75-2.93,3.38-3.91,3.7-1.48,6.23-1.48c2.12,0,3.95.32,5.47.95s2.7,1.46,3.53,2.47,1.39,2.06,1.7,3.14.46,2.72.46,4.92ZM489.21,60.45l-7.71,6.35h-4.76l4.12-6.35h8.34ZM482.56,77.47c0-1.59-.09-2.6-.26-3.01s-.54-.62-1.1-.62-.94.21-1.12.62-.28,1.42-.28,3.01v14.04c0,1.47.09,2.43.28,2.87s.55.67,1.1.67.93-.2,1.11-.61.27-1.28.27-2.62v-14.34Z"/>
    <path d="M504.77,68.89l-.16,2.87c.69-1.14,1.53-2,2.52-2.57s2.14-.86,3.43-.86c1.62,0,2.95.38,3.98,1.15s1.7,1.73,1.99,2.89.45,3.11.45,5.82v21.8h-9.47v-21.54c0-2.14-.07-3.45-.21-3.91s-.53-.7-1.17-.7-1.09.27-1.27.81-.26,1.98-.26,4.32v21.02h-9.47v-31.1h9.63Z"/>
    <path d="M537.17,80.94h-8.88v-2.09c0-2.41.28-4.26.83-5.57s1.67-2.46,3.34-3.46,3.84-1.5,6.52-1.5c3.2,0,5.62.57,7.24,1.7s2.6,2.52,2.93,4.17.49,5.04.49,10.18v15.61h-9.21v-2.77c-.58,1.11-1.32,1.94-2.24,2.5-.91.56-2,.83-3.27.83-1.66,0-3.18-.46-4.56-1.39s-2.07-2.96-2.07-6.11v-2.55c0-2.33.37-3.91,1.1-4.76s2.55-1.83,5.46-2.95c3.11-1.22,4.77-2.04,4.99-2.46s.33-1.28.33-2.58c0-1.62-.12-2.68-.36-3.18s-.64-.74-1.21-.74c-.64,0-1.04.21-1.2.62s-.23,1.49-.23,3.22v3.26ZM540.17,85.2c-1.52,1.11-2.39,2.04-2.64,2.79s-.36,1.83-.36,3.23c0,1.61.11,2.65.32,3.12s.63.7,1.25.7.98-.18,1.16-.55.27-1.33.27-2.89v-6.4Z"/>
    <path d="M571.1,62.05v37.95h-9.75v-37.95h9.75Z"/>
    <path d="M582.96,80.94h-8.88v-2.09c0-2.41.28-4.26.83-5.57s1.67-2.46,3.34-3.46,3.84-1.5,6.52-1.5c3.2,0,5.62.57,7.24,1.7s2.6,2.52,2.93,4.17.49,5.04.49,10.18v15.61h-9.21v-2.77c-.58,1.11-1.32,1.94-2.24,2.5-.91.56-2,.83-3.27.83-1.66,0-3.18-.46-4.56-1.39s-2.07-2.96-2.07-6.11v-2.55c0-2.33.37-3.91,1.1-4.76s2.55-1.83,5.46-2.95c3.11-1.22,4.77-2.04,4.99-2.46s.33-1.28.33-2.58c0-1.62-.12-2.68-.36-3.18s-.64-.74-1.21-.74c-.64,0-1.04.21-1.2.62s-.23,1.49-.23,3.22v3.26ZM585.96,85.2c-1.52,1.11-2.39,2.04-2.64,2.79s-.36,1.83-.36,3.23c0,1.61.11,2.65.32,3.12s.63.7,1.25.7.98-.18,1.16-.55.27-1.33.27-2.89v-6.4Z"/>
    <path d="M618.02,78.83h-8.39v-1.69c0-1.44-.08-2.35-.25-2.73s-.57-.57-1.23-.57c-.53,0-.93.18-1.2.53s-.4.88-.4,1.58c0,.95.07,1.65.2,2.1s.53.93,1.2,1.46,2.03,1.3,4.09,2.32c2.75,1.34,4.55,2.61,5.41,3.8s1.29,2.91,1.29,5.18c0,2.53-.33,4.44-.98,5.73s-1.75,2.28-3.29,2.98-3.39,1.04-5.57,1.04c-2.41,0-4.46-.38-6.18-1.12s-2.89-1.77-3.53-3.05-.96-3.22-.96-5.81v-1.5h8.39v1.97c0,1.67.11,2.76.32,3.26s.63.75,1.25.75c.67,0,1.14-.17,1.41-.5s.4-1.04.4-2.12c0-1.48-.17-2.41-.52-2.79-.36-.38-2.2-1.48-5.51-3.33-2.78-1.56-4.48-2.98-5.09-4.25s-.91-2.79-.91-4.54c0-2.48.33-4.32.98-5.5s1.77-2.09,3.34-2.73,3.39-.96,5.47-.96,3.82.26,5.26.79,2.55,1.21,3.33,2.07,1.24,1.66,1.41,2.39.25,1.88.25,3.45v1.8Z"/>
    <path d="M647.08,62.05l5.64,37.95h-10.08l-.53-6.82h-3.53l-.59,6.82h-10.2l5.03-37.95h14.26ZM641.85,86.45c-.5-4.3-1-9.61-1.5-15.94-1,7.27-1.64,12.58-1.89,15.94h3.4Z"/>
    <path d="M666.19,62.05v4.8c-1.95,0-3.11.09-3.46.27s-.53.69-.53,1.54v.98h3.98v4.92h-2.25v25.43h-9.47v-25.43h-1.95v-4.92h1.95c0-2.05.07-3.41.21-4.1s.49-1.3,1.04-1.84,1.33-.95,2.33-1.23,2.55-.42,4.66-.42h3.47Z"/>
    <path d="M689.42,79.81v7.62c0,2.8-.14,4.85-.42,6.15s-.88,2.52-1.8,3.66-2.11,1.97-3.55,2.51-3.11.81-4.98.81c-2.09,0-3.87-.23-5.32-.69s-2.58-1.16-3.39-2.09-1.38-2.05-1.72-3.38-.52-3.3-.52-5.94v-7.97c0-2.89.31-5.15.94-6.77s1.75-2.93,3.38-3.91,3.7-1.48,6.23-1.48c2.12,0,3.95.32,5.47.95s2.7,1.46,3.53,2.47,1.39,2.06,1.7,3.14.46,2.72.46,4.92ZM679.95,77.47c0-1.59-.09-2.6-.26-3.01s-.54-.62-1.1-.62-.94.21-1.12.62-.28,1.42-.28,3.01v14.04c0,1.47.09,2.43.28,2.87s.55.67,1.1.67.93-.2,1.11-.61.27-1.28.27-2.62v-14.34Z"/>
    <path d="M702,68.89l-.38,4.09c1.38-2.93,3.37-4.48,5.98-4.65v10.95c-1.73,0-3.01.23-3.82.7s-1.31,1.12-1.5,1.96-.28,2.76-.28,5.78v12.28h-9.47v-31.1h9.47Z"/>
    <path d="M731.16,84.99h-12.26v6.73c0,1.41.1,2.31.3,2.72s.59.61,1.17.61c.72,0,1.2-.27,1.44-.81s.36-1.58.36-3.13v-4.1h8.98v2.3c0,1.92-.12,3.4-.36,4.43s-.81,2.13-1.7,3.3-2.02,2.05-3.39,2.64-3.08.88-5.14.88-3.77-.29-5.3-.87-2.72-1.37-3.57-2.38-1.44-2.12-1.77-3.33-.49-2.97-.49-5.29v-9.07c0-2.72.37-4.86,1.1-6.43s1.94-2.77,3.61-3.61,3.59-1.25,5.77-1.25c2.66,0,4.85.5,6.57,1.51s2.94,2.34,3.63,4.01,1.04,4,1.04,7.02v4.12ZM721.67,79.93v-2.27c0-1.61-.09-2.65-.26-3.12s-.52-.7-1.05-.7c-.66,0-1.06.2-1.22.6s-.23,1.47-.23,3.22v2.27h2.77Z"/>
    <path d="M753.59,78.83h-8.39v-1.69c0-1.44-.08-2.35-.25-2.73s-.57-.57-1.23-.57c-.53,0-.93.18-1.2.53s-.4.88-.4,1.58c0,.95.07,1.65.2,2.1s.53.93,1.2,1.46,2.03,1.3,4.09,2.32c2.75,1.34,4.55,2.61,5.41,3.8s1.29,2.91,1.29,5.18c0,2.53-.33,4.44-.98,5.73s-1.75,2.28-3.29,2.98-3.39,1.04-5.57,1.04c-2.41,0-4.46-.38-6.18-1.12s-2.89-1.77-3.53-3.05-.96-3.22-.96-5.81v-1.5h8.39v1.97c0,1.67.11,2.76.32,3.26s.63.75,1.25.75c.67,0,1.14-.17,1.41-.5s.4-1.04.4-2.12c0-1.48-.17-2.41-.52-2.79-.36-.38-2.2-1.48-5.51-3.33-2.78-1.56-4.48-2.98-5.09-4.25s-.91-2.79-.91-4.54c0-2.48.33-4.32.98-5.5s1.77-2.09,3.34-2.73,3.39-.96,5.47-.96,3.82.26,5.26.79,2.55,1.21,3.33,2.07,1.24,1.66,1.41,2.39.25,1.88.25,3.45v1.8Z"/>
  </g>
  <g>
    <path d="M157.55,23.57c0,.81-.47,1.21-1.42,1.21h-.86c-1.86-.2-3.37-.3-4.55-.3-8.7,0-18.96,3.79-30.76,11.38-5.67,3.68-10.47,7.4-14.42,11.18-3.81,3.71-10.96,11.52-21.45,23.42-12.38,14.1-21.7,23.42-27.98,27.98-3.31,2.43-5.13,3.64-5.46,3.64-.2,0-.3-.09-.3-.28,0-.03.37-.56,1.11-1.57,5.97-7.73,11.09-16.89,15.35-27.48,4.27-10.59,6.4-19.43,6.4-26.52,0-11.4-4.62-17.11-13.86-17.11-3.64,0-7.84,1.25-12.6,3.74-4.76,2.5-9.09,5.73-13,9.71-4.25,4.35-7.65,9.2-10.19,14.55-2.55,5.35-3.82,10.35-3.82,15,0,4.18,1.13,7.49,3.39,9.92,2.26,2.43,5.31,3.64,9.16,3.64,7.49,0,14.77-4.79,21.86-14.37,5.06-6.85,7.59-12.97,7.59-18.37,0-2.43-.6-4.36-1.8-5.79-1.2-1.43-2.81-2.15-4.83-2.15-1.15,0-2.29.26-3.42.78-1.13.52-1.7,1.05-1.7,1.59,0,.2.12.3.35.3h.4c.94-.13,1.47-.2,1.57-.2,1.52,0,2.28.83,2.28,2.48,0,1.05-.41,1.95-1.21,2.71-.81.76-1.75,1.14-2.83,1.14-2.09,0-3.14-1.08-3.14-3.24,0-1.75.76-3.28,2.28-4.58,1.52-1.3,3.32-1.95,5.41-1.95,2.26,0,4.08.8,5.46,2.4,1.38,1.6,2.07,3.7,2.07,6.3,0,6.61-3.27,13.86-9.81,21.75-6.67,8.03-13.55,12.04-20.62,12.04-4.46,0-8.1-1.55-10.92-4.65-2.82-3.1-4.23-7.12-4.23-12.04,0-9.38,4.71-18.64,14.12-27.8s18.92-13.74,28.5-13.74c5.69,0,10.31,1.98,13.84,5.95,3.54,3.96,5.3,9.17,5.3,15.61,0,6.88-1.94,14.12-5.82,21.71-3.88,7.59-10.14,16.42-18.77,26.47-.34.4-.51.64-.51.71l.1.15c.57,0,2.68-1.57,6.32-4.71,2.8-2.36,5.7-5.18,8.7-8.45,2.7-2.94,9.82-10.97,21.35-24.09,6.81-7.76,12.82-13.88,18.01-18.35,5.19-4.47,11.01-8.54,17.46-12.22,10.49-6.01,19.73-9.01,27.72-9.01,2.76,0,4.15.49,4.15,1.47Z"/>
    <path d="M105.86,79.7c-.03.1-.2.37-.51.81l-2.18,2.99c-6.35,8.82-11.19,13.22-14.54,13.22-1.59,0-2.91-.56-3.98-1.69-1.06-1.13-1.6-2.54-1.6-4.22,0-1.96,1.16-4.92,3.49-8.9l7.89-13.41c1.04.24,1.87.35,2.48.35.91,0,2.19-.12,3.85-.35l-11.49,18.87c-1.65,2.73-2.48,4.84-2.48,6.32s.79,2.28,2.38,2.28c3.01,0,8.29-5.35,15.86-16.06.17-.34.34-.51.51-.51.2,0,.3.1.3.3ZM105.13,58.78c0,1.18-.5,2.29-1.49,3.31-1,1.03-2.08,1.54-3.26,1.54-1.52,0-2.28-.76-2.28-2.28,0-1.11.52-2.18,1.57-3.21,1.04-1.03,2.14-1.54,3.29-1.54,1.45,0,2.18.73,2.18,2.18Z"/>
    <path d="M123.04,60.07c0,1.35-2.11,4.02-6.32,8.02-.2,1.05-.3,1.96-.3,2.73,0,1.96.89,5.06,2.68,9.31.91,2.12,1.37,3.91,1.37,5.36,0,3.04-1.48,5.67-4.43,7.89s-6.45,3.34-10.5,3.34c-2.29,0-4.12-.65-5.49-1.95-1.37-1.3-2.05-3.04-2.05-5.24,0-2.53.9-4.99,2.71-7.39,1.8-2.39,3.67-3.59,5.59-3.59.34,0,.64.07.91.2l4.05-4.96c1.21-1.45,2.83-3.46,4.86-6.02.57-2.36,1.45-4.38,2.63-6.07,1.18-1.69,2.34-2.53,3.49-2.53.54,0,.81.3.81.89ZM116.01,80.03c0-1.01-.03-2.01-.1-3.01-.07-.99-.1-2.42-.1-4.27,0-1.52.07-2.78.2-3.79-1.89,2.4-4.62,5.77-8.2,10.12.64.54.96,1.2.96,1.97,0,1.99-1.64,3.34-4.91,4.05-1.32.3-2.45,1.02-3.42,2.15-.96,1.13-1.44,2.32-1.44,3.57,0,1.35.49,2.48,1.47,3.39.98.91,2.19,1.37,3.64,1.37,2.83,0,5.52-1.64,8.07-4.93,2.55-3.29,3.82-6.82,3.82-10.6Z"/>
    <path d="M143.46,79.7c-.03.1-.2.37-.51.81l-2.18,2.99c-6.35,8.82-11.2,13.22-14.54,13.22-1.59,0-2.91-.56-3.98-1.69-1.06-1.13-1.59-2.54-1.59-4.22,0-1.96,1.16-4.92,3.49-8.9l7.89-13.41c1.04.24,1.87.35,2.48.35.91,0,2.19-.12,3.84-.35l-11.48,18.87c-1.65,2.73-2.48,4.84-2.48,6.32s.79,2.28,2.38,2.28c3,0,8.29-5.35,15.86-16.06.17-.34.34-.51.51-.51.2,0,.3.1.3.3ZM142.72,58.78c0,1.18-.5,2.29-1.49,3.31-1,1.03-2.08,1.54-3.26,1.54-1.52,0-2.28-.76-2.28-2.28,0-1.11.52-2.18,1.57-3.21,1.05-1.03,2.14-1.54,3.29-1.54,1.45,0,2.18.73,2.18,2.18Z"/>
    <path d="M162.2,68.09l-.4.76h-6.63l-11.28,19.28c-1.38,2.33-2.07,4.18-2.07,5.56,0,1.52.79,2.28,2.38,2.28,3.07,0,8.26-5.35,15.55-16.06.24-.34.44-.51.61-.51.2,0,.3.1.3.3-.03.1-.2.37-.51.81l-2.18,2.99c-6.35,8.82-11.13,13.22-14.33,13.22-1.59,0-2.91-.57-3.98-1.72-1.06-1.15-1.6-2.58-1.6-4.3,0-2.02.89-4.55,2.68-7.59l8.5-14.27h-5.16l.51-.76h5.06l5.92-9.82c1.01.27,1.97.4,2.88.4s1.92-.13,2.93-.4l-5.82,9.82h6.63Z"/>
    <path d="M196.22,79.7c0,.71-2.46,3.99-7.39,9.83-3.99,4.8-7.13,7.2-9.42,7.2-1.55,0-2.82-.58-3.8-1.75-.98-1.16-1.47-2.62-1.47-4.38s.54-3.79,1.62-5.92c-3.37,4.72-5.95,7.91-7.74,9.56-1.79,1.65-3.52,2.48-5.21,2.48-1.79,0-3.29-.77-4.5-2.3-1.21-1.53-1.82-3.47-1.82-5.79,0-6.48,4.57-12.21,13.71-17.2,4.01-2.23,7.25-3.34,9.71-3.34,2.09,0,3.14,1.01,3.14,3.04,0,.57-.14,1.33-.41,2.28l2.58-4.91c1.01.24,1.9.35,2.68.35.91,0,2.09-.12,3.54-.35l-8.96,14.82c-3.1,5.19-4.65,8.62-4.65,10.27s.66,2.38,1.98,2.38,3.51-1.55,6.49-4.64c2.97-3.09,6-6.9,9.07-11.43.2-.34.39-.51.56-.51.2,0,.3.1.3.3ZM182.29,71.33c0-1.65-.76-2.48-2.28-2.48-3.1,0-7.18,3.04-12.22,9.11-5.04,6.07-7.56,10.98-7.56,14.72,0,2.19.98,3.29,2.93,3.29,2.33,0,6.36-3.86,12.09-11.59,4.69-6.34,7.03-10.69,7.03-13.05Z"/>
    <path d="M213.4,60.07c0,1.35-2.11,4.02-6.32,8.02-.2,1.05-.3,1.96-.3,2.73,0,1.96.89,5.06,2.68,9.31.91,2.12,1.37,3.91,1.37,5.36,0,3.04-1.48,5.67-4.43,7.89-2.95,2.23-6.45,3.34-10.5,3.34-2.29,0-4.12-.65-5.49-1.95s-2.05-3.04-2.05-5.24c0-2.53.9-4.99,2.71-7.39,1.8-2.39,3.67-3.59,5.59-3.59.34,0,.64.07.91.2l4.05-4.96c1.21-1.45,2.83-3.46,4.86-6.02.57-2.36,1.45-4.38,2.63-6.07,1.18-1.69,2.34-2.53,3.49-2.53.54,0,.81.3.81.89ZM206.37,80.03c0-1.01-.03-2.01-.1-3.01-.07-.99-.1-2.42-.1-4.27,0-1.52.07-2.78.2-3.79-1.89,2.4-4.62,5.77-8.2,10.12.64.54.96,1.2.96,1.97,0,1.99-1.64,3.34-4.91,4.05-1.32.3-2.45,1.02-3.42,2.15-.96,1.13-1.44,2.32-1.44,3.57,0,1.35.49,2.48,1.47,3.39s2.19,1.37,3.64,1.37c2.83,0,5.52-1.64,8.07-4.93,2.55-3.29,3.82-6.82,3.82-10.6Z"/>
  </g>
</svg>