<?xml version="1.0" encoding="UTF-8"?>
<svg id="Capa_1" data-name="Capa 1" xmlns="http://www.w3.org/2000/svg" xmlns:xlink="http://www.w3.org/1999/xlink" viewBox="0 0 290.04 109.63">
  <defs>
    <style>
      .cls-1 {
        fill: #fff;
      }
    </style>
  </defs>
  <image width="2000" height="2000" transform="translate(-185.09 -43.33) rotate(19.24) scale(.11)" xlink:href="../../renderizacion-3d-icono-amor-mascotas.png"/>
  <g>
    <g>
      <path d="M148.83,30.16c0,1.91-1.91,3.54-5.74,4.89-3.83,1.35-8.44,2.02-13.83,2.02-7.03,0-15.64-1.07-25.84-3.22-4.96,2.34-9.52,5.91-13.68,10.69s-8.68,11.67-13.56,20.65c2.42.39,4.43.7,6.04.94,2.19-5.04,5.31-7.56,9.38-7.56,2.77,0,4.16,1.07,4.16,3.22,0,1.72-.93,3.12-2.78,4.19-1.86,1.07-4.29,1.61-7.29,1.61h-1.17c-.12.16-.61,1.19-1.46,3.11-.98,2.27-2.38,4.19-4.22,5.77-1.84,1.58-3.55,2.37-5.16,2.37-.55,0-.82-.12-.82-.35,0-.2.19-.35.59-.47,2.7-.82,5.43-4.43,8.2-10.84-1.13-.12-2.77-.35-4.92-.7l-1.11-.23c-.55.98-1.35,2.42-2.4,4.34-3.36,6.02-6.08,10.31-8.17,12.89-2.09,2.58-4.91,5.12-8.47,7.62-9.45,6.64-19.22,9.96-29.3,9.96-5.94,0-10.8-1.24-14.59-3.72-3.79-2.48-5.68-5.67-5.68-9.58,0-1.95.58-3.62,1.73-5.01,1.15-1.39,2.53-2.08,4.13-2.08,2.58,0,3.87,1.31,3.87,3.93,0,1.21-.4,2.26-1.2,3.13-.8.88-1.77,1.32-2.9,1.32-1.92,0-2.87-.92-2.87-2.75.12-.94,0-1.41-.35-1.41-.74,0-1.11,1.04-1.11,3.11,0,3.28,1.71,6.08,5.13,8.41,3.42,2.32,7.55,3.49,12.39,3.49,7.62,0,14.47-2.28,20.57-6.83s12.77-12.41,20.04-23.58c.62-.9,1.54-2.29,2.75-4.16h-1.11c-4.38,0-7.4,1.68-9.08,5.04-.2.55-.41.82-.64.82-.31,0-.47-.16-.47-.47,0-1.56,1.1-3.04,3.31-4.42,2.21-1.39,4.54-2.08,7-2.08h1.7c10.23-15.47,20.96-25.7,32.17-30.7-3.01-.66-6.13-1.43-9.38-2.29-10.47-2.73-18.59-4.1-24.38-4.1-1.17,0-2.29.04-3.34.12,1.68,3.24,2.52,6.89,2.52,10.96,0,8.52-3.33,16.54-9.99,24.08-6.66,7.54-13.78,11.31-21.36,11.31-3.2,0-5.8-1.01-7.79-3.02s-2.99-4.64-2.99-7.88c0-7.38,3.84-14.85,11.51-22.41s16.24-12.33,25.69-14.33c-2.97-4.41-7.52-6.62-13.65-6.62-10.04,0-19.12,4.88-27.25,14.65-.67.66-1.04,1-1.11,1-.23,0-.39-.14-.47-.41,0-.7,1.64-2.58,4.92-5.62,7.58-7.03,15.41-10.55,23.5-10.55,7.19,0,12.4,2.44,15.64,7.32,4.14-1.05,8.96-1.58,14.47-1.58,3.48,0,6.68.27,9.61.82s9.98,2.15,21.15,4.8c8.71-3.36,16.88-5.04,24.49-5.04,4.49,0,8.12.5,10.87,1.49s4.13,2.31,4.13,3.96ZM65.27,35.44c0-2.62-.64-5.25-1.93-7.91-8.99,1.13-17.4,5.42-25.25,12.86s-11.78,14.83-11.78,22.18c0,2.73.87,5.06,2.61,6.97,1.74,1.91,3.9,2.87,6.47,2.87,6.8,0,13.48-4.07,20.04-12.22s9.84-16.4,9.84-24.76ZM94.69,61.92c0-1.68-.96-2.52-2.87-2.52-2.54,0-4.71,2.01-6.5,6.04l-.47,1.05h1.46c2.42,0,4.42-.43,6.01-1.29s2.37-1.95,2.37-3.28ZM147.71,30.28c0-1.21-1.28-2.26-3.84-3.13-2.56-.88-5.63-1.32-9.23-1.32-8.52,0-16.33,1.48-23.44,4.45l7.85,1.76c6.56,1.52,12.6,2.29,18.11,2.29,2.81,0,5.27-.41,7.38-1.23s3.16-1.76,3.16-2.81Z"/>
      <path d="M119.68,80.23c0,.12-.35.62-1.06,1.52l-2.52,3.16c-8.09,9.99-15.03,14.98-20.82,14.98-2.74,0-5.03-.99-6.89-2.96-1.86-1.97-2.79-4.44-2.79-7.41,0-7.03,4.9-13.22,14.71-18.57,5.16-2.81,9.35-4.22,12.6-4.22,1.41,0,2.61.42,3.6,1.26s1.49,1.87,1.49,3.08c0,2.81-1.84,5.21-5.51,7.18-3.67,1.97-9.81,3.82-18.4,5.54-2.66,4.02-3.98,7.38-3.98,10.08,0,3.36,1.82,5.04,5.46,5.04,6.18,0,13.74-6.03,22.7-18.08.47-.62.86-.94,1.17-.94.16.04.23.16.23.35ZM114.73,69.36c0-1.25-.68-1.88-2.05-1.88-2.07,0-4.8,1.44-8.17,4.31-3.38,2.87-6.69,6.59-9.93,11.16,5.62-1.45,10.39-3.49,14.3-6.12,3.91-2.64,5.86-5.13,5.86-7.47Z"/>
      <path d="M151.11,39.36l-26.31,41.54c4.1-5.62,7.17-9.39,9.2-11.31,2.03-1.91,3.96-2.87,5.8-2.87,2.19,0,3.97.89,5.36,2.67,1.39,1.78,2.08,4.01,2.08,6.71,0,5.9-3.75,11.7-11.25,17.4-5.59,4.26-10.55,6.39-14.88,6.39-2.03,0-3.68-.77-4.95-2.31-1.27-1.54-1.9-3.54-1.9-6.01,0-2.93,1.88-7.4,5.62-13.42l24.26-38.91c1.05.31,2.19.47,3.4.47.94,0,2.13-.12,3.57-.35ZM142.97,71.53c0-2.62-1.09-3.93-3.28-3.93-2.85,0-7.71,4.71-14.59,14.12-5.16,7.03-7.73,11.76-7.73,14.18,0,2.07,1.02,3.11,3.05,3.11,3.52,0,8.15-3.51,13.92-10.52,5.76-7.01,8.64-12.67,8.64-16.96Z"/>
      <path d="M184.66,80.17c0,.31-1.17,1.74-3.52,4.29-2.97,3.29-5.77,4.94-8.39,4.94-2.97,0-4.46-1.72-4.46-5.16,0-1.09.23-2.48.7-4.16-2.46,2.15-4.46,4.28-6.01,6.39-1.54,2.11-4.21,6.41-8,12.89-2.07-.16-3.28-.23-3.63-.23-.16,0-1.35.08-3.57.23l9.61-15.59c4.8-7.81,7.21-12.66,7.21-14.53,0-1.09-.45-1.64-1.35-1.64-2.19,0-6.17,4.21-11.92,12.63-.35.55-.67.82-.94.82-.16-.04-.23-.16-.23-.35.04-.2.12-.35.23-.47l1.06-1.47c6.03-8.02,10.11-12.04,12.27-12.04,3.13,0,4.7,2.01,4.7,6.04,0,3.01-1.6,6.99-4.8,11.95,2.03-2.34,3.96-4.26,5.8-5.74,1.48-3.48,3.33-6.39,5.54-8.73,2.21-2.34,4.19-3.52,5.95-3.52,1.21,0,1.82.53,1.82,1.58,0,1.88-2.72,4.55-8.14,8.03-.86.55-2.15,1.35-3.87,2.4l-.7.59c-.55,1.8-.82,3.28-.82,4.45,0,3.28,1.23,4.92,3.7,4.92,3.05,0,6.38-2.53,9.98-7.58.78-.86,1.27-1.29,1.47-1.29.23,0,.35.12.35.35Z"/>
      <path d="M214.13,80.23c0,.12-.35.62-1.06,1.52l-2.52,3.16c-8.09,9.99-15.03,14.98-20.82,14.98-2.74,0-5.03-.99-6.89-2.96-1.86-1.97-2.79-4.44-2.79-7.41,0-7.03,4.9-13.22,14.71-18.57,5.16-2.81,9.35-4.22,12.6-4.22,1.41,0,2.61.42,3.6,1.26s1.49,1.87,1.49,3.08c0,2.81-1.84,5.21-5.51,7.18-3.67,1.97-9.81,3.82-18.4,5.54-2.66,4.02-3.98,7.38-3.98,10.08,0,3.36,1.82,5.04,5.46,5.04,6.18,0,13.74-6.03,22.7-18.08.47-.62.86-.94,1.17-.94.16.04.23.16.23.35ZM209.18,69.36c0-1.25-.68-1.88-2.05-1.88-2.07,0-4.8,1.44-8.17,4.31-3.38,2.87-6.69,6.59-9.93,11.16,5.62-1.45,10.39-3.49,14.3-6.12,3.91-2.64,5.86-5.13,5.86-7.47Z"/>
      <path d="M247.53,80.17c0,.31-1.17,1.74-3.52,4.29-2.97,3.29-5.77,4.94-8.39,4.94-2.97,0-4.46-1.72-4.46-5.16,0-1.09.23-2.48.7-4.16-2.46,2.15-4.46,4.28-6.01,6.39-1.54,2.11-4.21,6.41-8,12.89-2.07-.16-3.28-.23-3.63-.23-.16,0-1.35.08-3.57.23l9.61-15.59c4.8-7.81,7.21-12.66,7.21-14.53,0-1.09-.45-1.64-1.35-1.64-2.19,0-6.17,4.21-11.92,12.63-.35.55-.67.82-.94.82-.16-.04-.23-.16-.23-.35.04-.2.12-.35.23-.47l1.06-1.47c6.03-8.02,10.11-12.04,12.27-12.04,3.13,0,4.7,2.01,4.7,6.04,0,3.01-1.6,6.99-4.8,11.95,2.03-2.34,3.96-4.26,5.8-5.74,1.48-3.48,3.33-6.39,5.54-8.73,2.21-2.34,4.19-3.52,5.95-3.52,1.21,0,1.82.53,1.82,1.58,0,1.88-2.72,4.55-8.14,8.03-.86.55-2.15,1.35-3.87,2.4l-.7.59c-.55,1.8-.82,3.28-.82,4.45,0,3.28,1.23,4.92,3.7,4.92,3.05,0,6.38-2.53,9.98-7.58.78-.86,1.27-1.29,1.47-1.29.23,0,.35.12.35.35Z"/>
      <path d="M282.16,80.11c0,.62-1.15,2.08-3.46,4.38-3.44,3.43-6.61,5.14-9.5,5.14-1.21,0-2.29-.23-3.23-.7-5.16,7.3-10.01,10.96-14.54,10.96-2.35,0-4.35-.97-6.01-2.9-1.66-1.93-2.49-4.25-2.49-6.94,0-6.02,3.95-11.82,11.84-17.4,5.55-3.95,10.12-5.92,13.71-5.92,3.36,0,5.04,1.8,5.04,5.39,0,4.49-2.36,9.9-7.09,16.23.78.47,1.66.7,2.64.7,1.76,0,3.81-.82,6.16-2.45,2.35-1.63,4.27-3.6,5.76-5.9.43-.55.75-.82.94-.82.16,0,.23.08.23.23ZM272.64,72.23c0-3.16-1.43-4.75-4.28-4.75-3.55,0-7.89,3.4-13.01,10.2-5.12,6.8-7.68,12.52-7.68,17.17,0,2.7,1.29,4.04,3.87,4.04,4.22,0,8.83-3.48,13.83-10.43-1.13-1.25-1.7-2.54-1.7-3.87,0-1.91.76-3.89,2.29-5.92s3.01-3.05,4.45-3.05c.62,0,1.05.39,1.29,1.17.62-1.37.94-2.89.94-4.57Z"/>
    </g>
    <rect x="195.1" y="11.35" width="87.03" height="40.66" rx="7.65" ry="7.65"/>
    <g>
      <path class="cls-1" d="M219.57,40.29v4.45h-14.33v-3.72c4.25-6.94,6.77-11.23,7.57-12.88.8-1.65,1.2-2.94,1.2-3.86,0-.71-.12-1.24-.36-1.59-.24-.35-.61-.52-1.11-.52s-.86.19-1.11.58-.36,1.15-.36,2.3v2.48h-5.83v-.95c0-1.46.08-2.61.23-3.46.15-.84.52-1.67,1.11-2.49s1.36-1.43,2.3-1.85,2.08-.63,3.4-.63c2.59,0,4.55.64,5.87,1.93,1.33,1.28,1.99,2.91,1.99,4.87,0,1.49-.37,3.07-1.12,4.74-.75,1.67-2.95,5.2-6.6,10.6h7.14Z"/>
      <path class="cls-1" d="M237.45,27.48v8.7c0,1.98-.11,3.42-.32,4.32s-.66,1.75-1.34,2.53-1.49,1.35-2.45,1.69-2.02.52-3.21.52c-1.56,0-2.85-.18-3.88-.54s-1.85-.92-2.46-1.68-1.05-1.57-1.31-2.41c-.26-.84-.39-2.18-.39-4.02v-9.1c0-2.4.21-4.19.62-5.38.41-1.19,1.24-2.15,2.47-2.87,1.23-.72,2.72-1.08,4.47-1.08,1.43,0,2.71.25,3.83.75,1.13.5,1.97,1.11,2.53,1.83s.94,1.53,1.14,2.43c.2.9.3,2.34.3,4.32ZM230.94,25.29c0-1.39-.07-2.25-.2-2.6-.13-.35-.45-.52-.94-.52s-.8.18-.96.56c-.16.37-.23,1.23-.23,2.57v12.73c0,1.51.07,2.43.22,2.74.14.31.46.47.94.47s.8-.18.95-.55.23-1.19.23-2.46v-12.92Z"/>
      <path class="cls-1" d="M253.83,40.29v4.45h-14.33v-3.72c4.25-6.94,6.77-11.23,7.57-12.88.8-1.65,1.2-2.94,1.2-3.86,0-.71-.12-1.24-.36-1.59-.24-.35-.61-.52-1.11-.52s-.86.19-1.11.58-.36,1.15-.36,2.3v2.48h-5.83v-.95c0-1.46.08-2.61.23-3.46.15-.84.52-1.67,1.11-2.49s1.36-1.43,2.3-1.85,2.08-.63,3.4-.63c2.59,0,4.55.64,5.87,1.93,1.33,1.28,1.99,2.91,1.99,4.87,0,1.49-.37,3.07-1.12,4.74-.75,1.67-2.95,5.2-6.6,10.6h7.14Z"/>
      <path class="cls-1" d="M271.98,25.58h-6.51c0-1.21-.01-1.98-.04-2.3-.03-.32-.16-.58-.39-.8-.23-.21-.54-.32-.94-.32-.33,0-.61.1-.82.31s-.34.47-.37.79-.05.97-.05,1.95v4.16c.33-.7.82-1.22,1.47-1.57.64-.35,1.44-.52,2.38-.52,1.19,0,2.25.32,3.16.97s1.49,1.42,1.74,2.32.37,2.12.37,3.66v2.08c0,1.83-.07,3.19-.21,4.08s-.51,1.72-1.12,2.47c-.61.76-1.44,1.35-2.5,1.76-1.06.42-2.29.63-3.7.63-1.75,0-3.19-.24-4.3-.73s-1.98-1.18-2.59-2.09c-.61-.91-.96-1.86-1.06-2.86-.1-1-.15-2.94-.15-5.82v-3.61c0-3.1.05-5.18.14-6.23.09-1.05.46-2.04,1.12-2.97s1.55-1.64,2.68-2.1c1.13-.47,2.44-.7,3.92-.7,1.83,0,3.33.29,4.5.89s2.01,1.42,2.51,2.5.76,2.43.76,4.06ZM265.47,33.71c0-.92-.1-1.56-.31-1.9s-.54-.52-1-.52-.78.16-.99.49c-.21.33-.31.97-.31,1.93v4.72c0,1.15.1,1.9.3,2.26.2.35.53.53.99.53.28,0,.57-.14.87-.41.3-.27.45-1.01.45-2.21v-4.88Z"/>
    </g>
  </g>
</svg>