<?xml version="1.0" encoding="UTF-8"?>
<svg id="Capa_1" data-name="Capa 1" xmlns="http://www.w3.org/2000/svg" xmlns:xlink="http://www.w3.org/1999/xlink" viewBox="0 0 972.62 39.02">
  <defs>
    <style>
      .cls-1 {
        fill: none;
      }

      .cls-2 {
        fill: #0618bc;
      }

      .cls-3 {
        fill: #0010ff;
      }

      .cls-4 {
        clip-path: url(#clippath);
      }
    </style>
    <clipPath id="clippath">
      <rect class="cls-1" x="-3.03" y="9.15" width="978.67" height="29.87"/>
    </clipPath>
  </defs>
  <rect x=".69" y="0" width="973.33" height="12.26"/>
  <g class="cls-4">
    <rect class="cls-2" x="-9.3" y="9.15" width="986.54" height="29.87"/>
    <g>
      <polygon class="cls-3" points="-.78 44 -20.83 44 2.23 4.17 22.29 4.17 -.78 44"/>
      <polygon class="cls-3" points="34.28 44 14.23 44 37.3 4.17 57.35 4.17 34.28 44"/>
      <polygon class="cls-3" points="69.35 44 49.29 44 72.36 4.17 92.41 4.17 69.35 44"/>
      <polygon class="cls-3" points="104.41 44 84.36 44 107.43 4.17 127.48 4.17 104.41 44"/>
      <polygon class="cls-3" points="139.47 44 119.42 44 142.49 4.17 162.54 4.17 139.47 44"/>
      <polygon class="cls-3" points="174.54 44 154.48 44 177.55 4.17 197.61 4.17 174.54 44"/>
      <polygon class="cls-3" points="209.6 44 189.55 44 212.62 4.17 232.67 4.17 209.6 44"/>
      <polygon class="cls-3" points="244.67 44 224.61 44 247.68 4.17 267.73 4.17 244.67 44"/>
      <polygon class="cls-3" points="279.73 44 259.68 44 282.74 4.17 302.8 4.17 279.73 44"/>
      <polygon class="cls-3" points="314.79 44 294.74 44 317.81 4.17 337.86 4.17 314.79 44"/>
      <polygon class="cls-3" points="349.86 44 329.8 44 352.87 4.17 372.93 4.17 349.86 44"/>
      <polygon class="cls-3" points="384.92 44 364.87 44 387.94 4.17 407.99 4.17 384.92 44"/>
      <polygon class="cls-3" points="419.98 44 399.93 44 423 4.17 443.05 4.17 419.98 44"/>
      <polygon class="cls-3" points="455.05 44 435 44 458.06 4.17 478.12 4.17 455.05 44"/>
      <polygon class="cls-3" points="490.11 44 470.06 44 493.13 4.17 513.18 4.17 490.11 44"/>
      <polygon class="cls-3" points="525.18 44 505.12 44 528.19 4.17 548.24 4.17 525.18 44"/>
      <polygon class="cls-3" points="560.24 44 540.19 44 563.26 4.17 583.31 4.17 560.24 44"/>
      <polygon class="cls-3" points="595.3 44 575.25 44 598.32 4.17 618.37 4.17 595.3 44"/>
      <polygon class="cls-3" points="630.37 44 610.31 44 633.38 4.17 653.44 4.17 630.37 44"/>
      <polygon class="cls-3" points="665.43 44 645.38 44 668.45 4.17 688.5 4.17 665.43 44"/>
      <polygon class="cls-3" points="700.49 44 680.44 44 703.51 4.17 723.56 4.17 700.49 44"/>
      <polygon class="cls-3" points="735.56 44 715.51 44 738.57 4.17 758.63 4.17 735.56 44"/>
      <polygon class="cls-3" points="770.62 44 750.57 44 773.64 4.17 793.69 4.17 770.62 44"/>
      <polygon class="cls-3" points="805.69 44 785.63 44 808.7 4.17 828.76 4.17 805.69 44"/>
      <polygon class="cls-3" points="840.75 44 820.7 44 843.77 4.17 863.82 4.17 840.75 44"/>
      <polygon class="cls-3" points="875.81 44 855.76 44 878.83 4.17 898.88 4.17 875.81 44"/>
      <polygon class="cls-3" points="910.88 44 890.82 44 913.89 4.17 933.95 4.17 910.88 44"/>
      <polygon class="cls-3" points="945.94 44 925.89 44 948.96 4.17 969.01 4.17 945.94 44"/>
      <polygon class="cls-3" points="981.01 44 960.95 44 984.02 4.17 1004.07 4.17 981.01 44"/>
    </g>
  </g>
</svg>