<?xml version="1.0" encoding="UTF-8"?>
<svg id="Capa_1" data-name="Capa 1" xmlns="http://www.w3.org/2000/svg" xmlns:xlink="http://www.w3.org/1999/xlink" viewBox="0 0 972.62 39.02">
  <defs>
    <style>
      .cls-1 {
        fill: #c400ff;
      }

      .cls-2 {
        fill: none;
      }

      .cls-3 {
        fill: #8904ba;
      }

      .cls-4 {
        clip-path: url(#clippath);
      }
    </style>
    <clipPath id="clippath">
      <rect class="cls-2" x="-.24" y="9.15" width="973.09" height="29.87"/>
    </clipPath>
  </defs>
  <rect x="-10.47" width="995.66" height="12.26"/>
  <g class="cls-4">
    <rect class="cls-3" x="-.24" y="-9.15" width="973.09" height="68.63"/>
    <g>
      <polygon class="cls-1" points="-7.03 43.23 -27.12 43.23 -4.01 3.4 16.08 3.4 -7.03 43.23"/>
      <polygon class="cls-1" points="28.1 43.23 8.01 43.23 31.12 3.4 51.21 3.4 28.1 43.23"/>
      <polygon class="cls-1" points="63.23 43.23 43.14 43.23 66.25 3.4 86.34 3.4 63.23 43.23"/>
      <polygon class="cls-1" points="98.36 43.23 78.27 43.23 101.38 3.4 121.47 3.4 98.36 43.23"/>
      <polygon class="cls-1" points="133.49 43.23 113.4 43.23 136.51 3.4 156.6 3.4 133.49 43.23"/>
      <polygon class="cls-1" points="168.62 43.23 148.53 43.23 171.64 3.4 191.74 3.4 168.62 43.23"/>
      <polygon class="cls-1" points="203.75 43.23 183.66 43.23 206.77 3.4 226.87 3.4 203.75 43.23"/>
      <polygon class="cls-1" points="238.88 43.23 218.79 43.23 241.91 3.4 262 3.4 238.88 43.23"/>
      <polygon class="cls-1" points="274.01 43.23 253.92 43.23 277.04 3.4 297.13 3.4 274.01 43.23"/>
      <polygon class="cls-1" points="309.15 43.23 289.05 43.23 312.17 3.4 332.26 3.4 309.15 43.23"/>
      <polygon class="cls-1" points="344.28 43.23 324.19 43.23 347.3 3.4 367.39 3.4 344.28 43.23"/>
      <polygon class="cls-1" points="379.41 43.23 359.32 43.23 382.43 3.4 402.52 3.4 379.41 43.23"/>
      <polygon class="cls-1" points="414.54 43.23 394.45 43.23 417.56 3.4 437.65 3.4 414.54 43.23"/>
      <polygon class="cls-1" points="449.67 43.23 429.58 43.23 452.69 3.4 472.78 3.4 449.67 43.23"/>
      <polygon class="cls-1" points="484.8 43.23 464.71 43.23 487.82 3.4 507.91 3.4 484.8 43.23"/>
      <polygon class="cls-1" points="519.93 43.23 499.84 43.23 522.95 3.4 543.04 3.4 519.93 43.23"/>
      <polygon class="cls-1" points="555.06 43.23 534.97 43.23 558.08 3.4 578.18 3.4 555.06 43.23"/>
      <polygon class="cls-1" points="590.19 43.23 570.1 43.23 593.22 3.4 613.31 3.4 590.19 43.23"/>
      <polygon class="cls-1" points="625.32 43.23 605.23 43.23 628.35 3.4 648.44 3.4 625.32 43.23"/>
      <polygon class="cls-1" points="660.46 43.23 640.36 43.23 663.48 3.4 683.57 3.4 660.46 43.23"/>
      <polygon class="cls-1" points="695.59 43.23 675.5 43.23 698.61 3.4 718.7 3.4 695.59 43.23"/>
      <polygon class="cls-1" points="730.72 43.23 710.63 43.23 733.74 3.4 753.83 3.4 730.72 43.23"/>
      <polygon class="cls-1" points="765.85 43.23 745.76 43.23 768.87 3.4 788.96 3.4 765.85 43.23"/>
      <polygon class="cls-1" points="800.98 43.23 780.89 43.23 804 3.4 824.09 3.4 800.98 43.23"/>
      <polygon class="cls-1" points="836.11 43.23 816.02 43.23 839.13 3.4 859.22 3.4 836.11 43.23"/>
      <polygon class="cls-1" points="871.24 43.23 851.15 43.23 874.26 3.4 894.35 3.4 871.24 43.23"/>
      <polygon class="cls-1" points="906.37 43.23 886.28 43.23 909.39 3.4 929.49 3.4 906.37 43.23"/>
      <polygon class="cls-1" points="941.5 43.23 921.41 43.23 944.53 3.4 964.62 3.4 941.5 43.23"/>
      <polygon class="cls-1" points="976.63 43.23 956.54 43.23 979.66 3.4 999.75 3.4 976.63 43.23"/>
    </g>
  </g>
  <image width="6000" height="4000" transform="translate(103.27 8.98) scale(.08)" xlink:href="../../3d-rendering-multi-ethnic-diversity-hands-cover-globe-everyone-save-world-concept.png"/>
</svg>