<?xml version="1.0" encoding="UTF-8"?>
<svg id="Capa_1" data-name="Capa 1" xmlns="http://www.w3.org/2000/svg" xmlns:xlink="http://www.w3.org/1999/xlink" viewBox="0 0 972.62 39.02">
  <defs>
    <style>
      .cls-1 {
        fill: #bc3804;
      }

      .cls-2 {
        fill: none;
      }

      .cls-3 {
        fill: #e75915;
      }

      .cls-4 {
        clip-path: url(#clippath);
      }
    </style>
    <clipPath id="clippath">
      <rect class="cls-2" x="-1.69" y="9.29" width="976" height="29.87"/>
    </clipPath>
  </defs>
  <rect x="-11.52" width="995.66" height="12.26"/>
  <g class="cls-4">
    <rect class="cls-1" x="-6.03" y="6.8" width="989.84" height="34.85"/>
    <g>
      <polygon class="cls-3" points="-12.85 44.14 -33 44.14 -9.82 4.31 10.33 4.31 -12.85 44.14"/>
      <polygon class="cls-3" points="22.39 44.14 2.24 44.14 25.42 4.31 45.57 4.31 22.39 44.14"/>
      <polygon class="cls-3" points="57.62 44.14 37.47 44.14 60.65 4.31 80.81 4.31 57.62 44.14"/>
      <polygon class="cls-3" points="92.86 44.14 72.71 44.14 95.89 4.31 116.04 4.31 92.86 44.14"/>
      <polygon class="cls-3" points="128.1 44.14 107.94 44.14 131.13 4.31 151.28 4.31 128.1 44.14"/>
      <polygon class="cls-3" points="163.33 44.14 143.18 44.14 166.36 4.31 186.51 4.31 163.33 44.14"/>
      <polygon class="cls-3" points="198.57 44.14 178.42 44.14 201.6 4.31 221.75 4.31 198.57 44.14"/>
      <polygon class="cls-3" points="233.8 44.14 213.65 44.14 236.83 4.31 256.99 4.31 233.8 44.14"/>
      <polygon class="cls-3" points="269.04 44.14 248.89 44.14 272.07 4.31 292.22 4.31 269.04 44.14"/>
      <polygon class="cls-3" points="304.28 44.14 284.12 44.14 307.31 4.31 327.46 4.31 304.28 44.14"/>
      <polygon class="cls-3" points="339.51 44.14 319.36 44.14 342.54 4.31 362.69 4.31 339.51 44.14"/>
      <polygon class="cls-3" points="374.75 44.14 354.6 44.14 377.78 4.31 397.93 4.31 374.75 44.14"/>
      <polygon class="cls-3" points="409.98 44.14 389.83 44.14 413.01 4.31 433.17 4.31 409.98 44.14"/>
      <polygon class="cls-3" points="445.22 44.14 425.07 44.14 448.25 4.31 468.4 4.31 445.22 44.14"/>
      <polygon class="cls-3" points="480.45 44.14 460.3 44.14 483.49 4.31 503.64 4.31 480.45 44.14"/>
      <polygon class="cls-3" points="515.69 44.14 495.54 44.14 518.72 4.31 538.87 4.31 515.69 44.14"/>
      <polygon class="cls-3" points="550.93 44.14 530.78 44.14 553.96 4.31 574.11 4.31 550.93 44.14"/>
      <polygon class="cls-3" points="586.16 44.14 566.01 44.14 589.19 4.31 609.34 4.31 586.16 44.14"/>
      <polygon class="cls-3" points="621.4 44.14 601.25 44.14 624.43 4.31 644.58 4.31 621.4 44.14"/>
      <polygon class="cls-3" points="656.63 44.14 636.48 44.14 659.66 4.31 679.82 4.31 656.63 44.14"/>
      <polygon class="cls-3" points="691.87 44.14 671.72 44.14 694.9 4.31 715.05 4.31 691.87 44.14"/>
      <polygon class="cls-3" points="727.11 44.14 706.95 44.14 730.14 4.31 750.29 4.31 727.11 44.14"/>
      <polygon class="cls-3" points="762.34 44.14 742.19 44.14 765.37 4.31 785.52 4.31 762.34 44.14"/>
      <polygon class="cls-3" points="797.58 44.14 777.43 44.14 800.61 4.31 820.76 4.31 797.58 44.14"/>
      <polygon class="cls-3" points="832.81 44.14 812.66 44.14 835.84 4.31 856 4.31 832.81 44.14"/>
      <polygon class="cls-3" points="868.05 44.14 847.9 44.14 871.08 4.31 891.23 4.31 868.05 44.14"/>
      <polygon class="cls-3" points="903.29 44.14 883.13 44.14 906.32 4.31 926.47 4.31 903.29 44.14"/>
      <polygon class="cls-3" points="938.52 44.14 918.37 44.14 941.55 4.31 961.7 4.31 938.52 44.14"/>
      <polygon class="cls-3" points="973.76 44.14 953.61 44.14 976.79 4.31 996.94 4.31 973.76 44.14"/>
    </g>
  </g>
</svg>