<?xml version="1.0" encoding="UTF-8"?>
<svg id="Capa_1" data-name="Capa 1" xmlns="http://www.w3.org/2000/svg" viewBox="0 0 458.62 122.86">
  <defs>
    <style>
      .cls-1 {
        fill: #fff;
      }
    </style>
  </defs>
  <g>
    <path d="M97.44,28.32c0,2.19-1.52,4.47-4.55,6.83,2.77,4.08,4.15,7.84,4.15,11.28,0,.84-.25,1.27-.76,1.27-.4,0-.61-.56-.61-1.67,0-3.37-1.18-6.8-3.54-10.27-4.89,3.64-11.54,6.79-19.96,9.44-8.42,2.65-15.88,3.97-22.39,3.97-.91,0-1.7-.03-2.38-.1-5.4,7.52-8.09,14.77-8.09,21.75,0,4.76,1.48,8.52,4.43,11.28,2.95,2.77,6.97,4.15,12.07,4.15,9.61,0,18.18-4.6,25.7-13.81,4.55-5.57,6.83-10.84,6.83-15.84,0-2.63-.79-4.72-2.37-6.27-1.58-1.55-3.69-2.33-6.31-2.33-4.21,0-8.73,2.22-13.56,6.65-4.83,4.44-7.25,8.58-7.25,12.42,0,.34.1.51.3.51.17-.03.3-.1.4-.2.9-.81,1.74-1.21,2.51-1.21,1.71,0,2.56.93,2.56,2.78,0,2.5-1.21,3.74-3.64,3.74-2.23,0-3.34-1.35-3.34-4.05,0-4.82,2.44-9.6,7.34-14.34,4.89-4.74,9.85-7.11,14.87-7.11,6.48,0,9.71,3.56,9.71,10.68s-3.52,14.06-10.55,20.11c-7.03,6.05-14.83,9.08-23.4,9.08-5.97,0-10.99-2.01-15.05-6.02-4.06-4.01-6.1-8.97-6.1-14.87s2.01-11.62,6.02-17.66c-14.6-2.7-21.91-8.47-21.91-17.3,0-5.26,2.71-9.66,8.15-13.2,5.43-3.54,12.19-5.31,20.29-5.31,11.3,0,22.72,3.76,34.25,11.28,1.99-.4,4.03-.61,6.12-.61,6.71,0,10.07,1.65,10.07,4.96ZM79.83,24.17c-10.25-5.94-21.17-8.9-32.73-8.9-7.15,0-13.4,1.69-18.74,5.06-5.35,3.37-8.02,7.32-8.02,11.84,0,8.06,6.85,13.27,20.54,15.63,8.5-11.84,21.48-19.71,38.96-23.63ZM91.72,35.05c-2.6-3.74-6.09-7.07-10.47-9.97-6.31,1.72-12.46,4.68-18.47,8.88-6,4.2-10.93,8.98-14.77,14.34,7.05,0,14.85-1.29,23.4-3.87,8.55-2.58,15.32-5.71,20.31-9.38ZM96.63,28.32c0-2.77-2.7-4.15-8.09-4.15-1.69,0-3.69.24-6.02.71,4.01,2.77,7.34,5.99,9.97,9.66,2.77-2.36,4.15-4.43,4.15-6.22Z"/>
    <path d="M124.88,68.62c0,.78-2.45,4.05-7.34,9.83-4.05,4.8-7.26,7.2-9.62,7.2-1.49,0-2.74-.6-3.77-1.8-1.03-1.2-1.54-2.64-1.54-4.33,0-1.32.66-3.15,1.97-5.51l-1.01,1.37c-3.1,3.98-5.38,6.65-6.83,7.99-1.59,1.52-3.09,2.28-4.5,2.28s-2.73-.58-3.74-1.75c-1.01-1.16-1.52-2.59-1.52-4.27,0-1.96.76-4.2,2.28-6.73l9.21-15.48c1.15.24,2.04.35,2.68.35s1.79-.12,3.44-.35l-12.04,19.83c-1.21,2.02-1.82,3.81-1.82,5.36s.64,2.28,1.92,2.28c3.41,0,8.87-6.36,16.39-19.07l4.96-8.4c1.04.24,1.92.35,2.63.35.84,0,2.04-.12,3.59-.35l-8.09,13.21c-3.85,6.27-5.77,10.3-5.77,12.09,0,1.45.69,2.18,2.08,2.18,2.7,0,7.09-4.26,13.17-12.77l1.57-2.18.91-1.12c.17-.34.34-.51.51-.51.2,0,.3.1.3.3Z"/>
    <path d="M181.14,68.62c-.03.1-.2.37-.51.81l-2.18,2.99c-6.35,8.82-11.04,13.22-14.08,13.22-1.59,0-2.89-.59-3.9-1.77-1.01-1.18-1.52-2.7-1.52-4.55s.64-3.93,1.92-6.12c.24-.4,1.47-2.21,3.69-5.41,2.83-4.05,4.25-6.69,4.25-7.94,0-1.38-.69-2.07-2.07-2.07-4.45,0-12.09,9.14-22.92,27.42-.67-.14-1.6-.2-2.78-.2-1.38,0-2.56.07-3.54.2l7.18-11.38c4.69-7.49,7.03-12.07,7.03-13.76,0-1.52-.62-2.28-1.87-2.28-1.86,0-4.89,2.66-9.11,7.99-4.22,5.33-8.4,11.81-12.55,19.43-.78-.14-1.77-.2-2.98-.2-1.32,0-2.46.07-3.44.2l7.23-11.38c4.99-7.82,7.49-12.66,7.49-14.52,0-1.01-.39-1.52-1.17-1.52-1.66,0-5.09,3.62-10.29,10.85-.34.47-.61.71-.81.71-.14-.03-.2-.13-.2-.3,0-.3,1.55-2.41,4.66-6.31,3.04-3.8,5.39-5.71,7.04-5.71,1.08,0,2.01.51,2.79,1.54.78,1.03,1.17,2.25,1.17,3.67,0,1.96-1,4.67-2.98,8.15,6.07-8.9,10.59-13.36,13.56-13.36,1.42,0,2.58.57,3.49,1.72.91,1.15,1.37,2.58,1.37,4.3,0,1.92-.89,4.37-2.68,7.34,6.41-8.9,11.21-13.36,14.42-13.36,1.45,0,2.67.62,3.67,1.87.99,1.25,1.49,2.77,1.49,4.55,0,2.09-.83,4.54-2.48,7.34-.03.03-1.48,2.19-4.35,6.48-1.65,2.43-2.48,4.28-2.48,5.57,0,1.38.69,2.07,2.08,2.07,2.63,0,6.99-4.26,13.07-12.77l1.57-2.18.91-1.12c.17-.34.34-.51.51-.51.2,0,.3.1.3.3Z"/>
    <path d="M205.3,65.1c0,5.5-3.42,10.51-10.27,15.03-5.57,3.68-9.92,5.51-13.05,5.51-2.16,0-3.24-1.01-3.24-3.04,0-.61.17-1.43.51-2.48l-19.38,32.33c-1.18-.27-2.14-.4-2.88-.4-1.11,0-2.21.2-3.29.61l41.54-68.3c.91.3,1.8.46,2.68.46s2.02-.15,3.34-.46l-15.03,24.28c3.61-4.79,6.23-7.93,7.87-9.41,1.64-1.48,3.26-2.23,4.88-2.23,1.79,0,3.29.78,4.5,2.33,1.21,1.55,1.82,3.47,1.82,5.77ZM201.56,61.05c0-2.19-.98-3.29-2.93-3.29-2.46,0-6.59,3.96-12.4,11.89-4.49,6.14-6.73,10.35-6.73,12.65,0,1.72.79,2.58,2.38,2.58,3.1,0,7.16-3.03,12.17-9.08,5.01-6.05,7.51-10.97,7.51-14.75Z"/>
    <path d="M235.25,32.77c-14.17,23.58-22.42,37.44-24.77,41.59-2.34,4.15-3.52,6.9-3.52,8.25,0,1.52.64,2.28,1.93,2.28,2.84,0,8.04-5.35,15.6-16.06.17-.34.37-.51.61-.51.13.03.2.14.2.3,0,.2-.17.47-.51.81l-2.18,2.99c-6.38,8.82-11.09,13.22-14.13,13.22-1.45,0-2.64-.55-3.57-1.64-.93-1.1-1.39-2.49-1.39-4.17,0-1.85.43-3.65,1.29-5.39.86-1.74,3.79-6.75,8.78-15.05,6.1-10.15,11.25-18.95,15.43-26.41,1.01.27,1.91.4,2.68.4,1.28,0,2.46-.2,3.54-.61Z"/>
    <path d="M250.81,68.67c0,.1-.3.54-.91,1.31l-2.18,2.73c-6.99,8.62-12.98,12.93-17.98,12.93-2.36,0-4.35-.85-5.95-2.55-1.6-1.7-2.4-3.84-2.4-6.4,0-6.07,4.23-11.42,12.7-16.04,4.45-2.43,8.08-3.64,10.88-3.64,1.21,0,2.25.36,3.11,1.09.86.73,1.29,1.61,1.29,2.66,0,2.43-1.59,4.49-4.76,6.2-3.17,1.7-8.47,3.3-15.89,4.78-2.29,3.47-3.44,6.38-3.44,8.7,0,2.9,1.57,4.35,4.71,4.35,5.33,0,11.87-5.2,19.6-15.61.4-.54.74-.81,1.01-.81.13.03.2.14.2.3ZM246.53,59.28c0-1.08-.59-1.62-1.77-1.62-1.79,0-4.14,1.24-7.06,3.72-2.92,2.48-5.78,5.69-8.58,9.64,4.86-1.25,8.97-3.01,12.34-5.29,3.37-2.28,5.06-4.43,5.06-6.45Z"/>
    <path d="M286.38,68.62c0,.71-2.46,3.99-7.39,9.83-3.98,4.8-7.13,7.2-9.42,7.2-1.55,0-2.82-.58-3.8-1.75-.98-1.16-1.47-2.62-1.47-4.38s.54-3.79,1.62-5.92c-3.37,4.72-5.95,7.91-7.74,9.56-1.79,1.65-3.52,2.48-5.21,2.48-1.79,0-3.29-.77-4.5-2.3-1.21-1.53-1.82-3.47-1.82-5.79,0-6.48,4.57-12.21,13.71-17.2,4.01-2.23,7.25-3.34,9.71-3.34,2.09,0,3.14,1.01,3.14,3.04,0,.57-.14,1.33-.4,2.28l2.58-4.91c1.01.24,1.9.35,2.68.35.91,0,2.09-.12,3.54-.35l-8.96,14.82c-3.1,5.19-4.65,8.62-4.65,10.27s.66,2.38,1.98,2.38,3.51-1.55,6.49-4.64c2.97-3.09,6-6.9,9.07-11.43.2-.34.39-.51.56-.51.2,0,.3.1.3.3ZM272.44,60.24c0-1.65-.76-2.48-2.28-2.48-3.1,0-7.18,3.04-12.22,9.11-5.04,6.07-7.56,10.98-7.56,14.72,0,2.19.98,3.29,2.93,3.29,2.33,0,6.36-3.86,12.09-11.59,4.69-6.34,7.03-10.69,7.03-13.05Z"/>
    <path d="M327,68.62c0,.71-2.45,3.99-7.34,9.83-4.02,4.8-7.18,7.2-9.47,7.2-1.52,0-2.79-.59-3.82-1.77-1.03-1.18-1.54-2.63-1.54-4.35,0-1.52.31-2.93.94-4.22.62-1.3,2.25-3.87,4.88-7.72,2.73-4.05,4.1-6.63,4.1-7.74,0-1.38-.73-2.07-2.18-2.07-4.92,0-12.51,9.14-22.77,27.42-1.65-.14-2.65-.2-2.98-.2-1.18,0-2.29.07-3.34.2l7.89-12.5c4.49-7.15,6.73-11.62,6.73-13.41,0-1.01-.42-1.52-1.27-1.52-1.72,0-5.12,3.63-10.19,10.9-.3.44-.54.68-.71.71-.17,0-.27-.1-.3-.3.03-.17.1-.3.2-.41l.96-1.27c5.17-6.93,8.65-10.39,10.44-10.39,1.15,0,2.13.52,2.94,1.57.81,1.05,1.22,2.29,1.22,3.74,0,2.16-1.26,5.16-3.79,9.01,3.98-5.5,7.04-9.26,9.18-11.28,2.14-2.02,4.12-3.04,5.94-3.04,1.48,0,2.73.61,3.74,1.82,1.01,1.21,1.52,2.72,1.52,4.5,0,2.26-1.55,5.72-4.65,10.37-3.17,4.76-4.76,7.79-4.76,9.11,0,1.38.69,2.07,2.08,2.07,3.01,0,8.19-5.35,15.55-16.06.17-.34.34-.51.51-.51.2,0,.3.1.3.3ZM324.88,47.72c0,.47-.94,1.13-2.81,1.98-1.87.85-3.28,1.28-4.22,1.28-1.08,0-2.56-.24-4.45-.71l-1.01-.25c-3.2-.81-5.28-1.21-6.22-1.21-.78,0-1.72.25-2.83.74-.34.2-.57.3-.71.3-.2,0-.3-.07-.3-.2,0-.47.94-1.14,2.81-2.01,1.87-.87,3.31-1.31,4.33-1.31,1.15,0,3.19.35,6.12,1.06l2.33.56c1.45.3,2.55.46,3.29.46,1.11,0,2.11-.23,2.98-.68.27-.13.44-.2.51-.2.13.03.2.1.2.2Z"/>
    <path d="M356.95,68.57c0,.54-1,1.8-2.99,3.78-2.97,2.96-5.7,4.44-8.2,4.44-1.05,0-1.98-.2-2.79-.61-4.46,6.31-8.64,9.46-12.56,9.46-2.03,0-3.76-.83-5.19-2.5-1.44-1.67-2.15-3.67-2.15-6,0-5.19,3.41-10.2,10.22-15.03,4.79-3.41,8.74-5.11,11.84-5.11,2.9,0,4.35,1.55,4.35,4.65,0,3.88-2.04,8.55-6.12,14.01.67.4,1.43.61,2.28.61,1.52,0,3.29-.71,5.32-2.12,2.03-1.41,3.69-3.11,4.97-5.09.37-.47.64-.71.81-.71.13,0,.2.07.2.2ZM348.73,61.76c0-2.73-1.23-4.1-3.69-4.1-3.07,0-6.81,2.93-11.23,8.8-4.42,5.87-6.63,10.81-6.63,14.82,0,2.33,1.11,3.49,3.34,3.49,3.64,0,7.62-3,11.94-9.01-.98-1.08-1.47-2.19-1.47-3.34,0-1.65.66-3.36,1.97-5.11,1.32-1.75,2.6-2.63,3.85-2.63.54,0,.91.34,1.11,1.01.54-1.18.81-2.5.81-3.95Z"/>
    <path d="M374.13,48.99c0,1.35-2.11,4.02-6.32,8.02-.2,1.05-.3,1.96-.3,2.73,0,1.96.89,5.06,2.68,9.31.91,2.12,1.37,3.91,1.37,5.36,0,3.04-1.48,5.67-4.43,7.89-2.95,2.23-6.45,3.34-10.5,3.34-2.29,0-4.12-.65-5.49-1.95-1.37-1.3-2.05-3.04-2.05-5.24,0-2.53.9-4.99,2.71-7.39,1.8-2.39,3.67-3.59,5.59-3.59.34,0,.64.07.91.2l4.05-4.96c1.21-1.45,2.83-3.46,4.86-6.02.57-2.36,1.45-4.38,2.63-6.07,1.18-1.69,2.34-2.53,3.49-2.53.54,0,.81.3.81.89ZM367.1,68.95c0-1.01-.03-2.01-.1-3.01-.07-.99-.1-2.42-.1-4.27,0-1.52.07-2.78.2-3.79-1.89,2.4-4.62,5.77-8.2,10.12.64.54.96,1.2.96,1.97,0,1.99-1.64,3.34-4.91,4.05-1.32.3-2.45,1.02-3.42,2.15-.96,1.13-1.44,2.32-1.44,3.57,0,1.35.49,2.48,1.47,3.39.98.91,2.19,1.37,3.64,1.37,2.83,0,5.52-1.64,8.07-4.93,2.55-3.29,3.82-6.82,3.82-10.6Z"/>
  </g>
  <rect x="228.27" y="92.75" width="194.31" height="25.65" rx="5.92" ry="5.92"/>
  <g>
    <path class="cls-1" d="M242.14,112.04v-12.48h1.83v12.48h-1.83ZM242.51,106.66v-1.67h7.39v1.67h-7.39ZM248.4,112.04v-12.48h1.83v12.48h-1.83Z"/>
    <path class="cls-1" d="M256.73,112.22c-3.07,0-4.61-2.11-4.61-6.33s1.54-6.5,4.61-6.5,4.61,2.17,4.61,6.5-1.54,6.33-4.61,6.33ZM256.73,110.6c1.82,0,2.72-1.57,2.72-4.71s-.91-4.89-2.72-4.89-2.72,1.63-2.72,4.89.91,4.71,2.72,4.71Z"/>
    <path class="cls-1" d="M263.24,112.04v-12.48h1.83v12.48h-1.83ZM264.94,107.29v-1.67h2.58c.7,0,1.24-.18,1.63-.55s.58-.89.58-1.56c0-.73-.19-1.3-.58-1.69-.39-.4-.93-.59-1.63-.59h-2.55l-.21-1.67h2.76c1.29,0,2.3.33,3,.98s1.06,1.59,1.06,2.79-.35,2.23-1.06,2.92-1.71,1.04-3,1.04h-2.58ZM269.94,112.04l-2.79-5.87h1.93l2.97,5.87h-2.11Z"/>
    <path class="cls-1" d="M272.95,112.04l3.6-12.48h2.55l3.6,12.48h-1.85l-2.95-10.97h-.16l-2.95,10.97h-1.85ZM274.62,109v-1.67h6.33v1.67h-6.33Z"/>
    <path class="cls-1" d="M294.88,112.04v-12.48h1.83v12.48h-1.83ZM296.58,112.04v-1.67h1.32c1.28,0,2.25-.37,2.9-1.1s.97-1.83.97-3.3c0-1.59-.32-2.78-.97-3.56-.65-.79-1.61-1.18-2.9-1.18h-1.28l-.21-1.67h1.49c3.81,0,5.71,2.14,5.71,6.42,0,4.04-1.9,6.06-5.71,6.06h-1.32Z"/>
    <path class="cls-1" d="M305.6,112.04v-12.48h1.83v12.48h-1.83ZM305.6,101.23v-1.67h8.26v1.67h-8.26ZM305.6,106.63v-1.67h6.68v1.67h-6.68ZM305.6,112.04v-1.67h8.26v1.67h-8.26Z"/>
    <path class="cls-1" d="M331.86,112.22c-3.88,0-5.82-2.14-5.82-6.43,0-2.03.49-3.61,1.47-4.72.98-1.12,2.36-1.67,4.14-1.67.86,0,1.61.14,2.25.41.64.27,1.1.66,1.4,1.17l-1.3,1.29c-.26-.4-.6-.71-1.01-.92s-.85-.33-1.32-.33c-1.13,0-2.04.41-2.72,1.22s-1.02,1.97-1.02,3.47c0,3.27,1.41,4.9,4.24,4.9.85,0,1.69-.18,2.51-.53l.4,1.55c-1.02.4-2.09.6-3.22.6Z"/>
    <path class="cls-1" d="M337.24,112.04v-12.48h1.83v12.48h-1.83ZM337.24,101.23v-1.67h8.26v1.67h-8.26ZM337.24,106.63v-1.67h6.68v1.67h-6.68ZM337.24,112.04v-1.67h8.26v1.67h-8.26Z"/>
    <path class="cls-1" d="M347.79,112.04v-12.48h1.83v12.48h-1.83ZM347.79,112.04v-1.67h8.26v1.67h-8.26Z"/>
    <path class="cls-1" d="M358.34,112.04v-12.48h1.83v12.48h-1.83ZM358.34,101.23v-1.67h8.26v1.67h-8.26ZM358.34,106.63v-1.67h6.68v1.67h-6.68ZM358.34,112.04v-1.67h8.26v1.67h-8.26Z"/>
    <path class="cls-1" d="M368.88,112.04v-12.48h1.83v12.48h-1.83ZM369.99,105.91v-.86h3.59v.86h-3.59ZM370.59,105.41v-.8h2.04c.66,0,1.18-.15,1.54-.44.37-.29.55-.72.55-1.27s-.19-.95-.58-1.24-.93-.43-1.64-.43h-1.88l-.21-1.67h2.18c1.27,0,2.24.27,2.94.82s1.04,1.33,1.04,2.34c0,.86-.33,1.53-.98,1.99-.66.47-1.59.7-2.79.7h-2.2ZM370.59,112.04v-1.67h2.57c.77,0,1.37-.18,1.8-.53s.64-.85.64-1.49-.22-1.16-.67-1.53c-.45-.36-1.08-.54-1.9-.54h-2.41l-.21-.8h3.06c1.27,0,2.24.27,2.94.82s1.04,1.32,1.04,2.31c0,1.09-.33,1.93-.98,2.53s-1.59.9-2.79.9h-3.08Z"/>
    <path class="cls-1" d="M379.25,112.04v-12.48h1.83v12.48h-1.83ZM380.96,107.29v-1.67h2.58c.7,0,1.24-.18,1.63-.55s.58-.89.58-1.56c0-.73-.19-1.3-.58-1.69-.39-.4-.93-.59-1.63-.59h-2.55l-.21-1.67h2.76c1.29,0,2.3.33,3,.98s1.06,1.59,1.06,2.79-.35,2.23-1.06,2.92-1.71,1.04-3,1.04h-2.58ZM385.95,112.04l-2.79-5.87h1.93l2.97,5.87h-2.11Z"/>
    <path class="cls-1" d="M388.97,112.04l3.6-12.48h2.55l3.6,12.48h-1.85l-2.95-10.97h-.16l-2.95,10.97h-1.85ZM390.64,109v-1.67h6.33v1.67h-6.33Z"/>
    <path class="cls-1" d="M400.35,112.04v-12.48h1.83v12.48h-1.83ZM402.05,107.29v-1.67h2.58c.7,0,1.24-.18,1.63-.55s.58-.89.58-1.56c0-.73-.19-1.3-.58-1.69-.39-.4-.93-.59-1.63-.59h-2.55l-.21-1.67h2.76c1.29,0,2.3.33,3,.98s1.06,1.59,1.06,2.79-.35,2.23-1.06,2.92-1.71,1.04-3,1.04h-2.58ZM407.05,112.04l-2.79-5.87h1.93l2.97,5.87h-2.11Z"/>
  </g>
  <g>
    <path d="M418.11,57.01c0-1.64.9-3.08,2.22-3.85-14.93-24.46-30.87,3.15-2.22,3.85ZM427.05,57.01c28.65-.7,12.71-28.31-2.22-3.85,1.33.77,2.22,2.21,2.22,3.85ZM422.58,52.55c.81,0,1.57.22,2.22.59,13.72-25.16-18.17-25.16-4.45,0,.66-.38,1.41-.59,2.22-.59ZM418.11,57.03c-28.65.7-12.71,28.31,2.22,3.85-1.33-.77-2.22-2.21-2.22-3.85ZM427.05,57.03c0,1.64-.9,3.08-2.22,3.85,14.93,24.46,30.87-3.15,2.22-3.85ZM422.58,61.49c-.81,0-1.57-.22-2.22-.59-13.72,25.16,18.17,25.16,4.45,0-.66.38-1.41.59-2.22.59Z"/>
    <circle cx="422.58" cy="57.02" r="4.47"/>
  </g>
</svg>