<?xml version="1.0" encoding="UTF-8"?>
<svg id="Capa_1" data-name="Capa 1" xmlns="http://www.w3.org/2000/svg" viewBox="0 0 311.43 111.09">
  <g>
    <path d="M92.97,38.55c0,.84-1.31,2.81-3.92,5.89-2.61,3.09-5.25,5.76-7.92,8.02-2.4,3.84-4.15,7.02-5.26,9.54-1.11,2.51-2.5,6.48-4.15,11.91-2.06,6.61-4.6,11.86-7.61,15.73-3.02,3.88-7.26,7.34-12.72,10.37-7.83,4.35-15.84,6.53-24.03,6.53-6.95,0-12.56-1.89-16.85-5.67-4.28-3.78-6.43-8.74-6.43-14.87,0-5.23,1.62-10.19,4.86-14.9s7.66-8.51,13.28-11.41c5.62-2.9,10.82-4.35,15.61-4.35.4,0,.76.03,1.06.1,0-.84.24-2.33.71-4.45-.61.07-1.33.1-2.18.1-5.43,0-9.76-1.2-12.98-3.59-3.22-2.39-4.83-5.58-4.83-9.56,0-6.88,3.9-12.98,11.69-18.31,7.79-5.33,16.75-7.99,26.86-7.99,8.03,0,14.59,2.01,19.68,6.02,3.54-1.32,6.15-1.97,7.84-1.97,3.27,0,4.91,1.35,4.91,4.05,0,2.5-1.91,5.6-5.72,9.31.27,1.86.4,3.41.4,4.65,0,3.64-1.06,7.54-3.19,11.69-.64,1.25-1.1,1.87-1.37,1.87-.17,0-.27-.1-.3-.3.03-.17.1-.34.2-.51,2.5-4.12,3.74-8.43,3.74-12.95,0-1.38-.07-2.66-.2-3.84-5.63,4.96-11.91,9.28-18.85,12.98-6.93,3.69-13.53,6.25-19.81,7.67-1.08,1.75-1.91,3.58-2.48,5.46,8.9,1.52,13.36,6.36,13.36,14.52v1.01c6.71-1.82,14.96-8.48,24.74-19.98,2.19-3.44,4.44-6.48,6.73-9.11,2.29-2.63,3.86-3.95,4.71-3.95.2,0,.34.1.4.3ZM79.37,54.54c-9.07,10.08-16.8,15.99-23.17,17.71-.67,4.62-2.84,8.83-6.5,12.62-3.66,3.79-7.36,5.69-11.1,5.69-1.99,0-3.65-.61-4.98-1.82-1.33-1.21-2-2.72-2-4.5s.63-3.52,1.9-5.01c1.27-1.48,2.67-2.23,4.22-2.23,2.36,0,3.54,1.08,3.54,3.24,0,.98-.39,1.86-1.16,2.63s-1.64,1.16-2.58,1.16c-1.79,0-2.68-.79-2.68-2.38,0-.24.07-.61.2-1.11.07-.27.1-.52.1-.76,0-.2-.1-.3-.3-.3-.51,0-1.01.55-1.52,1.64s-.76,2.13-.76,3.11c0,1.58.57,2.9,1.72,3.95,1.15,1.04,2.58,1.57,4.3,1.57,3.44,0,6.97-1.87,10.6-5.62,3.62-3.74,5.67-7.64,6.15-11.69-.74.13-1.6.2-2.58.2-4.32,0-7.72-1.46-10.22-4.38-2.5-2.92-3.74-6.87-3.74-11.86-8.5.54-15.93,4.07-22.29,10.6-6.36,6.53-9.54,13.87-9.54,22.03,0,4.89,1.81,8.85,5.44,11.89,3.63,3.04,8.37,4.55,14.24,4.55,7.96,0,15.19-2.82,21.7-8.45,6.51-5.63,14.06-15.62,22.67-29.95,2.63-4.45,5.41-8.63,8.35-12.55ZM76.89,17.96c-4.49-3.54-10.66-5.31-18.52-5.31-9.48,0-18.15,2.62-26.03,7.87-7.88,5.25-11.81,11.02-11.81,17.33,0,3.88,1.55,6.91,4.65,9.08,3.1,2.18,7.42,3.26,12.95,3.26h1.77c3.95-12.92,16.27-23.66,36.98-32.23ZM55.54,71.54c.24-4.01-.76-7.33-2.98-9.94-2.23-2.61-5.43-4.28-9.61-4.98-.51,1.72-.76,3.44-.76,5.16,0,3,.97,5.41,2.91,7.24,1.94,1.82,4.49,2.73,7.67,2.73.98,0,1.9-.07,2.78-.2ZM83.97,28.73c-.88-4.01-2.88-7.34-6.02-9.97-6.04,3-12.04,7.36-18.01,13.08-5.97,5.72-10.61,11.54-13.91,17.48,6-1.42,12.45-3.99,19.35-7.72,6.9-3.73,13.1-8.02,18.59-12.88ZM89.64,19.83c0-2.23-1.28-3.34-3.84-3.34-1.96,0-4.3.66-7.03,1.97,2.9,2.5,4.87,5.7,5.92,9.61,3.31-3.2,4.96-5.95,4.96-8.25Z"/>
    <path d="M114,69.49c0,.54-1,1.8-2.99,3.78-2.97,2.96-5.7,4.44-8.2,4.44-1.05,0-1.98-.2-2.79-.61-4.46,6.31-8.64,9.46-12.56,9.46-2.03,0-3.76-.83-5.19-2.5-1.44-1.67-2.15-3.67-2.15-6,0-5.19,3.41-10.2,10.22-15.03,4.79-3.41,8.74-5.11,11.84-5.11,2.9,0,4.35,1.55,4.35,4.65,0,3.88-2.04,8.55-6.12,14.01.67.4,1.43.61,2.28.61,1.52,0,3.29-.71,5.32-2.12s3.69-3.11,4.97-5.09c.37-.47.64-.71.81-.71.13,0,.2.07.2.2ZM105.77,62.68c0-2.73-1.23-4.1-3.69-4.1-3.07,0-6.81,2.93-11.23,8.8-4.42,5.87-6.63,10.81-6.63,14.82,0,2.33,1.11,3.49,3.34,3.49,3.64,0,7.62-3,11.94-9.01-.98-1.08-1.47-2.19-1.47-3.34,0-1.65.66-3.36,1.97-5.11s2.6-2.63,3.85-2.63c.54,0,.91.34,1.11,1.01.54-1.18.81-2.5.81-3.95Z"/>
    <path d="M144.05,69.49c0,.54-1,1.8-2.99,3.78-2.97,2.96-5.7,4.44-8.2,4.44-1.05,0-1.98-.2-2.79-.61-4.46,6.31-8.64,9.46-12.56,9.46-2.03,0-3.76-.83-5.19-2.5-1.44-1.67-2.15-3.67-2.15-6,0-5.19,3.41-10.2,10.22-15.03,4.79-3.41,8.74-5.11,11.84-5.11,2.9,0,4.35,1.55,4.35,4.65,0,3.88-2.04,8.55-6.12,14.01.67.4,1.43.61,2.28.61,1.52,0,3.29-.71,5.32-2.12s3.69-3.11,4.97-5.09c.37-.47.64-.71.81-.71.13,0,.2.07.2.2ZM135.83,62.68c0-2.73-1.23-4.1-3.69-4.1-3.07,0-6.81,2.93-11.23,8.8-4.42,5.87-6.63,10.81-6.63,14.82,0,2.33,1.11,3.49,3.34,3.49,3.64,0,7.62-3,11.94-9.01-.98-1.08-1.47-2.19-1.47-3.34,0-1.65.66-3.36,1.97-5.11s2.6-2.63,3.85-2.63c.54,0,.91.34,1.11,1.01.54-1.18.81-2.5.81-3.95Z"/>
    <path d="M190.06,34.2c-12.65,20.1-20.63,32.95-23.93,38.55-3.34,5.7-5.01,9.29-5.01,10.78s.69,2.28,2.08,2.28c3.07,0,8.29-5.35,15.65-16.06.2-.34.39-.51.56-.51.2,0,.3.1.3.3-.03.1-.2.37-.51.81l-2.18,2.99c-6.38,8.82-11.09,13.22-14.13,13.22-1.55,0-2.82-.58-3.8-1.75-.98-1.16-1.47-2.66-1.47-4.48s.61-3.93,1.82-6.32c-5.9,8.37-10.29,12.55-13.15,12.55-1.79,0-3.29-.77-4.5-2.3-1.21-1.54-1.82-3.47-1.82-5.79,0-5.57,3.46-10.61,10.37-15.13,5.5-3.61,9.81-5.41,12.95-5.41,2.09,0,3.14,1.01,3.14,3.04,0,.95-.29,2.01-.86,3.19l18.06-30.25c1.11.34,2.21.51,3.29.51.27,0,1.32-.07,3.14-.2ZM165.68,61.37c0-1.79-.83-2.68-2.48-2.68-3.04,0-7.04,3.03-12.02,9.08-4.98,6.05-7.46,10.94-7.46,14.65,0,2.26.93,3.39,2.78,3.39,2.7,0,7.34-4.69,13.91-14.07,3.51-5.06,5.26-8.52,5.26-10.37Z"/>
  </g>
  <g>
    <path d="M220.4,53.72l-4.43,31.1h-12.38l-4.76-31.1h8.46l2.67,22.71c.21-1.67.56-5.74,1.07-12.21.27-3.61.57-7.11.92-10.5h8.46Z"/>
    <path d="M231.53,46.88v4.95h-9.75v-4.95h9.75ZM231.53,53.72v31.1h-9.75v-31.1h9.75Z"/>
    <path d="M244.4,46.88v8.98c.78-.91,1.65-1.58,2.61-2.03s2-.67,3.13-.67c1.3,0,2.42.2,3.38.61s1.68.98,2.18,1.71.8,1.45.9,2.16.15,2.2.15,4.5v14.02c0,2.28-.15,3.98-.46,5.1s-1.02,2.09-2.14,2.91-2.46,1.23-4.01,1.23c-1.11,0-2.14-.24-3.11-.73s-1.84-1.21-2.64-2.18l-.61,2.35h-8.86v-37.95h9.47ZM247.28,62.56c0-1.61-.1-2.66-.3-3.15s-.6-.74-1.2-.74-.95.21-1.12.64-.26,1.51-.26,3.25v13.41c0,1.67.1,2.74.29,3.21s.58.7,1.16.7.98-.24,1.16-.73.27-1.65.27-3.49v-13.1Z"/>
    <path d="M281.31,69.82h-12.26v6.73c0,1.41.1,2.31.3,2.72s.59.61,1.17.61c.72,0,1.2-.27,1.44-.81s.36-1.58.36-3.13v-4.1h8.98v2.3c0,1.92-.12,3.4-.36,4.43s-.81,2.13-1.7,3.3-2.02,2.05-3.39,2.64-3.08.88-5.14.88-3.77-.29-5.3-.87-2.72-1.37-3.57-2.38-1.44-2.12-1.77-3.33-.49-2.97-.49-5.29v-9.07c0-2.72.37-4.86,1.1-6.43s1.94-2.77,3.61-3.61,3.59-1.25,5.77-1.25c2.66,0,4.85.5,6.57,1.51s2.94,2.34,3.63,4.01,1.04,4,1.04,7.02v4.12ZM271.82,64.76v-2.27c0-1.61-.09-2.65-.26-3.12s-.52-.7-1.05-.7c-.66,0-1.06.2-1.22.6s-.23,1.47-.23,3.22v2.27h2.77Z"/>
    <path d="M303.74,63.66h-8.39v-1.69c0-1.44-.08-2.35-.25-2.73s-.57-.57-1.23-.57c-.53,0-.93.18-1.2.53s-.4.88-.4,1.58c0,.95.07,1.65.2,2.1s.53.93,1.2,1.46,2.03,1.3,4.09,2.32c2.75,1.34,4.55,2.61,5.41,3.8s1.29,2.91,1.29,5.18c0,2.53-.33,4.44-.98,5.73s-1.75,2.28-3.29,2.98-3.39,1.04-5.57,1.04c-2.41,0-4.46-.38-6.18-1.12s-2.89-1.77-3.53-3.05-.96-3.22-.96-5.81v-1.5h8.39v1.97c0,1.67.11,2.76.32,3.26s.63.75,1.25.75c.67,0,1.14-.17,1.41-.5s.4-1.04.4-2.12c0-1.48-.17-2.41-.52-2.79-.36-.38-2.2-1.48-5.51-3.33-2.78-1.56-4.48-2.98-5.09-4.25s-.91-2.79-.91-4.54c0-2.48.33-4.32.98-5.5s1.77-2.09,3.34-2.73,3.39-.96,5.47-.96,3.82.26,5.26.79,2.55,1.21,3.33,2.07,1.24,1.66,1.41,2.39.25,1.88.25,3.45v1.8Z"/>
  </g>
</svg>