<?xml version="1.0" encoding="UTF-8"?>
<svg id="Capa_1" data-name="Capa 1" xmlns="http://www.w3.org/2000/svg" xmlns:xlink="http://www.w3.org/1999/xlink" viewBox="0 0 286.6 89.2">
  <defs>
    <style>
      .cls-1 {
        opacity: .12;
      }

      .cls-2 {
        fill: #fc00c0;
      }

      .cls-2, .cls-3, .cls-4 {
        stroke: #1d1d1b;
      }

      .cls-2, .cls-3, .cls-4, .cls-5 {
        stroke-miterlimit: 10;
      }

      .cls-3 {
        fill: #ce00a7;
      }

      .cls-6 {
        fill: #fff;
      }

      .cls-7, .cls-4 {
        fill: none;
      }

      .cls-5 {
        fill: #1d1d1b;
        stroke: #000;
      }

      .cls-8 {
        clip-path: url(#clippath);
      }
    </style>
    <clipPath id="clippath">
      <rect class="cls-7" x="-892.99" y="-183.64" width="857.42" height="267.18" rx="9.54" ry="9.54"/>
    </clipPath>
  </defs>
  <g class="cls-8">
    <g>
      <g class="cls-1">
        <line class="cls-4" x1="22.85" y1="-241.16" x2="22.85" y2="141.06"/>
        <line class="cls-4" x1="57.59" y1="-241.16" x2="57.59" y2="141.06"/>
        <line class="cls-4" x1="92.34" y1="-241.16" x2="92.34" y2="141.06"/>
      </g>
      <g class="cls-1">
        <line class="cls-4" x1="92.34" y1="2.07" x2="-950.08" y2="2.07"/>
        <line class="cls-4" x1="92.34" y1="36.81" x2="-950.08" y2="36.81"/>
        <line class="cls-4" x1="92.34" y1="71.56" x2="-950.08" y2="71.56"/>
      </g>
    </g>
  </g>
  <g>
    <rect class="cls-5" x="6.26" y="2.99" width="276.26" height="68.17" rx="9.45" ry="9.45"/>
    <rect class="cls-2" x="2.94" y="2.99" width="276.26" height="68.17" rx="9.45" ry="9.45"/>
    <g>
      <path class="cls-6" d="M33.43,20.57v-6.93h.64v6.93h-.64ZM33.99,17.77v-.61h1.88c.44,0,.78-.12,1.03-.37s.37-.59.37-1.03c0-.49-.12-.87-.37-1.13s-.59-.4-1.03-.4h-1.86l-.12-.6h1.97c.65,0,1.16.18,1.51.53.36.35.54.86.54,1.51s-.18,1.18-.54,1.55c-.36.37-.86.55-1.51.55h-1.88ZM37.41,20.57l-1.67-3.26h.72l1.7,3.26h-.76Z"/>
      <path class="cls-6" d="M41.91,20.67c-.86,0-1.52-.24-1.99-.71s-.7-1.15-.7-2.02.2-1.49.59-1.95c.39-.46.95-.69,1.67-.69.67,0,1.19.21,1.56.62.37.42.55,1.01.55,1.78,0,.2,0,.37-.03.51h-3.82v-.56h3.22c0-.56-.13-.99-.39-1.3-.26-.3-.62-.46-1.09-.46-.52,0-.92.18-1.21.53s-.43.85-.43,1.49c0,.68.19,1.21.57,1.58.38.37.92.56,1.61.56.19,0,.39-.01.61-.04.21-.03.42-.06.61-.1l.09.6c-.22.05-.46.08-.71.11-.25.02-.49.03-.72.03Z"/>
      <path class="cls-6" d="M47.81,20.67c-.87,0-1.54-.23-2-.69s-.69-1.13-.69-2.01.22-1.5.66-1.97c.44-.47,1.07-.7,1.89-.7.49,0,.9.09,1.25.28.35.19.59.45.74.79l-.54.37c-.17-.3-.38-.51-.64-.64-.26-.13-.54-.2-.85-.2-.58,0-1.04.17-1.36.52-.33.35-.49.85-.49,1.49,0,.7.18,1.23.53,1.59.35.36.87.54,1.55.54.26,0,.51-.01.77-.04.26-.03.5-.06.75-.11l.08.6c-.27.07-.54.11-.82.13-.28.02-.55.03-.83.03Z"/>
      <path class="cls-6" d="M52.83,20.67c-.57,0-1.01-.16-1.32-.49-.31-.32-.47-.78-.47-1.37v-3.42h.65v3.42c0,.4.11.71.34.92s.54.32.94.32c.48,0,.84-.14,1.08-.43.24-.29.37-.77.37-1.45l.26,1.4h-.31c-.09.35-.28.62-.54.81-.27.19-.6.29-.99.29ZM54.41,19.11v-3.71h.65v3.75l-.65-.03ZM54.5,20.62l-.06-1.24-.02-.91h.65v1.55l.71.07v.48l-1.27.05Z"/>
      <path class="cls-6" d="M59.49,20.67c-.86,0-1.52-.24-1.99-.71s-.7-1.15-.7-2.02.2-1.49.59-1.95c.39-.46.95-.69,1.67-.69.67,0,1.19.21,1.56.62.37.42.55,1.01.55,1.78,0,.2,0,.37-.03.51h-3.82v-.56h3.22c0-.56-.13-.99-.39-1.3-.26-.3-.62-.46-1.09-.46-.52,0-.92.18-1.21.53s-.43.85-.43,1.49c0,.68.19,1.21.57,1.58.38.37.92.56,1.61.56.19,0,.39-.01.61-.04.21-.03.42-.06.61-.1l.09.6c-.22.05-.46.08-.71.11-.25.02-.49.03-.72.03Z"/>
      <path class="cls-6" d="M62.43,20.57v-.6h3.38v.6h-3.38ZM62.63,15.99v-.6h1.46l.03.6h-1.49ZM63.7,20.57v-5.18h.52l.13,1.48v3.69h-.65ZM64.35,18.34l-.3-1.62h.36c.12-.95.62-1.43,1.52-1.43.55,0,.95.15,1.2.46.25.31.37.8.37,1.48h-.65c0-.48-.08-.82-.24-1.04-.16-.21-.42-.32-.77-.32-.5,0-.88.21-1.13.64s-.37,1.03-.37,1.82Z"/>
      <path class="cls-6" d="M70.43,20.67c-.68,0-1.19-.22-1.54-.67-.35-.45-.53-1.1-.53-1.97s.18-1.58.53-2.04c.35-.46.87-.69,1.56-.69.46,0,.82.1,1.1.3.28.2.45.5.52.88h.36l-.3,1.43c0-.66-.13-1.17-.4-1.51-.27-.34-.65-.51-1.17-.51s-.89.18-1.16.54c-.26.36-.39.9-.39,1.6s.13,1.18.39,1.53c.26.35.65.52,1.16.52s.9-.17,1.16-.51.4-.84.4-1.5l.35,1.38h-.4c-.07.38-.23.68-.51.9s-.65.33-1.14.33ZM72.24,20.62l-.1-1.25v-6.13h.65v7.34l-.55.03Z"/>
      <path class="cls-6" d="M75.86,20.67c-.52,0-.92-.12-1.21-.36-.29-.24-.43-.59-.43-1.03,0-.54.19-.95.58-1.23s.95-.42,1.69-.42c.35,0,.67.02.96.05.29.03.52.08.7.15l-.1.5c-.21-.07-.46-.11-.75-.12-.29-.01-.56-.02-.83-.02-1.07,0-1.61.35-1.61,1.04,0,.27.09.48.28.63.18.15.44.22.77.22.36,0,.67-.06.95-.18.27-.12.48-.29.64-.49s.23-.43.23-.67v-.6l.34,1.33h-.42l.11-.12c-.02.26-.11.49-.28.69-.17.2-.39.35-.67.46-.28.11-.6.16-.95.16ZM77.87,20.62l-.08-1.87-.06-.06v-1.19c0-.53-.14-.91-.43-1.15-.29-.24-.73-.37-1.34-.38l-1.1-.02.1-.61h.97c.85.03,1.46.21,1.86.58s.59.92.59,1.67v2.41l.89.08v.48l-1.39.05Z"/>
      <path class="cls-6" d="M88.06,20.67c-.67,0-1.19-.23-1.56-.69-.37-.46-.55-1.11-.55-1.95s.18-1.54.55-2.02c.37-.48.89-.71,1.57-.71.43,0,.78.09,1.05.27.27.18.45.43.53.77h.36l-.3,1.26c0-.55-.13-.97-.4-1.27-.27-.29-.65-.44-1.14-.44s-.88.19-1.16.56c-.27.37-.41.9-.41,1.58s.14,1.16.41,1.52c.27.35.66.53,1.17.53s.87-.1,1.14-.3.4-.49.4-.86v-.57l.35,1.43h-.41c-.07.29-.24.51-.52.67-.28.16-.64.23-1.07.23ZM89.71,22.82v-6.33l.1-1.09h.55v7.42h-.65Z"/>
      <path class="cls-6" d="M93.84,20.67c-.57,0-1.01-.16-1.32-.49-.31-.32-.47-.78-.47-1.37v-3.42h.65v3.42c0,.4.11.71.34.92s.54.32.94.32c.48,0,.84-.14,1.08-.43.24-.29.37-.77.37-1.45l.26,1.4h-.31c-.09.35-.28.62-.54.81-.27.19-.6.29-.99.29ZM95.42,19.11v-3.71h.65v3.75l-.65-.03ZM95.51,20.62l-.06-1.24-.02-.91h.65v1.55l.71.07v.48l-1.27.05Z"/>
      <path class="cls-6" d="M100.5,20.67c-.86,0-1.52-.24-1.99-.71s-.7-1.15-.7-2.02.2-1.49.59-1.95c.39-.46.95-.69,1.67-.69.67,0,1.19.21,1.56.62.37.42.55,1.01.55,1.78,0,.2,0,.37-.03.51h-3.82v-.56h3.22c0-.56-.13-.99-.39-1.3-.26-.3-.62-.46-1.09-.46-.52,0-.92.18-1.21.53s-.43.85-.43,1.49c0,.68.19,1.21.57,1.58.38.37.92.56,1.61.56.19,0,.39-.01.61-.04.21-.03.42-.06.61-.1l.09.6c-.22.05-.46.08-.71.11-.25.02-.49.03-.72.03Z"/>
      <path class="cls-6" d="M112.22,20.67c-.86,0-1.52-.24-1.99-.71s-.7-1.15-.7-2.02.2-1.49.59-1.95c.39-.46.95-.69,1.67-.69.67,0,1.19.21,1.56.62.37.42.55,1.01.55,1.78,0,.2,0,.37-.03.51h-3.82v-.56h3.22c0-.56-.13-.99-.39-1.3-.26-.3-.62-.46-1.09-.46-.52,0-.92.18-1.21.53s-.43.85-.43,1.49c0,.68.19,1.21.57,1.58.38.37.92.56,1.61.56.19,0,.39-.01.61-.04.21-.03.42-.06.61-.1l.09.6c-.22.05-.46.08-.71.11-.25.02-.49.03-.72.03Z"/>
      <path class="cls-6" d="M117.23,20.67c-.38,0-.7-.01-.97-.03-.27-.02-.51-.06-.72-.11l.08-.62c.33.05.63.09.88.12s.5.04.73.04c.64,0,1.1-.07,1.39-.2.29-.13.43-.35.43-.64,0-.21-.07-.37-.2-.5s-.35-.23-.64-.3l-1.16-.29c-.5-.13-.87-.3-1.09-.51s-.34-.49-.34-.83c0-.52.21-.9.63-1.13.42-.23,1.1-.35,2.04-.35.23,0,.44,0,.64.02.2.02.42.04.65.08l-.07.58c-.26-.03-.49-.04-.69-.05-.2,0-.38-.01-.55-.01-.69,0-1.2.07-1.51.2-.31.14-.47.35-.47.65,0,.18.08.33.23.45s.41.23.76.31l.93.22c.53.13.92.31,1.15.54s.36.53.36.92c0,.51-.2.88-.59,1.11-.39.23-1.03.35-1.9.35Z"/>
      <path class="cls-6" d="M120.98,15.99v-.6h4.53v.6h-4.53ZM122.47,18.13v-4.3h.65v4.3h-.65ZM124.42,20.67c-.67,0-1.16-.17-1.48-.51s-.48-.87-.48-1.57v-.84h.65v.83c0,.5.11.88.34,1.12s.58.37,1.06.37c.19,0,.37,0,.55-.03.18-.02.36-.04.56-.07l.07.59c-.21.04-.42.07-.63.09s-.42.03-.65.03Z"/>
      <path class="cls-6" d="M129.8,20.67c-.86,0-1.52-.24-1.99-.71s-.7-1.15-.7-2.02.2-1.49.59-1.95c.39-.46.95-.69,1.67-.69.67,0,1.19.21,1.56.62.37.42.55,1.01.55,1.78,0,.2,0,.37-.03.51h-3.82v-.56h3.22c0-.56-.13-.99-.39-1.3-.26-.3-.62-.46-1.09-.46-.52,0-.92.18-1.21.53s-.43.85-.43,1.49c0,.68.19,1.21.57,1.58.38.37.92.56,1.61.56.19,0,.39-.01.61-.04.21-.03.42-.06.61-.1l.09.6c-.22.05-.46.08-.71.11-.25.02-.49.03-.72.03Z"/>
      <path class="cls-6" d="M141.52,20.67c-.86,0-1.52-.24-1.99-.71s-.7-1.15-.7-2.02.2-1.49.59-1.95c.39-.46.95-.69,1.67-.69.67,0,1.19.21,1.56.62.37.42.55,1.01.55,1.78,0,.2,0,.37-.03.51h-3.82v-.56h3.22c0-.56-.13-.99-.39-1.3-.26-.3-.62-.46-1.09-.46-.52,0-.92.18-1.21.53s-.43.85-.43,1.49c0,.68.19,1.21.57,1.58.38.37.92.56,1.61.56.19,0,.39-.01.61-.04.21-.03.42-.06.61-.1l.09.6c-.22.05-.46.08-.71.11-.25.02-.49.03-.72.03Z"/>
      <path class="cls-6" d="M146.52,20.67c-.38,0-.7-.01-.97-.03-.27-.02-.51-.06-.72-.11l.08-.62c.33.05.63.09.88.12s.5.04.73.04c.64,0,1.1-.07,1.39-.2.29-.13.43-.35.43-.64,0-.21-.07-.37-.2-.5s-.35-.23-.64-.3l-1.16-.29c-.5-.13-.87-.3-1.09-.51s-.34-.49-.34-.83c0-.52.21-.9.63-1.13.42-.23,1.1-.35,2.04-.35.23,0,.44,0,.64.02.2.02.42.04.65.08l-.07.58c-.26-.03-.49-.04-.69-.05-.2,0-.38-.01-.55-.01-.69,0-1.2.07-1.51.2-.31.14-.47.35-.47.65,0,.18.08.33.23.45s.41.23.76.31l.93.22c.53.13.92.31,1.15.54s.36.53.36.92c0,.51-.2.88-.59,1.11-.39.23-1.03.35-1.9.35Z"/>
      <path class="cls-6" d="M150.75,22.82v-7.42h.55l.1,1.19v6.23h-.65ZM153.1,20.67c-.48,0-.86-.11-1.13-.33s-.44-.52-.51-.9h-.42l.35-1.38c0,.66.13,1.16.4,1.5s.65.51,1.16.51.9-.17,1.16-.52c.26-.35.39-.85.39-1.53,0-.71-.13-1.24-.39-1.6-.26-.36-.65-.54-1.16-.54s-.9.17-1.17.51c-.26.34-.4.84-.4,1.51l-.32-1.43h.36c.07-.39.24-.68.52-.88s.65-.3,1.11-.3c.69,0,1.21.23,1.56.69s.53,1.14.53,2.04-.17,1.52-.52,1.97-.86.67-1.54.67Z"/>
      <path class="cls-6" d="M157.9,20.67c-.52,0-.92-.12-1.21-.36-.29-.24-.43-.59-.43-1.03,0-.54.19-.95.58-1.23s.95-.42,1.69-.42c.35,0,.67.02.96.05.29.03.52.08.7.15l-.1.5c-.21-.07-.46-.11-.75-.12-.29-.01-.56-.02-.83-.02-1.07,0-1.61.35-1.61,1.04,0,.27.09.48.28.63.18.15.44.22.77.22.36,0,.67-.06.95-.18.27-.12.48-.29.64-.49s.23-.43.23-.67v-.6l.34,1.33h-.42l.11-.12c-.02.26-.11.49-.28.69-.17.2-.39.35-.67.46-.28.11-.6.16-.95.16ZM159.9,20.62l-.08-1.87-.06-.06v-1.19c0-.53-.14-.91-.43-1.15-.29-.24-.73-.37-1.34-.38l-1.1-.02.1-.61h.97c.85.03,1.46.21,1.86.58s.59.92.59,1.67v2.41l.89.08v.48l-1.39.05Z"/>
      <path class="cls-6" d="M165,20.67c-.87,0-1.54-.23-2-.69s-.69-1.13-.69-2.01.22-1.5.66-1.97c.44-.47,1.07-.7,1.89-.7.49,0,.9.09,1.25.28.35.19.59.45.74.79l-.54.37c-.17-.3-.38-.51-.64-.64-.26-.13-.54-.2-.85-.2-.58,0-1.04.17-1.36.52-.33.35-.49.85-.49,1.49,0,.7.18,1.23.53,1.59.35.36.87.54,1.55.54.26,0,.51-.01.77-.04.26-.03.5-.06.75-.11l.08.6c-.27.07-.54.11-.82.13-.28.02-.55.03-.83.03Z"/>
      <path class="cls-6" d="M168.29,20.57v-.6h2.19v.6h-2.19ZM168.58,15.99v-.6h2.45v.6h-2.45ZM170.65,14.27c-.16,0-.29-.06-.4-.17s-.17-.24-.17-.4.06-.29.17-.4.24-.17.4-.17.29.06.4.17.17.24.17.4-.06.29-.17.4-.24.17-.4.17ZM170.38,20.57v-4.92h.65v4.92h-.65ZM170.93,20.57v-.6h1.81v.6h-1.81Z"/>
      <path class="cls-6" d="M176.22,20.67c-.69,0-1.23-.23-1.61-.7s-.58-1.13-.58-1.98.19-1.52.58-1.98c.38-.47.92-.7,1.61-.7s1.23.23,1.61.7c.38.47.57,1.13.57,1.98s-.19,1.51-.57,1.98c-.38.47-.92.7-1.61.7ZM176.22,20.06c.48,0,.86-.18,1.12-.54.26-.36.4-.87.4-1.53s-.13-1.18-.4-1.54c-.27-.36-.64-.54-1.12-.54s-.86.18-1.12.54c-.26.36-.4.87-.4,1.54s.13,1.17.4,1.53c.27.36.64.54,1.12.54Z"/>
      <path class="cls-6" d="M188.39,20.67c-.86,0-1.52-.24-1.99-.71s-.7-1.15-.7-2.02.2-1.49.59-1.95c.39-.46.95-.69,1.67-.69.67,0,1.19.21,1.56.62.37.42.55,1.01.55,1.78,0,.2,0,.37-.03.51h-3.82v-.56h3.22c0-.56-.13-.99-.39-1.3-.26-.3-.62-.46-1.09-.46-.52,0-.92.18-1.21.53s-.43.85-.43,1.49c0,.68.19,1.21.57,1.58.38.37.92.56,1.61.56.19,0,.39-.01.61-.04.21-.03.42-.06.61-.1l.09.6c-.22.05-.46.08-.71.11-.25.02-.49.03-.72.03Z"/>
      <path class="cls-6" d="M193.4,20.67c-.38,0-.7-.01-.97-.03-.27-.02-.51-.06-.72-.11l.08-.62c.33.05.63.09.88.12s.5.04.73.04c.64,0,1.1-.07,1.39-.2.29-.13.43-.35.43-.64,0-.21-.07-.37-.2-.5s-.35-.23-.64-.3l-1.16-.29c-.5-.13-.87-.3-1.09-.51s-.34-.49-.34-.83c0-.52.21-.9.63-1.13.42-.23,1.1-.35,2.04-.35.23,0,.44,0,.64.02.2.02.42.04.65.08l-.07.58c-.26-.03-.49-.04-.69-.05-.2,0-.38-.01-.55-.01-.69,0-1.2.07-1.51.2-.31.14-.47.35-.47.65,0,.18.08.33.23.45s.41.23.76.31l.93.22c.53.13.92.31,1.15.54s.36.53.36.92c0,.51-.2.88-.59,1.11-.39.23-1.03.35-1.9.35Z"/>
      <path class="cls-6" d="M203.49,22.82v-7.42h.55l.1,1.19v6.23h-.65ZM205.83,20.67c-.48,0-.86-.11-1.13-.33s-.44-.52-.51-.9h-.42l.35-1.38c0,.66.13,1.16.4,1.5s.65.51,1.16.51.9-.17,1.16-.52c.26-.35.39-.85.39-1.53,0-.71-.13-1.24-.39-1.6-.26-.36-.65-.54-1.16-.54s-.9.17-1.17.51c-.26.34-.4.84-.4,1.51l-.32-1.43h.36c.07-.39.24-.68.52-.88s.65-.3,1.11-.3c.69,0,1.21.23,1.56.69s.53,1.14.53,2.04-.17,1.52-.52,1.97-.86.67-1.54.67Z"/>
      <path class="cls-6" d="M210.63,20.67c-.52,0-.92-.12-1.21-.36-.29-.24-.43-.59-.43-1.03,0-.54.19-.95.58-1.23s.95-.42,1.69-.42c.35,0,.67.02.96.05.29.03.52.08.7.15l-.1.5c-.21-.07-.46-.11-.75-.12-.29-.01-.56-.02-.83-.02-1.07,0-1.61.35-1.61,1.04,0,.27.09.48.28.63.18.15.44.22.77.22.36,0,.67-.06.95-.18.27-.12.48-.29.64-.49s.23-.43.23-.67v-.6l.34,1.33h-.42l.11-.12c-.02.26-.11.49-.28.69-.17.2-.39.35-.67.46-.28.11-.6.16-.95.16ZM212.64,20.62l-.08-1.87-.06-.06v-1.19c0-.53-.14-.91-.43-1.15-.29-.24-.73-.37-1.34-.38l-1.1-.02.1-.61h.97c.85.03,1.46.21,1.86.58s.59.92.59,1.67v2.41l.89.08v.48l-1.39.05Z"/>
      <path class="cls-6" d="M214.78,20.57v-.6h3.38v.6h-3.38ZM214.97,15.99v-.6h1.46l.03.6h-1.49ZM216.04,20.57v-5.18h.52l.13,1.48v3.69h-.65ZM216.69,18.34l-.3-1.62h.36c.12-.95.62-1.43,1.52-1.43.55,0,.95.15,1.2.46.25.31.37.8.37,1.48h-.65c0-.48-.08-.82-.24-1.04-.16-.21-.42-.32-.77-.32-.5,0-.88.21-1.13.64s-.37,1.03-.37,1.82Z"/>
      <path class="cls-6" d="M222.35,20.67c-.52,0-.92-.12-1.21-.36-.29-.24-.43-.59-.43-1.03,0-.54.19-.95.58-1.23s.95-.42,1.69-.42c.35,0,.67.02.96.05.29.03.52.08.7.15l-.1.5c-.21-.07-.46-.11-.75-.12-.29-.01-.56-.02-.83-.02-1.07,0-1.61.35-1.61,1.04,0,.27.09.48.28.63.18.15.44.22.77.22.36,0,.67-.06.95-.18.27-.12.48-.29.64-.49s.23-.43.23-.67v-.6l.34,1.33h-.42l.11-.12c-.02.26-.11.49-.28.69-.17.2-.39.35-.67.46-.28.11-.6.16-.95.16ZM224.36,20.62l-.08-1.87-.06-.06v-1.19c0-.53-.14-.91-.43-1.15-.29-.24-.73-.37-1.34-.38l-1.1-.02.1-.61h.97c.85.03,1.46.21,1.86.58s.59.92.59,1.67v2.41l.89.08v.48l-1.39.05Z"/>
      <path class="cls-6" d="M232.3,15.99v-.6h4.53v.6h-4.53ZM233.79,18.13v-4.3h.65v4.3h-.65ZM235.75,20.67c-.67,0-1.16-.17-1.48-.51s-.48-.87-.48-1.57v-.84h.65v.83c0,.5.11.88.34,1.12s.58.37,1.06.37c.19,0,.37,0,.55-.03.18-.02.36-.04.56-.07l.07.59c-.21.04-.42.07-.63.09s-.42.03-.65.03Z"/>
      <path class="cls-6" d="M238.6,20.57v-.6h2.19v.6h-2.19ZM238.9,15.99v-.6h2.45v.6h-2.45ZM240.97,14.27c-.16,0-.29-.06-.4-.17s-.17-.24-.17-.4.06-.29.17-.4.24-.17.4-.17.29.06.4.17.17.24.17.4-.06.29-.17.4-.24.17-.4.17ZM240.69,20.57v-4.92h.65v4.92h-.65ZM241.24,20.57v-.6h1.81v.6h-1.81Z"/>
      <path class="cls-6" d="M246.53,20.67c-.16,0-.29-.06-.4-.17s-.17-.24-.17-.4.06-.29.17-.4.24-.17.4-.17.29.06.4.17.17.24.17.4-.06.29-.17.4-.24.17-.4.17Z"/>
      <path class="cls-6" d="M12.88,36.67c-2.21,0-3.32-1.19-3.32-3.57,0-1.13.28-2,.83-2.62.56-.62,1.34-.93,2.36-.93.46,0,.87.07,1.22.22.35.15.62.36.81.63l-.72.95c-.15-.18-.33-.32-.56-.42-.23-.1-.47-.15-.73-.15-.56,0-1.01.2-1.35.59-.34.39-.5.96-.5,1.68,0,1.59.71,2.39,2.12,2.39.47,0,.94-.1,1.4-.29l.22,1.19c-.57.22-1.16.33-1.79.33Z"/>
      <path class="cls-6" d="M18.02,36.67c-.75,0-1.32-.23-1.73-.7s-.62-1.13-.62-1.98.21-1.52.62-1.98c.41-.47.99-.7,1.73-.7s1.32.23,1.73.7c.41.47.62,1.13.62,1.98s-.21,1.51-.62,1.98-.99.7-1.73.7ZM18.02,35.41c.32,0,.56-.12.74-.37.17-.25.26-.6.26-1.06s-.09-.81-.26-1.06-.42-.37-.74-.37-.56.12-.73.37c-.17.25-.26.6-.26,1.06s.09.81.26,1.06c.17.25.42.37.73.37Z"/>
      <path class="cls-6" d="M21.41,36.57v-5.18h1.19l.12,1.09v4.08h-1.3ZM23.4,36.57v-3.6c0-.29-.1-.44-.31-.44-.25,0-.37.19-.37.58l-.3-1.07h.37c.07-.5.33-.74.79-.74.25,0,.45.09.59.28.15.19.22.47.22.84v4.15h-.98ZM25.04,36.57v-3.51c0-.36-.1-.54-.31-.54-.23,0-.35.19-.35.58l-.35-1.07h.44c.03-.23.12-.41.27-.54.15-.13.35-.2.6-.2.35,0,.6.1.76.29.16.19.24.5.24.93v4.05h-1.3Z"/>
      <path class="cls-6" d="M28.98,36.67c-.49,0-.87-.16-1.14-.49-.27-.32-.41-.78-.41-1.37v-3.42h1.32v3.09c0,.3.07.52.2.69.13.16.32.24.56.24.31,0,.54-.12.7-.36.16-.24.24-.64.24-1.2l.26,1.72h-.4c-.08.35-.24.62-.47.81s-.52.28-.86.28ZM30.46,35.11v-3.71h1.32v3.42l-1.32.29ZM30.55,36.62l-.09-1.24v-.91h1.32v.92l.71.11v1.07l-1.95.05Z"/>
      <path class="cls-6" d="M33.4,36.57v-5.18h1.18l.14,1.09v4.08h-1.32ZM36.46,36.57v-3.04c0-.31-.06-.55-.19-.72-.13-.17-.31-.25-.55-.25-.66,0-1,.48-1,1.44l-.3-1.66h.43c.05-.35.17-.61.36-.78.19-.17.48-.26.86-.26.55,0,.97.17,1.27.5s.45.8.45,1.41v3.37h-1.32Z"/>
      <path class="cls-6" d="M39.22,36.57v-1.22h2.01v1.22h-2.01ZM39.52,32.61v-1.22h2.94v1.22h-2.94ZM41.03,30.48l.91-1.86h1.4l-1.01,1.86h-1.3ZM41.14,36.57v-5.18h1.32v5.18h-1.32ZM42.36,36.57v-1.22h1.63v1.22h-1.63Z"/>
      <path class="cls-6" d="M47.92,36.67c-.94,0-1.67-.23-2.18-.7-.51-.46-.77-1.13-.77-2s.23-1.5.7-1.97,1.14-.7,2.01-.7c.53,0,.99.1,1.38.31.38.21.65.5.81.88l-.96.76c-.14-.22-.32-.4-.54-.52-.22-.12-.46-.18-.72-.18-.41,0-.74.12-.97.36-.23.24-.35.58-.35,1.02,0,.49.15.85.45,1.11.3.25.72.38,1.27.38.23,0,.47-.01.7-.03.23-.02.46-.05.68-.09l.14,1.24c-.26.06-.54.1-.82.12s-.55.03-.82.03Z"/>
      <path class="cls-6" d="M52.37,36.67c-.55,0-.98-.13-1.28-.41s-.46-.65-.46-1.15c0-.58.2-1.02.6-1.33s.97-.46,1.7-.46c.28,0,.53.01.74.04.21.03.42.08.63.14l-.21,1.03c-.21-.05-.4-.08-.56-.08-.17,0-.34-.01-.52-.01-.68,0-1.03.2-1.03.59,0,.18.06.31.19.4.12.09.3.14.54.14.29,0,.53-.05.72-.16s.34-.24.43-.41c.1-.17.14-.34.14-.51v-.32l.19,1.33h-.42l.17-.16c0,.3-.08.55-.21.75-.13.2-.3.35-.54.45-.23.1-.5.15-.82.15ZM54.13,36.62l-.11-1.53-.02-.67v-1.01c0-.28-.12-.48-.35-.61-.24-.13-.59-.2-1.05-.21l-1.32-.03.1-1.2h1.13c.94.03,1.63.21,2.09.57.46.36.68.88.68,1.56v1.91l.72.11v1.07l-1.86.05Z"/>
      <path class="cls-6" d="M56.36,32.61v-1.22h4.85v1.22h-4.85ZM57.6,34.05v-4.21h1.32v4.21h-1.32ZM60.13,36.67c-.89,0-1.54-.18-1.93-.54s-.6-.93-.6-1.72v-.67h1.32v.55c0,.39.1.68.31.86.2.18.54.27,1,.27.15,0,.31,0,.48-.03.17-.02.37-.04.58-.07l.12,1.24c-.21.04-.42.07-.63.09-.2.02-.42.03-.65.03Z"/>
      <path class="cls-6" d="M65.3,36.67c-.9,0-1.59-.23-2.08-.7-.49-.46-.73-1.13-.73-2s.21-1.5.62-1.97c.42-.47,1-.7,1.76-.7s1.31.22,1.71.65.61,1.06.61,1.89c0,.23,0,.46-.03.67h-3.8v-.92h2.53c0-.35-.09-.62-.27-.8-.18-.19-.42-.28-.74-.28-.34,0-.61.12-.8.37-.19.25-.29.59-.29,1.05,0,.49.14.86.42,1.11.28.25.68.38,1.2.38.23,0,.47-.01.69-.04.23-.02.46-.06.7-.1l.13,1.25c-.33.06-.63.1-.91.11s-.52.02-.73.02Z"/>
      <path class="cls-6" d="M77.22,36.67c-.94,0-1.67-.23-2.18-.7-.51-.46-.77-1.13-.77-2s.23-1.5.7-1.97,1.14-.7,2.01-.7c.53,0,.99.1,1.38.31.38.21.65.5.81.88l-.96.76c-.14-.22-.32-.4-.54-.52-.22-.12-.46-.18-.72-.18-.41,0-.74.12-.97.36-.23.24-.35.58-.35,1.02,0,.49.15.85.45,1.11.3.25.72.38,1.27.38.23,0,.47-.01.7-.03.23-.02.46-.05.68-.09l.14,1.24c-.26.06-.54.1-.82.12s-.55.03-.82.03Z"/>
      <path class="cls-6" d="M82.47,36.67c-.75,0-1.32-.23-1.73-.7s-.62-1.13-.62-1.98.21-1.52.62-1.98c.41-.47.99-.7,1.73-.7s1.32.23,1.73.7c.41.47.62,1.13.62,1.98s-.21,1.51-.62,1.98-.99.7-1.73.7ZM82.47,35.41c.32,0,.56-.12.74-.37.17-.25.26-.6.26-1.06s-.09-.81-.26-1.06-.42-.37-.74-.37-.56.12-.73.37c-.17.25-.26.6-.26,1.06s.09.81.26,1.06c.17.25.42.37.73.37Z"/>
      <path class="cls-6" d="M86.14,36.57v-5.18h1.18l.14,1.09v4.08h-1.32ZM89.2,36.57v-3.04c0-.31-.06-.55-.19-.72-.13-.17-.31-.25-.55-.25-.66,0-1,.48-1,1.44l-.3-1.66h.43c.05-.35.17-.61.36-.78.19-.17.48-.26.86-.26.55,0,.97.17,1.27.5s.45.8.45,1.41v3.37h-1.32Z"/>
      <path class="cls-6" d="M97.86,36.57v-5.18h1.18l.14,1.09v4.08h-1.32ZM100.92,36.57v-3.04c0-.31-.06-.55-.19-.72-.13-.17-.31-.25-.55-.25-.66,0-1,.48-1,1.44l-.3-1.66h.43c.05-.35.17-.61.36-.78.19-.17.48-.26.86-.26.55,0,.97.17,1.27.5s.45.8.45,1.41v3.37h-1.32Z"/>
      <path class="cls-6" d="M105.91,36.67c-.75,0-1.32-.23-1.73-.7s-.62-1.13-.62-1.98.21-1.52.62-1.98c.41-.47.99-.7,1.73-.7s1.32.23,1.73.7c.41.47.62,1.13.62,1.98s-.21,1.51-.62,1.98-.99.7-1.73.7ZM105.91,35.41c.32,0,.56-.12.74-.37.17-.25.26-.6.26-1.06s-.09-.81-.26-1.06-.42-.37-.74-.37-.56.12-.73.37c-.17.25-.26.6-.26,1.06s.09.81.26,1.06c.17.25.42.37.73.37Z"/>
      <path class="cls-6" d="M111.37,36.67c-.39,0-.74-.01-1.05-.04-.3-.02-.57-.06-.8-.11l.16-1.26c.41.05.75.09,1.04.12s.5.04.66.04c.44,0,.76-.03.96-.09.2-.06.3-.16.3-.29,0-.08-.02-.14-.07-.19s-.13-.08-.23-.12l-1.68-.49c-.34-.1-.6-.25-.78-.46-.17-.21-.26-.48-.26-.83,0-.56.23-.97.7-1.24.47-.27,1.18-.41,2.13-.41.22,0,.45,0,.69.02.24.02.49.04.76.07l-.14,1.23c-.3-.03-.55-.04-.78-.05s-.41-.01-.56-.01c-.51,0-.88.03-1.11.08-.23.06-.34.15-.34.28,0,.08.02.14.07.19.05.04.12.08.22.11l1.45.4c.45.12.78.3,1,.52.22.23.33.53.33.9,0,.55-.22.96-.65,1.23-.44.27-1.1.4-2,.4Z"/>
      <path class="cls-6" d="M117.63,36.67c-.75,0-1.32-.23-1.73-.7s-.62-1.13-.62-1.98.21-1.52.62-1.98c.41-.47.99-.7,1.73-.7s1.32.23,1.73.7c.41.47.62,1.13.62,1.98s-.21,1.51-.62,1.98-.99.7-1.73.7ZM117.63,35.41c.32,0,.56-.12.74-.37.17-.25.26-.6.26-1.06s-.09-.81-.26-1.06-.42-.37-.74-.37-.56.12-.73.37c-.17.25-.26.6-.26,1.06s.09.81.26,1.06c.17.25.42.37.73.37Z"/>
      <path class="cls-6" d="M120.82,32.61v-1.22h4.85v1.22h-4.85ZM122.06,34.05v-4.21h1.32v4.21h-1.32ZM124.58,36.67c-.89,0-1.54-.18-1.93-.54s-.6-.93-.6-1.72v-.67h1.32v.55c0,.39.1.68.31.86.2.18.54.27,1,.27.15,0,.31,0,.48-.03.17-.02.37-.04.58-.07l.12,1.24c-.21.04-.42.07-.63.09-.2.02-.42.03-.65.03Z"/>
      <path class="cls-6" d="M126.72,36.57v-1.13h3.62v1.13h-3.62ZM126.92,32.53v-1.13h1.95l.1,1.13h-2.05ZM127.82,36.57v-5.18h1.12l.2,1.48v3.69h-1.32ZM129.14,34.34l-.3-1.78h.44c.05-.84.49-1.26,1.32-1.26.49,0,.87.18,1.13.54.26.36.39.88.39,1.56h-1.32c0-.31-.06-.53-.17-.66-.11-.13-.29-.2-.54-.2-.32,0-.56.16-.72.47s-.24.76-.24,1.33Z"/>
      <path class="cls-6" d="M135.2,36.67c-.75,0-1.32-.23-1.73-.7s-.62-1.13-.62-1.98.21-1.52.62-1.98c.41-.47.99-.7,1.73-.7s1.32.23,1.73.7c.41.47.62,1.13.62,1.98s-.21,1.51-.62,1.98-.99.7-1.73.7ZM135.2,35.41c.32,0,.56-.12.74-.37.17-.25.26-.6.26-1.06s-.09-.81-.26-1.06-.42-.37-.74-.37-.56.12-.73.37c-.17.25-.26.6-.26,1.06s.09.81.26,1.06c.17.25.42.37.73.37Z"/>
      <path class="cls-6" d="M140.66,36.67c-.39,0-.74-.01-1.05-.04-.3-.02-.57-.06-.8-.11l.16-1.26c.41.05.75.09,1.04.12s.5.04.66.04c.44,0,.76-.03.96-.09.2-.06.3-.16.3-.29,0-.08-.02-.14-.07-.19s-.13-.08-.23-.12l-1.68-.49c-.34-.1-.6-.25-.78-.46-.17-.21-.26-.48-.26-.83,0-.56.23-.97.7-1.24.47-.27,1.18-.41,2.13-.41.22,0,.45,0,.69.02.24.02.49.04.76.07l-.14,1.23c-.3-.03-.55-.04-.78-.05s-.41-.01-.56-.01c-.51,0-.88.03-1.11.08-.23.06-.34.15-.34.28,0,.08.02.14.07.19.05.04.12.08.22.11l1.45.4c.45.12.78.3,1,.52.22.23.33.53.33.9,0,.55-.22.96-.65,1.23-.44.27-1.1.4-2,.4Z"/>
      <path class="cls-6" d="M152.38,36.67c-.39,0-.74-.01-1.05-.04-.3-.02-.57-.06-.8-.11l.16-1.26c.41.05.75.09,1.04.12s.5.04.66.04c.44,0,.76-.03.96-.09.2-.06.3-.16.3-.29,0-.08-.02-.14-.07-.19s-.13-.08-.23-.12l-1.68-.49c-.34-.1-.6-.25-.78-.46-.17-.21-.26-.48-.26-.83,0-.56.23-.97.7-1.24.47-.27,1.18-.41,2.13-.41.22,0,.45,0,.69.02.24.02.49.04.76.07l-.14,1.23c-.3-.03-.55-.04-.78-.05s-.41-.01-.56-.01c-.51,0-.88.03-1.11.08-.23.06-.34.15-.34.28,0,.08.02.14.07.19.05.04.12.08.22.11l1.45.4c.45.12.78.3,1,.52.22.23.33.53.33.9,0,.55-.22.96-.65,1.23-.44.27-1.1.4-2,.4Z"/>
      <path class="cls-6" d="M156.41,36.57v-1.22h2.01v1.22h-2.01ZM156.7,32.61v-1.22h2.94v1.22h-2.94ZM158.93,30.7c-.25,0-.45-.08-.61-.23s-.23-.36-.23-.61.08-.45.23-.61.36-.23.61-.23.45.08.61.23.23.36.23.61-.08.45-.23.61-.36.23-.61.23ZM158.33,36.57v-4.88h1.32v4.88h-1.32ZM159.55,36.57v-1.22h1.63v1.22h-1.63Z"/>
      <path class="cls-6" d="M169.85,36.67c-.64,0-1.14-.23-1.5-.69-.36-.46-.53-1.12-.53-1.99s.18-1.52.53-1.99c.36-.47.86-.7,1.51-.7.38,0,.67.09.86.26.2.17.32.43.38.78h.43l-.3,1.66c0-.5-.08-.87-.25-1.1-.17-.23-.42-.35-.76-.35s-.59.13-.78.38c-.18.25-.27.61-.27,1.07s.09.83.27,1.07c.18.24.44.36.78.36.38,0,.64-.11.79-.34.15-.23.22-.59.22-1.09l.35,1.65h-.46c-.05.34-.19.6-.41.78s-.51.26-.87.26ZM171.42,36.62l-.19-1.03v-6.35h1.32v7.32l-1.13.05Z"/>
      <path class="cls-6" d="M176.63,36.67c-.9,0-1.59-.23-2.08-.7-.49-.46-.73-1.13-.73-2s.21-1.5.62-1.97c.42-.47,1-.7,1.76-.7s1.31.22,1.71.65.61,1.06.61,1.89c0,.23,0,.46-.03.67h-3.8v-.92h2.53c0-.35-.09-.62-.27-.8-.18-.19-.42-.28-.74-.28-.34,0-.61.12-.8.37-.19.25-.29.59-.29,1.05,0,.49.14.86.42,1.11.28.25.68.38,1.2.38.23,0,.47-.01.69-.04.23-.02.46-.06.7-.1l.13,1.25c-.33.06-.63.1-.91.11s-.52.02-.73.02Z"/>
      <path class="cls-6" d="M181.68,36.67c-.39,0-.74-.01-1.05-.04-.3-.02-.57-.06-.8-.11l.16-1.26c.41.05.75.09,1.04.12s.5.04.66.04c.44,0,.76-.03.96-.09.2-.06.3-.16.3-.29,0-.08-.02-.14-.07-.19s-.13-.08-.23-.12l-1.68-.49c-.34-.1-.6-.25-.78-.46-.17-.21-.26-.48-.26-.83,0-.56.23-.97.7-1.24.47-.27,1.18-.41,2.13-.41.22,0,.45,0,.69.02.24.02.49.04.76.07l-.14,1.23c-.3-.03-.55-.04-.78-.05s-.41-.01-.56-.01c-.51,0-.88.03-1.11.08-.23.06-.34.15-.34.28,0,.08.02.14.07.19.05.04.12.08.22.11l1.45.4c.45.12.78.3,1,.52.22.23.33.53.33.9,0,.55-.22.96-.65,1.23-.44.27-1.1.4-2,.4Z"/>
      <path class="cls-6" d="M188.35,36.67c-.9,0-1.59-.23-2.08-.7-.49-.46-.73-1.13-.73-2s.21-1.5.62-1.97c.42-.47,1-.7,1.76-.7s1.31.22,1.71.65.61,1.06.61,1.89c0,.23,0,.46-.03.67h-3.8v-.92h2.53c0-.35-.09-.62-.27-.8-.18-.19-.42-.28-.74-.28-.34,0-.61.12-.8.37-.19.25-.29.59-.29,1.05,0,.49.14.86.42,1.11.28.25.68.38,1.2.38.23,0,.47-.01.69-.04.23-.02.46-.06.7-.1l.13,1.25c-.33.06-.63.1-.91.11s-.52.02-.73.02Z"/>
      <path class="cls-6" d="M193,36.67c-.55,0-.98-.13-1.28-.41s-.46-.65-.46-1.15c0-.58.2-1.02.6-1.33s.97-.46,1.7-.46c.28,0,.53.01.74.04.21.03.42.08.63.14l-.21,1.03c-.21-.05-.4-.08-.56-.08-.17,0-.34-.01-.52-.01-.68,0-1.03.2-1.03.59,0,.18.06.31.19.4.12.09.3.14.54.14.29,0,.53-.05.72-.16s.34-.24.43-.41c.1-.17.14-.34.14-.51v-.32l.19,1.33h-.42l.17-.16c0,.3-.08.55-.21.75-.13.2-.3.35-.54.45-.23.1-.5.15-.82.15ZM194.75,36.62l-.11-1.53-.02-.67v-1.01c0-.28-.12-.48-.35-.61-.24-.13-.59-.2-1.05-.21l-1.32-.03.1-1.2h1.13c.94.03,1.63.21,2.09.57.46.36.68.88.68,1.56v1.91l.72.11v1.07l-1.86.05Z"/>
      <path class="cls-6" d="M199.26,36.67c-.39,0-.74-.01-1.05-.04-.3-.02-.57-.06-.8-.11l.16-1.26c.41.05.75.09,1.04.12s.5.04.66.04c.44,0,.76-.03.96-.09.2-.06.3-.16.3-.29,0-.08-.02-.14-.07-.19s-.13-.08-.23-.12l-1.68-.49c-.34-.1-.6-.25-.78-.46-.17-.21-.26-.48-.26-.83,0-.56.23-.97.7-1.24.47-.27,1.18-.41,2.13-.41.22,0,.45,0,.69.02.24.02.49.04.76.07l-.14,1.23c-.3-.03-.55-.04-.78-.05s-.41-.01-.56-.01c-.51,0-.88.03-1.11.08-.23.06-.34.15-.34.28,0,.08.02.14.07.19.05.04.12.08.22.11l1.45.4c.45.12.78.3,1,.52.22.23.33.53.33.9,0,.55-.22.96-.65,1.23-.44.27-1.1.4-2,.4Z"/>
      <path class="cls-6" d="M209.18,38.82v-7.42h1.23l.1,1.09v6.33h-1.32ZM211.89,36.67c-.36,0-.65-.09-.87-.26s-.35-.43-.41-.78h-.46l.35-1.65c0,.5.08.87.22,1.09s.41.34.79.34c.34,0,.61-.12.78-.36.18-.24.27-.6.27-1.07s-.09-.81-.27-1.07c-.18-.25-.44-.38-.78-.38s-.59.12-.76.35-.25.6-.25,1.1l-.3-1.66h.38c.06-.35.19-.61.4-.78.2-.17.5-.26.9-.26.65,0,1.15.23,1.51.7.36.47.53,1.13.53,1.99s-.18,1.53-.53,1.99c-.36.46-.86.69-1.5.69Z"/>
      <path class="cls-6" d="M214.61,36.57v-1.13h3.62v1.13h-3.62ZM214.81,32.53v-1.13h1.95l.1,1.13h-2.05ZM215.71,36.57v-5.18h1.12l.2,1.48v3.69h-1.32ZM217.03,34.34l-.3-1.78h.44c.05-.84.49-1.26,1.32-1.26.49,0,.87.18,1.13.54.26.36.39.88.39,1.56h-1.32c0-.31-.06-.53-.17-.66-.11-.13-.29-.2-.54-.2-.32,0-.56.16-.72.47s-.24.76-.24,1.33Z"/>
      <path class="cls-6" d="M223.1,36.67c-.75,0-1.32-.23-1.73-.7s-.62-1.13-.62-1.98.21-1.52.62-1.98c.41-.47.99-.7,1.73-.7s1.32.23,1.73.7c.41.47.62,1.13.62,1.98s-.21,1.51-.62,1.98-.99.7-1.73.7ZM223.1,35.41c.32,0,.56-.12.74-.37.17-.25.26-.6.26-1.06s-.09-.81-.26-1.06-.42-.37-.74-.37-.56.12-.73.37c-.17.25-.26.6-.26,1.06s.09.81.26,1.06c.17.25.42.37.73.37Z"/>
      <path class="cls-6" d="M226.49,36.57v-5.18h1.19l.12,1.09v4.08h-1.3ZM228.48,36.57v-3.6c0-.29-.1-.44-.31-.44-.25,0-.37.19-.37.58l-.3-1.07h.37c.07-.5.33-.74.79-.74.25,0,.45.09.59.28.15.19.22.47.22.84v4.15h-.98ZM230.12,36.57v-3.51c0-.36-.1-.54-.31-.54-.23,0-.35.19-.35.58l-.35-1.07h.44c.03-.23.12-.41.27-.54.15-.13.35-.2.6-.2.35,0,.6.1.76.29.16.19.24.5.24.93v4.05h-1.3Z"/>
      <path class="cls-6" d="M234.81,36.67c-.75,0-1.32-.23-1.73-.7s-.62-1.13-.62-1.98.21-1.52.62-1.98c.41-.47.99-.7,1.73-.7s1.32.23,1.73.7c.41.47.62,1.13.62,1.98s-.21,1.51-.62,1.98-.99.7-1.73.7ZM234.81,35.41c.32,0,.56-.12.74-.37.17-.25.26-.6.26-1.06s-.09-.81-.26-1.06-.42-.37-.74-.37-.56.12-.73.37c-.17.25-.26.6-.26,1.06s.09.81.26,1.06c.17.25.42.37.73.37Z"/>
      <path class="cls-6" d="M241.28,36.67c-.94,0-1.67-.23-2.18-.7-.51-.46-.77-1.13-.77-2s.23-1.5.7-1.97,1.14-.7,2.01-.7c.53,0,.99.1,1.38.31.38.21.65.5.81.88l-.96.76c-.14-.22-.32-.4-.54-.52-.22-.12-.46-.18-.72-.18-.41,0-.74.12-.97.36-.23.24-.35.58-.35,1.02,0,.49.15.85.45,1.11.3.25.72.38,1.27.38.23,0,.47-.01.7-.03.23-.02.46-.05.68-.09l.14,1.24c-.26.06-.54.1-.82.12s-.55.03-.82.03Z"/>
      <path class="cls-6" d="M244.3,36.57v-1.22h2.01v1.22h-2.01ZM244.59,32.61v-1.22h2.94v1.22h-2.94ZM246.82,30.7c-.25,0-.45-.08-.61-.23s-.23-.36-.23-.61.08-.45.23-.61.36-.23.61-.23.45.08.61.23.23.36.23.61-.08.45-.23.61-.36.23-.61.23ZM246.22,36.57v-4.88h1.32v4.88h-1.32ZM247.44,36.57v-1.22h1.63v1.22h-1.63Z"/>
      <path class="cls-6" d="M252.39,36.67c-.75,0-1.32-.23-1.73-.7s-.62-1.13-.62-1.98.21-1.52.62-1.98c.41-.47.99-.7,1.73-.7s1.32.23,1.73.7c.41.47.62,1.13.62,1.98s-.21,1.51-.62,1.98-.99.7-1.73.7ZM252.39,35.41c.32,0,.56-.12.74-.37.17-.25.26-.6.26-1.06s-.09-.81-.26-1.06-.42-.37-.74-.37-.56.12-.73.37c-.17.25-.26.6-.26,1.06s.09.81.26,1.06c.17.25.42.37.73.37Z"/>
      <path class="cls-6" d="M256.06,36.57v-5.18h1.18l.14,1.09v4.08h-1.32ZM259.12,36.57v-3.04c0-.31-.06-.55-.19-.72-.13-.17-.31-.25-.55-.25-.66,0-1,.48-1,1.44l-.3-1.66h.43c.05-.35.17-.61.36-.78.19-.17.48-.26.86-.26.55,0,.97.17,1.27.5s.45.8.45,1.41v3.37h-1.32Z"/>
      <path class="cls-6" d="M263.31,36.67c-.55,0-.98-.13-1.28-.41s-.46-.65-.46-1.15c0-.58.2-1.02.6-1.33s.97-.46,1.7-.46c.28,0,.53.01.74.04.21.03.42.08.63.14l-.21,1.03c-.21-.05-.4-.08-.56-.08-.17,0-.34-.01-.52-.01-.68,0-1.03.2-1.03.59,0,.18.06.31.19.4.12.09.3.14.54.14.29,0,.53-.05.72-.16s.34-.24.43-.41c.1-.17.14-.34.14-.51v-.32l.19,1.33h-.42l.17-.16c0,.3-.08.55-.21.75-.13.2-.3.35-.54.45-.23.1-.5.15-.82.15ZM265.06,36.62l-.11-1.53-.02-.67v-1.01c0-.28-.12-.48-.35-.61-.24-.13-.59-.2-1.05-.21l-1.32-.03.1-1.2h1.13c.94.03,1.63.21,2.09.57.46.36.68.88.68,1.56v1.91l.72.11v1.07l-1.86.05Z"/>
      <path class="cls-6" d="M267.35,36.57v-1.13h3.62v1.13h-3.62ZM267.54,32.53v-1.13h1.95l.1,1.13h-2.05ZM268.44,36.57v-5.18h1.12l.2,1.48v3.69h-1.32ZM269.76,34.34l-.3-1.78h.44c.05-.84.49-1.26,1.32-1.26.49,0,.87.18,1.13.54.26.36.39.88.39,1.56h-1.32c0-.31-.06-.53-.17-.66-.11-.13-.29-.2-.54-.2-.32,0-.56.16-.72.47s-.24.76-.24,1.33Z"/>
      <path class="cls-6" d="M43.58,47.67c-.55,0-.98-.13-1.28-.41s-.46-.65-.46-1.15c0-.58.2-1.02.6-1.33s.97-.46,1.7-.46c.28,0,.53.01.74.04.21.03.42.08.63.14l-.21,1.03c-.21-.05-.4-.08-.56-.08-.17,0-.34-.01-.52-.01-.68,0-1.03.2-1.03.59,0,.18.06.31.19.4.12.09.3.14.54.14.29,0,.53-.05.72-.16s.34-.24.43-.41c.1-.17.14-.34.14-.51v-.32l.19,1.33h-.42l.17-.16c0,.3-.08.55-.21.75-.13.2-.3.35-.54.45-.23.1-.5.15-.82.15ZM45.34,47.62l-.11-1.53-.02-.67v-1.01c0-.28-.12-.48-.35-.61-.24-.13-.59-.2-1.05-.21l-1.32-.03.1-1.2h1.13c.94.03,1.63.21,2.09.57.46.36.68.88.68,1.56v1.91l.72.11v1.07l-1.86.05Z"/>
      <path class="cls-6" d="M47.71,41.46v-1.22h1.55v1.22h-1.55ZM51.02,47.67c-.65,0-1.12-.18-1.41-.54-.29-.36-.43-.93-.43-1.72v-5.17h1.32v5.12c0,.21.02.39.07.53s.13.24.26.3.32.1.58.1c.29,0,.65-.06,1.08-.19l.15,1.36c-.28.07-.54.12-.8.16s-.53.05-.83.05Z"/>
      <path class="cls-6" d="M55.59,47.67c-.64,0-1.14-.23-1.5-.69-.36-.46-.53-1.12-.53-1.99s.18-1.52.53-1.99c.36-.47.86-.7,1.51-.7.39,0,.69.09.9.26.2.17.34.43.4.78h.38l-.3,1.66c0-.5-.08-.87-.25-1.1-.17-.23-.42-.35-.76-.35s-.59.13-.78.38c-.18.25-.27.61-.27,1.07s.09.83.27,1.07c.18.24.44.36.78.36.38,0,.64-.11.79-.34.15-.23.22-.59.22-1.09l.35,1.65h-.46c-.05.34-.19.6-.41.78s-.51.26-.87.26ZM54.06,49.9l-.05-1.15,1.66-.05c.46-.01.79-.14.99-.38.21-.24.31-.59.31-1.06v-3.78l.1-1.09h1.23v4.72c0,.92-.22,1.6-.65,2.04-.43.44-1.12.67-2.07.71l-1.51.05Z"/>
      <path class="cls-6" d="M61.21,47.67c-.49,0-.87-.16-1.14-.49-.27-.32-.41-.78-.41-1.37v-3.42h1.32v3.09c0,.3.07.52.2.69.13.16.32.24.56.24.31,0,.54-.12.7-.36.16-.24.24-.64.24-1.2l.26,1.72h-.4c-.08.35-.24.62-.47.81s-.52.28-.86.28ZM61.19,41.48l.91-1.86h1.4l-1.01,1.86h-1.3ZM62.69,46.11v-3.71h1.32v3.42l-1.32.29ZM62.77,47.62l-.09-1.24v-.91h1.32v.92l.71.11v1.07l-1.95.05Z"/>
      <path class="cls-6" d="M65.63,47.57v-5.18h1.18l.14,1.09v4.08h-1.32ZM68.69,47.57v-3.04c0-.31-.06-.55-.19-.72-.13-.17-.31-.25-.55-.25-.66,0-1,.48-1,1.44l-.3-1.66h.43c.05-.35.17-.61.36-.78.19-.17.48-.26.86-.26.55,0,.97.17,1.27.5s.45.8.45,1.41v3.37h-1.32Z"/>
      <path class="cls-6" d="M77.35,49.82v-7.42h1.23l.1,1.09v6.33h-1.32ZM80.05,47.67c-.36,0-.65-.09-.87-.26s-.35-.43-.41-.78h-.46l.35-1.65c0,.5.08.87.22,1.09s.41.34.79.34c.34,0,.61-.12.78-.36.18-.24.27-.6.27-1.07s-.09-.81-.27-1.07c-.18-.25-.44-.38-.78-.38s-.59.12-.76.35-.25.6-.25,1.1l-.3-1.66h.38c.06-.35.19-.61.4-.78.2-.17.5-.26.9-.26.65,0,1.15.23,1.51.7.36.47.53,1.13.53,1.99s-.18,1.53-.53,1.99c-.36.46-.86.69-1.5.69Z"/>
      <path class="cls-6" d="M82.78,47.57v-1.13h3.62v1.13h-3.62ZM82.97,43.53v-1.13h1.95l.1,1.13h-2.05ZM83.87,47.57v-5.18h1.12l.2,1.48v3.69h-1.32ZM85.19,45.34l-.3-1.78h.44c.05-.84.49-1.26,1.32-1.26.49,0,.87.18,1.13.54.26.36.39.88.39,1.56h-1.32c0-.31-.06-.53-.17-.66-.11-.13-.29-.2-.54-.2-.32,0-.56.16-.72.47s-.24.76-.24,1.33Z"/>
      <path class="cls-6" d="M91.26,47.67c-.75,0-1.32-.23-1.73-.7s-.62-1.13-.62-1.98.21-1.52.62-1.98c.41-.47.99-.7,1.73-.7s1.32.23,1.73.7c.41.47.62,1.13.62,1.98s-.21,1.51-.62,1.98-.99.7-1.73.7ZM91.26,46.41c.32,0,.56-.12.74-.37.17-.25.26-.6.26-1.06s-.09-.81-.26-1.06-.42-.37-.74-.37-.56.12-.73.37c-.17.25-.26.6-.26,1.06s.09.81.26,1.06c.17.25.42.37.73.37Z"/>
      <path class="cls-6" d="M96.11,47.57l-1.74-5.18h1.4l1.28,4.05h.23v1.12h-1.18ZM94.47,49.91l-.05-1.15.89-.1c.31-.04.57-.12.79-.24s.4-.32.56-.57c.16-.25.29-.58.4-.99l1.25-4.47h1.4l-1.46,4.72c-.2.62-.42,1.12-.67,1.5-.25.38-.55.66-.9.85-.35.19-.76.3-1.25.35l-.96.1Z"/>
      <path class="cls-6" d="M103.39,47.67c-.9,0-1.59-.23-2.08-.7-.49-.46-.73-1.13-.73-2s.21-1.5.62-1.97c.42-.47,1-.7,1.76-.7s1.31.22,1.71.65.61,1.06.61,1.89c0,.23,0,.46-.03.67h-3.8v-.92h2.53c0-.35-.09-.62-.27-.8-.18-.19-.42-.28-.74-.28-.34,0-.61.12-.8.37-.19.25-.29.59-.29,1.05,0,.49.14.86.42,1.11.28.25.68.38,1.2.38.23,0,.47-.01.69-.04.23-.02.46-.06.7-.1l.13,1.25c-.33.06-.63.1-.91.11s-.52.02-.73.02Z"/>
      <path class="cls-6" d="M109.44,47.67c-.94,0-1.67-.23-2.18-.7-.51-.46-.77-1.13-.77-2s.23-1.5.7-1.97,1.14-.7,2.01-.7c.53,0,.99.1,1.38.31.38.21.65.5.81.88l-.96.76c-.14-.22-.32-.4-.54-.52-.22-.12-.46-.18-.72-.18-.41,0-.74.12-.97.36-.23.24-.35.58-.35,1.02,0,.49.15.85.45,1.11.3.25.72.38,1.27.38.23,0,.47-.01.7-.03.23-.02.46-.05.68-.09l.14,1.24c-.26.06-.54.1-.82.12s-.55.03-.82.03Z"/>
      <path class="cls-6" d="M112.03,43.61v-1.22h4.85v1.22h-4.85ZM113.27,45.05v-4.21h1.32v4.21h-1.32ZM115.8,47.67c-.89,0-1.54-.18-1.93-.54s-.6-.93-.6-1.72v-.67h1.32v.55c0,.39.1.68.31.86.2.18.54.27,1,.27.15,0,.31,0,.48-.03.17-.02.37-.04.58-.07l.12,1.24c-.21.04-.42.07-.63.09-.2.02-.42.03-.65.03Z"/>
      <path class="cls-6" d="M120.56,47.67c-.75,0-1.32-.23-1.73-.7s-.62-1.13-.62-1.98.21-1.52.62-1.98c.41-.47.99-.7,1.73-.7s1.32.23,1.73.7c.41.47.62,1.13.62,1.98s-.21,1.51-.62,1.98-.99.7-1.73.7ZM120.56,46.41c.32,0,.56-.12.74-.37.17-.25.26-.6.26-1.06s-.09-.81-.26-1.06-.42-.37-.74-.37-.56.12-.73.37c-.17.25-.26.6-.26,1.06s.09.81.26,1.06c.17.25.42.37.73.37Z"/>
      <path class="cls-6" d="M132.28,47.67c-.75,0-1.32-.23-1.73-.7s-.62-1.13-.62-1.98.21-1.52.62-1.98c.41-.47.99-.7,1.73-.7s1.32.23,1.73.7c.41.47.62,1.13.62,1.98s-.21,1.51-.62,1.98-.99.7-1.73.7ZM132.28,46.41c.32,0,.56-.12.74-.37.17-.25.26-.6.26-1.06s-.09-.81-.26-1.06-.42-.37-.74-.37-.56.12-.73.37c-.17.25-.26.6-.26,1.06s.09.81.26,1.06c.17.25.42.37.73.37Z"/>
      <path class="cls-6" d="M144.6,47.67c-.94,0-1.67-.23-2.18-.7-.51-.46-.77-1.13-.77-2s.23-1.5.7-1.97,1.14-.7,2.01-.7c.53,0,.99.1,1.38.31.38.21.65.5.81.88l-.96.76c-.14-.22-.32-.4-.54-.52-.22-.12-.46-.18-.72-.18-.41,0-.74.12-.97.36-.23.24-.35.58-.35,1.02,0,.49.15.85.45,1.11.3.25.72.38,1.27.38.23,0,.47-.01.7-.03.23-.02.46-.05.68-.09l.14,1.24c-.26.06-.54.1-.82.12s-.55.03-.82.03Z"/>
      <path class="cls-6" d="M149.85,47.67c-.75,0-1.32-.23-1.73-.7s-.62-1.13-.62-1.98.21-1.52.62-1.98c.41-.47.99-.7,1.73-.7s1.32.23,1.73.7c.41.47.62,1.13.62,1.98s-.21,1.51-.62,1.98-.99.7-1.73.7ZM149.85,46.41c.32,0,.56-.12.74-.37.17-.25.26-.6.26-1.06s-.09-.81-.26-1.06-.42-.37-.74-.37-.56.12-.73.37c-.17.25-.26.6-.26,1.06s.09.81.26,1.06c.17.25.42.37.73.37Z"/>
      <path class="cls-6" d="M153.52,47.57v-5.18h1.18l.14,1.09v4.08h-1.32ZM156.58,47.57v-3.04c0-.31-.06-.55-.19-.72-.13-.17-.31-.25-.55-.25-.66,0-1,.48-1,1.44l-.3-1.66h.43c.05-.35.17-.61.36-.78.19-.17.48-.26.86-.26.55,0,.97.17,1.27.5s.45.8.45,1.41v3.37h-1.32Z"/>
      <path class="cls-6" d="M158.9,43.61v-1.22h4.85v1.22h-4.85ZM160.14,45.05v-4.21h1.32v4.21h-1.32ZM162.67,47.67c-.89,0-1.54-.18-1.93-.54s-.6-.93-.6-1.72v-.67h1.32v.55c0,.39.1.68.31.86.2.18.54.27,1,.27.15,0,.31,0,.48-.03.17-.02.37-.04.58-.07l.12,1.24c-.21.04-.42.07-.63.09-.2.02-.42.03-.65.03Z"/>
      <path class="cls-6" d="M167.84,47.67c-.9,0-1.59-.23-2.08-.7-.49-.46-.73-1.13-.73-2s.21-1.5.62-1.97c.42-.47,1-.7,1.76-.7s1.31.22,1.71.65.61,1.06.61,1.89c0,.23,0,.46-.03.67h-3.8v-.92h2.53c0-.35-.09-.62-.27-.8-.18-.19-.42-.28-.74-.28-.34,0-.61.12-.8.37-.19.25-.29.59-.29,1.05,0,.49.14.86.42,1.11.28.25.68.38,1.2.38.23,0,.47-.01.69-.04.23-.02.46-.06.7-.1l.13,1.25c-.33.06-.63.1-.91.11s-.52.02-.73.02Z"/>
      <path class="cls-6" d="M171.1,47.57v-5.18h1.18l.14,1.09v4.08h-1.32ZM174.16,47.57v-3.04c0-.31-.06-.55-.19-.72-.13-.17-.31-.25-.55-.25-.66,0-1,.48-1,1.44l-.3-1.66h.43c.05-.35.17-.61.36-.78.19-.17.48-.26.86-.26.55,0,.97.17,1.27.5s.45.8.45,1.41v3.37h-1.32Z"/>
      <path class="cls-6" d="M176.92,47.57v-1.22h2.01v1.22h-2.01ZM177.21,43.61v-1.22h2.94v1.22h-2.94ZM179.43,41.7c-.25,0-.45-.08-.61-.23s-.23-.36-.23-.61.08-.45.23-.61.36-.23.61-.23.45.08.61.23.23.36.23.61-.08.45-.23.61-.36.23-.61.23ZM178.83,47.57v-4.88h1.32v4.88h-1.32ZM180.05,47.57v-1.22h1.63v1.22h-1.63Z"/>
      <path class="cls-6" d="M184.5,47.67c-.64,0-1.14-.23-1.5-.69-.36-.46-.53-1.12-.53-1.99s.18-1.52.53-1.99c.36-.47.86-.7,1.51-.7.38,0,.67.09.86.26.2.17.32.43.38.78h.43l-.3,1.66c0-.5-.08-.87-.25-1.1-.17-.23-.42-.35-.76-.35s-.59.13-.78.38c-.18.25-.27.61-.27,1.07s.09.83.27,1.07c.18.24.44.36.78.36.38,0,.64-.11.79-.34.15-.23.22-.59.22-1.09l.35,1.65h-.46c-.05.34-.19.6-.41.78s-.51.26-.87.26ZM186.07,47.62l-.19-1.03v-6.35h1.32v7.32l-1.13.05Z"/>
      <path class="cls-6" d="M190.87,47.67c-.75,0-1.32-.23-1.73-.7s-.62-1.13-.62-1.98.21-1.52.62-1.98c.41-.47.99-.7,1.73-.7s1.32.23,1.73.7c.41.47.62,1.13.62,1.98s-.21,1.51-.62,1.98-.99.7-1.73.7ZM190.87,46.41c.32,0,.56-.12.74-.37.17-.25.26-.6.26-1.06s-.09-.81-.26-1.06-.42-.37-.74-.37-.56.12-.73.37c-.17.25-.26.6-.26,1.06s.09.81.26,1.06c.17.25.42.37.73.37Z"/>
      <path class="cls-6" d="M200.4,49.82v-7.42h1.23l.1,1.09v6.33h-1.32ZM203.1,47.67c-.36,0-.65-.09-.87-.26s-.35-.43-.41-.78h-.46l.35-1.65c0,.5.08.87.22,1.09s.41.34.79.34c.34,0,.61-.12.78-.36.18-.24.27-.6.27-1.07s-.09-.81-.27-1.07c-.18-.25-.44-.38-.78-.38s-.59.12-.76.35-.25.6-.25,1.1l-.3-1.66h.38c.06-.35.19-.61.4-.78.2-.17.5-.26.9-.26.65,0,1.15.23,1.51.7.36.47.53,1.13.53,1.99s-.18,1.53-.53,1.99c-.36.46-.86.69-1.5.69Z"/>
      <path class="cls-6" d="M205.83,47.57v-1.13h3.62v1.13h-3.62ZM206.02,43.53v-1.13h1.95l.1,1.13h-2.05ZM206.92,47.57v-5.18h1.12l.2,1.48v3.69h-1.32ZM208.24,45.34l-.3-1.78h.44c.05-.84.49-1.26,1.32-1.26.49,0,.87.18,1.13.54.26.36.39.88.39,1.56h-1.32c0-.31-.06-.53-.17-.66-.11-.13-.29-.2-.54-.2-.32,0-.56.16-.72.47s-.24.76-.24,1.33Z"/>
      <path class="cls-6" d="M214.31,47.67c-.75,0-1.32-.23-1.73-.7s-.62-1.13-.62-1.98.21-1.52.62-1.98c.41-.47.99-.7,1.73-.7s1.32.23,1.73.7c.41.47.62,1.13.62,1.98s-.21,1.51-.62,1.98-.99.7-1.73.7ZM214.31,46.41c.32,0,.56-.12.74-.37.17-.25.26-.6.26-1.06s-.09-.81-.26-1.06-.42-.37-.74-.37-.56.12-.73.37c-.17.25-.26.6-.26,1.06s.09.81.26,1.06c.17.25.42.37.73.37Z"/>
      <path class="cls-6" d="M217.97,49.82v-7.42h1.23l.1,1.09v6.33h-1.32ZM220.68,47.67c-.36,0-.65-.09-.87-.26s-.35-.43-.41-.78h-.46l.35-1.65c0,.5.08.87.22,1.09s.41.34.79.34c.34,0,.61-.12.78-.36.18-.24.27-.6.27-1.07s-.09-.81-.27-1.07c-.18-.25-.44-.38-.78-.38s-.59.12-.76.35-.25.6-.25,1.1l-.3-1.66h.38c.06-.35.19-.61.4-.78.2-.17.5-.26.9-.26.65,0,1.15.23,1.51.7.36.47.53,1.13.53,1.99s-.18,1.53-.53,1.99c-.36.46-.86.69-1.5.69Z"/>
      <path class="cls-6" d="M223.79,47.57v-1.22h2.01v1.22h-2.01ZM224.09,43.61v-1.22h2.94v1.22h-2.94ZM226.31,41.7c-.25,0-.45-.08-.61-.23s-.23-.36-.23-.61.08-.45.23-.61.36-.23.61-.23.45.08.61.23.23.36.23.61-.08.45-.23.61-.36.23-.61.23ZM225.71,47.57v-4.88h1.32v4.88h-1.32ZM226.93,47.57v-1.22h1.63v1.22h-1.63Z"/>
      <path class="cls-6" d="M231.88,47.67c-.75,0-1.32-.23-1.73-.7s-.62-1.13-.62-1.98.21-1.52.62-1.98c.41-.47.99-.7,1.73-.7s1.32.23,1.73.7c.41.47.62,1.13.62,1.98s-.21,1.51-.62,1.98-.99.7-1.73.7ZM231.88,46.41c.32,0,.56-.12.74-.37.17-.25.26-.6.26-1.06s-.09-.81-.26-1.06-.42-.37-.74-.37-.56.12-.73.37c-.17.25-.26.6-.26,1.06s.09.81.26,1.06c.17.25.42.37.73.37Z"/>
      <path class="cls-6" d="M237.74,47.67c-.25,0-.46-.09-.63-.26-.17-.17-.26-.38-.26-.63s.09-.46.26-.63.38-.26.63-.26.46.09.63.26.26.38.26.63-.09.45-.26.63c-.17.17-.38.26-.63.26Z"/>
    </g>
  </g>
  <g>
    <rect class="cls-5" x="37.21" y="58.78" width="215.15" height="24.75" rx="7.95" ry="7.95"/>
    <rect class="cls-3" x="33.08" y="58.78" width="215.15" height="24.75" rx="7.95" ry="7.95"/>
    <g>
      <path class="cls-6" d="M43.39,74.71c-.94,0-1.67-.23-2.18-.7-.51-.46-.77-1.13-.77-2s.23-1.5.7-1.97,1.14-.7,2.01-.7c.53,0,.99.1,1.38.31.38.21.65.5.81.88l-.96.76c-.14-.22-.32-.4-.54-.52-.22-.12-.46-.18-.72-.18-.41,0-.74.12-.97.36-.23.24-.35.58-.35,1.02,0,.49.15.85.45,1.11.3.25.72.38,1.27.38.23,0,.47-.01.7-.03.23-.02.46-.05.68-.09l.14,1.24c-.26.06-.54.1-.82.12s-.55.03-.82.03Z"/>
      <path class="cls-6" d="M48.65,74.71c-.75,0-1.32-.23-1.73-.7s-.62-1.13-.62-1.98.21-1.52.62-1.98c.41-.47.99-.7,1.73-.7s1.32.23,1.73.7c.41.47.62,1.13.62,1.98s-.21,1.51-.62,1.98-.99.7-1.73.7ZM48.65,73.45c.32,0,.56-.12.74-.37.17-.25.26-.6.26-1.06s-.09-.81-.26-1.06-.42-.37-.74-.37-.56.12-.73.37c-.17.25-.26.6-.26,1.06s.09.81.26,1.06c.17.25.42.37.73.37Z"/>
      <path class="cls-6" d="M52.04,74.61v-5.18h1.19l.12,1.09v4.08h-1.3ZM54.03,74.61v-3.6c0-.29-.1-.44-.31-.44-.25,0-.37.19-.37.58l-.3-1.07h.37c.07-.5.33-.74.79-.74.25,0,.45.09.59.28.15.19.22.47.22.84v4.15h-.98ZM55.67,74.61v-3.51c0-.36-.1-.54-.31-.54-.23,0-.35.19-.35.58l-.35-1.07h.44c.03-.23.12-.41.27-.54.15-.13.35-.2.6-.2.35,0,.6.1.76.29.16.19.24.5.24.93v4.05h-1.3Z"/>
      <path class="cls-6" d="M59.61,74.71c-.49,0-.87-.16-1.14-.49-.27-.32-.41-.78-.41-1.37v-3.42h1.32v3.09c0,.3.07.52.2.69.13.16.32.24.56.24.31,0,.54-.12.7-.36.16-.24.24-.64.24-1.2l.26,1.72h-.4c-.08.35-.24.62-.47.81s-.52.28-.86.28ZM61.09,73.15v-3.71h1.32v3.42l-1.32.29ZM61.18,74.66l-.09-1.24v-.91h1.32v.92l.71.11v1.07l-1.95.05Z"/>
      <path class="cls-6" d="M64.03,74.61v-5.18h1.18l.14,1.09v4.08h-1.32ZM67.09,74.61v-3.04c0-.31-.06-.55-.19-.72-.13-.17-.31-.25-.55-.25-.66,0-1,.48-1,1.44l-.3-1.66h.43c.05-.35.17-.61.36-.78.19-.17.48-.26.86-.26.55,0,.97.17,1.27.5s.45.8.45,1.41v3.37h-1.32Z"/>
      <path class="cls-6" d="M69.85,74.61v-1.22h2.01v1.22h-2.01ZM70.15,70.66v-1.22h2.94v1.22h-2.94ZM72.37,68.74c-.25,0-.45-.08-.61-.23s-.23-.36-.23-.61.08-.45.23-.61.36-.23.61-.23.45.08.61.23.23.36.23.61-.08.45-.23.61-.36.23-.61.23ZM71.77,74.61v-4.88h1.32v4.88h-1.32ZM72.99,74.61v-1.22h1.63v1.22h-1.63Z"/>
      <path class="cls-6" d="M78.55,74.71c-.94,0-1.67-.23-2.18-.7-.51-.46-.77-1.13-.77-2s.23-1.5.7-1.97,1.14-.7,2.01-.7c.53,0,.99.1,1.38.31.38.21.65.5.81.88l-.96.76c-.14-.22-.32-.4-.54-.52-.22-.12-.46-.18-.72-.18-.41,0-.74.12-.97.36-.23.24-.35.58-.35,1.02,0,.49.15.85.45,1.11.3.25.72.38,1.27.38.23,0,.47-.01.7-.03.23-.02.46-.05.68-.09l.14,1.24c-.26.06-.54.1-.82.12s-.55.03-.82.03Z"/>
      <path class="cls-6" d="M83,74.71c-.55,0-.98-.13-1.28-.41s-.46-.65-.46-1.15c0-.58.2-1.02.6-1.33s.97-.46,1.7-.46c.28,0,.53.01.74.04.21.03.42.08.63.14l-.21,1.03c-.21-.05-.4-.08-.56-.08-.17,0-.34-.01-.52-.01-.68,0-1.03.2-1.03.59,0,.18.06.31.19.4.12.09.3.14.54.14.29,0,.53-.05.72-.16s.34-.24.43-.41c.1-.17.14-.34.14-.51v-.32l.19,1.33h-.42l.17-.16c0,.3-.08.55-.21.75-.13.2-.3.35-.54.45-.23.1-.5.15-.82.15ZM84.75,74.66l-.11-1.53-.02-.67v-1.01c0-.28-.12-.48-.35-.61-.24-.13-.59-.2-1.05-.21l-1.32-.03.1-1.2h1.13c.94.03,1.63.21,2.09.57.46.36.68.88.68,1.56v1.91l.72.11v1.07l-1.86.05Z"/>
      <path class="cls-6" d="M90.27,74.71c-.94,0-1.67-.23-2.18-.7-.51-.46-.77-1.13-.77-2s.23-1.5.7-1.97,1.14-.7,2.01-.7c.53,0,.99.1,1.38.31.38.21.65.5.81.88l-.96.76c-.14-.22-.32-.4-.54-.52-.22-.12-.46-.18-.72-.18-.41,0-.74.12-.97.36-.23.24-.35.58-.35,1.02,0,.49.15.85.45,1.11.3.25.72.38,1.27.38.23,0,.47-.01.7-.03.23-.02.46-.05.68-.09l.14,1.24c-.26.06-.54.1-.82.12s-.55.03-.82.03Z"/>
      <path class="cls-6" d="M93.29,74.61v-1.22h2.01v1.22h-2.01ZM93.58,70.66v-1.22h2.94v1.22h-2.94ZM95.8,68.74c-.25,0-.45-.08-.61-.23s-.23-.36-.23-.61.08-.45.23-.61.36-.23.61-.23.45.08.61.23.23.36.23.61-.08.45-.23.61-.36.23-.61.23ZM95.2,74.61v-4.88h1.32v4.88h-1.32ZM96.42,74.61v-1.22h1.63v1.22h-1.63Z"/>
      <path class="cls-6" d="M101.38,74.71c-.75,0-1.32-.23-1.73-.7s-.62-1.13-.62-1.98.21-1.52.62-1.98c.41-.47.99-.7,1.73-.7s1.32.23,1.73.7c.41.47.62,1.13.62,1.98s-.21,1.51-.62,1.98-.99.7-1.73.7ZM101.38,73.45c.32,0,.56-.12.74-.37.17-.25.26-.6.26-1.06s-.09-.81-.26-1.06-.42-.37-.74-.37-.56.12-.73.37c-.17.25-.26.6-.26,1.06s.09.81.26,1.06c.17.25.42.37.73.37Z"/>
      <path class="cls-6" d="M105.05,74.61v-5.18h1.18l.14,1.09v4.08h-1.32ZM108.11,74.61v-3.04c0-.31-.06-.55-.19-.72-.13-.17-.31-.25-.55-.25-.66,0-1,.48-1,1.44l-.3-1.66h.43c.05-.35.17-.61.36-.78.19-.17.48-.26.86-.26.55,0,.97.17,1.27.5s.45.8.45,1.41v3.37h-1.32Z"/>
      <path class="cls-6" d="M110.66,75.83v-1.22h4.88v1.22h-4.88Z"/>
      <path class="cls-6" d="M116.73,74.61v-1.22h2.01v1.22h-2.01ZM117.02,70.66v-1.22h2.94v1.22h-2.94ZM119.24,68.74c-.25,0-.45-.08-.61-.23s-.23-.36-.23-.61.08-.45.23-.61.36-.23.61-.23.45.08.61.23.23.36.23.61-.08.45-.23.61-.36.23-.61.23ZM118.64,74.61v-4.88h1.32v4.88h-1.32ZM119.86,74.61v-1.22h1.63v1.22h-1.63Z"/>
      <path class="cls-6" d="M122.63,74.61v-5.18h1.18l.14,1.09v4.08h-1.32ZM125.69,74.61v-3.04c0-.31-.06-.55-.19-.72-.13-.17-.31-.25-.55-.25-.66,0-1,.48-1,1.44l-.3-1.66h.43c.05-.35.17-.61.36-.78.19-.17.48-.26.86-.26.55,0,.97.17,1.27.5s.45.8.45,1.41v3.37h-1.32Z"/>
      <path class="cls-6" d="M128.01,70.65v-1.22h4.85v1.22h-4.85ZM129.25,72.09v-4.21h1.32v4.21h-1.32ZM131.78,74.71c-.89,0-1.54-.18-1.93-.54s-.6-.93-.6-1.72v-.67h1.32v.55c0,.39.1.68.31.86.2.18.54.27,1,.27.15,0,.31,0,.48-.03.17-.02.37-.04.58-.07l.12,1.24c-.21.04-.42.07-.63.09-.2.02-.42.03-.65.03Z"/>
      <path class="cls-6" d="M136.95,74.71c-.9,0-1.59-.23-2.08-.7-.49-.46-.73-1.13-.73-2s.21-1.5.62-1.97c.42-.47,1-.7,1.76-.7s1.31.22,1.71.65.61,1.06.61,1.89c0,.23,0,.46-.03.67h-3.8v-.92h2.53c0-.35-.09-.62-.27-.8-.18-.19-.42-.28-.74-.28-.34,0-.61.12-.8.37-.19.25-.29.59-.29,1.05,0,.49.14.86.42,1.11.28.25.68.38,1.2.38.23,0,.47-.01.69-.04.23-.02.46-.06.7-.1l.13,1.25c-.33.06-.63.1-.91.11s-.52.02-.73.02Z"/>
      <path class="cls-6" d="M139.77,74.61v-1.13h3.62v1.13h-3.62ZM139.97,70.57v-1.13h1.95l.1,1.13h-2.05ZM140.87,74.61v-5.18h1.12l.2,1.48v3.69h-1.32ZM142.19,72.39l-.3-1.78h.44c.05-.84.49-1.26,1.32-1.26.49,0,.87.18,1.13.54.26.36.39.88.39,1.56h-1.32c0-.31-.06-.53-.17-.66-.11-.13-.29-.2-.54-.2-.32,0-.56.16-.72.47s-.24.76-.24,1.33Z"/>
      <path class="cls-6" d="M146.06,74.61v-5.18h1.18l.14,1.09v4.08h-1.32ZM149.12,74.61v-3.04c0-.31-.06-.55-.19-.72-.13-.17-.31-.25-.55-.25-.66,0-1,.48-1,1.44l-.3-1.66h.43c.05-.35.17-.61.36-.78.19-.17.48-.26.86-.26.55,0,.97.17,1.27.5s.45.8.45,1.41v3.37h-1.32Z"/>
      <path class="cls-6" d="M153.31,74.71c-.55,0-.98-.13-1.28-.41s-.46-.65-.46-1.15c0-.58.2-1.02.6-1.33s.97-.46,1.7-.46c.28,0,.53.01.74.04.21.03.42.08.63.14l-.21,1.03c-.21-.05-.4-.08-.56-.08-.17,0-.34-.01-.52-.01-.68,0-1.03.2-1.03.59,0,.18.06.31.19.4.12.09.3.14.54.14.29,0,.53-.05.72-.16s.34-.24.43-.41c.1-.17.14-.34.14-.51v-.32l.19,1.33h-.42l.17-.16c0,.3-.08.55-.21.75-.13.2-.3.35-.54.45-.23.1-.5.15-.82.15ZM155.07,74.66l-.11-1.53-.02-.67v-1.01c0-.28-.12-.48-.35-.61-.24-.13-.59-.2-1.05-.21l-1.32-.03.1-1.2h1.13c.94.03,1.63.21,2.09.57.46.36.68.88.68,1.56v1.91l.72.11v1.07l-1.86.05Z"/>
      <path class="cls-6" d="M160.59,76c-.73,0-1.32-.15-1.77-.45-.46-.3-.79-.77-1.01-1.4s-.32-1.46-.32-2.46c0-2.74.86-4.11,2.58-4.11,1.53,0,2.29.93,2.29,2.79v1.8h-1.17v-1.77c0-1.11-.37-1.66-1.12-1.66-.95,0-1.43.98-1.43,2.95,0,1.1.15,1.9.46,2.4.31.5.8.74,1.49.74.41,0,.73-.04.96-.12v1.17c-.26.08-.58.12-.96.12ZM160.18,74.01c-.3,0-.54-.2-.7-.6-.17-.4-.25-.97-.25-1.7,0-.77.08-1.35.25-1.73.17-.38.4-.57.71-.57.22,0,.41.1.57.29.16.2.27.48.34.84h.4v2.33h-.4c-.05.36-.16.64-.32.84-.16.2-.36.3-.59.3ZM160.59,72.92c.19,0,.34-.1.45-.3.11-.2.16-.49.16-.87,0-.43-.05-.75-.14-.95-.09-.2-.23-.3-.4-.3-.15,0-.27.1-.35.29-.08.19-.12.5-.12.92,0,.38.04.68.1.89.07.21.17.32.3.32ZM161.2,73.91v-2.93h1.17v2.93h-1.17Z"/>
      <path class="cls-6" d="M166.44,74.71c-.94,0-1.67-.23-2.18-.7-.51-.46-.77-1.13-.77-2s.23-1.5.7-1.97,1.14-.7,2.01-.7c.53,0,.99.1,1.38.31.38.21.65.5.81.88l-.96.76c-.14-.22-.32-.4-.54-.52-.22-.12-.46-.18-.72-.18-.41,0-.74.12-.97.36-.23.24-.35.58-.35,1.02,0,.49.15.85.45,1.11.3.25.72.38,1.27.38.23,0,.47-.01.7-.03.23-.02.46-.05.68-.09l.14,1.24c-.26.06-.54.1-.82.12s-.55.03-.82.03Z"/>
      <path class="cls-6" d="M171.69,74.71c-.75,0-1.32-.23-1.73-.7s-.62-1.13-.62-1.98.21-1.52.62-1.98c.41-.47.99-.7,1.73-.7s1.32.23,1.73.7c.41.47.62,1.13.62,1.98s-.21,1.51-.62,1.98-.99.7-1.73.7ZM171.69,73.45c.32,0,.56-.12.74-.37.17-.25.26-.6.26-1.06s-.09-.81-.26-1.06-.42-.37-.74-.37-.56.12-.73.37c-.17.25-.26.6-.26,1.06s.09.81.26,1.06c.17.25.42.37.73.37Z"/>
      <path class="cls-6" d="M175.36,74.61v-5.18h1.18l.14,1.09v4.08h-1.32ZM178.42,74.61v-3.04c0-.31-.06-.55-.19-.72-.13-.17-.31-.25-.55-.25-.66,0-1,.48-1,1.44l-.3-1.66h.43c.05-.35.17-.61.36-.78.19-.17.48-.26.86-.26.55,0,.97.17,1.27.5s.45.8.45,1.41v3.37h-1.32Z"/>
      <path class="cls-6" d="M183.01,74.71c-.39,0-.74-.01-1.05-.04-.3-.02-.57-.06-.8-.11l.16-1.26c.41.05.75.09,1.04.12s.5.04.66.04c.44,0,.76-.03.96-.09.2-.06.3-.16.3-.29,0-.08-.02-.14-.07-.19s-.13-.08-.23-.12l-1.68-.49c-.34-.1-.6-.25-.78-.46-.17-.21-.26-.48-.26-.83,0-.56.23-.97.7-1.24.47-.27,1.18-.41,2.13-.41.22,0,.45,0,.69.02.24.02.49.04.76.07l-.14,1.23c-.3-.03-.55-.04-.78-.05s-.41-.01-.56-.01c-.51,0-.88.03-1.11.08-.23.06-.34.15-.34.28,0,.08.02.14.07.19.05.04.12.08.22.11l1.45.4c.45.12.78.3,1,.52.22.23.33.53.33.9,0,.55-.22.96-.65,1.23-.44.27-1.1.4-2,.4Z"/>
      <path class="cls-6" d="M188.47,74.71c-.55,0-.98-.13-1.28-.41s-.46-.65-.46-1.15c0-.58.2-1.02.6-1.33s.97-.46,1.7-.46c.28,0,.53.01.74.04.21.03.42.08.63.14l-.21,1.03c-.21-.05-.4-.08-.56-.08-.17,0-.34-.01-.52-.01-.68,0-1.03.2-1.03.59,0,.18.06.31.19.4.12.09.3.14.54.14.29,0,.53-.05.72-.16s.34-.24.43-.41c.1-.17.14-.34.14-.51v-.32l.19,1.33h-.42l.17-.16c0,.3-.08.55-.21.75-.13.2-.3.35-.54.45-.23.1-.5.15-.82.15ZM190.22,74.66l-.11-1.53-.02-.67v-1.01c0-.28-.12-.48-.35-.61-.24-.13-.59-.2-1.05-.21l-1.32-.03.1-1.2h1.13c.94.03,1.63.21,2.09.57.46.36.68.88.68,1.56v1.91l.72.11v1.07l-1.86.05Z"/>
      <path class="cls-6" d="M192.51,74.61v-1.13h3.62v1.13h-3.62ZM192.7,70.57v-1.13h1.95l.1,1.13h-2.05ZM193.6,74.61v-5.18h1.12l.2,1.48v3.69h-1.32ZM194.92,72.39l-.3-1.78h.44c.05-.84.49-1.26,1.32-1.26.49,0,.87.18,1.13.54.26.36.39.88.39,1.56h-1.32c0-.31-.06-.53-.17-.66-.11-.13-.29-.2-.54-.2-.32,0-.56.16-.72.47s-.24.76-.24,1.33Z"/>
      <path class="cls-6" d="M200.99,74.71c-.25,0-.46-.09-.63-.26-.17-.17-.26-.38-.26-.63s.09-.46.26-.63.38-.26.63-.26.46.09.63.26.26.38.26.63-.09.45-.26.63c-.17.17-.38.26-.63.26Z"/>
      <path class="cls-6" d="M206.34,74.71c-.64,0-1.14-.23-1.5-.69-.36-.46-.53-1.12-.53-1.99s.18-1.52.53-1.99c.36-.47.86-.7,1.51-.7.39,0,.69.09.9.26.2.17.34.43.4.78h.38l-.3,1.66c0-.5-.08-.87-.25-1.1-.17-.23-.42-.35-.76-.35s-.59.13-.78.38c-.18.25-.27.61-.27,1.07s.09.83.27,1.07c.18.24.44.36.78.36.38,0,.64-.11.79-.34.15-.23.22-.59.22-1.09l.35,1.65h-.46c-.05.34-.19.6-.41.78s-.51.26-.87.26ZM204.81,76.95l-.05-1.15,1.66-.05c.46-.01.79-.14.99-.38.21-.24.31-.59.31-1.06v-3.78l.1-1.09h1.23v4.72c0,.92-.22,1.6-.65,2.04-.43.44-1.12.67-2.07.71l-1.51.05Z"/>
      <path class="cls-6" d="M212.71,74.71c-.75,0-1.32-.23-1.73-.7s-.62-1.13-.62-1.98.21-1.52.62-1.98c.41-.47.99-.7,1.73-.7s1.32.23,1.73.7c.41.47.62,1.13.62,1.98s-.21,1.51-.62,1.98-.99.7-1.73.7ZM212.71,73.45c.32,0,.56-.12.74-.37.17-.25.26-.6.26-1.06s-.09-.81-.26-1.06-.42-.37-.74-.37-.56.12-.73.37c-.17.25-.26.6-.26,1.06s.09.81.26,1.06c.17.25.42.37.73.37Z"/>
      <path class="cls-6" d="M216.35,74.61v-7.32h1.32v7.24l-1.32.09ZM217.82,74.71c-.25,0-.49,0-.73-.03-.24-.02-.49-.04-.74-.07l.48-1.31c.17.08.36.13.57.14.21.02.42.02.62.02.54,0,.96-.16,1.26-.47.3-.31.45-.75.45-1.32,0-.35-.08-.62-.25-.81-.16-.19-.4-.29-.7-.29-.74,0-1.11.37-1.11,1.12l-.3-1.33h.44c.09-.69.5-1.04,1.23-1.04.65,0,1.16.2,1.51.61.36.41.54.98.54,1.73,0,.96-.28,1.71-.85,2.23-.57.53-1.37.79-2.42.79Z"/>
      <path class="cls-6" d="M224.43,74.71c-.25,0-.46-.09-.63-.26-.17-.17-.26-.38-.26-.63s.09-.46.26-.63.38-.26.63-.26.46.09.63.26.26.38.26.63-.09.45-.26.63c-.17.17-.38.26-.63.26Z"/>
      <path class="cls-6" d="M227.82,74.61v-5.18h1.19l.12,1.09v4.08h-1.3ZM229.81,74.61v-3.6c0-.29-.1-.44-.31-.44-.25,0-.37.19-.37.58l-.3-1.07h.37c.07-.5.33-.74.79-.74.25,0,.45.09.59.28.15.19.22.47.22.84v4.15h-.98ZM231.45,74.61v-3.51c0-.36-.1-.54-.31-.54-.23,0-.35.19-.35.58l-.35-1.07h.44c.03-.23.12-.41.27-.54.15-.13.35-.2.6-.2.35,0,.6.1.76.29.16.19.24.5.24.93v4.05h-1.3Z"/>
      <path class="cls-6" d="M237.1,74.61l-1.33-2.2-2.16-2.98h1.58l1.35,2.29,2.14,2.89h-1.58ZM233.61,74.61l2.14-2.89,1.35-2.29h1.58l-2.22,2.98-1.27,2.2h-1.58Z"/>
    </g>
  </g>
  <image width="2000" height="1334" transform="translate(-501.76 58.78) scale(.3)" xlink:href="../../mascaras-teatro-3d-tragedia-drama-comedia-icono-boleto-cine-listo-ver-pelicula-teatro-pelicula-medios-servicio-entretenimiento-icono-cine-3d-vector-render-ilustracion.png"/>
</svg>