<?xml version="1.0" encoding="UTF-8" standalone="no"?>
<!DOCTYPE svg PUBLIC "-//W3C//DTD SVG 1.1//EN" "http://www.w3.org/Graphics/SVG/1.1/DTD/svg11.dtd">
<svg width="100%" height="100%" viewBox="0 0 468 112" version="1.1" xmlns="http://www.w3.org/2000/svg" xmlns:xlink="http://www.w3.org/1999/xlink" xml:space="preserve" xmlns:serif="http://www.serif.com/" style="fill-rule:evenodd;clip-rule:evenodd;stroke-linejoin:round;stroke-miterlimit:2;">
    <g>
        <g transform="matrix(0.884571,0,0,0.811575,2.657176,4.520323)">
            <path d="M143.18,31.33C143.18,33.15 141.36,34.69 137.72,35.96C134.08,37.23 129.63,37.86 124.36,37.86C119.09,37.86 112.49,37.13 104.63,35.68C100.48,37.84 96.69,41.03 93.25,45.27C89.81,49.5 86.12,55.5 82.17,63.26C78.22,71.02 75.33,76.19 73.49,78.77C71.65,81.35 69.13,83.85 65.93,86.28C57.46,92.55 48.68,95.69 39.57,95.69C34.71,95.69 30.74,94.66 27.65,92.6C24.56,90.54 23.02,87.88 23.02,84.61C23.02,82.96 23.51,81.54 24.49,80.36C25.47,79.18 26.63,78.59 27.98,78.59C30.17,78.59 31.27,79.74 31.27,82.03C31.27,83.11 30.93,84.04 30.26,84.81C29.58,85.59 28.76,85.97 27.78,85.97C26.19,85.97 25.4,85.19 25.4,83.64C25.4,82.83 25.27,82.43 25,82.43C24.43,82.43 24.14,83.26 24.14,84.91C24.14,87.64 25.55,89.95 28.36,91.84C31.18,93.73 34.64,94.67 38.76,94.67C47.8,94.67 55.91,90.59 63.09,82.43C66.46,78.62 70.81,72.33 76.14,63.56C84.84,49.33 93.93,39.97 103.41,35.48C101.59,35.18 98.86,34.62 95.21,33.81C86.64,31.96 80.08,31.03 75.53,31.03C75.06,31.03 73.64,31.1 71.28,31.23C72.86,34.2 73.66,37.59 73.66,41.4C73.66,48.82 70.84,55.79 65.21,62.29C59.58,68.8 53.56,72.05 47.15,72.05C44.48,72.05 42.32,71.17 40.65,69.39C38.98,67.62 38.15,65.34 38.15,62.53C38.15,58.69 39.61,54.43 42.53,49.76C45.45,45.09 49.22,41.01 53.86,37.52C58.5,34.03 63.58,31.59 69.11,30.21C66.45,26.6 62.66,24.8 57.73,24.8C53.58,24.8 49.4,26.01 45.17,28.42C40.94,30.84 37.22,34.12 34.02,38.28C33.55,38.92 33.23,39.24 33.06,39.24C32.86,39.24 32.72,39.14 32.65,38.94C32.65,38.37 34.03,36.69 36.8,33.92C43.44,27.3 50.38,23.99 57.63,23.99C63.26,23.99 67.54,25.96 70.47,29.91C74.55,28.73 79.24,28.14 84.53,28.14C87.26,28.14 89.76,28.31 92.02,28.65C94.41,29.02 100.28,30.17 109.63,32.09C117.42,28.68 124.91,26.98 132.09,26.98C139.27,26.98 143.17,28.43 143.17,31.33L143.18,31.33ZM71.69,38.92C71.69,36.22 71.07,33.73 69.82,31.43C62.26,32.68 55.23,36.57 48.72,43.12C42.21,49.66 38.96,56.11 38.96,62.45C38.96,64.88 39.71,66.92 41.21,68.57C42.71,70.22 44.56,71.05 46.75,71.05C52.45,71.05 58.03,67.53 63.5,60.5C68.97,53.47 71.7,46.28 71.7,38.92L71.69,38.92ZM142.37,31.43C142.37,30.45 141.42,29.63 139.51,28.95C137.6,28.28 135.2,27.94 132.3,27.94C125.08,27.94 118.08,29.46 111.3,32.49C112.14,32.63 114.39,33.03 118.03,33.7C123.43,34.75 128.22,35.27 132.4,35.27C135.13,35.27 137.48,34.89 139.43,34.13C141.38,33.37 142.36,32.47 142.36,31.42L142.37,31.43Z" style="fill-rule:nonzero;"/>
        </g>
        <g transform="matrix(0.884571,0,0,0.811575,2.657176,4.520323)">
            <path d="M110.88,77.59C110.88,77.69 110.58,78.13 109.97,78.9L107.79,81.63C100.8,90.25 94.81,94.56 89.81,94.56C87.45,94.56 85.46,93.71 83.86,92.01C82.26,90.31 81.45,88.17 81.45,85.61C81.45,79.54 85.68,74.19 94.15,69.57C98.6,67.14 102.23,65.93 105.03,65.93C106.24,65.93 107.28,66.29 108.14,67.02C109,67.75 109.43,68.63 109.43,69.68C109.43,72.11 107.85,74.18 104.68,75.88C101.51,77.58 96.21,79.18 88.79,80.66C86.5,84.13 85.35,87.04 85.35,89.36C85.35,92.26 86.92,93.71 90.06,93.71C95.39,93.71 101.93,88.51 109.66,78.1C110.06,77.56 110.4,77.29 110.67,77.29C110.8,77.32 110.87,77.43 110.87,77.59L110.88,77.59ZM106.6,68.21C106.6,67.13 106.01,66.59 104.83,66.59C103.04,66.59 100.69,67.83 97.77,70.31C94.85,72.79 91.99,76 89.19,79.95C94.05,78.7 98.16,76.94 101.53,74.66C104.9,72.38 106.59,70.23 106.59,68.21L106.6,68.21Z" style="fill-rule:nonzero;"/>
        </g>
        <g transform="matrix(0.884571,0,0,0.811575,2.657176,4.520323)">
            <path d="M146.44,77.54C146.44,78.25 143.98,81.53 139.05,87.37C135.06,92.17 131.92,94.57 129.63,94.57C128.08,94.57 126.81,93.99 125.83,92.82C124.85,91.66 124.36,90.2 124.36,88.44C124.36,86.68 124.9,84.65 125.98,82.52C122.61,87.24 120.03,90.43 118.24,92.08C116.45,93.73 114.72,94.56 113.03,94.56C111.24,94.56 109.74,93.79 108.53,92.26C107.32,90.73 106.71,88.79 106.71,86.47C106.71,79.99 111.28,74.26 120.42,69.27C124.43,67.04 127.67,65.93 130.13,65.93C132.22,65.93 133.27,66.94 133.27,68.97C133.27,69.54 133.13,70.3 132.86,71.25L135.44,66.34C136.45,66.58 137.34,66.69 138.12,66.69C139.03,66.69 140.21,66.57 141.66,66.34L132.7,81.16C129.6,86.36 128.05,89.78 128.05,91.43C128.05,93.08 128.71,93.81 130.03,93.81C131.35,93.81 133.54,92.27 136.52,89.17C139.49,86.08 142.52,82.27 145.59,77.74C145.79,77.4 145.98,77.23 146.15,77.23C146.35,77.23 146.45,77.33 146.45,77.53L146.44,77.54ZM132.51,69.17C132.51,67.52 131.75,66.69 130.23,66.69C127.13,66.69 123.05,69.73 118.01,75.8C112.97,81.87 110.45,86.78 110.45,90.52C110.45,92.71 111.43,93.81 113.38,93.81C115.71,93.81 119.74,89.95 125.47,82.22C130.16,75.88 132.5,71.53 132.5,69.17L132.51,69.17Z" style="fill-rule:nonzero;"/>
        </g>
        <g transform="matrix(0.884571,0,0,0.811575,2.657176,4.520323)">
            <path d="M165.19,65.93L164.78,66.69L158.15,66.69L146.87,85.97C145.49,88.3 144.79,90.15 144.79,91.54C144.79,93.06 145.58,93.82 147.17,93.82C150.24,93.82 155.43,88.47 162.72,77.76C162.96,77.42 163.16,77.25 163.33,77.25C163.53,77.25 163.63,77.35 163.63,77.55C163.6,77.65 163.43,77.92 163.12,78.36L160.94,81.35C154.59,90.17 149.81,94.57 146.61,94.57C145.02,94.57 143.7,94 142.63,92.85C141.57,91.7 141.04,90.27 141.04,88.55C141.04,86.53 141.93,84 143.72,80.96L152.22,66.69L147.06,66.69L147.57,65.93L152.63,65.93L158.55,56.11C159.56,56.38 160.52,56.51 161.43,56.51C162.34,56.51 163.35,56.38 164.36,56.11L158.54,65.93L165.19,65.93Z" style="fill-rule:nonzero;"/>
        </g>
        <g transform="matrix(0.884571,0,0,0.811575,2.657176,4.520323)">
            <path d="M192.48,77.54C192.48,77.81 191.47,79.05 189.44,81.25C186.87,84.09 184.46,85.51 182.19,85.51C179.62,85.51 178.34,84.03 178.34,81.06C178.34,80.12 178.54,78.92 178.95,77.47C176.83,79.32 175.1,81.16 173.76,82.98C172.43,84.8 170.13,88.51 166.85,94.11C165.06,93.98 164.02,93.91 163.71,93.91C163.58,93.91 162.55,93.98 160.62,94.11L168.92,80.65C173.07,73.9 175.14,69.72 175.14,68.1C175.14,67.16 174.75,66.68 173.97,66.68C172.08,66.68 168.65,70.31 163.68,77.58C163.38,78.05 163.11,78.29 162.87,78.29C162.73,78.26 162.67,78.16 162.67,77.99C162.7,77.82 162.77,77.69 162.87,77.58L163.78,76.31C168.98,69.38 172.51,65.92 174.37,65.92C177.07,65.92 178.42,67.66 178.42,71.13C178.42,73.73 177.04,77.17 174.27,81.45C176.02,79.43 177.69,77.77 179.28,76.49C180.56,73.49 182.16,70.98 184.06,68.95C185.97,66.93 187.68,65.91 189.19,65.91C190.23,65.91 190.76,66.37 190.76,67.28C190.76,68.9 188.42,71.21 183.73,74.21C182.99,74.68 181.87,75.37 180.39,76.28L179.78,76.79C179.31,78.34 179.07,79.62 179.07,80.63C179.07,83.46 180.13,84.88 182.26,84.88C184.9,84.88 187.77,82.7 190.88,78.33C191.56,77.59 191.98,77.21 192.15,77.21C192.35,77.21 192.45,77.31 192.45,77.51L192.48,77.54Z" style="fill-rule:nonzero;"/>
        </g>
        <g transform="matrix(0.884571,0,0,0.811575,2.657176,4.520323)">
            <path d="M222.38,77.49C222.38,78.03 221.38,79.29 219.39,81.27C216.42,84.23 213.69,85.71 211.19,85.71C210.14,85.71 209.21,85.51 208.4,85.1C203.94,91.41 199.76,94.56 195.84,94.56C193.81,94.56 192.09,93.73 190.65,92.06C189.22,90.39 188.5,88.39 188.5,86.06C188.5,80.87 191.91,75.86 198.72,71.03C203.51,67.62 207.46,65.92 210.56,65.92C213.46,65.92 214.91,67.47 214.91,70.57C214.91,74.45 212.87,79.12 208.79,84.58C209.46,84.99 210.22,85.19 211.07,85.19C212.59,85.19 214.36,84.48 216.39,83.07C218.42,81.66 220.08,79.96 221.36,77.98C221.73,77.51 222,77.27 222.17,77.27C222.3,77.27 222.37,77.34 222.37,77.47L222.38,77.49ZM214.16,70.69C214.16,67.96 212.93,66.59 210.47,66.59C207.4,66.59 203.66,69.52 199.24,75.39C194.82,81.26 192.61,86.2 192.61,90.21C192.61,92.54 193.72,93.7 195.95,93.7C199.59,93.7 203.57,90.7 207.89,84.69C206.91,83.61 206.42,82.5 206.42,81.35C206.42,79.7 207.08,77.99 208.39,76.24C209.71,74.49 210.99,73.61 212.23,73.61C212.77,73.61 213.14,73.95 213.34,74.62C213.88,73.44 214.15,72.12 214.15,70.67L214.16,70.69Z" style="fill-rule:nonzero;"/>
        </g>
    </g>
    <g>
        <g transform="matrix(0.884571,0,0,0.811575,2.657176,4.520323)">
            <path d="M240.86,62.75L240.7,65.5C241.54,64.39 242.47,63.56 243.49,63.01C244.51,62.46 245.61,62.19 246.82,62.19C248.29,62.19 249.56,62.58 250.63,63.37C251.7,64.16 252.37,65.07 252.63,66.1C252.89,67.13 253.03,68.88 253.03,71.35L253.03,84.45C253.03,87.28 252.86,89.29 252.53,90.49C252.2,91.69 251.51,92.64 250.47,93.35C249.43,94.06 248.18,94.42 246.71,94.42C245.54,94.42 244.45,94.15 243.45,93.6C242.45,93.05 241.54,92.24 240.71,91.16L240.71,98.29L231.24,98.29L231.24,62.76L240.87,62.76L240.86,62.75ZM243.56,71.79C243.56,69.87 243.49,68.7 243.35,68.3C243.21,67.9 242.82,67.69 242.18,67.69C241.54,67.69 241.15,67.92 240.97,68.39C240.79,68.86 240.7,69.99 240.7,71.79L240.7,84.68C240.7,86.56 240.79,87.73 240.98,88.2C241.17,88.67 241.57,88.9 242.2,88.9C242.83,88.9 243.19,88.69 243.34,88.26C243.49,87.83 243.56,86.79 243.56,85.13L243.56,71.79Z" style="fill-rule:nonzero;"/>
        </g>
        <g transform="matrix(0.884571,0,0,0.811575,2.657176,4.520323)">
            <path d="M264.61,74.79L255.73,74.79L255.73,72.7C255.73,70.29 256.01,68.44 256.56,67.13C257.11,65.82 258.23,64.67 259.9,63.67C261.57,62.67 263.74,62.17 266.42,62.17C269.62,62.17 272.04,62.74 273.66,63.87C275.28,65 276.26,66.39 276.59,68.04C276.92,69.69 277.08,73.08 277.08,78.22L277.08,93.83L267.87,93.83L267.87,91.06C267.29,92.17 266.55,93.01 265.63,93.56C264.72,94.12 263.63,94.39 262.36,94.39C260.7,94.39 259.18,93.93 257.8,93C256.42,92.07 255.73,90.04 255.73,86.89L255.73,84.34C255.73,82.01 256.1,80.43 256.83,79.58C257.56,78.73 259.38,77.75 262.29,76.63C265.4,75.41 267.06,74.59 267.28,74.17C267.5,73.75 267.61,72.89 267.61,71.59C267.61,69.97 267.49,68.91 267.25,68.41C267.01,67.91 266.61,67.67 266.04,67.67C265.4,67.67 265,67.88 264.84,68.29C264.68,68.7 264.61,69.78 264.61,71.51L264.61,74.79ZM267.61,79.06C266.09,80.17 265.22,81.1 264.97,81.85C264.72,82.6 264.61,83.68 264.61,85.08C264.61,86.69 264.72,87.73 264.93,88.2C265.14,88.67 265.56,88.9 266.18,88.9C266.8,88.9 267.16,88.72 267.34,88.35C267.52,87.98 267.61,87.02 267.61,85.46L267.61,79.06Z" style="fill-rule:nonzero;"/>
        </g>
        <g transform="matrix(0.884571,0,0,0.811575,2.657176,4.520323)">
            <path d="M289.8,62.75L289.42,66.84C290.8,63.91 292.79,62.36 295.4,62.19L295.4,73.14C293.67,73.14 292.39,73.37 291.58,73.84C290.77,74.31 290.27,74.96 290.08,75.8C289.89,76.64 289.8,78.56 289.8,81.58L289.8,93.86L280.33,93.86L280.33,62.76L289.8,62.76L289.8,62.75Z" style="fill-rule:nonzero;"/>
        </g>
        <g transform="matrix(0.884571,0,0,0.811575,2.657176,4.520323)">
            <path d="M305.97,74.79L297.09,74.79L297.09,72.7C297.09,70.29 297.37,68.44 297.92,67.13C298.47,65.82 299.59,64.67 301.26,63.67C302.93,62.67 305.1,62.17 307.78,62.17C310.98,62.17 313.4,62.74 315.02,63.87C316.64,65 317.62,66.39 317.95,68.04C318.28,69.69 318.44,73.08 318.44,78.22L318.44,93.83L309.23,93.83L309.23,91.06C308.65,92.17 307.91,93.01 306.99,93.56C306.08,94.12 304.99,94.39 303.72,94.39C302.06,94.39 300.54,93.93 299.16,93C297.78,92.07 297.09,90.04 297.09,86.89L297.09,84.34C297.09,82.01 297.46,80.43 298.19,79.58C298.92,78.73 300.74,77.75 303.65,76.63C306.76,75.41 308.42,74.59 308.64,74.17C308.86,73.75 308.97,72.89 308.97,71.59C308.97,69.97 308.85,68.91 308.61,68.41C308.37,67.91 307.97,67.67 307.4,67.67C306.76,67.67 306.36,67.88 306.2,68.29C306.04,68.7 305.97,69.78 305.97,71.51L305.97,74.79ZM308.97,79.06C307.45,80.17 306.58,81.1 306.33,81.85C306.08,82.6 305.97,83.68 305.97,85.08C305.97,86.69 306.08,87.73 306.29,88.2C306.5,88.67 306.92,88.9 307.54,88.9C308.16,88.9 308.52,88.72 308.7,88.35C308.88,87.98 308.97,87.02 308.97,85.46L308.97,79.06Z" style="fill-rule:nonzero;"/>
        </g>
        <g transform="matrix(0.884571,0,0,0.811575,2.657176,4.520323)">
            <path d="M340.15,58.6L340.15,63.5L342.7,63.5L342.7,68.42L340.15,68.42L340.15,85.06C340.15,87.11 340.26,88.25 340.47,88.48C340.68,88.71 341.56,88.83 343.11,88.83L343.11,93.85L339.29,93.85C337.13,93.85 335.59,93.76 334.67,93.58C333.75,93.4 332.94,92.99 332.23,92.34C331.52,91.69 331.09,90.95 330.92,90.11C330.75,89.27 330.66,87.31 330.66,84.22L330.66,68.42L328.62,68.42L328.62,63.5L330.66,63.5L330.66,58.6L340.15,58.6Z" style="fill-rule:nonzero;"/>
        </g>
        <g transform="matrix(0.884571,0,0,0.811575,2.657176,4.520323)">
            <path d="M366.21,73.67L366.21,81.29C366.21,84.09 366.07,86.14 365.79,87.44C365.51,88.74 364.91,89.96 363.99,91.1C363.07,92.24 361.88,93.07 360.44,93.61C359,94.15 357.33,94.42 355.46,94.42C353.37,94.42 351.59,94.19 350.14,93.73C348.69,93.27 347.56,92.57 346.75,91.64C345.94,90.71 345.37,89.59 345.03,88.26C344.69,86.93 344.51,84.96 344.51,82.32L344.51,74.35C344.51,71.46 344.82,69.2 345.45,67.58C346.08,65.96 347.2,64.65 348.83,63.67C350.46,62.69 352.53,62.19 355.06,62.19C357.18,62.19 359.01,62.51 360.53,63.14C362.05,63.77 363.23,64.6 364.06,65.61C364.89,66.62 365.45,67.67 365.76,68.75C366.07,69.83 366.22,71.47 366.22,73.67L366.21,73.67ZM356.74,71.33C356.74,69.74 356.65,68.73 356.48,68.32C356.31,67.91 355.94,67.7 355.38,67.7C354.82,67.7 354.44,67.91 354.26,68.32C354.08,68.73 353.98,69.74 353.98,71.33L353.98,85.37C353.98,86.84 354.07,87.8 354.26,88.24C354.45,88.68 354.81,88.91 355.36,88.91C355.91,88.91 356.29,88.71 356.47,88.3C356.65,87.89 356.74,87.02 356.74,85.68L356.74,71.33Z" style="fill-rule:nonzero;"/>
        </g>
        <g transform="matrix(0.884571,0,0,0.811575,2.657176,4.520323)">
            <path d="M390.86,55.89L390.86,93.85L381.39,93.85L381.39,91.59C380.48,92.53 379.53,93.23 378.53,93.7C377.53,94.17 376.48,94.41 375.39,94.41C373.92,94.41 372.65,94.02 371.57,93.25C370.49,92.48 369.8,91.58 369.5,90.57C369.2,89.56 369.04,87.9 369.04,85.6L369.04,71.05C369.04,68.66 369.19,66.96 369.5,65.96C369.81,64.96 370.5,64.08 371.6,63.32C372.7,62.56 374,62.18 375.51,62.18C376.68,62.18 377.76,62.39 378.73,62.81C379.7,63.23 380.59,63.87 381.39,64.71L381.39,55.89L390.86,55.89ZM381.4,70.58C381.4,69.44 381.3,68.67 381.11,68.28C380.92,67.89 380.53,67.69 379.95,67.69C379.37,67.69 379.01,67.87 378.81,68.22C378.61,68.57 378.52,69.36 378.52,70.58L378.52,85.81C378.52,87.08 378.61,87.91 378.8,88.31C378.99,88.71 379.35,88.91 379.88,88.91C380.49,88.91 380.9,88.69 381.1,88.24C381.3,87.79 381.4,86.7 381.4,84.97L381.4,70.58Z" style="fill-rule:nonzero;"/>
        </g>
        <g transform="matrix(0.884571,0,0,0.811575,2.657176,4.520323)">
            <path d="M415.69,73.67L415.69,81.29C415.69,84.09 415.55,86.14 415.27,87.44C414.99,88.74 414.39,89.96 413.47,91.1C412.55,92.24 411.36,93.07 409.92,93.61C408.48,94.15 406.81,94.42 404.94,94.42C402.85,94.42 401.07,94.19 399.62,93.73C398.17,93.27 397.04,92.57 396.23,91.64C395.42,90.71 394.85,89.59 394.51,88.26C394.17,86.93 393.99,84.96 393.99,82.32L393.99,74.35C393.99,71.46 394.3,69.2 394.93,67.58C395.56,65.96 396.68,64.65 398.31,63.67C399.94,62.69 402.01,62.19 404.54,62.19C406.66,62.19 408.49,62.51 410.01,63.14C411.53,63.77 412.71,64.6 413.54,65.61C414.37,66.62 414.93,67.67 415.24,68.75C415.55,69.83 415.7,71.47 415.7,73.67L415.69,73.67ZM406.22,71.33C406.22,69.74 406.13,68.73 405.96,68.32C405.79,67.91 405.42,67.7 404.86,67.7C404.3,67.7 403.92,67.91 403.74,68.32C403.56,68.73 403.46,69.74 403.46,71.33L403.46,85.37C403.46,86.84 403.55,87.8 403.74,88.24C403.93,88.68 404.29,88.91 404.84,88.91C405.39,88.91 405.77,88.71 405.95,88.3C406.13,87.89 406.22,87.02 406.22,85.68L406.22,71.33Z" style="fill-rule:nonzero;"/>
        </g>
        <g transform="matrix(0.884571,0,0,0.811575,2.657176,4.520323)">
            <path d="M438.14,72.68L429.75,72.68L429.75,70.99C429.75,69.55 429.67,68.64 429.5,68.26C429.33,67.88 428.93,67.69 428.27,67.69C427.74,67.69 427.34,67.87 427.07,68.22C426.8,68.57 426.67,69.1 426.67,69.8C426.67,70.75 426.74,71.45 426.87,71.9C427,72.35 427.4,72.83 428.07,73.36C428.74,73.89 430.1,74.66 432.16,75.68C434.91,77.02 436.71,78.29 437.57,79.48C438.43,80.67 438.86,82.39 438.86,84.66C438.86,87.19 438.53,89.1 437.88,90.39C437.23,91.68 436.13,92.67 434.59,93.37C433.05,94.07 431.2,94.41 429.02,94.41C426.61,94.41 424.56,94.03 422.84,93.29C421.12,92.55 419.95,91.52 419.31,90.24C418.67,88.96 418.35,87.02 418.35,84.43L418.35,82.93L426.74,82.93L426.74,84.9C426.74,86.57 426.85,87.66 427.06,88.16C427.27,88.66 427.69,88.91 428.31,88.91C428.98,88.91 429.45,88.74 429.72,88.41C429.99,88.08 430.12,87.37 430.12,86.29C430.12,84.81 429.95,83.88 429.6,83.5C429.24,83.12 427.4,82.02 424.09,80.17C421.31,78.61 419.61,77.19 419,75.92C418.39,74.65 418.09,73.13 418.09,71.38C418.09,68.9 418.42,67.06 419.07,65.88C419.72,64.7 420.84,63.79 422.41,63.15C423.98,62.51 425.8,62.19 427.88,62.19C429.96,62.19 431.7,62.45 433.14,62.98C434.58,63.51 435.69,64.19 436.47,65.05C437.25,65.91 437.71,66.71 437.88,67.44C438.05,68.17 438.13,69.32 438.13,70.89L438.13,72.69L438.14,72.68Z" style="fill-rule:nonzero;"/>
        </g>
    </g>
    <g transform="matrix(1,0,0,1,417.705297,19.184415)">
        <path d="M18,24.5C18,22.86 18.9,21.42 20.22,20.65C5.29,-3.81 -10.65,23.8 18,24.5ZM26.94,24.5C55.59,23.8 39.65,-3.81 24.72,20.65C26.05,21.42 26.94,22.86 26.94,24.5ZM22.47,20.04C23.28,20.04 24.04,20.26 24.69,20.63C38.41,-4.53 6.52,-4.53 20.24,20.63C20.9,20.25 21.65,20.04 22.46,20.04L22.47,20.04ZM18,24.53C-10.65,25.23 5.29,52.84 20.22,28.38C18.89,27.61 18,26.17 18,24.53ZM26.94,24.53C26.94,26.17 26.04,27.61 24.72,28.38C39.65,52.84 55.59,25.23 26.94,24.53ZM22.47,28.99C21.66,28.99 20.9,28.77 20.25,28.4C6.53,53.56 38.42,53.56 24.7,28.4C24.04,28.78 23.29,28.99 22.48,28.99L22.47,28.99Z" style="fill-rule:nonzero;"/>
    </g>
    <g transform="matrix(1,0,0,1,417.705297,19.184415)">
        <circle cx="22.47" cy="24.52" r="4.47"/>
    </g>
</svg>
