<?xml version="1.0" encoding="UTF-8" standalone="no"?>
<!DOCTYPE svg PUBLIC "-//W3C//DTD SVG 1.1//EN" "http://www.w3.org/Graphics/SVG/1.1/DTD/svg11.dtd">
<svg width="100%" height="100%" viewBox="0 0 474 93" version="1.1" xmlns="http://www.w3.org/2000/svg" xmlns:xlink="http://www.w3.org/1999/xlink" xml:space="preserve" xmlns:serif="http://www.serif.com/" style="fill-rule:evenodd;clip-rule:evenodd;stroke-linejoin:round;stroke-miterlimit:2;">
    <g>
        <g transform="matrix(0.903102,0,0,0.911841,0.738365,1.09141)">
            <path d="M336.6,69.34L324.34,69.34L324.34,76.07C324.34,77.48 324.44,78.38 324.64,78.79C324.84,79.2 325.23,79.4 325.81,79.4C326.53,79.4 327.01,79.13 327.25,78.59C327.49,78.05 327.61,77.01 327.61,75.46L327.61,71.36L336.59,71.36L336.59,73.66C336.59,75.58 336.47,77.06 336.23,78.09C335.99,79.12 335.42,80.22 334.53,81.39C333.64,82.56 332.51,83.44 331.14,84.03C329.77,84.62 328.06,84.91 326,84.91C323.94,84.91 322.23,84.62 320.7,84.04C319.17,83.46 317.98,82.67 317.13,81.66C316.28,80.65 315.69,79.54 315.36,78.33C315.03,77.12 314.87,75.36 314.87,73.04L314.87,63.97C314.87,61.25 315.24,59.11 315.97,57.54C316.7,55.97 317.91,54.77 319.58,53.93C321.25,53.09 323.17,52.68 325.35,52.68C328.01,52.68 330.2,53.18 331.92,54.19C333.64,55.2 334.86,56.53 335.55,58.2C336.24,59.87 336.59,62.2 336.59,65.22L336.59,69.34L336.6,69.34ZM327.11,64.28L327.11,62.01C327.11,60.4 327.02,59.36 326.85,58.89C326.68,58.42 326.33,58.19 325.8,58.19C325.14,58.19 324.74,58.39 324.58,58.79C324.42,59.19 324.35,60.26 324.35,62.01L324.35,64.28L327.12,64.28L327.11,64.28Z" style="fill-rule:nonzero;"/>
        </g>
        <g transform="matrix(0.903102,0,0,0.911841,0.738365,1.09141)">
            <path d="M351.77,46.4L351.77,51.2C349.82,51.2 348.66,51.29 348.31,51.47C347.96,51.65 347.78,52.16 347.78,53.01L347.78,53.99L351.76,53.99L351.76,58.91L349.51,58.91L349.51,84.34L340.04,84.34L340.04,58.91L338.09,58.91L338.09,53.99L340.04,53.99C340.04,51.94 340.11,50.58 340.25,49.89C340.39,49.2 340.74,48.59 341.29,48.05C341.84,47.51 342.62,47.1 343.62,46.82C344.62,46.54 346.17,46.4 348.28,46.4L351.77,46.4Z" style="fill-rule:nonzero;"/>
        </g>
        <g transform="matrix(0.903102,0,0,0.911841,0.738365,1.09141)">
            <path d="M375.02,69.34L362.76,69.34L362.76,76.07C362.76,77.48 362.86,78.38 363.06,78.79C363.26,79.2 363.65,79.4 364.23,79.4C364.95,79.4 365.43,79.13 365.67,78.59C365.91,78.05 366.03,77.01 366.03,75.46L366.03,71.36L375.01,71.36L375.01,73.66C375.01,75.58 374.89,77.06 374.65,78.09C374.41,79.12 373.84,80.22 372.95,81.39C372.06,82.56 370.93,83.44 369.56,84.03C368.19,84.62 366.48,84.91 364.42,84.91C362.36,84.91 360.65,84.62 359.12,84.04C357.59,83.46 356.4,82.67 355.55,81.66C354.7,80.65 354.11,79.54 353.78,78.33C353.45,77.12 353.29,75.36 353.29,73.04L353.29,63.97C353.29,61.25 353.66,59.11 354.39,57.54C355.12,55.97 356.33,54.77 358,53.93C359.67,53.09 361.59,52.68 363.77,52.68C366.43,52.68 368.62,53.18 370.34,54.19C372.06,55.2 373.28,56.53 373.97,58.2C374.66,59.87 375.01,62.2 375.01,65.22L375.01,69.34L375.02,69.34ZM365.52,64.28L365.52,62.01C365.52,60.4 365.43,59.36 365.26,58.89C365.09,58.42 364.74,58.19 364.21,58.19C363.55,58.19 363.15,58.39 362.99,58.79C362.83,59.19 362.76,60.26 362.76,62.01L362.76,64.28L365.53,64.28L365.52,64.28Z" style="fill-rule:nonzero;"/>
        </g>
        <g transform="matrix(0.903102,0,0,0.911841,0.738365,1.09141)">
            <path d="M399.04,64.98L390.11,64.98L390.11,61.39C390.11,60.14 390.01,59.29 389.81,58.85C389.61,58.41 389.23,58.18 388.69,58.18C388.15,58.18 387.78,58.38 387.59,58.77C387.4,59.16 387.31,60.04 387.31,61.39L387.31,76.06C387.31,77.17 387.45,78 387.73,78.56C388.01,79.12 388.43,79.39 388.97,79.39C389.61,79.39 390.04,79.1 390.27,78.52C390.5,77.94 390.61,76.85 390.61,75.24L390.61,71.54L399.05,71.54C399.03,74.02 398.94,75.89 398.78,77.13C398.62,78.37 398.09,79.65 397.21,80.95C396.33,82.25 395.17,83.24 393.75,83.9C392.33,84.56 390.57,84.9 388.48,84.9C385.81,84.9 383.69,84.44 382.13,83.53C380.57,82.62 379.46,81.33 378.81,79.69C378.16,78.05 377.84,75.7 377.84,72.67L377.84,63.83C377.84,61.19 378.11,59.2 378.64,57.85C379.17,56.5 380.3,55.31 382.04,54.25C383.78,53.19 385.88,52.67 388.37,52.67C390.86,52.67 392.95,53.19 394.7,54.24C396.45,55.29 397.61,56.61 398.19,58.2C398.77,59.79 399.06,62.05 399.06,64.97L399.04,64.98Z" style="fill-rule:nonzero;"/>
        </g>
        <g transform="matrix(0.903102,0,0,0.911841,0.738365,1.09141)">
            <path d="M411.84,49.09L411.84,53.99L414.39,53.99L414.39,58.91L411.84,58.91L411.84,75.55C411.84,77.6 411.95,78.74 412.16,78.97C412.37,79.2 413.25,79.32 414.8,79.32L414.8,84.34L410.98,84.34C408.82,84.34 407.28,84.25 406.36,84.07C405.44,83.89 404.63,83.48 403.92,82.83C403.21,82.18 402.78,81.44 402.61,80.6C402.44,79.76 402.35,77.8 402.35,74.71L402.35,58.91L400.31,58.91L400.31,53.99L402.35,53.99L402.35,49.09L411.84,49.09Z" style="fill-rule:nonzero;"/>
        </g>
        <g transform="matrix(0.903102,0,0,0.911841,0.738365,1.09141)">
            <path d="M426.23,46.4L426.23,51.35L416.48,51.35L416.48,46.4L426.23,46.4ZM426.23,53.24L426.23,84.34L416.48,84.34L416.48,53.24L426.23,53.24Z" style="fill-rule:nonzero;"/>
        </g>
        <g transform="matrix(0.903102,0,0,0.911841,0.738365,1.09141)">
            <path d="M449.22,53.24L444.79,84.34L432.41,84.34L427.65,53.24L436.11,53.24L438.78,75.95C438.99,74.28 439.34,70.21 439.85,63.74C440.12,60.13 440.42,56.63 440.77,53.24L449.23,53.24L449.22,53.24Z" style="fill-rule:nonzero;"/>
        </g>
        <g transform="matrix(0.903102,0,0,0.911841,0.738365,1.09141)">
            <path d="M459.06,65.29L450.18,65.29L450.18,63.2C450.18,60.79 450.46,58.94 451.01,57.63C451.56,56.32 452.68,55.17 454.35,54.17C456.02,53.17 458.19,52.67 460.87,52.67C464.07,52.67 466.49,53.24 468.11,54.37C469.73,55.5 470.71,56.89 471.04,58.54C471.37,60.19 471.53,63.58 471.53,68.72L471.53,84.33L462.32,84.33L462.32,81.56C461.74,82.67 461,83.51 460.08,84.06C459.17,84.62 458.08,84.89 456.81,84.89C455.15,84.89 453.63,84.43 452.25,83.5C450.87,82.57 450.18,80.54 450.18,77.39L450.18,74.84C450.18,72.51 450.55,70.93 451.28,70.08C452.01,69.23 453.83,68.25 456.74,67.13C459.85,65.91 461.51,65.09 461.73,64.67C461.95,64.25 462.06,63.39 462.06,62.09C462.06,60.47 461.94,59.41 461.7,58.91C461.46,58.41 461.06,58.17 460.49,58.17C459.85,58.17 459.45,58.38 459.29,58.79C459.13,59.2 459.06,60.28 459.06,62.01L459.06,65.29ZM462.06,69.55C460.54,70.66 459.67,71.59 459.42,72.34C459.17,73.09 459.06,74.17 459.06,75.57C459.06,77.18 459.17,78.22 459.38,78.69C459.59,79.16 460.01,79.39 460.63,79.39C461.25,79.39 461.61,79.21 461.79,78.84C461.97,78.47 462.06,77.51 462.06,75.95L462.06,69.55Z" style="fill-rule:nonzero;"/>
        </g>
    </g>
    <g>
        <g transform="matrix(0.903102,0,0,0.911841,0.738365,1.09141)">
            <path d="M86.49,28C86.49,30.19 84.97,32.47 81.94,34.83C84.71,38.91 86.09,42.67 86.09,46.11C86.09,46.95 85.84,47.38 85.33,47.38C84.93,47.38 84.72,46.82 84.72,45.71C84.72,42.34 83.54,38.91 81.18,35.44C76.29,39.08 69.64,42.23 61.22,44.88C52.8,47.53 45.34,48.85 38.83,48.85C37.92,48.85 37.13,48.82 36.45,48.75C31.05,56.27 28.36,63.52 28.36,70.5C28.36,75.26 29.83,79.02 32.79,81.78C35.74,84.55 39.76,85.93 44.86,85.93C54.47,85.93 63.04,81.33 70.56,72.12C75.11,66.55 77.39,61.28 77.39,56.28C77.39,53.65 76.6,51.56 75.02,50.01C73.44,48.46 71.33,47.68 68.71,47.68C64.5,47.68 59.98,49.9 55.15,54.33C50.32,58.77 47.9,62.91 47.9,66.75C47.9,67.09 48,67.26 48.2,67.26C48.37,67.23 48.5,67.16 48.6,67.06C49.5,66.25 50.34,65.85 51.11,65.85C52.82,65.85 53.67,66.78 53.67,68.63C53.67,71.13 52.46,72.37 50.03,72.37C47.8,72.37 46.69,71.02 46.69,68.32C46.69,63.5 49.14,58.72 54.03,53.98C58.92,49.24 63.88,46.87 68.9,46.87C75.38,46.87 78.61,50.43 78.61,57.55C78.61,64.67 75.09,71.61 68.06,77.66C61.03,83.71 53.23,86.74 44.66,86.74C38.69,86.74 33.67,84.73 29.61,80.72C25.55,76.71 23.51,71.75 23.51,65.85C23.51,59.95 25.52,54.23 29.53,48.19C14.93,45.49 7.62,39.72 7.62,30.89C7.62,25.63 10.33,21.23 15.77,17.69C21.2,14.15 27.96,12.38 36.06,12.38C47.36,12.38 58.78,16.14 70.31,23.66C72.3,23.26 74.34,23.05 76.43,23.05C83.14,23.05 86.5,24.7 86.5,28.01L86.49,28ZM68.88,23.85C58.63,17.91 47.71,14.95 36.15,14.95C29,14.95 22.75,16.64 17.41,20.01C12.06,23.38 9.39,27.33 9.39,31.85C9.39,39.91 16.24,45.12 29.93,47.48C38.43,35.64 51.41,27.77 68.89,23.85L68.88,23.85ZM80.77,34.73C78.17,30.99 74.68,27.66 70.3,24.76C63.99,26.48 57.84,29.44 51.83,33.64C45.83,37.84 40.9,42.62 37.06,47.98C44.11,47.98 51.91,46.69 60.46,44.11C69.01,41.53 75.78,38.4 80.77,34.73ZM85.68,28C85.68,25.23 82.98,23.85 77.59,23.85C75.9,23.85 73.9,24.09 71.57,24.56C75.58,27.33 78.91,30.55 81.54,34.22C84.31,31.86 85.69,29.79 85.69,28L85.68,28Z" style="fill-rule:nonzero;"/>
        </g>
        <g transform="matrix(0.903102,0,0,0.911841,0.738365,1.09141)">
            <path d="M111.46,68.25C111.46,68.79 110.46,70.05 108.47,72.03C105.5,74.99 102.76,76.47 100.27,76.47C99.22,76.47 98.29,76.27 97.49,75.86C93.03,82.17 88.85,85.32 84.93,85.32C82.9,85.32 81.17,84.49 79.74,82.82C78.31,81.15 77.59,79.15 77.59,76.82C77.59,71.63 81,66.62 87.81,61.79C92.6,58.38 96.55,56.68 99.65,56.68C102.55,56.68 104,58.23 104,61.33C104,65.21 101.96,69.88 97.88,75.34C98.55,75.74 99.31,75.95 100.16,75.95C101.68,75.95 103.45,75.24 105.48,73.83C107.51,72.42 109.17,70.72 110.45,68.74C110.82,68.27 111.09,68.03 111.26,68.03C111.39,68.03 111.46,68.1 111.46,68.23L111.46,68.25ZM103.24,61.44C103.24,58.71 102.01,57.34 99.55,57.34C96.48,57.34 92.74,60.27 88.32,66.14C83.9,72.01 81.69,76.95 81.69,80.96C81.69,83.29 82.8,84.45 85.03,84.45C88.67,84.45 92.65,81.45 96.97,75.44C95.99,74.36 95.5,73.25 95.5,72.1C95.5,70.45 96.16,68.74 97.47,66.99C98.79,65.24 100.07,64.36 101.31,64.36C101.85,64.36 102.22,64.7 102.42,65.37C102.96,64.19 103.23,62.87 103.23,61.42L103.24,61.44Z" style="fill-rule:nonzero;"/>
        </g>
        <g transform="matrix(0.903102,0,0,0.911841,0.738365,1.09141)">
            <path d="M152.08,68.3C152.08,69.01 149.63,72.29 144.74,78.13C140.72,82.93 137.56,85.33 135.27,85.33C133.75,85.33 132.48,84.74 131.45,83.56C130.42,82.38 129.91,80.93 129.91,79.21C129.91,77.69 130.22,76.28 130.85,74.99C131.47,73.69 133.1,71.12 135.73,67.27C138.46,63.22 139.83,60.64 139.83,59.53C139.83,58.15 139.1,57.46 137.66,57.46C132.73,57.46 125.15,66.6 114.89,84.88C113.24,84.75 112.24,84.68 111.91,84.68C110.73,84.68 109.62,84.75 108.57,84.88L116.46,72.38C120.95,65.23 123.19,60.76 123.19,58.97C123.19,57.96 122.77,57.45 121.92,57.45C120.2,57.45 116.8,61.08 111.73,68.35C111.43,68.79 111.19,69.03 111.02,69.06C110.85,69.06 110.75,68.96 110.72,68.76C110.75,68.59 110.82,68.46 110.92,68.35L111.88,67.08C117.05,60.15 120.53,56.69 122.32,56.69C123.47,56.69 124.45,57.21 125.26,58.26C126.07,59.31 126.48,60.55 126.48,62C126.48,64.16 125.22,67.16 122.69,71.01C126.67,65.51 129.73,61.75 131.87,59.73C134.01,57.71 135.99,56.69 137.81,56.69C139.29,56.69 140.54,57.3 141.55,58.51C142.56,59.72 143.07,61.23 143.07,63.01C143.07,65.27 141.52,68.73 138.42,73.38C135.25,78.14 133.66,81.17 133.66,82.49C133.66,83.87 134.35,84.56 135.74,84.56C138.75,84.56 143.93,79.21 151.29,68.5C151.46,68.16 151.63,67.99 151.8,67.99C152,67.99 152.1,68.09 152.1,68.29L152.08,68.3Z" style="fill-rule:nonzero;"/>
        </g>
        <g transform="matrix(0.903102,0,0,0.911841,0.738365,1.09141)">
            <path d="M177.58,68.35C177.58,68.45 177.28,68.89 176.67,69.66L174.49,72.39C167.5,81.01 161.51,85.32 156.51,85.32C154.15,85.32 152.16,84.47 150.56,82.76C148.96,81.06 148.16,78.92 148.16,76.36C148.16,70.29 152.39,64.94 160.86,60.32C165.31,57.89 168.94,56.68 171.74,56.68C172.95,56.68 173.99,57.04 174.85,57.77C175.71,58.5 176.14,59.38 176.14,60.43C176.14,62.86 174.55,64.92 171.38,66.63C168.21,68.33 162.91,69.93 155.49,71.41C153.2,74.88 152.05,77.78 152.05,80.11C152.05,83.01 153.62,84.46 156.76,84.46C162.09,84.46 168.63,79.26 176.36,68.85C176.76,68.31 177.1,68.04 177.37,68.04C177.5,68.07 177.57,68.18 177.57,68.34L177.58,68.35ZM173.31,58.97C173.31,57.89 172.72,57.35 171.54,57.35C169.75,57.35 167.4,58.59 164.48,61.07C161.56,63.55 158.7,66.76 155.9,70.71C160.76,69.46 164.87,67.7 168.24,65.42C171.61,63.14 173.3,60.99 173.3,58.97L173.31,58.97Z" style="fill-rule:nonzero;"/>
        </g>
        <g transform="matrix(0.903102,0,0,0.911841,0.738365,1.09141)">
            <path d="M213.56,68.3L213.36,68.71L212.75,69.52C208.33,75.43 204.9,79.52 202.47,81.78C199.94,84.15 197.66,85.33 195.63,85.33C193.6,85.33 191.83,84.55 190.31,82.98C188.79,81.41 188.03,79.6 188.03,77.54C188.03,76.63 188.28,75.35 188.79,73.7C184.2,81.46 180.19,85.34 176.75,85.34C175.67,85.34 174.76,84.93 174.02,84.1C173.28,83.27 172.91,82.27 172.91,81.09C172.91,79.34 173.53,77.72 174.78,76.23C176.03,74.75 177.38,74 178.83,74C180.62,74 181.51,74.85 181.51,76.55C181.51,78.51 180.13,79.86 177.36,80.6C175.84,81 175.08,81.76 175.08,82.88C175.08,83.93 175.7,84.45 176.95,84.45C179.45,84.45 182.31,82.17 185.55,77.62C190.68,70.44 193.24,64.75 193.24,60.54C193.24,58.49 192.3,57.46 190.41,57.46C187.21,57.46 183.12,60.93 178.13,67.86C177.56,68.63 177.17,69.02 176.97,69.02C176.84,68.95 176.77,68.85 176.77,68.72C176.77,68.11 178.44,65.96 181.77,62.26C185.1,58.56 188.09,56.71 190.71,56.71C192.73,56.71 194.4,57.4 195.71,58.78C197.02,60.16 197.68,61.9 197.68,63.99C197.68,65 197.43,66.13 196.92,67.38C201.57,60.26 205.59,56.71 208.96,56.71C211.52,56.71 212.81,58.09 212.81,60.86C212.81,62.51 212.25,64.05 211.14,65.46C210.03,66.87 208.81,67.58 207.5,67.58C205.85,67.58 205.02,66.72 205.02,65C205.02,63.38 206.23,62.2 208.66,61.46C210.18,61.02 210.94,60.23 210.94,59.08C210.94,58 210.25,57.46 208.87,57.46C206,57.46 202.52,60.34 198.42,66.11C194.32,71.88 192.27,76.75 192.27,80.73C192.27,83.29 193.49,84.57 195.92,84.57C199.43,84.57 204.85,79.42 212.18,69.12C212.72,68.38 213.08,68.01 213.24,68.01C213.44,68.01 213.54,68.11 213.54,68.31L213.56,68.3Z" style="fill-rule:nonzero;"/>
        </g>
        <g transform="matrix(0.903102,0,0,0.911841,0.738365,1.09141)">
            <path d="M230.96,68.3C230.93,68.4 230.76,68.67 230.45,69.11L228.27,72.1C221.92,80.92 217.08,85.33 213.73,85.33C212.14,85.33 210.82,84.76 209.75,83.63C208.69,82.5 208.16,81.09 208.16,79.41C208.16,77.45 209.32,74.49 211.65,70.51L219.54,57.1C220.58,57.34 221.41,57.45 222.02,57.45C222.93,57.45 224.21,57.33 225.86,57.1L214.38,75.97C212.73,78.7 211.9,80.81 211.9,82.29C211.9,83.77 212.69,84.57 214.28,84.57C217.28,84.57 222.57,79.22 230.14,68.51C230.31,68.17 230.48,68 230.65,68C230.85,68 230.95,68.1 230.95,68.3L230.96,68.3ZM230.23,47.38C230.23,48.56 229.73,49.67 228.74,50.69C227.74,51.72 226.66,52.23 225.48,52.23C223.96,52.23 223.2,51.47 223.2,49.95C223.2,48.84 223.72,47.77 224.77,46.74C225.81,45.71 226.91,45.2 228.06,45.2C229.51,45.2 230.24,45.93 230.24,47.38L230.23,47.38Z" style="fill-rule:nonzero;"/>
        </g>
        <g transform="matrix(0.903102,0,0,0.911841,0.738365,1.09141)">
            <path d="M261.01,68.25C261.01,68.79 260.01,70.05 258.02,72.03C255.05,74.99 252.31,76.47 249.82,76.47C248.77,76.47 247.84,76.27 247.04,75.86C242.58,82.17 238.4,85.32 234.48,85.32C232.45,85.32 230.72,84.49 229.29,82.82C227.86,81.15 227.14,79.15 227.14,76.82C227.14,71.63 230.55,66.62 237.36,61.79C242.15,58.38 246.1,56.68 249.2,56.68C252.1,56.68 253.55,58.23 253.55,61.33C253.55,65.21 251.51,69.88 247.43,75.34C248.1,75.74 248.86,75.95 249.71,75.95C251.23,75.95 253,75.24 255.03,73.83C257.06,72.42 258.72,70.72 260,68.74C260.37,68.27 260.64,68.03 260.81,68.03C260.94,68.03 261.01,68.1 261.01,68.23L261.01,68.25ZM252.79,61.44C252.79,58.71 251.56,57.34 249.1,57.34C246.03,57.34 242.29,60.27 237.87,66.14C233.45,72.01 231.24,76.95 231.24,80.96C231.24,83.29 232.35,84.45 234.58,84.45C238.22,84.45 242.2,81.45 246.52,75.44C245.54,74.36 245.05,73.25 245.05,72.1C245.05,70.45 245.71,68.74 247.02,66.99C248.34,65.24 249.62,64.36 250.86,64.36C251.4,64.36 251.77,64.7 251.97,65.37C252.51,64.19 252.78,62.87 252.78,61.42L252.79,61.44ZM269.49,41.41C266.22,43.98 262.04,46.33 256.94,48.46C253.03,50.15 250.78,51 250.21,51C250.08,51 249.97,50.97 249.91,50.9C249.91,50.8 250.11,50.65 250.52,50.44C258.4,46.69 264.02,42.62 267.39,38.22L269.49,41.41Z" style="fill-rule:nonzero;"/>
        </g>
        <g transform="matrix(0.903102,0,0,0.911841,0.738365,1.09141)">
            <path d="M301.64,68.3C301.64,69.01 299.19,72.29 294.3,78.13C290.28,82.93 287.12,85.33 284.83,85.33C283.31,85.33 282.04,84.74 281.01,83.56C279.98,82.38 279.47,80.93 279.47,79.21C279.47,77.69 279.78,76.28 280.41,74.99C281.03,73.69 282.66,71.12 285.29,67.27C288.02,63.22 289.39,60.64 289.39,59.53C289.39,58.15 288.66,57.46 287.22,57.46C282.29,57.46 274.71,66.6 264.45,84.88C262.8,84.75 261.8,84.68 261.47,84.68C260.29,84.68 259.18,84.75 258.13,84.88L266.02,72.38C270.51,65.23 272.75,60.76 272.75,58.97C272.75,57.96 272.33,57.45 271.48,57.45C269.76,57.45 266.36,61.08 261.29,68.35C260.99,68.79 260.75,69.03 260.58,69.06C260.41,69.06 260.31,68.96 260.28,68.76C260.31,68.59 260.38,68.46 260.48,68.35L261.44,67.08C266.61,60.15 270.09,56.69 271.88,56.69C273.03,56.69 274.01,57.21 274.82,58.26C275.63,59.31 276.04,60.55 276.04,62C276.04,64.16 274.78,67.16 272.25,71.01C276.23,65.51 279.29,61.75 281.43,59.73C283.57,57.71 285.55,56.69 287.37,56.69C288.85,56.69 290.1,57.3 291.11,58.51C292.12,59.72 292.63,61.23 292.63,63.01C292.63,65.27 291.08,68.73 287.98,73.38C284.81,78.14 283.22,81.17 283.22,82.49C283.22,83.87 283.91,84.56 285.3,84.56C288.31,84.56 293.49,79.21 300.85,68.5C301.02,68.16 301.19,67.99 301.36,67.99C301.56,67.99 301.66,68.09 301.66,68.29L301.64,68.3Z" style="fill-rule:nonzero;"/>
        </g>
    </g>
    <g transform="matrix(0.888758,0,0,0.914808,104.588713,3.559559)">
        <path d="M409.82,10.999L409.82,24.931C409.82,28.165 407.118,30.79 403.789,30.79L8.951,30.79C5.622,30.79 2.92,28.165 2.92,24.931L2.92,10.999C2.92,7.765 5.622,5.14 8.951,5.14L403.789,5.14C407.118,5.14 409.82,7.765 409.82,10.999Z"/>
    </g>
    <g transform="matrix(0.888758,0,0,0.914808,104.588713,3.559559)">
        <path d="M11.13,23.02L11.13,10.54L12.96,10.54L12.96,23.02L11.13,23.02ZM11.13,12.21L11.13,10.54L19.39,10.54L19.39,12.21L11.13,12.21ZM11.13,17.61L11.13,15.94L17.81,15.94L17.81,17.61L11.13,17.61ZM11.13,23.02L11.13,21.35L19.39,21.35L19.39,23.02L11.13,23.02Z" style="fill:white;fill-rule:nonzero;"/>
    </g>
    <g transform="matrix(0.888758,0,0,0.914808,104.588713,3.559559)">
        <path d="M21.14,11.47L21.14,9.84L24.04,9.84L24.04,11.47L21.14,11.47ZM26.94,23.2C25.86,23.2 25.08,22.91 24.6,22.32C24.12,21.73 23.88,20.8 23.88,19.51L23.88,9.84L25.74,9.84L25.74,19.42C25.74,19.91 25.79,20.31 25.88,20.62C25.97,20.93 26.16,21.16 26.43,21.31C26.7,21.46 27.11,21.53 27.64,21.53C28.13,21.53 28.75,21.42 29.5,21.2L29.71,22.83C29.24,22.96 28.78,23.05 28.34,23.11C27.9,23.17 27.43,23.2 26.93,23.2L26.94,23.2Z" style="fill:white;fill-rule:nonzero;"/>
    </g>
    <g transform="matrix(0.888758,0,0,0.914808,104.588713,3.559559)">
        <path d="M42.35,23.02L42.35,13.7L44,13.7L44.21,15.67L44.21,23.02L42.35,23.02ZM45.85,23.02L45.85,15.73C45.85,15.2 45.6,14.94 45.11,14.94C44.51,14.94 44.21,15.36 44.21,16.21L43.67,14.87L44.27,14.87C44.34,13.98 44.87,13.53 45.87,13.53C46.36,13.53 46.74,13.7 47.02,14.03C47.3,14.36 47.44,14.87 47.44,15.55L47.44,23.02L45.85,23.02ZM49.07,23.02L49.07,15.9C49.07,15.26 48.83,14.93 48.35,14.93C47.74,14.93 47.44,15.35 47.44,16.2L46.81,14.86L47.53,14.86C47.56,14.5 47.7,14.18 47.97,13.92C48.24,13.66 48.61,13.52 49.1,13.52C49.74,13.52 50.21,13.69 50.51,14.04C50.81,14.39 50.95,14.95 50.95,15.72L50.95,23.01L49.09,23.01L49.07,23.02Z" style="fill:white;fill-rule:nonzero;"/>
    </g>
    <g transform="matrix(0.888758,0,0,0.914808,104.588713,3.559559)">
        <path d="M57.19,23.2C55.9,23.2 54.9,22.78 54.18,21.93C53.46,21.08 53.11,19.9 53.11,18.36C53.11,16.82 53.47,15.63 54.18,14.79C54.89,13.95 55.9,13.53 57.19,13.53C58.48,13.53 59.49,13.95 60.2,14.79C60.91,15.63 61.27,16.82 61.27,18.36C61.27,19.9 60.91,21.08 60.2,21.93C59.49,22.78 58.48,23.2 57.19,23.2ZM57.19,21.53C57.88,21.53 58.4,21.25 58.78,20.7C59.16,20.15 59.34,19.37 59.34,18.36C59.34,17.35 59.15,16.57 58.78,16.02C58.41,15.47 57.88,15.2 57.19,15.2C56.5,15.2 55.98,15.47 55.6,16.02C55.22,16.57 55.04,17.35 55.04,18.36C55.04,19.37 55.23,20.15 55.6,20.7C55.97,21.25 56.5,21.53 57.19,21.53Z" style="fill:white;fill-rule:nonzero;"/>
    </g>
    <g transform="matrix(0.888758,0,0,0.914808,104.588713,3.559559)">
        <path d="M63.08,15.34L63.08,13.71L71.52,13.71L71.52,15.34L63.08,15.34ZM65.41,18.63L65.41,10.9L67.27,10.9L67.27,18.63L65.41,18.63ZM69.42,23.2C68.01,23.2 66.99,22.91 66.36,22.32C65.73,21.73 65.42,20.8 65.42,19.51L65.42,17.93L67.28,17.93L67.28,19.42C67.28,20.16 67.46,20.69 67.82,21.03C68.18,21.37 68.77,21.53 69.6,21.53C69.89,21.53 70.2,21.51 70.53,21.48C70.86,21.45 71.23,21.41 71.65,21.35L71.86,22.98C71.45,23.05 71.05,23.1 70.66,23.14C70.27,23.18 69.86,23.19 69.42,23.19L69.42,23.2Z" style="fill:white;fill-rule:nonzero;"/>
    </g>
    <g transform="matrix(0.888758,0,0,0.914808,104.588713,3.559559)">
        <path d="M78.28,23.2C76.99,23.2 75.99,22.78 75.27,21.93C74.55,21.08 74.2,19.9 74.2,18.36C74.2,16.82 74.56,15.63 75.27,14.79C75.98,13.95 76.99,13.53 78.28,13.53C79.57,13.53 80.58,13.95 81.29,14.79C82,15.63 82.36,16.82 82.36,18.36C82.36,19.9 82,21.08 81.29,21.93C80.58,22.78 79.57,23.2 78.28,23.2ZM78.28,21.53C78.97,21.53 79.49,21.25 79.87,20.7C80.25,20.15 80.43,19.37 80.43,18.36C80.43,17.35 80.24,16.57 79.87,16.02C79.5,15.47 78.97,15.2 78.28,15.2C77.59,15.2 77.07,15.47 76.69,16.02C76.31,16.57 76.13,17.35 76.13,18.36C76.13,19.37 76.32,20.15 76.69,20.7C77.06,21.25 77.59,21.53 78.28,21.53Z" style="fill:white;fill-rule:nonzero;"/>
    </g>
    <g transform="matrix(0.888758,0,0,0.914808,104.588713,3.559559)">
        <path d="M84.26,23.02L84.26,21.39L90.48,21.39L90.48,23.02L84.26,23.02ZM84.61,15.34L84.61,13.71L87.72,13.71L87.9,15.34L84.61,15.34ZM86.33,23.02L86.33,13.7L87.84,13.7L88.19,16.37L88.19,23.01L86.33,23.01L86.33,23.02ZM88.2,19.02L87.66,16.1L88.38,16.1C88.49,14.39 89.34,13.53 90.95,13.53C91.91,13.53 92.61,13.81 93.04,14.36C93.47,14.91 93.69,15.8 93.69,17.03L91.84,17.03C91.84,16.35 91.74,15.86 91.54,15.56C91.34,15.26 91.01,15.11 90.56,15.11C89.77,15.11 89.18,15.45 88.79,16.13C88.4,16.81 88.21,17.77 88.21,19.02L88.2,19.02Z" style="fill:white;fill-rule:nonzero;"/>
    </g>
    <g transform="matrix(0.888758,0,0,0.914808,104.588713,3.559559)">
        <path d="M109.21,23.2C107.99,23.2 107.07,22.8 106.44,22C105.81,21.2 105.5,20.02 105.5,18.46C105.5,16.9 105.81,15.62 106.44,14.79C107.07,13.96 107.99,13.54 109.21,13.54C109.91,13.54 110.47,13.7 110.91,14.03C111.35,14.36 111.6,14.82 111.68,15.4L112.4,15.4L111.86,18.05C111.86,17.09 111.67,16.36 111.29,15.86C110.91,15.36 110.36,15.11 109.62,15.11C108.88,15.11 108.3,15.39 107.91,15.95C107.52,16.51 107.33,17.34 107.33,18.45C107.33,19.49 107.52,20.28 107.91,20.81C108.3,21.34 108.87,21.61 109.62,21.61C110.37,21.61 110.91,21.36 111.29,20.86C111.67,20.36 111.86,19.63 111.86,18.67L112.49,21.32L111.68,21.32C111.62,21.91 111.37,22.36 110.94,22.69C110.51,23.02 109.93,23.18 109.21,23.18L109.21,23.2ZM112.05,23.11L111.86,21.28L111.86,9.84L113.72,9.84L113.72,23.02L112.05,23.11Z" style="fill:white;fill-rule:nonzero;"/>
    </g>
    <g transform="matrix(0.888758,0,0,0.914808,104.588713,3.559559)">
        <path d="M121.28,23.2C119.69,23.2 118.47,22.78 117.6,21.95C116.74,21.11 116.3,19.91 116.3,18.35C116.3,16.79 116.67,15.64 117.4,14.8C118.13,13.96 119.17,13.53 120.5,13.53C121.76,13.53 122.73,13.91 123.42,14.67C124.11,15.43 124.45,16.54 124.45,17.99C124.45,18.42 124.43,18.82 124.4,19.19L117.86,19.19L117.86,17.77L122.76,17.77C122.76,16.93 122.56,16.29 122.16,15.84C121.76,15.39 121.21,15.17 120.51,15.17C119.72,15.17 119.11,15.44 118.67,15.98C118.23,16.52 118.02,17.28 118.02,18.27C118.02,19.35 118.32,20.17 118.92,20.73C119.52,21.29 120.37,21.57 121.48,21.57C121.87,21.57 122.25,21.55 122.62,21.5C123,21.46 123.38,21.4 123.76,21.32L123.99,22.95C123.44,23.06 122.94,23.12 122.48,23.15C122.02,23.18 121.62,23.19 121.27,23.19L121.28,23.2Z" style="fill:white;fill-rule:nonzero;"/>
    </g>
    <g transform="matrix(0.888758,0,0,0.914808,104.588713,3.559559)">
        <path d="M137.77,23.02L137.77,13.7L139.46,13.7L139.64,15.67L139.64,23.02L137.77,23.02ZM143.5,23.02L143.5,16.96C143.5,16.4 143.35,15.96 143.06,15.66C142.77,15.36 142.36,15.2 141.83,15.2C140.37,15.2 139.63,16.06 139.63,17.78L139.09,15.39L139.81,15.39C139.86,14.76 140.09,14.3 140.5,13.99C140.9,13.68 141.5,13.53 142.28,13.53C143.26,13.53 144.03,13.83 144.57,14.43C145.11,15.03 145.38,15.87 145.38,16.96L145.38,23.02L143.5,23.02Z" style="fill:white;fill-rule:nonzero;"/>
    </g>
    <g transform="matrix(0.888758,0,0,0.914808,104.588713,3.559559)">
        <path d="M151.2,23.2C150.22,23.2 149.46,22.91 148.93,22.32C148.39,21.74 148.13,20.92 148.13,19.86L148.13,13.71L149.99,13.71L149.99,19.86C149.99,20.39 150.14,20.81 150.45,21.09C150.75,21.38 151.18,21.53 151.73,21.53C152.41,21.53 152.92,21.32 153.27,20.88C153.62,20.45 153.79,19.73 153.79,18.71L154.26,21.22L153.64,21.22C153.49,21.85 153.21,22.34 152.78,22.68C152.35,23.02 151.82,23.19 151.2,23.19L151.2,23.2ZM153.78,20.39L153.78,13.71L155.64,13.71L155.64,19.86L153.78,20.39ZM153.94,23.11L153.78,20.88L153.78,19.25L155.64,19.25L155.64,21.34L156.92,21.53L156.92,23.02L153.93,23.11L153.94,23.11Z" style="fill:white;fill-rule:nonzero;"/>
    </g>
    <g transform="matrix(0.888758,0,0,0.914808,104.588713,3.559559)">
        <path d="M163.47,23.2C161.88,23.2 160.66,22.78 159.79,21.95C158.93,21.11 158.49,19.91 158.49,18.35C158.49,16.79 158.86,15.64 159.59,14.8C160.32,13.96 161.36,13.53 162.69,13.53C163.95,13.53 164.92,13.91 165.61,14.67C166.3,15.43 166.64,16.54 166.64,17.99C166.64,18.42 166.62,18.82 166.59,19.19L160.05,19.19L160.05,17.77L164.95,17.77C164.95,16.93 164.75,16.29 164.35,15.84C163.95,15.39 163.4,15.17 162.7,15.17C161.91,15.17 161.3,15.44 160.86,15.98C160.42,16.52 160.21,17.28 160.21,18.27C160.21,19.35 160.51,20.17 161.11,20.73C161.71,21.29 162.56,21.57 163.67,21.57C164.06,21.57 164.44,21.55 164.81,21.5C165.19,21.46 165.57,21.4 165.95,21.32L166.18,22.95C165.63,23.06 165.13,23.12 164.67,23.15C164.21,23.18 163.81,23.19 163.46,23.19L163.47,23.2Z" style="fill:white;fill-rule:nonzero;"/>
    </g>
    <g transform="matrix(0.888758,0,0,0.914808,104.588713,3.559559)">
        <path d="M172.48,23.2C171.78,23.2 171.17,23.18 170.67,23.14C170.17,23.1 169.71,23.03 169.29,22.94L169.5,21.25C170.12,21.34 170.66,21.41 171.13,21.46C171.6,21.51 172.05,21.53 172.47,21.53C173.41,21.53 174.1,21.44 174.52,21.25C174.94,21.07 175.16,20.77 175.16,20.37C175.16,20.09 175.09,19.88 174.94,19.74C174.79,19.6 174.56,19.5 174.25,19.42L172.11,18.88C171.19,18.65 170.51,18.36 170.08,18.01C169.65,17.66 169.43,17.14 169.43,16.44C169.43,15.42 169.82,14.68 170.6,14.23C171.38,13.78 172.64,13.54 174.38,13.54C174.83,13.54 175.25,13.55 175.64,13.58C176.03,13.61 176.43,13.65 176.84,13.72L176.65,15.34C176.18,15.29 175.76,15.26 175.39,15.24C175.02,15.22 174.67,15.21 174.33,15.21C173.29,15.21 172.53,15.3 172.06,15.48C171.59,15.66 171.36,15.95 171.36,16.36C171.36,16.63 171.46,16.82 171.65,16.94C171.84,17.06 172.14,17.17 172.54,17.27L174.26,17.69C175.24,17.92 175.95,18.24 176.41,18.63C176.87,19.02 177.09,19.59 177.09,20.34C177.09,21.34 176.72,22.07 175.99,22.52C175.26,22.98 174.08,23.2 172.47,23.2L172.48,23.2Z" style="fill:white;fill-rule:nonzero;"/>
    </g>
    <g transform="matrix(0.888758,0,0,0.914808,104.588713,3.559559)">
        <path d="M179.09,15.34L179.09,13.71L187.53,13.71L187.53,15.34L179.09,15.34ZM181.43,18.63L181.43,10.9L183.29,10.9L183.29,18.63L181.43,18.63ZM185.44,23.2C184.03,23.2 183.01,22.91 182.38,22.32C181.75,21.73 181.44,20.8 181.44,19.51L181.44,17.93L183.3,17.93L183.3,19.42C183.3,20.16 183.48,20.69 183.84,21.03C184.2,21.37 184.79,21.53 185.62,21.53C185.91,21.53 186.22,21.51 186.55,21.48C186.88,21.45 187.25,21.41 187.67,21.35L187.88,22.98C187.47,23.05 187.07,23.1 186.68,23.14C186.29,23.18 185.88,23.19 185.44,23.19L185.44,23.2Z" style="fill:white;fill-rule:nonzero;"/>
    </g>
    <g transform="matrix(0.888758,0,0,0.914808,104.588713,3.559559)">
        <path d="M189.73,23.02L189.73,21.39L195.95,21.39L195.95,23.02L189.73,23.02ZM190.08,15.34L190.08,13.71L193.19,13.71L193.37,15.34L190.08,15.34ZM191.8,23.02L191.8,13.7L193.31,13.7L193.66,16.37L193.66,23.01L191.8,23.01L191.8,23.02ZM193.66,19.02L193.12,16.1L193.84,16.1C193.95,14.39 194.8,13.53 196.41,13.53C197.37,13.53 198.07,13.81 198.5,14.36C198.93,14.91 199.15,15.8 199.15,17.03L197.3,17.03C197.3,16.35 197.2,15.86 197,15.56C196.8,15.26 196.47,15.11 196.02,15.11C195.23,15.11 194.64,15.45 194.25,16.13C193.86,16.81 193.67,17.77 193.67,19.02L193.66,19.02Z" style="fill:white;fill-rule:nonzero;"/>
    </g>
    <g transform="matrix(0.888758,0,0,0.914808,104.588713,3.559559)">
        <path d="M204.84,23.2C203.55,23.2 202.55,22.78 201.83,21.93C201.11,21.08 200.76,19.9 200.76,18.36C200.76,16.82 201.12,15.63 201.83,14.79C202.54,13.95 203.55,13.53 204.84,13.53C206.13,13.53 207.14,13.95 207.85,14.79C208.56,15.63 208.92,16.82 208.92,18.36C208.92,19.9 208.56,21.08 207.85,21.93C207.14,22.78 206.13,23.2 204.84,23.2ZM204.84,21.53C205.53,21.53 206.05,21.25 206.43,20.7C206.81,20.15 206.99,19.37 206.99,18.36C206.99,17.35 206.8,16.57 206.43,16.02C206.06,15.47 205.53,15.2 204.84,15.2C204.15,15.2 203.63,15.47 203.25,16.02C202.87,16.57 202.69,17.35 202.69,18.36C202.69,19.37 202.88,20.15 203.25,20.7C203.62,21.25 204.15,21.53 204.84,21.53Z" style="fill:white;fill-rule:nonzero;"/>
    </g>
    <g transform="matrix(0.888758,0,0,0.914808,104.588713,3.559559)">
        <path d="M221.28,15.34L221.28,13.71L229.72,13.71L229.72,15.34L221.28,15.34ZM223.62,18.63L223.62,10.9L225.48,10.9L225.48,18.63L223.62,18.63ZM227.63,23.2C226.22,23.2 225.2,22.91 224.57,22.32C223.94,21.73 223.63,20.8 223.63,19.51L223.63,17.93L225.49,17.93L225.49,19.42C225.49,20.16 225.67,20.69 226.03,21.03C226.39,21.37 226.98,21.53 227.81,21.53C228.1,21.53 228.41,21.51 228.74,21.48C229.07,21.45 229.44,21.41 229.86,21.35L230.07,22.98C229.66,23.05 229.26,23.1 228.87,23.14C228.48,23.18 228.07,23.19 227.63,23.19L227.63,23.2Z" style="fill:white;fill-rule:nonzero;"/>
    </g>
    <g transform="matrix(0.888758,0,0,0.914808,104.588713,3.559559)">
        <path d="M231.91,23.02L231.91,21.39L238.13,21.39L238.13,23.02L231.91,23.02ZM232.27,15.34L232.27,13.71L235.38,13.71L235.56,15.34L232.27,15.34ZM233.99,23.02L233.99,13.7L235.5,13.7L235.85,16.37L235.85,23.01L233.99,23.01L233.99,23.02ZM235.85,19.02L235.31,16.1L236.03,16.1C236.14,14.39 236.99,13.53 238.6,13.53C239.56,13.53 240.26,13.81 240.69,14.36C241.12,14.91 241.34,15.8 241.34,17.03L239.49,17.03C239.49,16.35 239.39,15.86 239.19,15.56C238.99,15.26 238.66,15.11 238.21,15.11C237.42,15.11 236.83,15.45 236.44,16.13C236.05,16.81 235.86,17.77 235.86,19.02L235.85,19.02Z" style="fill:white;fill-rule:nonzero;"/>
    </g>
    <g transform="matrix(0.888758,0,0,0.914808,104.588713,3.559559)">
        <path d="M245.66,23.2C244.69,23.2 243.93,22.97 243.4,22.5C242.87,22.03 242.6,21.37 242.6,20.51C242.6,19.53 242.97,18.77 243.7,18.24C244.43,17.71 245.47,17.45 246.82,17.45C247.38,17.45 247.87,17.48 248.31,17.55C248.75,17.62 249.13,17.72 249.47,17.85L249.08,19.12C248.69,19.03 248.3,18.98 247.93,18.97C247.55,18.96 247.17,18.95 246.78,18.95C245.16,18.95 244.35,19.44 244.35,20.43C244.35,20.84 244.49,21.16 244.77,21.38C245.05,21.6 245.44,21.71 245.95,21.71C246.53,21.71 247.01,21.61 247.4,21.41C247.79,21.21 248.08,20.96 248.27,20.65C248.46,20.34 248.56,20.02 248.56,19.69L248.56,18.67L249.1,21.06L248.36,21.06L248.66,20.78C248.66,21.32 248.54,21.77 248.29,22.13C248.04,22.49 247.69,22.76 247.24,22.94C246.79,23.12 246.26,23.21 245.64,23.21L245.66,23.2ZM248.95,23.11L248.83,20.35L248.58,19.58L248.58,17.17C248.58,16.55 248.36,16.09 247.93,15.8C247.49,15.51 246.84,15.35 245.98,15.33L243.75,15.27L243.93,13.62L245.81,13.65C247.35,13.67 248.5,14.01 249.24,14.65C249.99,15.29 250.36,16.23 250.36,17.46L250.36,21.34L251.94,21.53L251.94,23.02L248.95,23.11Z" style="fill:white;fill-rule:nonzero;"/>
    </g>
    <g transform="matrix(0.888758,0,0,0.914808,104.588713,3.559559)">
        <path d="M253.74,23.03L253.74,9.84L255.6,9.84L255.6,22.87L253.74,23.03ZM256.23,23.2C255.81,23.2 255.39,23.18 254.98,23.15C254.57,23.12 254.15,23.08 253.73,23.02L254.45,21.31C254.76,21.46 255.1,21.54 255.48,21.57C255.86,21.6 256.23,21.61 256.6,21.61C257.72,21.61 258.58,21.27 259.2,20.6C259.82,19.93 260.12,18.97 260.12,17.74C260.12,16.9 259.93,16.25 259.56,15.79C259.19,15.33 258.66,15.1 257.97,15.1C256.39,15.1 255.6,15.99 255.6,17.77L255.06,15.38L255.78,15.38C255.87,14.14 256.63,13.52 258.07,13.52C259.31,13.52 260.27,13.89 260.95,14.62C261.63,15.35 261.97,16.39 261.97,17.74C261.97,19.47 261.47,20.81 260.47,21.76C259.47,22.71 258.06,23.19 256.24,23.19L256.23,23.2Z" style="fill:white;fill-rule:nonzero;"/>
    </g>
    <g transform="matrix(0.888758,0,0,0.914808,104.588713,3.559559)">
        <path d="M266.75,23.2C265.78,23.2 265.02,22.97 264.49,22.5C263.96,22.03 263.69,21.37 263.69,20.51C263.69,19.53 264.06,18.77 264.79,18.24C265.52,17.71 266.56,17.45 267.91,17.45C268.47,17.45 268.96,17.48 269.4,17.55C269.84,17.62 270.22,17.72 270.56,17.85L270.17,19.12C269.78,19.03 269.39,18.98 269.02,18.97C268.64,18.96 268.26,18.95 267.87,18.95C266.25,18.95 265.44,19.44 265.44,20.43C265.44,20.84 265.58,21.16 265.86,21.38C266.14,21.6 266.53,21.71 267.04,21.71C267.62,21.71 268.1,21.61 268.49,21.41C268.88,21.21 269.17,20.96 269.36,20.65C269.55,20.34 269.65,20.02 269.65,19.69L269.65,18.67L270.19,21.06L269.45,21.06L269.75,20.78C269.75,21.32 269.63,21.77 269.38,22.13C269.13,22.49 268.78,22.76 268.33,22.94C267.88,23.12 267.35,23.21 266.73,23.21L266.75,23.2ZM270.04,23.11L269.92,20.35L269.67,19.58L269.67,17.17C269.67,16.55 269.45,16.09 269.02,15.8C268.58,15.51 267.93,15.35 267.07,15.33L264.84,15.27L265.02,13.62L266.9,13.65C268.44,13.67 269.59,14.01 270.33,14.65C271.08,15.29 271.45,16.23 271.45,17.46L271.45,21.34L273.03,21.53L273.03,23.02L270.04,23.11Z" style="fill:white;fill-rule:nonzero;"/>
    </g>
    <g transform="matrix(0.888758,0,0,0.914808,104.588713,3.559559)">
        <path d="M274.98,27.24L274.89,25.59L276.65,25.43C277.59,25.35 278.28,25.07 278.7,24.61C279.12,24.15 279.34,23.43 279.34,22.48L279.34,19.65L281.2,19.65L281.2,22.2C281.2,23.31 281.04,24.21 280.71,24.91C280.38,25.61 279.87,26.13 279.17,26.49C278.47,26.84 277.57,27.06 276.47,27.14L274.98,27.25L274.98,27.24ZM275.72,15.34L275.72,13.71L279.48,13.71L279.48,15.34L275.72,15.34ZM280.08,12.23C279.72,12.23 279.42,12.1 279.16,11.85C278.91,11.6 278.78,11.29 278.78,10.93C278.78,10.57 278.91,10.26 279.16,10.01C279.41,9.76 279.72,9.63 280.08,9.63C280.44,9.63 280.75,9.76 281,10.01C281.25,10.26 281.38,10.57 281.38,10.93C281.38,11.29 281.25,11.59 281,11.85C280.75,12.11 280.44,12.23 280.08,12.23ZM279.34,19.95L279.34,13.71L281.2,13.71L281.2,19.95L279.34,19.95Z" style="fill:white;fill-rule:nonzero;"/>
    </g>
    <g transform="matrix(0.888758,0,0,0.914808,104.588713,3.559559)">
        <path d="M289.22,23.2C287.93,23.2 286.93,22.78 286.21,21.93C285.49,21.08 285.14,19.9 285.14,18.36C285.14,16.82 285.5,15.63 286.21,14.79C286.92,13.95 287.93,13.53 289.22,13.53C290.51,13.53 291.52,13.95 292.23,14.79C292.94,15.63 293.3,16.82 293.3,18.36C293.3,19.9 292.94,21.08 292.23,21.93C291.52,22.78 290.51,23.2 289.22,23.2ZM289.22,21.53C289.91,21.53 290.43,21.25 290.81,20.7C291.19,20.15 291.37,19.37 291.37,18.36C291.37,17.35 291.18,16.57 290.81,16.02C290.44,15.47 289.91,15.2 289.22,15.2C288.53,15.2 288.01,15.47 287.63,16.02C287.25,16.57 287.07,17.35 287.07,18.36C287.07,19.37 287.26,20.15 287.63,20.7C288,21.25 288.53,21.53 289.22,21.53Z" style="fill:white;fill-rule:nonzero;"/>
    </g>
    <g transform="matrix(0.888758,0,0,0.914808,104.588713,3.559559)">
        <path d="M311.12,23.2C309.53,23.2 308.31,22.78 307.44,21.95C306.58,21.11 306.14,19.91 306.14,18.35C306.14,16.79 306.51,15.64 307.24,14.8C307.97,13.96 309.01,13.53 310.34,13.53C311.6,13.53 312.57,13.91 313.26,14.67C313.95,15.43 314.29,16.54 314.29,17.99C314.29,18.42 314.27,18.82 314.24,19.19L307.7,19.19L307.7,17.77L312.6,17.77C312.6,16.93 312.4,16.29 312,15.84C311.6,15.39 311.05,15.17 310.35,15.17C309.56,15.17 308.95,15.44 308.51,15.98C308.07,16.52 307.86,17.28 307.86,18.27C307.86,19.35 308.16,20.17 308.76,20.73C309.36,21.29 310.21,21.57 311.32,21.57C311.71,21.57 312.09,21.55 312.46,21.5C312.84,21.46 313.22,21.4 313.6,21.32L313.83,22.95C313.28,23.06 312.78,23.12 312.32,23.15C311.86,23.18 311.46,23.19 311.11,23.19L311.12,23.2Z" style="fill:white;fill-rule:nonzero;"/>
    </g>
    <g transform="matrix(0.888758,0,0,0.914808,104.588713,3.559559)">
        <path d="M317.06,23.02L317.06,13.7L318.75,13.7L318.93,15.67L318.93,23.02L317.06,23.02ZM322.79,23.02L322.79,16.96C322.79,16.4 322.64,15.96 322.35,15.66C322.06,15.36 321.65,15.2 321.12,15.2C319.66,15.2 318.92,16.06 318.92,17.78L318.38,15.39L319.1,15.39C319.15,14.76 319.38,14.3 319.79,13.99C320.19,13.68 320.79,13.53 321.57,13.53C322.55,13.53 323.32,13.83 323.86,14.43C324.4,15.03 324.67,15.87 324.67,16.96L324.67,23.02L322.79,23.02Z" style="fill:white;fill-rule:nonzero;"/>
    </g>
    <g transform="matrix(0.888758,0,0,0.914808,104.588713,3.559559)">
        <path d="M342.76,23.2C341.17,23.2 339.95,22.78 339.08,21.95C338.22,21.11 337.78,19.91 337.78,18.35C337.78,16.79 338.15,15.64 338.88,14.8C339.61,13.96 340.65,13.53 341.98,13.53C343.24,13.53 344.21,13.91 344.9,14.67C345.59,15.43 345.93,16.54 345.93,17.99C345.93,18.42 345.91,18.82 345.88,19.19L339.34,19.19L339.34,17.77L344.24,17.77C344.24,16.93 344.04,16.29 343.64,15.84C343.24,15.39 342.69,15.17 341.99,15.17C341.2,15.17 340.59,15.44 340.15,15.98C339.71,16.52 339.5,17.28 339.5,18.27C339.5,19.35 339.8,20.17 340.4,20.73C341,21.29 341.85,21.57 342.96,21.57C343.35,21.57 343.73,21.55 344.1,21.5C344.48,21.46 344.86,21.4 345.24,21.32L345.47,22.95C344.92,23.06 344.42,23.12 343.96,23.15C343.5,23.18 343.1,23.19 342.75,23.19L342.76,23.2Z" style="fill:white;fill-rule:nonzero;"/>
    </g>
    <g transform="matrix(0.888758,0,0,0.914808,104.588713,3.559559)">
        <path d="M351.78,23.2C350.6,23.2 349.69,22.79 349.04,21.97C348.39,21.15 348.07,19.98 348.07,18.45C348.07,16.92 348.4,15.67 349.05,14.82C349.7,13.96 350.62,13.53 351.8,13.53C352.55,13.53 353.13,13.68 353.54,13.99C353.95,14.3 354.19,14.77 354.26,15.39L354.98,15.39L354.44,17.43C354.44,16.65 354.26,16.07 353.91,15.69C353.56,15.31 353.03,15.11 352.33,15.11C351.56,15.11 350.97,15.4 350.55,15.98C350.13,16.56 349.92,17.38 349.92,18.45C349.92,19.52 350.13,20.28 350.54,20.81C350.95,21.34 351.55,21.61 352.35,21.61C353.05,21.61 353.58,21.48 353.92,21.21C354.26,20.94 354.44,20.55 354.44,20.02L354.44,19L355.07,21.57L354.26,21.57C354.2,22.1 353.95,22.51 353.5,22.78C353.05,23.05 352.48,23.19 351.78,23.19L351.78,23.2ZM354.43,27.07L354.43,15.68L354.61,13.71L356.3,13.71L356.3,27.07L354.43,27.07Z" style="fill:white;fill-rule:nonzero;"/>
    </g>
    <g transform="matrix(0.888758,0,0,0.914808,104.588713,3.559559)">
        <path d="M362.13,23.2C361.15,23.2 360.39,22.91 359.86,22.32C359.32,21.74 359.06,20.92 359.06,19.86L359.06,13.71L360.92,13.71L360.92,19.86C360.92,20.39 361.07,20.81 361.38,21.09C361.68,21.38 362.11,21.53 362.66,21.53C363.34,21.53 363.85,21.32 364.2,20.88C364.55,20.45 364.72,19.73 364.72,18.71L365.19,21.22L364.57,21.22C364.42,21.85 364.14,22.34 363.71,22.68C363.28,23.02 362.75,23.19 362.13,23.19L362.13,23.2ZM364.72,20.39L364.72,13.71L366.58,13.71L366.58,19.86L364.72,20.39ZM364.88,23.11L364.72,20.88L364.72,19.25L366.58,19.25L366.58,21.34L367.86,21.53L367.86,23.02L364.87,23.11L364.88,23.11Z" style="fill:white;fill-rule:nonzero;"/>
    </g>
    <g transform="matrix(0.888758,0,0,0.914808,104.588713,3.559559)">
        <path d="M369.73,23.02L369.73,21.39L373.46,21.39L373.46,23.02L369.73,23.02ZM370.25,15.34L370.25,13.71L375.14,13.71L375.14,15.34L370.25,15.34ZM374.15,12.23C373.79,12.23 373.49,12.1 373.23,11.85C372.98,11.6 372.85,11.29 372.85,10.93C372.85,10.57 372.98,10.26 373.23,10.01C373.48,9.76 373.79,9.63 374.15,9.63C374.51,9.63 374.82,9.76 375.07,10.01C375.32,10.26 375.45,10.57 375.45,10.93C375.45,11.29 375.32,11.59 375.07,11.85C374.82,12.11 374.51,12.23 374.15,12.23ZM373.28,23.02L373.28,14.23L375.14,14.23L375.14,23.02L373.28,23.02ZM374.97,23.02L374.97,21.39L378.01,21.39L378.01,23.02L374.97,23.02Z" style="fill:white;fill-rule:nonzero;"/>
    </g>
    <g transform="matrix(0.888758,0,0,0.914808,104.588713,3.559559)">
        <path d="M380.34,27.07L380.34,13.71L382.03,13.71L382.21,15.68L382.21,27.07L380.34,27.07ZM384.85,23.2C384.14,23.2 383.56,23.04 383.12,22.71C382.68,22.38 382.44,21.92 382.38,21.34L381.57,21.34L382.2,18.69C382.2,19.65 382.39,20.38 382.77,20.88C383.15,21.38 383.7,21.63 384.44,21.63C385.18,21.63 385.76,21.36 386.15,20.83C386.54,20.3 386.73,19.51 386.73,18.47C386.73,17.37 386.54,16.54 386.15,15.97C385.76,15.4 385.19,15.13 384.44,15.13C383.69,15.13 383.15,15.38 382.77,15.88C382.39,16.38 382.2,17.11 382.2,18.07L381.57,15.42L382.29,15.42C382.37,14.83 382.64,14.38 383.09,14.05C383.54,13.72 384.13,13.56 384.85,13.56C386.07,13.56 387,13.98 387.63,14.81C388.26,15.64 388.57,16.87 388.57,18.48C388.57,20.09 388.26,21.22 387.63,22.02C387,22.82 386.08,23.22 384.85,23.22L384.85,23.2Z" style="fill:white;fill-rule:nonzero;"/>
    </g>
    <g transform="matrix(0.888758,0,0,0.914808,104.588713,3.559559)">
        <path d="M394.69,23.2C393.4,23.2 392.4,22.78 391.68,21.93C390.96,21.08 390.61,19.9 390.61,18.36C390.61,16.82 390.97,15.63 391.68,14.79C392.39,13.95 393.4,13.53 394.69,13.53C395.98,13.53 396.99,13.95 397.7,14.79C398.41,15.63 398.77,16.82 398.77,18.36C398.77,19.9 398.41,21.08 397.7,21.93C396.99,22.77 395.99,23.2 394.69,23.2ZM394.69,21.53C395.38,21.53 395.9,21.25 396.28,20.7C396.66,20.15 396.84,19.37 396.84,18.36C396.84,17.35 396.65,16.57 396.28,16.02C395.91,15.47 395.38,15.2 394.69,15.2C394,15.2 393.48,15.47 393.1,16.02C392.73,16.57 392.54,17.35 392.54,18.36C392.54,19.37 392.73,20.15 393.1,20.7C393.47,21.25 394,21.53 394.69,21.53Z" style="fill:white;fill-rule:nonzero;"/>
    </g>
</svg>
