<?xml version="1.0" encoding="UTF-8"?>
<svg id="Capa_1" data-name="Capa 1" xmlns="http://www.w3.org/2000/svg" viewBox="0 0 238.98 265.01">
  <defs>
    <style>
      .cls-1 {
        fill: #fff;
      }

      .cls-2 {
        fill: #5700ff;
      }

      .cls-2, .cls-3 {
        stroke: #1d1d1b;
        stroke-miterlimit: 10;
      }

      .cls-3 {
        fill: #893eff;
      }
    </style>
  </defs>
  <rect class="cls-3" x="10.36" y="12.88" width="219.78" height="242.79" rx="14.48" ry="14.48"/>
  <rect class="cls-2" x="30.27" y="41.8" width="84.77" height="21.97" rx="5.79" ry="5.79"/>
  <rect class="cls-2" x="29.08" y="108.99" width="57.19" height="21.97" rx="5.79" ry="5.79"/>
  <rect class="cls-2" x="29.08" y="173.67" width="43.57" height="21.97" rx="5.79" ry="5.79"/>
  <g>
    <path class="cls-1" d="M37.55,124.47v-8.32h1.44v8.32h-1.44ZM39.87,121.55l-.7-3.93h-.37l.09-1.48h.86l.61,3.72h.05l.16,1.69h-.7ZM40.21,121.55l.18-1.69h.07l.61-3.72h.86l.09,1.48h-.37l-.7,3.93h-.74ZM41.84,124.47v-8.32h1.44v8.32h-1.44Z"/>
    <path class="cls-1" d="M47.42,124.58c-1.85,0-2.77-.93-2.77-2.79v-5.65h1.55v5.65c0,.43.1.76.3.98s.52.33.95.33c.83,0,1.25-.44,1.25-1.31v-5.65h1.55v5.65c0,.93-.24,1.63-.72,2.09s-1.18.7-2.1.7ZM46.58,115.21l1.3-1.61h2.13l-1.78,1.61h-1.65Z"/>
    <path class="cls-1" d="M54.19,124.58c-.47,0-.93-.04-1.38-.12s-.84-.19-1.2-.34l.21-1.58c.43.18.86.32,1.28.42s.82.15,1.17.15c.42,0,.74-.07.96-.22s.33-.36.33-.64c0-.36-.23-.65-.69-.87l-1.2-.58c-.59-.29-1.05-.65-1.37-1.07s-.49-.9-.49-1.41c0-.73.24-1.29.72-1.69s1.16-.6,2.04-.6c.51,0,1,.09,1.46.27s.87.44,1.22.78l-1.07,1.22c-.27-.26-.54-.46-.81-.59s-.54-.21-.79-.21c-.34,0-.61.07-.8.22s-.29.36-.29.64c0,.18.07.36.2.52s.33.31.58.45l1.12.58c.59.3,1.04.66,1.36,1.07s.48.84.48,1.31c0,.74-.27,1.31-.8,1.71s-1.29.6-2.27.6Z"/>
    <path class="cls-1" d="M58.88,117.53v-1.39h5.26v1.39h-5.26ZM58.88,124.47v-1.39h5.26v1.39h-5.26ZM60.73,124.47v-8.32h1.55v8.32h-1.55Z"/>
    <path class="cls-1" d="M69.4,124.58c-2.65,0-3.98-1.43-3.98-4.29,0-1.36.33-2.41,1-3.15s1.61-1.12,2.84-1.12c.55,0,1.04.09,1.46.27s.75.43.97.76l-.87,1.14c-.18-.22-.4-.39-.67-.51s-.57-.18-.88-.18c-.67,0-1.21.24-1.61.71s-.61,1.15-.61,2.02c0,1.91.85,2.87,2.55,2.87.57,0,1.12-.12,1.68-.35l.27,1.43c-.68.27-1.39.4-2.14.4Z"/>
    <path class="cls-1" d="M72.22,124.47l2.4-8.32h1.9l2.4,8.32h-1.67l-1.63-6.29h-.11l-1.63,6.29h-1.67ZM73.43,122.89v-1.43h4.22v1.43h-4.22Z"/>
    <path class="cls-1" d="M37.73,149.47v-8.32h1.55v8.32h-1.55ZM37.73,149.47v-1.42h5.71v1.42h-5.71Z"/>
    <path class="cls-1" d="M47.94,149.58c-1.07,0-1.9-.28-2.49-.83s-.88-1.36-.88-2.4.25-1.8.75-2.37,1.2-.84,2.11-.84,1.57.26,2.06.78.73,1.28.73,2.27c0,.28-.01.55-.04.8h-4.56v-1.1h3.04c0-.42-.11-.74-.32-.96s-.51-.33-.89-.33c-.41,0-.74.15-.96.44s-.34.71-.34,1.26c0,.59.17,1.03.51,1.34s.82.46,1.44.46c.28,0,.56-.01.83-.04s.55-.07.84-.12l.15,1.5c-.4.07-.76.12-1.09.13s-.62.03-.87.03Z"/>
    <path class="cls-1" d="M51.68,149.47l-.41-6.21h1.54l.22,4.73h.11l.71-4.73h1.14l-.52,1.53h-.08l-.63,4.68h-2.07ZM55.08,149.47l-.63-4.68h-.09l-.51-1.53h1.14l.71,4.73h.11l.38-4.73h1.5l-.59,6.21h-2.02Z"/>
    <path class="cls-1" d="M58.83,149.47v-1.46h2.41v1.46h-2.41ZM59.18,144.72v-1.46h3.53v1.46h-3.53ZM61.85,142.42c-.3,0-.54-.09-.73-.28s-.28-.43-.28-.73.09-.54.28-.73.43-.28.73-.28.54.09.73.28.28.43.28.73-.09.54-.28.73-.43.28-.73.28ZM61.13,149.47v-5.86h1.58v5.86h-1.58ZM62.59,149.47v-1.46h1.96v1.46h-1.96Z"/>
    <path class="cls-1" d="M68.06,149.58c-.47,0-.89-.01-1.26-.04s-.69-.07-.96-.13l.19-1.52c.49.06.91.11,1.24.14s.6.05.79.05c.53,0,.92-.04,1.15-.11s.36-.19.36-.35c0-.09-.03-.17-.09-.22s-.15-.1-.28-.14l-2.02-.59c-.41-.12-.73-.31-.93-.55s-.31-.58-.31-1c0-.67.28-1.17.84-1.49s1.42-.49,2.56-.49c.27,0,.54,0,.83.03s.59.05.91.09l-.17,1.47c-.36-.03-.67-.05-.93-.06s-.49-.02-.67-.02c-.61,0-1.06.03-1.33.1s-.41.18-.41.34c0,.1.03.17.08.23s.15.1.27.13l1.74.48c.54.14.93.35,1.2.63s.4.63.4,1.08c0,.66-.26,1.15-.79,1.47s-1.32.48-2.4.48Z"/>
    <path class="cls-1" d="M83.47,149.58c-2.65,0-3.98-1.43-3.98-4.29,0-1.36.33-2.41,1-3.15s1.61-1.12,2.84-1.12c.55,0,1.04.09,1.46.27s.75.43.97.76l-.87,1.14c-.18-.22-.4-.39-.67-.51s-.57-.18-.88-.18c-.67,0-1.21.24-1.61.71s-.61,1.15-.61,2.02c0,1.91.85,2.87,2.55,2.87.57,0,1.12-.12,1.68-.35l.27,1.43c-.68.27-1.39.4-2.14.4Z"/>
    <path class="cls-1" d="M88.67,149.58c-.66,0-1.17-.16-1.54-.49s-.55-.79-.55-1.38c0-.7.24-1.23.72-1.6s1.16-.56,2.04-.56c.34,0,.63.02.88.05s.5.09.75.16l-.26,1.24c-.25-.06-.47-.09-.67-.1s-.41-.01-.63-.01c-.82,0-1.23.23-1.23.7,0,.21.07.37.22.48s.37.17.65.17c.34,0,.63-.06.86-.19s.4-.29.52-.49.17-.4.17-.62v-.39l.22,1.59h-.5l.21-.19c-.01.36-.09.66-.25.9s-.37.42-.64.54-.6.18-.99.18ZM90.77,149.52l-.13-1.84-.02-.81v-1.21c0-.33-.14-.58-.42-.73s-.7-.24-1.26-.25l-1.59-.04.12-1.44,1.35.02c1.12.02,1.96.24,2.51.67s.82,1.05.82,1.87v2.3l.86.13v1.29l-2.23.06Z"/>
    <path class="cls-1" d="M94.03,152.16v-8.91h1.47l.12,1.31v7.59h-1.59ZM97.28,149.58c-.43,0-.78-.1-1.04-.31s-.42-.52-.49-.93h-.55l.42-1.97c0,.6.09,1.04.27,1.31s.49.41.94.41c.41,0,.73-.14.94-.43s.32-.72.32-1.29-.11-.98-.33-1.28-.53-.45-.93-.45-.71.14-.91.42-.3.72-.3,1.32l-.36-1.99h.46c.07-.42.23-.73.48-.93s.6-.31,1.08-.31c.78,0,1.38.28,1.81.84s.64,1.36.64,2.38-.21,1.83-.64,2.38-1.03.83-1.8.83Z"/>
    <path class="cls-1" d="M102.73,149.58c-.66,0-1.17-.16-1.54-.49s-.55-.79-.55-1.38c0-.7.24-1.23.72-1.6s1.16-.56,2.04-.56c.34,0,.63.02.88.05s.5.09.75.16l-.26,1.24c-.25-.06-.47-.09-.67-.1s-.41-.01-.63-.01c-.82,0-1.23.23-1.23.7,0,.21.07.37.22.48s.37.17.65.17c.34,0,.63-.06.86-.19s.4-.29.52-.49.17-.4.17-.62v-.39l.22,1.59h-.5l.21-.19c-.01.36-.09.66-.25.9s-.37.42-.64.54-.6.18-.99.18ZM104.84,149.52l-.13-1.84-.02-.81v-1.21c0-.33-.14-.58-.42-.73s-.7-.24-1.26-.25l-1.59-.04.12-1.44,1.35.02c1.12.02,1.96.24,2.51.67s.82,1.05.82,1.87v2.3l.86.13v1.29l-2.23.06Z"/>
    <path class="cls-1" d="M107.68,142.14v-1.46h1.86v1.46h-1.86ZM111.65,149.58c-.78,0-1.34-.21-1.69-.64s-.52-1.12-.52-2.06v-6.2h1.58v6.14c0,.26.03.47.08.63s.16.29.32.36.39.12.7.12c.34,0,.78-.07,1.3-.22l.18,1.63c-.33.09-.65.15-.96.19s-.64.06-.99.06Z"/>
    <path class="cls-1" d="M117.14,149.58c-.77,0-1.37-.28-1.8-.83s-.64-1.35-.64-2.38.21-1.82.64-2.38,1.03-.84,1.81-.84c.45,0,.8.1,1.03.31s.39.52.46.93h.52l-.36,1.99c0-.6-.1-1.04-.3-1.32s-.5-.42-.91-.42-.71.15-.93.45-.33.73-.33,1.28.11,1,.32,1.29.53.43.94.43c.45,0,.77-.14.95-.41s.27-.71.27-1.31l.42,1.97h-.55c-.06.41-.22.72-.49.93s-.61.31-1.04.31ZM119.03,149.52l-.23-1.23v-7.62h1.59v8.79l-1.36.06Z"/>
    <path class="cls-1" d="M122.11,149.47v-1.46h2.41v1.46h-2.41ZM122.46,144.72v-1.46h3.53v1.46h-3.53ZM125.13,142.42c-.3,0-.54-.09-.73-.28s-.28-.43-.28-.73.09-.54.28-.73.43-.28.73-.28.54.09.73.28.28.43.28.73-.09.54-.28.73-.43.28-.73.28ZM124.41,149.47v-5.86h1.58v5.86h-1.58ZM125.87,149.47v-1.46h1.96v1.46h-1.96Z"/>
    <path class="cls-1" d="M40.13,163.58c-.45,0-.87-.04-1.26-.11s-.77-.17-1.12-.31l.11-.77c.41.16.81.28,1.21.36s.78.12,1.16.12c.66,0,1.16-.12,1.49-.35s.5-.58.5-1.05c0-.6-.29-1.04-.87-1.34l-1.97-1.01c-.45-.23-.8-.5-1.03-.81s-.35-.7-.35-1.16c0-.7.21-1.22.62-1.58s1.03-.54,1.84-.54c.53,0,1,.08,1.43.24s.82.42,1.17.76l-.53.53c-.36-.28-.7-.49-1.04-.62s-.68-.2-1.03-.2c-.55,0-.97.12-1.25.35s-.42.58-.42,1.05c0,.3.08.54.23.74s.38.37.67.52l1.8.91c.51.26.9.56,1.15.91s.38.77.38,1.25c0,.7-.24,1.23-.71,1.58s-1.2.53-2.16.53Z"/>
    <path class="cls-1" d="M47.44,163.58c-.83,0-1.47-.28-1.93-.84s-.69-1.36-.69-2.38.23-1.82.69-2.38,1.11-.84,1.93-.84,1.48.28,1.94.84.69,1.35.69,2.38-.23,1.82-.69,2.38-1.1.84-1.94.84ZM47.44,162.85c.58,0,1.03-.22,1.34-.65s.48-1.05.48-1.84-.16-1.41-.48-1.84-.77-.65-1.34-.65-1.03.22-1.34.65-.48,1.05-.48,1.84.16,1.41.48,1.84.77.65,1.34.65Z"/>
    <path class="cls-1" d="M51.71,163.47v-6.21h.68l.1,1.31v4.9h-.78ZM54.12,163.47v-4.86c0-.53-.25-.79-.74-.79-.59,0-.89.37-.89,1.11l-.36-.89h.38c.11-.59.5-.89,1.18-.89.38,0,.67.11.86.33s.29.56.29,1.01v4.98h-.71ZM56.46,163.47v-4.75c0-.61-.24-.91-.73-.91-.6,0-.9.37-.9,1.11l-.42-.89h.43c.05-.28.17-.5.36-.66s.45-.23.78-.23c.43,0,.74.12.95.36s.31.61.31,1.1v4.86h-.78Z"/>
    <path class="cls-1" d="M62.05,163.58c-1.03,0-1.82-.29-2.38-.86s-.84-1.38-.84-2.43.24-1.78.71-2.33,1.14-.83,2-.83c.8,0,1.43.25,1.87.75s.67,1.21.67,2.13c0,.24-.01.45-.04.61h-4.58v-.67h3.87c0-.67-.16-1.19-.47-1.56s-.75-.55-1.31-.55c-.62,0-1.11.21-1.45.64s-.52,1.02-.52,1.79c0,.82.23,1.45.68,1.9s1.1.67,1.93.67c.23,0,.47-.01.73-.04s.5-.07.74-.12l.11.72c-.27.06-.55.1-.85.13s-.59.04-.86.04Z"/>
    <path class="cls-1" d="M65.53,157.97v-.71h5.44v.71h-5.44ZM67.31,160.54v-5.16h.79v5.16h-.79ZM69.66,163.58c-.8,0-1.39-.21-1.78-.62s-.57-1.04-.57-1.89v-1.01h.79v1c0,.61.14,1.05.41,1.35s.7.44,1.27.44c.23,0,.45-.01.66-.03s.44-.05.67-.08l.09.71c-.26.05-.51.08-.76.11s-.51.04-.78.04Z"/>
    <path class="cls-1" d="M73.13,163.47v-8.79h.78v8.79h-.78ZM77.23,163.47v-4.06c0-.5-.13-.88-.39-1.15s-.62-.41-1.09-.41c-1.22,0-1.83.7-1.83,2.11l-.37-1.58h.44c.09-.42.29-.73.59-.93s.71-.31,1.24-.31c.7,0,1.24.2,1.62.6s.57.96.57,1.69v4.04h-.78Z"/>
    <path class="cls-1" d="M80.12,163.47v-.71h2.62v.71h-2.62ZM80.47,157.97v-.71h2.94v.71h-2.94ZM82.95,155.9c-.19,0-.35-.07-.48-.2s-.2-.29-.2-.48.07-.35.2-.48.29-.2.48-.2.35.07.48.2.2.29.2.48-.07.35-.2.48-.29.2-.48.2ZM82.62,163.47v-5.91h.79v5.91h-.79ZM83.28,163.47v-.71h2.17v.71h-2.17Z"/>
    <path class="cls-1" d="M87.19,163.47v-6.21h.71l.07,1.31v4.9h-.78ZM91.29,163.47v-4.06c0-.49-.13-.87-.39-1.14s-.62-.4-1.09-.4c-1.22,0-1.83.7-1.83,2.09l-.37-1.58h.44c.09-.42.29-.73.59-.93s.71-.31,1.24-.31c.7,0,1.24.2,1.62.6s.57.96.57,1.69v4.04h-.78Z"/>
    <path class="cls-1" d="M96.28,163.58c-.81,0-1.43-.27-1.85-.8s-.63-1.32-.63-2.36.21-1.89.64-2.45,1.05-.83,1.87-.83c.55,0,1,.12,1.34.36s.54.6.63,1.06h.43l-.38,1.71c0-.8-.16-1.4-.48-1.81s-.78-.62-1.4-.62-1.07.22-1.39.65-.47,1.07-.47,1.92.16,1.42.47,1.83.78.62,1.39.62,1.08-.21,1.39-.62.47-1.01.47-1.8l.42,1.66h-.5c-.08.46-.28.82-.61,1.08s-.78.39-1.36.39ZM94.31,166.27l-.04-.72,1.88-.07c.75-.03,1.3-.24,1.65-.63s.52-.97.52-1.74v-4.46l.08-1.39h.7v5.66c0,1.11-.25,1.92-.74,2.45s-1.27.81-2.33.85l-1.72.06Z"/>
    <path class="cls-1" d="M108.29,155.87v-.72h4.88v.72h-4.88ZM108.29,163.47v-.72h4.88v.72h-4.88ZM110.33,163.47v-8.32h.77v8.32h-.77Z"/>
    <path class="cls-1" d="M115.32,163.47v-6.21h.71l.07,1.31v4.9h-.78ZM119.41,163.47v-4.06c0-.49-.13-.87-.39-1.14s-.62-.4-1.09-.4c-1.22,0-1.83.7-1.83,2.09l-.37-1.58h.44c.09-.42.29-.73.59-.93s.71-.31,1.24-.31c.7,0,1.24.2,1.62.6s.57.96.57,1.69v4.04h-.78Z"/>
    <path class="cls-1" d="M128.87,155.87v-.72h5.91v.72h-5.91ZM131.43,163.47v-8.32h.77v8.32h-.77Z"/>
    <path class="cls-1" d="M136.41,163.47v-8.79h.78v8.79h-.78ZM140.51,163.47v-4.06c0-.5-.13-.88-.39-1.15s-.62-.41-1.09-.41c-1.22,0-1.83.7-1.83,2.11l-.37-1.58h.44c.09-.42.29-.73.59-.93s.71-.31,1.24-.31c.7,0,1.24.2,1.62.6s.57.96.57,1.69v4.04h-.78Z"/>
    <path class="cls-1" d="M146.43,163.58c-1.03,0-1.82-.29-2.38-.86s-.84-1.38-.84-2.43.24-1.78.71-2.33,1.14-.83,2-.83c.8,0,1.43.25,1.87.75s.67,1.21.67,2.13c0,.24-.01.45-.04.61h-4.58v-.67h3.87c0-.67-.16-1.19-.47-1.56s-.75-.55-1.31-.55c-.62,0-1.11.21-1.45.64s-.52,1.02-.52,1.79c0,.82.23,1.45.68,1.9s1.1.67,1.93.67c.23,0,.47-.01.73-.04s.5-.07.74-.12l.11.72c-.27.06-.55.1-.85.13s-.59.04-.86.04Z"/>
    <path class="cls-1" d="M157.34,163.47v-8.32h.77v8.32h-.77ZM157.59,159.69v-.73h4.73v.73h-4.73ZM161.77,163.47v-8.32h.77v8.32h-.77Z"/>
    <path class="cls-1" d="M167.52,163.58c-1.03,0-1.82-.29-2.38-.86s-.84-1.38-.84-2.43.24-1.78.71-2.33,1.14-.83,2-.83c.8,0,1.43.25,1.87.75s.67,1.21.67,2.13c0,.24-.01.45-.04.61h-4.58v-.67h3.87c0-.67-.16-1.19-.47-1.56s-.75-.55-1.31-.55c-.62,0-1.11.21-1.45.64s-.52,1.02-.52,1.79c0,.82.23,1.45.68,1.9s1.1.67,1.93.67c.23,0,.47-.01.73-.04s.5-.07.74-.12l.11.72c-.27.06-.55.1-.85.13s-.59.04-.86.04Z"/>
    <path class="cls-1" d="M173.11,163.58c-.62,0-1.11-.15-1.45-.44s-.51-.7-.51-1.23c0-.65.23-1.14.69-1.48s1.14-.5,2.03-.5c.42,0,.8.02,1.15.06s.63.1.84.18l-.12.6c-.25-.08-.55-.13-.9-.14s-.68-.02-1-.02c-1.29,0-1.93.42-1.93,1.25,0,.33.11.58.33.76s.53.27.93.27c.43,0,.81-.07,1.13-.22s.58-.34.76-.59.28-.52.28-.81v-.71l.41,1.59h-.5l.13-.14c-.02.32-.13.59-.33.83s-.47.42-.8.55-.71.2-1.14.2ZM175.52,163.52l-.09-2.24-.08-.08v-1.42c0-.63-.17-1.09-.51-1.38s-.88-.44-1.61-.45l-1.32-.02.12-.73,1.16.02c1.02.02,1.76.24,2.23.67s.7,1.1.7,2.01v2.89l1.07.09v.58l-1.66.06Z"/>
    <path class="cls-1" d="M180.5,163.47l-2.42-6.21h.84l2.09,5.55h.06l2.07-5.55h.84l-2.42,6.21h-1.07Z"/>
    <path class="cls-1" d="M188.61,163.58c-1.03,0-1.82-.29-2.38-.86s-.84-1.38-.84-2.43.24-1.78.71-2.33,1.14-.83,2-.83c.8,0,1.43.25,1.87.75s.67,1.21.67,2.13c0,.24-.01.45-.04.61h-4.58v-.67h3.87c0-.67-.16-1.19-.47-1.56s-.75-.55-1.31-.55c-.62,0-1.11.21-1.45.64s-.52,1.02-.52,1.79c0,.82.23,1.45.68,1.9s1.1.67,1.93.67c.23,0,.47-.01.73-.04s.5-.07.74-.12l.11.72c-.27.06-.55.1-.85.13s-.59.04-.86.04Z"/>
    <path class="cls-1" d="M192.66,163.47v-6.21h.71l.07,1.31v4.9h-.78ZM196.76,163.47v-4.06c0-.49-.13-.87-.39-1.14s-.62-.4-1.09-.4c-1.22,0-1.83.7-1.83,2.09l-.37-1.58h.44c.09-.42.29-.73.59-.93s.71-.31,1.24-.31c.7,0,1.24.2,1.62.6s.57.96.57,1.69v4.04h-.78Z"/>
    <path class="cls-1" d="M201.65,163.58c-.46,0-.84-.01-1.16-.04s-.61-.07-.86-.13l.09-.74c.4.06.76.11,1.06.14s.6.05.87.05c.77,0,1.32-.08,1.67-.24s.52-.42.52-.77c0-.25-.08-.45-.24-.6s-.42-.28-.77-.36l-1.39-.35c-.61-.15-1.04-.36-1.31-.61s-.4-.59-.4-1c0-.62.25-1.08.76-1.36s1.32-.42,2.45-.42c.27,0,.53,0,.76.03s.5.05.78.09l-.09.7c-.32-.03-.59-.05-.83-.06s-.46-.02-.67-.02c-.83,0-1.44.08-1.81.24s-.56.42-.56.78c0,.21.09.4.28.54s.49.27.91.38l1.11.27c.64.16,1.1.37,1.38.64s.43.64.43,1.1c0,.61-.24,1.06-.71,1.34s-1.23.42-2.28.42Z"/>
    <path class="cls-1" d="M41.28,188.58c-2.65,0-3.98-1.43-3.98-4.29,0-1.36.33-2.41,1-3.15s1.61-1.12,2.84-1.12c.55,0,1.04.09,1.46.27s.75.43.97.76l-.87,1.14c-.18-.22-.4-.39-.67-.51s-.57-.18-.88-.18c-.67,0-1.21.24-1.61.71s-.61,1.15-.61,2.02c0,1.91.85,2.87,2.55,2.87.57,0,1.12-.12,1.68-.35l.27,1.43c-.68.27-1.39.4-2.14.4Z"/>
    <path class="cls-1" d="M44.81,181.53v-1.39h5.26v1.39h-5.26ZM44.81,188.47v-1.39h5.26v1.39h-5.26ZM46.66,188.47v-8.32h1.55v8.32h-1.55Z"/>
    <path class="cls-1" d="M51.73,188.47v-8.32h1.49v8.32h-1.49ZM54.9,188.47l-1.46-6.5h-.64v-1.82h1.26l1.46,6.5h.39v1.82h-1.01ZM55.73,188.47v-8.32h1.49v8.32h-1.49Z"/>
    <path class="cls-1" d="M58.83,188.47v-8.32h1.55v8.32h-1.55ZM58.83,181.57v-1.42h5.71v1.42h-5.71ZM58.83,185.01v-1.43h4.65v1.43h-4.65ZM58.83,188.47v-1.42h5.71v1.42h-5.71Z"/>
    <path class="cls-1" d="M37.27,206.57v-1.42h6.29v1.42h-6.29ZM39.64,213.47v-8.32h1.55v8.32h-1.55Z"/>
    <path class="cls-1" d="M44.77,213.47v-1.46h2.41v1.46h-2.41ZM45.12,208.72v-1.46h3.53v1.46h-3.53ZM47.78,206.42c-.3,0-.54-.09-.73-.28s-.28-.43-.28-.73.09-.54.28-.73.43-.28.73-.28.54.09.73.28.28.43.28.73-.09.54-.28.73-.43.28-.73.28ZM47.06,213.47v-5.86h1.58v5.86h-1.58ZM48.53,213.47v-1.46h1.96v1.46h-1.96Z"/>
    <path class="cls-1" d="M51.52,213.47v-6.21h1.42l.14,1.31v4.9h-1.56ZM53.9,213.47v-4.32c0-.35-.12-.53-.38-.53-.3,0-.45.23-.45.7l-.36-1.28h.45c.09-.59.4-.89.94-.89.3,0,.54.11.71.33s.26.56.26,1.01v4.98h-1.18ZM55.88,213.47v-4.21c0-.43-.12-.64-.38-.64-.28,0-.42.23-.42.7l-.42-1.28h.53c.04-.28.14-.5.33-.65s.42-.24.72-.24c.42,0,.72.12.92.35s.29.6.29,1.12v4.86h-1.56Z"/>
    <path class="cls-1" d="M60.6,213.58c-.59,0-1.05-.19-1.37-.58s-.49-.94-.49-1.64v-4.1h1.59v3.71c0,.36.08.63.24.82s.39.29.67.29c.37,0,.65-.14.84-.43s.28-.77.28-1.44l.32,2.07h-.48c-.1.42-.29.75-.57.97s-.63.34-1.04.34ZM62.37,211.71v-4.45h1.59v4.1l-1.59.35ZM62.48,213.52l-.11-1.49v-1.09h1.59v1.1l.86.13v1.29l-2.34.06Z"/>
    <path class="cls-1" d="M65.39,213.47v-1.36h4.35v1.36h-4.35ZM65.63,208.61v-1.36h2.34l.12,1.36h-2.46ZM66.7,213.47v-6.21h1.35l.23,1.78v4.43h-1.58ZM68.29,210.79l-.36-2.14h.53c.06-1.01.59-1.52,1.59-1.52.59,0,1.04.22,1.36.65s.47,1.06.47,1.88h-1.58c0-.37-.07-.63-.2-.79s-.35-.24-.65-.24c-.39,0-.68.19-.87.56s-.29.91-.29,1.6Z"/>
    <path class="cls-1" d="M79.92,213.47v-8.32h1.55v8.32h-1.55ZM80.99,209.38v-.57h2.31v.57h-2.31ZM81.39,208.98v-.62h1.13c.36,0,.64-.08.82-.24s.28-.39.28-.7c0-.28-.1-.49-.3-.64s-.49-.21-.89-.21h-1.03l-.14-1.42h1.22c.88,0,1.55.18,2.03.54s.72.87.72,1.53c0,.57-.19,1-.56,1.31s-.9.46-1.58.46h-1.72ZM81.39,213.47v-1.42h1.48c.42,0,.75-.1.98-.3s.35-.48.35-.84-.12-.63-.37-.83-.6-.29-1.05-.29h-1.38l-.14-.62h2.3c.72,0,1.28.18,1.67.53s.59.85.59,1.49c0,.73-.23,1.29-.68,1.69s-1.1.6-1.94.6h-1.82Z"/>
    <path class="cls-1" d="M90.12,213.58c-1.07,0-1.9-.28-2.49-.83s-.88-1.36-.88-2.4.25-1.8.75-2.37,1.2-.84,2.11-.84,1.57.26,2.06.78.73,1.28.73,2.27c0,.28-.01.55-.04.8h-4.56v-1.1h3.04c0-.42-.11-.74-.32-.96s-.51-.33-.89-.33c-.41,0-.74.15-.96.44s-.34.71-.34,1.26c0,.59.17,1.03.51,1.34s.82.46,1.44.46c.28,0,.56-.01.83-.04s.55-.07.84-.12l.15,1.5c-.4.07-.76.12-1.09.13s-.62.03-.87.03Z"/>
    <path class="cls-1" d="M93.98,213.47v-8.79h1.59v8.79h-1.59ZM94.96,211.26v-1.51h.7c.46,0,.85-.08,1.15-.24s.53-.43.71-.79.3-.85.38-1.46h1.63c-.17,1.34-.55,2.35-1.14,3.01s-1.4.99-2.43.99h-1ZM98.05,213.47l-1.52-3.02,1.42-.48,1.99,3.5h-1.88Z"/>
    <path class="cls-1" d="M100.73,213.47v-6.21h1.42l.14,1.31v4.9h-1.56ZM103.12,213.47v-4.32c0-.35-.12-.53-.38-.53-.3,0-.45.23-.45.7l-.36-1.28h.45c.09-.59.4-.89.94-.89.3,0,.54.11.71.33s.26.56.26,1.01v4.98h-1.18ZM105.09,213.47v-4.21c0-.43-.12-.64-.38-.64-.28,0-.42.23-.42.7l-.42-1.28h.53c.04-.28.14-.5.33-.65s.42-.24.72-.24c.42,0,.72.12.92.35s.29.6.29,1.12v4.86h-1.56Z"/>
    <path class="cls-1" d="M109.76,213.58c-.66,0-1.17-.16-1.54-.49s-.55-.79-.55-1.38c0-.7.24-1.23.72-1.6s1.16-.56,2.04-.56c.34,0,.63.02.88.05s.5.09.75.16l-.26,1.24c-.25-.06-.47-.09-.67-.1s-.41-.01-.63-.01c-.82,0-1.23.23-1.23.7,0,.21.07.37.22.48s.37.17.65.17c.34,0,.63-.06.86-.19s.4-.29.52-.49.17-.4.17-.62v-.39l.22,1.59h-.5l.21-.19c-.01.36-.09.66-.25.9s-.37.42-.64.54-.6.18-.99.18ZM111.87,213.52l-.13-1.84-.02-.81v-1.21c0-.33-.14-.58-.42-.73s-.7-.24-1.26-.25l-1.59-.04.12-1.44,1.35.02c1.12.02,1.96.24,2.51.67s.82,1.05.82,1.87v2.3l.86.13v1.29l-2.23.06Z"/>
    <path class="cls-1" d="M114.8,213.47v-6.21h1.42l.14,1.31v4.9h-1.56ZM117.18,213.47v-4.32c0-.35-.12-.53-.38-.53-.3,0-.45.23-.45.7l-.36-1.28h.45c.09-.59.4-.89.94-.89.3,0,.54.11.71.33s.26.56.26,1.01v4.98h-1.18ZM119.16,213.47v-4.21c0-.43-.12-.64-.38-.64-.28,0-.42.23-.42.7l-.42-1.28h.53c.04-.28.14-.5.33-.65s.42-.24.72-.24c.42,0,.72.12.92.35s.29.6.29,1.12v4.86h-1.56Z"/>
    <path class="cls-1" d="M122.13,213.47v-8.79h1.59v8.68l-1.59.11ZM123.89,213.58c-.3,0-.59-.01-.88-.03s-.58-.05-.88-.08l.58-1.58c.21.1.44.16.69.17s.5.03.74.03c.65,0,1.16-.19,1.51-.56s.54-.9.54-1.58c0-.42-.1-.75-.3-.98s-.48-.34-.84-.34c-.89,0-1.34.45-1.34,1.34l-.36-1.59h.53c.11-.83.6-1.24,1.48-1.24.78,0,1.39.24,1.81.73s.64,1.18.64,2.08c0,1.15-.34,2.05-1.02,2.68s-1.65.95-2.9.95Z"/>
    <path class="cls-1" d="M132.31,213.58c-1.07,0-1.9-.28-2.49-.83s-.88-1.36-.88-2.4.25-1.8.75-2.37,1.2-.84,2.11-.84,1.57.26,2.06.78.73,1.28.73,2.27c0,.28-.01.55-.04.8h-4.56v-1.1h3.04c0-.42-.11-.74-.32-.96s-.51-.33-.89-.33c-.41,0-.74.15-.96.44s-.34.71-.34,1.26c0,.59.17,1.03.51,1.34s.82.46,1.44.46c.28,0,.56-.01.83-.04s.55-.07.84-.12l.15,1.5c-.4.07-.76.12-1.09.13s-.62.03-.87.03Z"/>
    <path class="cls-1" d="M135.64,208.71v-1.46h5.82v1.46h-5.82ZM137.13,210.44v-5.06h1.58v5.06h-1.58ZM140.17,213.58c-1.07,0-1.84-.21-2.32-.64s-.71-1.12-.71-2.06v-.81h1.58v.66c0,.47.12.82.37,1.03s.65.32,1.2.32c.18,0,.37-.01.58-.03s.44-.05.7-.08l.14,1.48c-.26.05-.51.08-.75.11s-.5.04-.78.04Z"/>
    <path class="cls-1" d="M145.88,213.58c-.89,0-1.59-.28-2.08-.84s-.74-1.36-.74-2.38.25-1.82.74-2.38,1.19-.84,2.08-.84,1.59.28,2.08.84.74,1.35.74,2.38-.25,1.82-.74,2.38-1.19.84-2.08.84ZM145.88,212.08c.38,0,.68-.15.88-.45s.31-.72.31-1.27-.1-.97-.31-1.27-.5-.45-.88-.45-.67.15-.88.45-.31.72-.31,1.27.1.97.31,1.27.5.45.88.45Z"/>
    <path class="cls-1" d="M151.89,213.47l-2.13-6.21h1.62l1.48,4.82h.11l1.48-4.82h1.62l-2.13,6.21h-2.04Z"/>
    <path class="cls-1" d="M40.13,227.58c-.45,0-.87-.04-1.26-.11s-.77-.17-1.12-.31l.11-.77c.41.16.81.28,1.21.36s.78.12,1.16.12c.66,0,1.16-.12,1.49-.35s.5-.58.5-1.05c0-.6-.29-1.04-.87-1.34l-1.97-1.01c-.45-.23-.8-.5-1.03-.81s-.35-.7-.35-1.16c0-.7.21-1.22.62-1.58s1.03-.54,1.84-.54c.53,0,1,.08,1.43.24s.82.42,1.17.76l-.53.53c-.36-.28-.7-.49-1.04-.62s-.68-.2-1.03-.2c-.55,0-.97.12-1.25.35s-.42.58-.42,1.05c0,.3.08.54.23.74s.38.37.67.52l1.8.91c.51.26.9.56,1.15.91s.38.77.38,1.25c0,.7-.24,1.23-.71,1.58s-1.2.53-2.16.53Z"/>
    <path class="cls-1" d="M44.96,227.47v-.71h2.62v.71h-2.62ZM45.31,221.97v-.71h2.94v.71h-2.94ZM47.8,219.9c-.19,0-.35-.07-.48-.2s-.2-.29-.2-.48.07-.35.2-.48.29-.2.48-.2.35.07.48.2.2.29.2.48-.07.35-.2.48-.29.2-.48.2ZM47.46,227.47v-5.91h.79v5.91h-.79ZM48.12,227.47v-.71h2.17v.71h-2.17Z"/>
    <path class="cls-1" d="M52.04,227.47v-6.21h.71l.07,1.31v4.9h-.78ZM56.13,227.47v-4.06c0-.49-.13-.87-.39-1.14s-.62-.4-1.09-.4c-1.22,0-1.83.7-1.83,2.09l-.37-1.58h.44c.09-.42.29-.73.59-.93s.71-.31,1.24-.31c.7,0,1.24.2,1.62.6s.57.96.57,1.69v4.04h-.78Z"/>
    <path class="cls-1" d="M66.05,227.47v-8.32h.77v8.32h-.77ZM66.69,224.69v-.72h1.8c.71,0,1.26-.18,1.64-.54s.58-.88.58-1.55-.19-1.15-.58-1.49-.93-.52-1.64-.52h-1.78v-.72h1.78c.97,0,1.71.24,2.23.71s.78,1.15.78,2.03-.26,1.6-.78,2.09-1.26.73-2.23.73h-1.8Z"/>
    <path class="cls-1" d="M73.08,227.47v-.71h2.62v.71h-2.62ZM73.44,221.97v-.71h2.94v.71h-2.94ZM75.92,219.9c-.19,0-.35-.07-.48-.2s-.2-.29-.2-.48.07-.35.2-.48.29-.2.48-.2.35.07.48.2.2.29.2.48-.07.35-.2.48-.29.2-.48.2ZM75.59,227.47v-5.91h.79v5.91h-.79ZM76.25,227.47v-.71h2.17v.71h-2.17Z"/>
    <path class="cls-1" d="M83.14,227.58c-1.03,0-1.82-.29-2.38-.86s-.84-1.38-.84-2.43.24-1.78.71-2.33,1.14-.83,2-.83c.8,0,1.43.25,1.87.75s.67,1.21.67,2.13c0,.24-.01.45-.04.61h-4.58v-.67h3.87c0-.67-.16-1.19-.47-1.56s-.75-.55-1.31-.55c-.62,0-1.11.21-1.45.64s-.52,1.02-.52,1.79c0,.82.23,1.45.68,1.9s1.1.67,1.93.67c.23,0,.47-.01.73-.04s.5-.07.74-.12l.11.72c-.27.06-.55.1-.85.13s-.59.04-.86.04Z"/>
    <path class="cls-1" d="M89.25,227.58c-.81,0-1.43-.27-1.85-.8s-.63-1.32-.63-2.36.21-1.89.64-2.45,1.05-.83,1.87-.83c.55,0,.99.12,1.32.36s.54.6.62,1.06h.43l-.36,1.71c0-.8-.16-1.4-.48-1.81s-.78-.62-1.4-.62-1.07.22-1.39.65-.47,1.07-.47,1.92.16,1.42.47,1.83.78.62,1.39.62,1.08-.21,1.39-.62.47-1.01.47-1.8l.42,1.66h-.48c-.08.46-.28.82-.61,1.08s-.79.39-1.37.39ZM91.41,227.52l-.12-1.49v-7.35h.78v8.81l-.66.04Z"/>
    <path class="cls-1" d="M95.77,227.58c-.62,0-1.11-.15-1.45-.44s-.51-.7-.51-1.23c0-.65.23-1.14.69-1.48s1.14-.5,2.03-.5c.42,0,.8.02,1.15.06s.63.1.84.18l-.12.6c-.25-.08-.55-.13-.9-.14s-.68-.02-1-.02c-1.29,0-1.93.42-1.93,1.25,0,.33.11.58.33.76s.53.27.93.27c.43,0,.81-.07,1.13-.22s.58-.34.76-.59.28-.52.28-.81v-.71l.41,1.59h-.5l.13-.14c-.02.32-.13.59-.33.83s-.47.42-.8.55-.71.2-1.14.2ZM98.17,227.52l-.09-2.24-.08-.08v-1.42c0-.63-.17-1.09-.51-1.38s-.88-.44-1.61-.45l-1.32-.02.12-.73,1.16.02c1.02.02,1.76.24,2.23.67s.7,1.1.7,2.01v2.89l1.07.09v.58l-1.66.06Z"/>
    <path class="cls-1" d="M103.31,227.58c-.81,0-1.43-.27-1.85-.8s-.63-1.32-.63-2.36.21-1.89.64-2.45,1.05-.83,1.87-.83c.55,0,.99.12,1.32.36s.54.6.62,1.06h.43l-.36,1.71c0-.8-.16-1.4-.48-1.81s-.78-.62-1.4-.62-1.07.22-1.39.65-.47,1.07-.47,1.92.16,1.42.47,1.83.78.62,1.39.62,1.08-.21,1.39-.62.47-1.01.47-1.8l.42,1.66h-.48c-.08.46-.28.82-.61,1.08s-.79.39-1.37.39ZM105.47,227.52l-.12-1.49v-7.35h.78v8.81l-.66.04Z"/>
  </g>
  <g>
    <path class="cls-1" d="M37.74,57.08v-8.32h1.55v8.32h-1.55ZM37.74,57.08v-1.42h5.71v1.42h-5.71Z"/>
    <path class="cls-1" d="M44.81,50.14v-1.39h5.26v1.39h-5.26ZM44.81,57.08v-1.39h5.26v1.39h-5.26ZM46.67,57.08v-8.32h1.55v8.32h-1.55Z"/>
    <path class="cls-1" d="M51.33,50.18v-1.42h6.29v1.42h-6.29ZM53.7,57.08v-8.32h1.55v8.32h-1.55Z"/>
    <path class="cls-1" d="M58.83,57.08v-8.32h1.55v8.32h-1.55ZM58.83,50.18v-1.42h5.71v1.42h-5.71ZM58.83,53.63v-1.43h4.65v1.43h-4.65ZM58.83,57.08v-1.42h5.71v1.42h-5.71Z"/>
    <path class="cls-1" d="M65.74,57.08v-8.32h1.55v8.32h-1.55ZM67.21,54.03v-1.42h1.49c.36,0,.64-.11.84-.32s.3-.51.3-.89-.1-.69-.3-.9-.48-.32-.84-.32h-1.47l-.14-1.42h1.61c.89,0,1.59.22,2.07.66s.73,1.06.73,1.86c0,.87-.24,1.55-.73,2.03s-1.18.72-2.07.72h-1.49ZM69.97,57.08l-1.57-3.91h1.63l1.79,3.91h-1.85Z"/>
    <path class="cls-1" d="M72.22,57.08l2.4-8.32h1.9l2.4,8.32h-1.67l-1.63-6.29h-.11l-1.63,6.29h-1.67ZM73.43,55.5v-1.43h4.22v1.43h-4.22Z"/>
    <path class="cls-1" d="M79.45,50.18v-1.42h6.29v1.42h-6.29ZM81.83,57.08v-8.32h1.55v8.32h-1.55Z"/>
    <path class="cls-1" d="M89.61,57.19c-1.85,0-2.77-.93-2.77-2.79v-5.65h1.55v5.65c0,.43.1.76.3.98s.52.33.95.33c.83,0,1.25-.44,1.25-1.31v-5.65h1.55v5.65c0,.93-.24,1.63-.72,2.09s-1.18.7-2.1.7Z"/>
    <path class="cls-1" d="M93.87,57.08v-8.32h1.55v8.32h-1.55ZM95.33,54.03v-1.42h1.49c.36,0,.64-.11.84-.32s.3-.51.3-.89-.1-.69-.3-.9-.48-.32-.84-.32h-1.47l-.14-1.42h1.61c.89,0,1.59.22,2.07.66s.73,1.06.73,1.86c0,.87-.24,1.55-.73,2.03s-1.18.72-2.07.72h-1.49ZM98.09,57.08l-1.57-3.91h1.63l1.79,3.91h-1.85Z"/>
    <path class="cls-1" d="M100.34,57.08l2.4-8.32h1.9l2.4,8.32h-1.67l-1.63-6.29h-.11l-1.63,6.29h-1.67ZM101.56,55.5v-1.43h4.22v1.43h-4.22Z"/>
    <path class="cls-1" d="M37.06,82.08l2.4-8.32h1.9l2.4,8.32h-1.67l-1.63-6.29h-.11l-1.63,6.29h-1.67ZM38.27,80.5v-1.43h4.22v1.43h-4.22Z"/>
    <path class="cls-1" d="M44.4,74.75v-1.46h1.86v1.46h-1.86ZM48.37,82.19c-.78,0-1.34-.21-1.69-.64s-.52-1.12-.52-2.06v-6.2h1.58v6.14c0,.26.03.47.08.63s.16.29.32.36.39.12.7.12c.34,0,.78-.07,1.3-.22l.18,1.63c-.33.09-.65.15-.96.19s-.64.06-.99.06Z"/>
    <path class="cls-1" d="M51.82,82.08v-8.79h1.59v8.68l-1.59.11ZM53.58,82.19c-.3,0-.59-.01-.88-.03s-.58-.05-.88-.08l.58-1.58c.21.1.44.16.69.17s.5.03.74.03c.65,0,1.16-.19,1.51-.56s.54-.9.54-1.58c0-.42-.1-.75-.3-.98s-.48-.34-.84-.34c-.89,0-1.34.45-1.34,1.34l-.36-1.59h.53c.11-.83.6-1.24,1.48-1.24.78,0,1.39.24,1.81.73s.64,1.18.64,2.08c0,1.15-.34,2.05-1.02,2.68s-1.65.95-2.9.95Z"/>
    <path class="cls-1" d="M62,82.19c-1.07,0-1.9-.28-2.49-.83s-.88-1.36-.88-2.4.25-1.8.75-2.37,1.2-.84,2.11-.84,1.57.26,2.06.78.73,1.28.73,2.27c0,.28-.01.55-.04.8h-4.56v-1.1h3.04c0-.42-.11-.74-.32-.96s-.51-.33-.89-.33c-.41,0-.74.15-.96.44s-.34.71-.34,1.26c0,.59.17,1.03.51,1.34s.82.46,1.44.46c.28,0,.56-.01.83-.04s.55-.07.84-.12l.15,1.5c-.4.07-.76.12-1.09.13s-.62.03-.87.03Z"/>
    <path class="cls-1" d="M65.39,82.08v-1.36h4.35v1.36h-4.35ZM65.63,77.22v-1.36h2.34l.12,1.36h-2.46ZM66.7,82.08v-6.21h1.35l.23,1.78v4.43h-1.58ZM68.29,79.4l-.36-2.14h.53c.06-1.01.59-1.52,1.59-1.52.59,0,1.04.22,1.36.65s.47,1.06.47,1.88h-1.58c0-.37-.07-.63-.2-.79s-.35-.24-.65-.24c-.39,0-.68.19-.87.56s-.29.91-.29,1.6Z"/>
    <path class="cls-1" d="M72.36,77.32v-1.46h5.82v1.46h-5.82ZM73.85,79.05v-5.06h1.58v5.06h-1.58ZM76.89,82.19c-1.07,0-1.84-.21-2.32-.64s-.71-1.12-.71-2.06v-.81h1.58v.66c0,.47.12.82.37,1.03s.65.32,1.2.32c.18,0,.37-.01.58-.03s.44-.05.7-.08l.14,1.48c-.26.05-.51.08-.75.11s-.5.04-.78.04Z"/>
    <path class="cls-1" d="M82.6,82.19c-.89,0-1.59-.28-2.08-.84s-.74-1.36-.74-2.38.25-1.82.74-2.38,1.19-.84,2.08-.84,1.59.28,2.08.84.74,1.35.74,2.38-.25,1.82-.74,2.38-1.19.84-2.08.84ZM82.6,80.69c.38,0,.68-.15.88-.45s.31-.72.31-1.27-.1-.97-.31-1.27-.5-.45-.88-.45-.67.15-.88.45-.31.72-.31,1.27.1.97.31,1.27.5.45.88.45Z"/>
    <path class="cls-1" d="M95.46,82.08l-2.15-8.32h1.6l1.7,6.93h.11l1.7-6.93h1.6l-2.15,8.32h-2.4Z"/>
    <path class="cls-1" d="M101.02,82.08v-1.46h2.41v1.46h-2.41ZM101.37,77.33v-1.46h3.53v1.46h-3.53ZM104.03,75.03c-.3,0-.54-.09-.73-.28s-.28-.43-.28-.73.09-.54.28-.73.43-.28.73-.28.54.09.73.28.28.43.28.73-.09.54-.28.73-.43.28-.73.28ZM103.31,82.08v-5.86h1.58v5.86h-1.58ZM104.78,82.08v-1.46h1.96v1.46h-1.96Z"/>
    <path class="cls-1" d="M107.68,74.75v-1.46h1.86v1.46h-1.86ZM111.65,82.19c-.78,0-1.34-.21-1.69-.64s-.52-1.12-.52-2.06v-6.2h1.58v6.14c0,.26.03.47.08.63s.16.29.32.36.39.12.7.12c.34,0,.78-.07,1.3-.22l.18,1.63c-.33.09-.65.15-.96.19s-.64.06-.99.06Z"/>
    <path class="cls-1" d="M114.72,74.75v-1.46h1.86v1.46h-1.86ZM118.68,82.19c-.78,0-1.34-.21-1.69-.64s-.52-1.12-.52-2.06v-6.2h1.58v6.14c0,.26.03.47.08.63s.16.29.32.36.39.12.7.12c.34,0,.78-.07,1.3-.22l.18,1.63c-.33.09-.65.15-.96.19s-.64.06-.99.06Z"/>
    <path class="cls-1" d="M123.83,82.19c-.66,0-1.17-.16-1.54-.49s-.55-.79-.55-1.38c0-.7.24-1.23.72-1.6s1.16-.56,2.04-.56c.34,0,.63.02.88.05s.5.09.75.16l-.26,1.24c-.25-.06-.47-.09-.67-.1s-.41-.01-.63-.01c-.82,0-1.23.23-1.23.7,0,.21.07.37.22.48s.37.17.65.17c.34,0,.63-.06.86-.19s.4-.29.52-.49.17-.4.17-.62v-.39l.22,1.59h-.5l.21-.19c-.01.36-.09.66-.25.9s-.37.42-.64.54-.6.18-.99.18ZM125.93,82.13l-.13-1.84-.02-.81v-1.21c0-.33-.14-.58-.42-.73s-.7-.24-1.26-.25l-1.59-.04.12-1.44,1.35.02c1.12.02,1.96.24,2.51.67s.82,1.05.82,1.87v2.3l.86.13v1.29l-2.23.06Z"/>
    <path class="cls-1" d="M128.67,82.08v-1.36h4.35v1.36h-4.35ZM128.91,77.22v-1.36h2.34l.12,1.36h-2.46ZM129.99,82.08v-6.21h1.35l.23,1.78v4.43h-1.58ZM131.57,79.4l-.36-2.14h.53c.06-1.01.59-1.52,1.59-1.52.59,0,1.04.22,1.36.65s.47,1.06.47,1.88h-1.58c0-.37-.07-.63-.2-.79s-.35-.24-.65-.24c-.39,0-.68.19-.87.56s-.29.91-.29,1.6Z"/>
    <path class="cls-1" d="M135.7,82.08v-1.36h4.35v1.36h-4.35ZM135.94,77.22v-1.36h2.34l.12,1.36h-2.46ZM137.02,82.08v-6.21h1.35l.23,1.78v4.43h-1.58ZM138.6,79.4l-.36-2.14h.53c.06-1.01.59-1.52,1.59-1.52.59,0,1.04.22,1.36.65s.47,1.06.47,1.88h-1.58c0-.37-.07-.63-.2-.79s-.35-.24-.65-.24c-.39,0-.68.19-.87.56s-.29.91-.29,1.6Z"/>
    <path class="cls-1" d="M146.37,82.19c-1.07,0-1.9-.28-2.49-.83s-.88-1.36-.88-2.4.25-1.8.75-2.37,1.2-.84,2.11-.84,1.57.26,2.06.78.73,1.28.73,2.27c0,.28-.01.55-.04.8h-4.56v-1.1h3.04c0-.42-.11-.74-.32-.96s-.51-.33-.89-.33c-.41,0-.74.15-.96.44s-.34.71-.34,1.26c0,.59.17,1.03.51,1.34s.82.46,1.44.46c.28,0,.56-.01.83-.04s.55-.07.84-.12l.15,1.5c-.4.07-.76.12-1.09.13s-.62.03-.87.03Z"/>
    <path class="cls-1" d="M151.95,82.19c-.66,0-1.17-.16-1.54-.49s-.55-.79-.55-1.38c0-.7.24-1.23.72-1.6s1.16-.56,2.04-.56c.34,0,.63.02.88.05s.5.09.75.16l-.26,1.24c-.25-.06-.47-.09-.67-.1s-.41-.01-.63-.01c-.82,0-1.23.23-1.23.7,0,.21.07.37.22.48s.37.17.65.17c.34,0,.63-.06.86-.19s.4-.29.52-.49.17-.4.17-.62v-.39l.22,1.59h-.5l.21-.19c-.01.36-.09.66-.25.9s-.37.42-.64.54-.6.18-.99.18ZM154.06,82.13l-.13-1.84-.02-.81v-1.21c0-.33-.14-.58-.42-.73s-.7-.24-1.26-.25l-1.59-.04.12-1.44,1.35.02c1.12.02,1.96.24,2.51.67s.82,1.05.82,1.87v2.3l.86.13v1.29l-2.23.06Z"/>
    <path class="cls-1" d="M156.9,74.75v-1.46h1.86v1.46h-1.86ZM160.87,82.19c-.78,0-1.34-.21-1.69-.64s-.52-1.12-.52-2.06v-6.2h1.58v6.14c0,.26.03.47.08.63s.16.29.32.36.39.12.7.12c.34,0,.78-.07,1.3-.22l.18,1.63c-.33.09-.65.15-.96.19s-.64.06-.99.06Z"/>
    <path class="cls-1" d="M37.46,88.48v-.72h5.91v.72h-5.91ZM40.03,96.08v-8.32h.77v8.32h-.77Z"/>
    <path class="cls-1" d="M47.99,96.19c-1.03,0-1.82-.29-2.38-.86s-.84-1.38-.84-2.43.24-1.78.71-2.33,1.14-.83,2-.83c.8,0,1.43.25,1.87.75s.67,1.21.67,2.13c0,.24-.01.45-.04.61h-4.58v-.67h3.87c0-.67-.16-1.19-.47-1.56s-.75-.55-1.31-.55c-.62,0-1.11.21-1.45.64s-.52,1.02-.52,1.79c0,.82.23,1.45.68,1.9s1.1.67,1.93.67c.23,0,.47-.01.73-.04s.5-.07.74-.12l.11.72c-.27.06-.55.1-.85.13s-.59.04-.86.04Z"/>
    <path class="cls-1" d="M61.13,96.19c-.81,0-1.43-.27-1.85-.8s-.63-1.32-.63-2.36.21-1.89.64-2.45,1.05-.83,1.87-.83c.55,0,.99.12,1.32.36s.54.6.62,1.06h.43l-.36,1.71c0-.8-.16-1.4-.48-1.81s-.78-.62-1.4-.62-1.07.22-1.39.65-.47,1.07-.47,1.92.16,1.42.47,1.83.78.62,1.39.62,1.08-.21,1.39-.62.47-1.01.47-1.8l.42,1.66h-.48c-.08.46-.28.82-.61,1.08s-.79.39-1.37.39ZM63.29,96.13l-.12-1.49v-7.35h.78v8.81l-.66.04Z"/>
    <path class="cls-1" d="M67.64,96.19c-.62,0-1.11-.15-1.45-.44s-.51-.7-.51-1.23c0-.65.23-1.14.69-1.48s1.14-.5,2.03-.5c.42,0,.8.02,1.15.06s.63.1.84.18l-.12.6c-.25-.08-.55-.13-.9-.14s-.68-.02-1-.02c-1.29,0-1.93.42-1.93,1.25,0,.33.11.58.33.76s.53.27.93.27c.43,0,.81-.07,1.13-.22s.58-.34.76-.59.28-.52.28-.81v-.71l.41,1.59h-.5l.13-.14c-.02.32-.13.59-.33.83s-.47.42-.8.55-.71.2-1.14.2ZM70.05,96.13l-.09-2.24-.08-.08v-1.42c0-.63-.17-1.09-.51-1.38s-.88-.44-1.61-.45l-1.32-.02.12-.73,1.16.02c1.02.02,1.76.24,2.23.67s.7,1.1.7,2.01v2.89l1.07.09v.58l-1.66.06Z"/>
    <path class="cls-1" d="M72.62,96.08v-.71h4.05v.71h-4.05ZM72.85,90.58v-.71h1.75l.04.71h-1.79ZM74.13,96.08v-6.21h.63l.16,1.78v4.43h-.79ZM74.92,93.4l-.36-1.95h.43c.14-1.14.75-1.71,1.83-1.71.66,0,1.15.18,1.44.55s.45.96.45,1.78h-.79c0-.57-.09-.99-.28-1.24s-.5-.38-.92-.38c-.61,0-1.06.26-1.35.77s-.45,1.24-.45,2.18Z"/>
    <path class="cls-1" d="M83.15,96.19c-1.03,0-1.82-.29-2.38-.86s-.84-1.38-.84-2.43.24-1.78.71-2.33,1.14-.83,2-.83c.8,0,1.43.25,1.87.75s.67,1.21.67,2.13c0,.24-.01.45-.04.61h-4.58v-.67h3.87c0-.67-.16-1.19-.47-1.56s-.75-.55-1.31-.55c-.62,0-1.11.21-1.45.64s-.52,1.02-.52,1.79c0,.82.23,1.45.68,1.9s1.1.67,1.93.67c.23,0,.47-.01.73-.04s.5-.07.74-.12l.11.72c-.27.06-.55.1-.85.13s-.59.04-.86.04ZM82.18,88.76l1.27-2.23h.84l-1.35,2.23h-.77Z"/>
    <path class="cls-1" d="M97.21,96.19c-1.03,0-1.82-.29-2.38-.86s-.84-1.38-.84-2.43.24-1.78.71-2.33,1.14-.83,2-.83c.8,0,1.43.25,1.87.75s.67,1.21.67,2.13c0,.24-.01.45-.04.61h-4.58v-.67h3.87c0-.67-.16-1.19-.47-1.56s-.75-.55-1.31-.55c-.62,0-1.11.21-1.45.64s-.52,1.02-.52,1.79c0,.82.23,1.45.68,1.9s1.1.67,1.93.67c.23,0,.47-.01.73-.04s.5-.07.74-.12l.11.72c-.27.06-.55.1-.85.13s-.59.04-.86.04Z"/>
    <path class="cls-1" d="M100.85,88v-.71h2.07v.71h-2.07ZM104.9,96.19c-.71,0-1.24-.19-1.58-.56s-.51-.94-.51-1.71v-6.64h.79v6.62c0,.35.05.64.15.87s.26.4.48.51.51.17.87.17c.32,0,.72-.06,1.2-.19l.09.71c-.25.07-.5.12-.73.16s-.48.05-.75.05Z"/>
    <path class="cls-1" d="M117.76,96.19c-.83,0-1.47-.28-1.93-.84s-.69-1.36-.69-2.38.23-1.82.69-2.38,1.11-.84,1.93-.84,1.48.28,1.94.84.69,1.35.69,2.38-.23,1.82-.69,2.38-1.1.84-1.94.84ZM117.76,95.46c.58,0,1.03-.22,1.34-.65s.48-1.05.48-1.84-.16-1.41-.48-1.84-.77-.65-1.34-.65-1.03.22-1.34.65-.48,1.05-.48,1.84.16,1.41.48,1.84.77.65,1.34.65Z"/>
    <path class="cls-1" d="M121.94,88v-.71h2.07v.71h-2.07ZM125.99,96.19c-.71,0-1.24-.19-1.58-.56s-.51-.94-.51-1.71v-6.64h.79v6.62c0,.35.05.64.15.87s.26.4.48.51.51.17.87.17c.32,0,.72-.06,1.2-.19l.09.71c-.25.07-.5.12-.73.16s-.48.05-.75.05Z"/>
    <path class="cls-1" d="M131.29,96.08l-2.42-6.21h.84l2.09,5.55h.06l2.07-5.55h.84l-2.42,6.21h-1.07Z"/>
    <path class="cls-1" d="M136.37,96.08v-.71h2.62v.71h-2.62ZM136.72,90.58v-.71h2.94v.71h-2.94ZM139.2,88.51c-.19,0-.35-.07-.48-.2s-.2-.29-.2-.48.07-.35.2-.48.29-.2.48-.2.35.07.48.2.2.29.2.48-.07.35-.2.48-.29.2-.48.2ZM138.87,96.08v-5.91h.79v5.91h-.79ZM139.53,96.08v-.71h2.17v.71h-2.17Z"/>
    <path class="cls-1" d="M145.5,96.19c-.81,0-1.43-.27-1.85-.8s-.63-1.32-.63-2.36.21-1.89.64-2.45,1.05-.83,1.87-.83c.55,0,.99.12,1.32.36s.54.6.62,1.06h.43l-.36,1.71c0-.8-.16-1.4-.48-1.81s-.78-.62-1.4-.62-1.07.22-1.39.65-.47,1.07-.47,1.92.16,1.42.47,1.83.78.62,1.39.62,1.08-.21,1.39-.62.47-1.01.47-1.8l.42,1.66h-.48c-.08.46-.28.82-.61,1.08s-.79.39-1.37.39ZM147.66,96.13l-.12-1.49v-7.35h.78v8.81l-.66.04Z"/>
    <path class="cls-1" d="M152.91,96.19c-.83,0-1.47-.28-1.93-.84s-.69-1.36-.69-2.38.23-1.82.69-2.38,1.11-.84,1.93-.84,1.48.28,1.94.84.69,1.35.69,2.38-.23,1.82-.69,2.38-1.1.84-1.94.84ZM152.91,95.46c.58,0,1.03-.22,1.34-.65s.48-1.05.48-1.84-.16-1.41-.48-1.84-.77-.65-1.34-.65-1.03.22-1.34.65-.48,1.05-.48,1.84.16,1.41.48,1.84.77.65,1.34.65Z"/>
  </g>
</svg>