<?xml version="1.0" encoding="UTF-8"?>
<svg id="Capa_1" data-name="Capa 1" xmlns="http://www.w3.org/2000/svg" viewBox="0 0 232.85 243.58">
  <defs>
    <style>
      .cls-1 {
        fill: #fff;
      }

      .cls-2 {
        stroke-width: 2px;
      }

      .cls-2, .cls-3, .cls-4 {
        stroke-miterlimit: 10;
      }

      .cls-2, .cls-5 {
        fill: none;
        stroke: #f9f4f4;
      }

      .cls-3, .cls-4 {
        stroke: #1d1d1b;
      }

      .cls-6 {
        fill: #f9f4f4;
      }

      .cls-7 {
        opacity: .64;
      }

      .cls-4 {
        fill: #893eff;
      }

      .cls-5 {
        stroke-linecap: round;
        stroke-linejoin: round;
        stroke-width: 3px;
      }
    </style>
  </defs>
  <rect class="cls-3" x="7.29" y="16.28" width="219.78" height="219.78" rx="14.48" ry="14.48"/>
  <rect class="cls-4" x="7.29" y="10.27" width="219.78" height="219.78" rx="14.48" ry="14.48"/>
  <g>
    <path class="cls-1" d="M59.42,54.8l3.6-12.48h2.85l3.6,12.48h-2.5l-2.44-9.43h-.16l-2.44,9.43h-2.5ZM61.24,52.43v-2.14h6.33v2.14h-6.33Z"/>
    <path class="cls-1" d="M70.7,54.8v-12.48h2.16v12.48h-2.16ZM74.19,50.43l-1.05-5.9h-.55l.14-2.21h1.29l.91,5.58h.07l.25,2.53h-1.05ZM74.7,50.43l.26-2.53h.11l.91-5.58h1.29l.14,2.21h-.55l-1.05,5.9h-1.11ZM77.13,54.8v-12.48h2.16v12.48h-2.16Z"/>
    <path class="cls-1" d="M85.54,54.97c-3.17,0-4.75-2.11-4.75-6.33s1.58-6.5,4.75-6.5,4.75,2.17,4.75,6.5-1.58,6.33-4.75,6.33ZM85.54,52.76c1.55,0,2.32-1.37,2.32-4.11s-.77-4.29-2.32-4.29-2.32,1.43-2.32,4.29.77,4.11,2.32,4.11Z"/>
    <path class="cls-1" d="M91.9,54.8v-12.48h2.32v12.48h-2.32ZM94.1,50.23v-2.14h2.24c.54,0,.96-.16,1.26-.48.3-.32.45-.77.45-1.34s-.15-1.03-.45-1.34-.72-.47-1.26-.47h-2.21l-.21-2.14h2.42c1.34,0,2.38.33,3.11.98s1.1,1.59,1.1,2.79c0,1.31-.37,2.32-1.1,3.04-.73.72-1.77,1.09-3.11,1.09h-2.24ZM98.24,54.8l-2.36-5.87h2.44l2.68,5.87h-2.77Z"/>
    <path class="cls-1" d="M117.18,54.97c-3.17,0-4.75-2.11-4.75-6.33s1.58-6.5,4.75-6.5,4.75,2.17,4.75,6.5-1.58,6.33-4.75,6.33ZM117.18,52.76c1.55,0,2.32-1.37,2.32-4.11s-.77-4.29-2.32-4.29-2.32,1.43-2.32,4.29.77,4.11,2.32,4.11ZM120.23,58.84c-1.41,0-2.48-.32-3.19-.97s-1.07-1.61-1.07-2.9v-.72h2.34v.74c0,.54.16.96.48,1.23s.8.41,1.45.41h.9l-.18,2.21h-.72Z"/>
    <path class="cls-1" d="M127.7,54.97c-2.77,0-4.16-1.39-4.16-4.18v-8.47h2.32v8.47c0,.65.15,1.14.45,1.47s.78.49,1.42.49c1.25,0,1.87-.65,1.87-1.96v-8.47h2.32v8.47c0,1.39-.36,2.44-1.08,3.14s-1.77,1.05-3.15,1.05Z"/>
    <path class="cls-1" d="M134.26,54.8v-12.48h2.32v12.48h-2.32ZM134.26,44.45v-2.14h8.56v2.14h-8.56ZM134.26,49.62v-2.14h6.98v2.14h-6.98ZM134.26,54.8v-2.14h8.56v2.14h-8.56Z"/>
    <path class="cls-1" d="M158.94,54.97c-.71,0-1.4-.06-2.07-.18-.67-.12-1.27-.29-1.79-.51l.32-2.37c.64.27,1.28.48,1.92.62s1.22.22,1.76.22c.63,0,1.11-.11,1.44-.33s.5-.54.5-.96c0-.54-.34-.98-1.03-1.3l-1.79-.87c-.88-.43-1.57-.97-2.06-1.61s-.73-1.34-.73-2.12c0-1.09.36-1.93,1.08-2.53s1.74-.9,3.06-.9c.77,0,1.5.13,2.18.4.69.27,1.3.66,1.83,1.17l-1.6,1.84c-.4-.39-.81-.68-1.22-.89-.41-.21-.81-.31-1.19-.31-.52,0-.92.11-1.2.33-.29.22-.43.54-.43.95,0,.28.1.54.3.78.2.25.49.47.87.67l1.69.87c.88.46,1.56.99,2.03,1.6s.72,1.26.72,1.96c0,1.11-.4,1.96-1.2,2.56s-1.93.9-3.4.9Z"/>
    <path class="cls-1" d="M165.9,54.8v-12.48h2.32v12.48h-2.32ZM165.9,44.45v-2.14h8.56v2.14h-8.56ZM165.9,49.62v-2.14h6.98v2.14h-6.98ZM165.9,54.8v-2.14h8.56v2.14h-8.56Z"/>
    <path class="cls-1" d="M81.57,75.97c-3.98,0-5.97-2.14-5.97-6.43,0-2.03.5-3.61,1.5-4.72,1-1.12,2.42-1.67,4.25-1.67.83,0,1.56.13,2.2.4s1.12.65,1.45,1.14l-1.3,1.71c-.26-.33-.6-.58-1.01-.76-.41-.18-.85-.27-1.32-.27-1.01,0-1.81.36-2.42,1.07-.61.71-.91,1.72-.91,3.03,0,2.87,1.27,4.31,3.82,4.31.85,0,1.69-.18,2.51-.53l.4,2.14c-1.02.4-2.09.6-3.22.6Z"/>
    <path class="cls-1" d="M90.82,75.97c-3.17,0-4.75-2.11-4.75-6.33s1.58-6.5,4.75-6.5,4.75,2.17,4.75,6.5-1.58,6.33-4.75,6.33ZM90.82,73.76c1.55,0,2.32-1.37,2.32-4.11s-.77-4.29-2.32-4.29-2.32,1.43-2.32,4.29.77,4.11,2.32,4.11Z"/>
    <path class="cls-1" d="M97.07,75.8v-12.48h2.16v12.48h-2.16ZM100.56,71.43l-1.05-5.9h-.55l.14-2.21h1.29l.91,5.58h.07l.25,2.53h-1.05ZM101.07,71.43l.26-2.53h.11l.91-5.58h1.29l.14,2.21h-.55l-1.05,5.9h-1.11ZM103.5,75.8v-12.48h2.16v12.48h-2.16Z"/>
    <path class="cls-1" d="M107.89,75.8v-12.48h2.32v12.48h-2.32ZM110,72.22v-2.14h1.71c.77,0,1.36-.21,1.78-.63s.63-1.01.63-1.77c0-.71-.21-1.27-.63-1.65s-1.01-.58-1.78-.58h-1.68v-2.14h1.68c1.56,0,2.77.37,3.63,1.1s1.28,1.77,1.28,3.12c0,1.49-.43,2.64-1.28,3.46-.86.82-2.07,1.23-3.63,1.23h-1.71Z"/>
    <path class="cls-1" d="M117.43,75.8l3.6-12.48h2.85l3.6,12.48h-2.5l-2.44-9.43h-.16l-2.44,9.43h-2.5ZM119.25,73.43v-2.14h6.33v2.14h-6.33Z"/>
    <path class="cls-1" d="M128.81,75.8v-12.48h2.32v12.48h-2.32ZM131.01,71.23v-2.14h2.24c.54,0,.96-.16,1.26-.48.3-.32.45-.77.45-1.34s-.15-1.03-.45-1.34-.72-.47-1.26-.47h-2.21l-.21-2.14h2.42c1.34,0,2.38.33,3.11.98s1.1,1.59,1.1,2.79c0,1.31-.37,2.32-1.1,3.04-.73.72-1.77,1.09-3.11,1.09h-2.24ZM135.15,75.8l-2.36-5.87h2.44l2.68,5.87h-2.77Z"/>
    <path class="cls-1" d="M138.83,65.45v-2.14h9.44v2.14h-9.44ZM142.39,75.8v-12.48h2.32v12.48h-2.32Z"/>
    <path class="cls-1" d="M150.08,75.8v-12.48h2.32v12.48h-2.32ZM150.08,65.45v-2.14h8.56v2.14h-8.56ZM150.08,70.62v-2.14h6.98v2.14h-6.98ZM150.08,75.8v-2.14h8.56v2.14h-8.56Z"/>
  </g>
  <g class="cls-7">
    <path class="cls-6" d="M66.32,217.08l.73-4.16h.71l-.73,4.16h-.71ZM66.95,217.08l.1-.67h.18c.36,0,.66-.07.92-.21.26-.14.45-.35.58-.61s.2-.58.2-.96c0-.35-.11-.62-.33-.82-.22-.19-.53-.29-.93-.29-.2,0-.4.02-.59.06l-.03-.67c.22-.04.45-.06.69-.06.61,0,1.08.15,1.42.45s.51.72.51,1.27-.1.97-.3,1.34-.5.66-.88.86-.84.3-1.38.3h-.16Z"/>
    <path class="cls-6" d="M69.89,217.08l.73-4.16h.71l-.73,4.16h-.71ZM69.89,217.08l.12-.65h2.81l-.11.65h-2.81ZM70.2,215.32l.11-.65h2.29l-.11.65h-2.29ZM70.51,213.57l.11-.65h2.81l-.11.65h-2.81Z"/>
    <path class="cls-6" d="M74.63,217.14c-.51,0-.93-.09-1.28-.26l.18-.66c.4.17.79.25,1.16.25.28,0,.5-.04.64-.12.14-.08.22-.2.22-.36,0-.09-.02-.16-.06-.23-.04-.06-.11-.13-.2-.19l-.85-.58c-.17-.12-.29-.26-.36-.42-.07-.17-.11-.33-.11-.49,0-.4.12-.7.36-.91.24-.21.59-.31,1.04-.31.55,0,.98.16,1.3.48l-.42.57c-.14-.12-.29-.22-.45-.29-.15-.06-.31-.1-.46-.1-.21,0-.36.04-.47.11s-.16.19-.16.34c0,.09.02.18.07.26.05.09.12.17.22.24l.76.52c.19.13.33.27.4.42s.12.31.12.49c0,.41-.14.71-.42.92s-.69.31-1.23.31Z"/>
    <path class="cls-6" d="M76.92,217.08l.73-4.16h.71l-.73,4.16h-.71ZM76.92,217.08l.11-.65h2.81l-.11.65h-2.81Z"/>
    <path class="cls-6" d="M80.46,217.08l.11-.65h2.59l-.11.65h-2.59ZM81.08,213.57l.11-.65h2.59l-.11.65h-2.59ZM81.4,217.08l.73-4.16h.71l-.73,4.16h-.71Z"/>
    <path class="cls-6" d="M84.62,216.77l-.61-.26,2.69-3.35.6.31-2.68,3.29ZM84.21,217.08l-.2-.56.57-.09h2.19l-.11.65h-2.45ZM84.61,213.57l.11-.65h2.38l.19.56-.49.09h-2.2Z"/>
    <path class="cls-6" d="M87.13,217.08l1.9-4.16h.96c.05.25.09.52.13.8s.08.56.11.85.07.58.1.87c.03.29.05.57.07.85.02.28.04.54.05.79h-.72c0-.2-.01-.42-.03-.64s-.03-.46-.05-.7-.04-.48-.06-.72-.05-.48-.07-.71-.05-.44-.07-.65h-.08l-1.49,3.42h-.74ZM87.89,216.2l.11-.65h2.11l-.11.65h-2.11Z"/>
    <path class="cls-6" d="M94.5,217.08l.73-4.16h.71l-.73,4.16h-.71ZM94.5,217.08l.12-.65h2.81l-.11.65h-2.81ZM94.81,215.32l.11-.65h2.29l-.11.65h-2.29ZM95.12,213.57l.11-.65h2.81l-.11.65h-2.81Z"/>
    <path class="cls-6" d="M98.02,217.08l.73-4.16h.71l-.73,4.16h-.71ZM98.02,217.08l.11-.65h2.81l-.11.65h-2.81Z"/>
    <path class="cls-6" d="M106.76,217.14c-.36,0-.65-.06-.89-.18-.24-.12-.42-.29-.53-.53s-.18-.53-.18-.88c0-.4.06-.76.17-1.09s.28-.61.49-.85c.21-.24.46-.42.76-.55.29-.13.61-.2.96-.2.45,0,.8.14,1.05.43l-.44.57c-.2-.23-.43-.34-.69-.34-.3,0-.57.09-.8.26s-.42.41-.55.71c-.13.3-.2.65-.2,1.03,0,.21.04.39.11.53s.19.25.34.32.34.11.56.11c.33,0,.67-.06,1.02-.18l.04.64c-.4.13-.8.2-1.21.2Z"/>
    <path class="cls-6" d="M109.98,217.14c-.49,0-.84-.12-1.04-.35-.21-.23-.27-.58-.19-1.04l.5-2.82h.71l-.5,2.82c-.04.24-.02.42.08.55s.26.19.49.19c.21,0,.38-.06.5-.19s.21-.31.25-.55l.5-2.82h.71l-.5,2.82c-.08.46-.25.81-.5,1.04s-.59.35-1.01.35Z"/>
    <path class="cls-6" d="M112.02,217.08l.73-4.16h.71l-.73,4.16h-.71ZM112.38,215.81l.1-.66h.33c.61,0,1.07-.09,1.39-.26s.47-.43.47-.76c0-.2-.08-.35-.25-.45-.16-.1-.4-.15-.72-.15-.43,0-.78.02-1.05.06l.1-.67c.26-.04.59-.06.99-.06.55,0,.96.1,1.24.31.28.21.42.51.42.92,0,.56-.23.99-.68,1.28s-1.13.44-2.01.44h-.33ZM114.23,217.08l-.57-1.85h.75l.62,1.85h-.79Z"/>
    <path class="cls-6" d="M116.82,217.14c-.51,0-.93-.09-1.28-.26l.18-.66c.4.17.79.25,1.16.25.28,0,.5-.04.64-.12.14-.08.22-.2.22-.36,0-.09-.02-.16-.06-.23-.04-.06-.11-.13-.2-.19l-.85-.58c-.17-.12-.29-.26-.36-.42-.07-.17-.11-.33-.11-.49,0-.4.12-.7.36-.91.24-.21.59-.31,1.04-.31.55,0,.98.16,1.3.48l-.42.57c-.14-.12-.29-.22-.45-.29-.15-.06-.31-.1-.46-.1-.21,0-.36.04-.47.11s-.16.19-.16.34c0,.09.02.18.07.26.05.09.12.17.22.24l.76.52c.19.13.33.27.4.42s.12.31.12.49c0,.41-.14.71-.42.92s-.69.31-1.23.31Z"/>
    <path class="cls-6" d="M120.45,217.14c-.4,0-.71-.13-.94-.4s-.34-.63-.34-1.1c0-.58.08-1.08.23-1.5s.38-.73.68-.95.65-.33,1.06-.33.71.13.93.39.33.62.33,1.08c0,.59-.08,1.09-.23,1.51s-.38.74-.67.96c-.29.22-.64.34-1.06.34ZM120.54,216.48c.24,0,.44-.08.61-.25.17-.17.3-.4.39-.71s.13-.68.13-1.12c0-.28-.05-.49-.16-.64-.11-.15-.26-.23-.45-.23-.24,0-.45.08-.62.24s-.3.4-.39.7c-.09.31-.14.67-.14,1.11,0,.29.06.51.17.67s.27.24.46.24Z"/>
    <path class="cls-6" d="M122.57,217.08l.73-4.16h.71l-.73,4.16h-.71ZM122.93,215.81l.1-.66h.33c.61,0,1.07-.09,1.39-.26s.47-.43.47-.76c0-.2-.08-.35-.25-.45-.16-.1-.4-.15-.72-.15-.43,0-.78.02-1.05.06l.1-.67c.26-.04.59-.06.99-.06.55,0,.96.1,1.24.31.28.21.42.51.42.92,0,.56-.23.99-.68,1.28s-1.13.44-2.01.44h-.33ZM124.77,217.08l-.57-1.85h.75l.62,1.85h-.79Z"/>
    <path class="cls-6" d="M129.6,217.08l.73-4.16h.71l-.73,4.16h-.71ZM130.09,215.33l.1-.65h2.41l-.1.65h-2.41ZM131.64,217.08l.73-4.16h.71l-.73,4.16h-.71Z"/>
    <path class="cls-6" d="M132.84,217.08l1.9-4.16h.96c.05.25.09.52.13.8s.08.56.11.85.07.58.1.87c.03.29.05.57.07.85.02.28.04.54.05.79h-.72c0-.2-.01-.42-.03-.64s-.03-.46-.05-.7-.04-.48-.06-.72-.05-.48-.07-.71-.05-.44-.07-.65h-.08l-1.49,3.42h-.74ZM133.6,216.2l.11-.65h2.11l-.11.65h-2.11Z"/>
    <path class="cls-6" d="M138.4,217.14c-.36,0-.65-.06-.89-.18-.24-.12-.42-.29-.53-.53s-.18-.53-.18-.88c0-.4.06-.76.17-1.09s.28-.61.49-.85c.21-.24.46-.42.76-.55.29-.13.61-.2.96-.2.45,0,.8.14,1.05.43l-.44.57c-.2-.23-.43-.34-.69-.34-.3,0-.57.09-.8.26s-.42.41-.55.71c-.13.3-.2.65-.2,1.03,0,.21.04.39.11.53s.19.25.34.32.34.11.56.11c.33,0,.67-.06,1.02-.18l.04.64c-.4.13-.8.2-1.21.2Z"/>
    <path class="cls-6" d="M140.23,217.08l.11-.65h2.59l-.11.65h-2.59ZM140.85,213.57l.11-.65h2.59l-.11.65h-2.59ZM141.16,217.08l.73-4.16h.71l-.73,4.16h-.71Z"/>
    <path class="cls-6" d="M143.38,217.08l1.9-4.16h.96c.05.25.09.52.13.8s.08.56.11.85.07.58.1.87c.03.29.05.57.07.85.02.28.04.54.05.79h-.72c0-.2-.01-.42-.03-.64s-.03-.46-.05-.7-.04-.48-.06-.72-.05-.48-.07-.71-.05-.44-.07-.65h-.08l-1.49,3.42h-.74ZM144.14,216.2l.11-.65h2.11l-.11.65h-2.11Z"/>
    <path class="cls-6" d="M150.41,217.08l1.9-4.16h.96c.05.25.09.52.13.8s.08.56.11.85.07.58.1.87c.03.29.05.57.07.85.02.28.04.54.05.79h-.72c0-.2-.01-.42-.03-.64s-.03-.46-.05-.7-.04-.48-.06-.72-.05-.48-.07-.71-.05-.44-.07-.65h-.08l-1.49,3.42h-.74ZM151.18,216.2l.11-.65h2.11l-.11.65h-2.11Z"/>
    <path class="cls-6" d="M154.27,217.08l.73-4.16h.71l-.73,4.16h-.71ZM154.81,217.08l.1-.65h.47c.42,0,.73-.06.94-.17.21-.11.31-.28.31-.51,0-.18-.07-.31-.22-.4s-.36-.14-.63-.14h-.61l-.03-.28h.98c.41,0,.72.08.93.24.21.16.32.39.32.68,0,.41-.16.72-.48.93s-.8.31-1.45.31h-.63ZM154.91,214.84l.1-.28h.82c.29,0,.5-.05.65-.14.15-.09.22-.23.22-.41,0-.32-.28-.49-.83-.49-.39,0-.71.02-.96.06l.1-.65c.22-.04.49-.06.82-.06.53,0,.93.09,1.2.26.27.17.41.42.41.75s-.13.56-.39.72-.64.25-1.14.25h-.99ZM154.97,215.03l.05-.29h1.22l-.05.29h-1.22Z"/>
    <path class="cls-6" d="M157.45,217.08l1.9-4.16h.96c.05.25.09.52.13.8s.08.56.11.85.07.58.1.87c.03.29.05.57.07.85.02.28.04.54.05.79h-.72c0-.2-.01-.42-.03-.64s-.03-.46-.05-.7-.04-.48-.06-.72-.05-.48-.07-.71-.05-.44-.07-.65h-.08l-1.49,3.42h-.74ZM158.21,216.2l.11-.65h2.11l-.11.65h-2.11Z"/>
    <path class="cls-6" d="M162.58,217.14c-.48,0-.84-.13-1.06-.38s-.29-.62-.19-1.08h.73c-.04.26-.01.46.09.6s.27.21.5.21c.25,0,.45-.06.59-.19.14-.13.24-.33.29-.6l.49-2.77h.71l-.49,2.77c-.09.5-.27.87-.53,1.1-.27.24-.64.35-1.13.35ZM162.92,213.57l.11-.65h1.35l-.11.65h-1.35Z"/>
    <path class="cls-6" d="M166.15,217.14c-.4,0-.71-.13-.94-.4s-.34-.63-.34-1.1c0-.58.08-1.08.23-1.5s.38-.73.68-.95.65-.33,1.06-.33.71.13.93.39.33.62.33,1.08c0,.59-.08,1.09-.23,1.51s-.38.74-.67.96c-.29.22-.64.34-1.06.34ZM166.24,216.48c.24,0,.44-.08.61-.25.17-.17.3-.4.39-.71s.13-.68.13-1.12c0-.28-.05-.49-.16-.64-.11-.15-.26-.23-.45-.23-.24,0-.45.08-.62.24s-.3.4-.39.7c-.09.31-.14.67-.14,1.11,0,.29.06.51.17.67s.27.24.46.24Z"/>
  </g>
  <line class="cls-2" x1="37.81" y1="90.68" x2="196.56" y2="90.68"/>
  <polyline class="cls-5" points="110.44 195.53 116.95 202.04 123.93 195.06"/>
  <g>
    <path class="cls-6" d="M47.34,99.67v-.6h4.92v.6h-4.92ZM49.48,106.01v-6.93h.64v6.93h-.64Z"/>
    <path class="cls-6" d="M56.12,106.1c-.86,0-1.52-.24-1.99-.71s-.7-1.15-.7-2.02.2-1.49.59-1.95c.39-.46.95-.69,1.67-.69.67,0,1.19.21,1.56.62.37.42.55,1.01.55,1.78,0,.2,0,.37-.03.51h-3.82v-.56h3.22c0-.56-.13-.99-.39-1.3-.26-.3-.62-.46-1.09-.46-.52,0-.92.18-1.21.53s-.43.85-.43,1.49c0,.68.19,1.21.57,1.58.38.37.92.56,1.61.56.19,0,.39-.01.61-.04.21-.03.42-.06.61-.1l.09.6c-.22.05-.46.08-.71.11-.25.02-.49.03-.72.03Z"/>
    <path class="cls-6" d="M67.06,106.1c-.68,0-1.19-.22-1.54-.67-.35-.45-.53-1.1-.53-1.97s.18-1.58.53-2.04c.35-.46.87-.69,1.56-.69.46,0,.82.1,1.1.3.28.2.45.5.52.88h.36l-.3,1.43c0-.66-.13-1.17-.4-1.51-.27-.34-.65-.51-1.17-.51s-.89.18-1.16.54c-.26.36-.39.9-.39,1.6s.13,1.18.39,1.53c.26.35.65.52,1.16.52s.9-.17,1.16-.51.4-.84.4-1.5l.35,1.38h-.4c-.07.38-.23.68-.51.9s-.65.33-1.14.33ZM68.87,106.06l-.1-1.25v-6.13h.65v7.34l-.55.03Z"/>
    <path class="cls-6" d="M72.49,106.1c-.52,0-.92-.12-1.21-.36-.29-.24-.43-.59-.43-1.03,0-.54.19-.95.58-1.23s.95-.42,1.69-.42c.35,0,.67.02.96.05.29.03.52.08.7.15l-.1.5c-.21-.07-.46-.11-.75-.12-.29-.01-.56-.02-.83-.02-1.07,0-1.61.35-1.61,1.04,0,.27.09.48.28.63.18.15.44.22.77.22.36,0,.67-.06.95-.18.27-.12.48-.29.64-.49s.23-.43.23-.67v-.6l.34,1.33h-.42l.11-.12c-.02.26-.11.49-.28.69-.17.2-.39.35-.67.46-.28.11-.6.16-.95.16ZM74.5,106.06l-.08-1.87-.06-.06v-1.19c0-.53-.14-.91-.43-1.15-.29-.24-.73-.37-1.34-.38l-1.1-.02.1-.61h.97c.85.03,1.46.21,1.86.58s.59.92.59,1.67v2.41l.89.08v.48l-1.39.05Z"/>
    <path class="cls-6" d="M76.79,106.01v-5.18h.57l.08,1.09v4.08h-.65ZM78.8,106.01v-4.05c0-.44-.21-.66-.62-.66-.5,0-.74.31-.74.92l-.3-.74h.32c.09-.5.42-.74.98-.74.32,0,.55.09.72.28.16.19.24.47.24.84v4.15h-.6ZM80.75,106.01v-3.96c0-.5-.2-.76-.61-.76-.5,0-.75.31-.75.92l-.35-.74h.36c.04-.23.14-.42.3-.55.16-.13.38-.2.65-.2.35,0,.62.1.79.3.17.2.26.51.26.92v4.05h-.65Z"/>
    <path class="cls-6" d="M84.96,106.1c-.69,0-1.23-.23-1.61-.7s-.58-1.13-.58-1.98.19-1.52.58-1.98c.38-.47.92-.7,1.61-.7s1.23.23,1.61.7c.38.47.57,1.13.57,1.98s-.19,1.51-.57,1.98c-.38.47-.92.7-1.61.7ZM84.96,105.49c.48,0,.86-.18,1.12-.54.26-.36.4-.87.4-1.53s-.13-1.18-.4-1.54c-.27-.36-.64-.54-1.12-.54s-.86.18-1.12.54c-.26.36-.4.87-.4,1.54s.13,1.17.4,1.53c.27.36.64.54,1.12.54Z"/>
    <path class="cls-6" d="M90.42,106.1c-.38,0-.7-.01-.97-.03-.27-.02-.51-.06-.72-.11l.08-.62c.33.05.63.09.88.12s.5.04.73.04c.64,0,1.1-.07,1.39-.2.29-.13.43-.35.43-.64,0-.21-.07-.37-.2-.5s-.35-.23-.64-.3l-1.16-.29c-.5-.13-.87-.3-1.09-.51s-.34-.49-.34-.83c0-.52.21-.9.63-1.13.42-.23,1.1-.35,2.04-.35.23,0,.44,0,.64.02.2.02.42.04.65.08l-.07.58c-.26-.03-.49-.04-.69-.05-.2,0-.38-.01-.55-.01-.69,0-1.2.07-1.51.2-.31.14-.47.35-.47.65,0,.18.08.33.23.45s.41.23.76.31l.93.22c.53.13.92.31,1.15.54s.36.53.36.92c0,.51-.2.88-.59,1.11-.39.23-1.03.35-1.9.35Z"/>
    <path class="cls-6" d="M100.16,99.28v-.6h1.72v.6h-1.72ZM103.54,106.1c-.59,0-1.03-.15-1.31-.46s-.42-.78-.42-1.43v-5.53h.65v5.52c0,.29.04.54.12.72.08.19.22.33.4.43s.42.14.72.14c.27,0,.6-.05,1-.16l.07.6c-.21.06-.42.1-.61.13-.2.03-.4.04-.62.04Z"/>
    <path class="cls-6" d="M107.65,106.1c-.52,0-.92-.12-1.21-.36-.29-.24-.43-.59-.43-1.03,0-.54.19-.95.58-1.23s.95-.42,1.69-.42c.35,0,.67.02.96.05.29.03.52.08.7.15l-.1.5c-.21-.07-.46-.11-.75-.12-.29-.01-.56-.02-.83-.02-1.07,0-1.61.35-1.61,1.04,0,.27.09.48.28.63.18.15.44.22.77.22.36,0,.67-.06.95-.18.27-.12.48-.29.64-.49s.23-.43.23-.67v-.6l.34,1.33h-.42l.11-.12c-.02.26-.11.49-.28.69-.17.2-.39.35-.67.46-.28.11-.6.16-.95.16ZM109.66,106.06l-.08-1.87-.06-.06v-1.19c0-.53-.14-.91-.43-1.15-.29-.24-.73-.37-1.34-.38l-1.1-.02.1-.61h.97c.85.03,1.46.21,1.86.58s.59.92.59,1.67v2.41l.89.08v.48l-1.39.05Z"/>
    <path class="cls-6" d="M118.06,106.01v-7.32h.64v7.24s-.64.09-.64.09ZM119.21,106.1c-.2,0-.39,0-.57-.03-.19-.02-.38-.04-.58-.07l.34-.6c.15.04.31.07.49.08.18.01.35.02.53.02.76,0,1.36-.21,1.78-.64.42-.42.63-1.02.63-1.8,0-.56-.13-.99-.39-1.3-.26-.3-.62-.46-1.1-.46-1.08,0-1.63.59-1.63,1.77l-.3-1.33h.37c.17-.69.7-1.04,1.61-1.04.66,0,1.18.2,1.54.61s.55.98.55,1.73c0,.96-.29,1.71-.85,2.23-.57.53-1.37.79-2.41.79Z"/>
    <path class="cls-6" d="M123.9,106.01v-.6h2.19v.6h-2.19ZM124.2,101.43v-.6h2.45v.6h-2.45ZM126.27,99.7c-.16,0-.29-.06-.4-.17s-.17-.24-.17-.4.06-.29.17-.4.24-.17.4-.17.29.06.4.17.17.24.17.4-.06.29-.17.4-.24.17-.4.17ZM125.99,106.01v-4.92h.65v4.92h-.65ZM126.54,106.01v-.6h1.81v.6h-1.81Z"/>
    <path class="cls-6" d="M132.29,106.1c-.86,0-1.52-.24-1.99-.71s-.7-1.15-.7-2.02.2-1.49.59-1.95c.39-.46.95-.69,1.67-.69.67,0,1.19.21,1.56.62.37.42.55,1.01.55,1.78,0,.2,0,.37-.03.51h-3.82v-.56h3.22c0-.56-.13-.99-.39-1.3-.26-.3-.62-.46-1.09-.46-.52,0-.92.18-1.21.53s-.43.85-.43,1.49c0,.68.19,1.21.57,1.58.38.37.92.56,1.61.56.19,0,.39-.01.61-.04.21-.03.42-.06.61-.1l.09.6c-.22.05-.46.08-.71.11-.25.02-.49.03-.72.03Z"/>
    <path class="cls-6" d="M135.66,106.01v-5.18h.59l.06,1.09v4.08h-.65ZM139.08,106.01v-3.38c0-.41-.11-.73-.33-.95s-.52-.33-.91-.33c-1.02,0-1.53.58-1.53,1.74l-.31-1.31h.37c.08-.35.24-.61.49-.78.25-.17.6-.26,1.04-.26.58,0,1.03.17,1.35.5s.48.8.48,1.41v3.37h-.65Z"/>
    <path class="cls-6" d="M143.11,106.01l-2.02-5.18h.7l1.74,4.62h.05l1.73-4.62h.7l-2.02,5.18h-.89Z"/>
    <path class="cls-6" d="M149.87,106.1c-.86,0-1.52-.24-1.99-.71s-.7-1.15-.7-2.02.2-1.49.59-1.95c.39-.46.95-.69,1.67-.69.67,0,1.19.21,1.56.62.37.42.55,1.01.55,1.78,0,.2,0,.37-.03.51h-3.82v-.56h3.22c0-.56-.13-.99-.39-1.3-.26-.3-.62-.46-1.09-.46-.52,0-.92.18-1.21.53s-.43.85-.43,1.49c0,.68.19,1.21.57,1.58.38.37.92.56,1.61.56.19,0,.39-.01.61-.04.21-.03.42-.06.61-.1l.09.6c-.22.05-.46.08-.71.11-.25.02-.49.03-.72.03Z"/>
    <path class="cls-6" d="M153.24,106.01v-5.18h.59l.06,1.09v4.08h-.65ZM156.65,106.01v-3.38c0-.41-.11-.73-.33-.95s-.52-.33-.91-.33c-1.02,0-1.53.58-1.53,1.74l-.31-1.31h.37c.08-.35.24-.61.49-.78.25-.17.6-.26,1.04-.26.58,0,1.03.17,1.35.5s.48.8.48,1.41v3.37h-.65Z"/>
    <path class="cls-6" d="M159.06,106.01v-.6h2.19v.6h-2.19ZM159.35,101.43v-.6h2.45v.6h-2.45ZM161.42,99.7c-.16,0-.29-.06-.4-.17s-.17-.24-.17-.4.06-.29.17-.4.24-.17.4-.17.29.06.4.17.17.24.17.4-.06.29-.17.4-.24.17-.4.17ZM161.15,106.01v-4.92h.65v4.92h-.65ZM161.7,106.01v-.6h1.81v.6h-1.81Z"/>
    <path class="cls-6" d="M166.67,106.1c-.68,0-1.19-.22-1.54-.67-.35-.45-.53-1.1-.53-1.97s.18-1.58.53-2.04c.35-.46.87-.69,1.56-.69.46,0,.82.1,1.1.3.28.2.45.5.52.88h.36l-.3,1.43c0-.66-.13-1.17-.4-1.51-.27-.34-.65-.51-1.17-.51s-.89.18-1.16.54c-.26.36-.39.9-.39,1.6s.13,1.18.39,1.53c.26.35.65.52,1.16.52s.9-.17,1.16-.51.4-.84.4-1.5l.35,1.38h-.4c-.07.38-.23.68-.51.9s-.65.33-1.14.33ZM168.47,106.06l-.1-1.25v-6.13h.65v7.34l-.55.03Z"/>
    <path class="cls-6" d="M172.1,106.1c-.52,0-.92-.12-1.21-.36-.29-.24-.43-.59-.43-1.03,0-.54.19-.95.58-1.23s.95-.42,1.69-.42c.35,0,.67.02.96.05.29.03.52.08.7.15l-.1.5c-.21-.07-.46-.11-.75-.12-.29-.01-.56-.02-.83-.02-1.07,0-1.61.35-1.61,1.04,0,.27.09.48.28.63.18.15.44.22.77.22.36,0,.67-.06.95-.18.27-.12.48-.29.64-.49s.23-.43.23-.67v-.6l.34,1.33h-.42l.11-.12c-.02.26-.11.49-.28.69-.17.2-.39.35-.67.46-.28.11-.6.16-.95.16ZM174.11,106.06l-.08-1.87-.06-.06v-1.19c0-.53-.14-.91-.43-1.15-.29-.24-.73-.37-1.34-.38l-1.1-.02.1-.61h.97c.85.03,1.46.21,1.86.58s.59.92.59,1.67v2.41l.89.08v.48l-1.39.05Z"/>
    <path class="cls-6" d="M183.82,106.1c-.52,0-.92-.12-1.21-.36-.29-.24-.43-.59-.43-1.03,0-.54.19-.95.58-1.23s.95-.42,1.69-.42c.35,0,.67.02.96.05.29.03.52.08.7.15l-.1.5c-.21-.07-.46-.11-.75-.12-.29-.01-.56-.02-.83-.02-1.07,0-1.61.35-1.61,1.04,0,.27.09.48.28.63.18.15.44.22.77.22.36,0,.67-.06.95-.18.27-.12.48-.29.64-.49s.23-.43.23-.67v-.6l.34,1.33h-.42l.11-.12c-.02.26-.11.49-.28.69-.17.2-.39.35-.67.46-.28.11-.6.16-.95.16ZM185.83,106.06l-.08-1.87-.06-.06v-1.19c0-.53-.14-.91-.43-1.15-.29-.24-.73-.37-1.34-.38l-1.1-.02.1-.61h.97c.85.03,1.46.21,1.86.58s.59.92.59,1.67v2.41l.89.08v.48l-1.39.05Z"/>
    <path class="cls-6" d="M46.53,117.1c-.57,0-1.01-.16-1.32-.49-.31-.32-.47-.78-.47-1.37v-3.42h.65v3.42c0,.4.11.71.34.92s.54.32.94.32c.48,0,.84-.14,1.08-.43.24-.29.37-.77.37-1.45l.26,1.4h-.31c-.09.35-.28.62-.54.81-.27.19-.6.29-.99.29ZM48.11,115.54v-3.71h.65v3.75l-.65-.03ZM48.2,117.06l-.06-1.24-.02-.91h.65v1.55l.71.07v.48l-1.27.05Z"/>
    <path class="cls-6" d="M50.7,117.01v-5.18h.59l.06,1.09v4.08h-.65ZM54.11,117.01v-3.38c0-.41-.11-.73-.33-.95s-.52-.33-.91-.33c-1.02,0-1.53.58-1.53,1.74l-.31-1.31h.37c.08-.35.24-.61.49-.78.25-.17.6-.26,1.04-.26.58,0,1.03.17,1.35.5s.48.8.48,1.41v3.37h-.65Z"/>
    <path class="cls-6" d="M62.15,117.01v-5.18h.57l.08,1.09v4.08h-.65ZM64.15,117.01v-4.05c0-.44-.21-.66-.62-.66-.5,0-.74.31-.74.92l-.3-.74h.32c.09-.5.42-.74.98-.74.32,0,.55.09.72.28.16.19.24.47.24.84v4.15h-.6ZM66.11,117.01v-3.96c0-.5-.2-.76-.61-.76-.5,0-.75.31-.75.92l-.35-.74h.36c.04-.23.14-.42.3-.55.16-.13.38-.2.65-.2.35,0,.62.1.79.3.17.2.26.51.26.92v4.05h-.65Z"/>
    <path class="cls-6" d="M70.76,117.1c-.86,0-1.52-.24-1.99-.71s-.7-1.15-.7-2.02.2-1.49.59-1.95c.39-.46.95-.69,1.67-.69.67,0,1.19.21,1.56.62.37.42.55,1.01.55,1.78,0,.2,0,.37-.03.51h-3.82v-.56h3.22c0-.56-.13-.99-.39-1.3-.26-.3-.62-.46-1.09-.46-.52,0-.92.18-1.21.53s-.43.85-.43,1.49c0,.68.19,1.21.57,1.58.38.37.92.56,1.61.56.19,0,.39-.01.61-.04.21-.03.42-.06.61-.1l.09.6c-.22.05-.46.08-.71.11-.25.02-.49.03-.72.03Z"/>
    <path class="cls-6" d="M75.77,117.1c-.38,0-.7-.01-.97-.03-.27-.02-.51-.06-.72-.11l.08-.62c.33.05.63.09.88.12s.5.04.73.04c.64,0,1.1-.07,1.39-.2.29-.13.43-.35.43-.64,0-.21-.07-.37-.2-.5s-.35-.23-.64-.3l-1.16-.29c-.5-.13-.87-.3-1.09-.51s-.34-.49-.34-.83c0-.52.21-.9.63-1.13.42-.23,1.1-.35,2.04-.35.23,0,.44,0,.64.02.2.02.42.04.65.08l-.07.58c-.26-.03-.49-.04-.69-.05-.2,0-.38-.01-.55-.01-.69,0-1.2.07-1.51.2-.31.14-.47.35-.47.65,0,.18.08.33.23.45s.41.23.76.31l.93.22c.53.13.92.31,1.15.54s.36.53.36.92c0,.51-.2.88-.59,1.11-.39.23-1.03.35-1.9.35Z"/>
    <path class="cls-6" d="M85.52,110.28v-.6h1.72v.6h-1.72ZM88.89,117.1c-.59,0-1.03-.15-1.31-.46s-.42-.78-.42-1.43v-5.53h.65v5.52c0,.29.04.54.12.72.08.19.22.33.4.43s.42.14.72.14c.27,0,.6-.05,1-.16l.07.6c-.21.06-.42.1-.61.13-.2.03-.4.04-.62.04Z"/>
    <path class="cls-6" d="M91.37,110.28v-.6h1.72v.6h-1.72ZM94.75,117.1c-.59,0-1.03-.15-1.31-.46s-.42-.78-.42-1.43v-5.53h.65v5.52c0,.29.04.54.12.72.08.19.22.33.4.43s.42.14.72.14c.27,0,.6-.05,1-.16l.07.6c-.21.06-.42.1-.61.13-.2.03-.4.04-.62.04Z"/>
    <path class="cls-6" d="M100.06,117.1c-.86,0-1.52-.24-1.99-.71s-.7-1.15-.7-2.02.2-1.49.59-1.95c.39-.46.95-.69,1.67-.69.67,0,1.19.21,1.56.62.37.42.55,1.01.55,1.78,0,.2,0,.37-.03.51h-3.82v-.56h3.22c0-.56-.13-.99-.39-1.3-.26-.3-.62-.46-1.09-.46-.52,0-.92.18-1.21.53s-.43.85-.43,1.49c0,.68.19,1.21.57,1.58.38.37.92.56,1.61.56.19,0,.39-.01.61-.04.21-.03.42-.06.61-.1l.09.6c-.22.05-.46.08-.71.11-.25.02-.49.03-.72.03Z"/>
    <path class="cls-6" d="M103.44,117.01v-5.18h.59l.06,1.09v4.08h-.65ZM106.85,117.01v-3.38c0-.41-.11-.73-.33-.95s-.52-.33-.91-.33c-1.02,0-1.53.58-1.53,1.74l-.31-1.31h.37c.08-.35.24-.61.49-.78.25-.17.6-.26,1.04-.26.58,0,1.03.17,1.35.5s.48.8.48,1.41v3.37h-.65Z"/>
    <path class="cls-6" d="M111.33,117.1c-.69,0-1.23-.23-1.61-.7s-.58-1.13-.58-1.98.19-1.52.58-1.98c.38-.47.92-.7,1.61-.7s1.23.23,1.61.7c.38.47.57,1.13.57,1.98s-.19,1.51-.57,1.98c-.38.47-.92.7-1.61.7ZM111.33,116.49c.48,0,.86-.18,1.12-.54.26-.36.4-.87.4-1.53s-.13-1.18-.4-1.54c-.27-.36-.64-.54-1.12-.54s-.86.18-1.12.54c-.26.36-.4.87-.4,1.54s.13,1.17.4,1.53c.27.36.64.54,1.12.54Z"/>
    <path class="cls-6" d="M122.73,117.1c-.68,0-1.19-.22-1.54-.67-.35-.45-.53-1.1-.53-1.97s.18-1.58.53-2.04c.35-.46.87-.69,1.56-.69.46,0,.82.1,1.1.3.28.2.45.5.52.88h.36l-.3,1.43c0-.66-.13-1.17-.4-1.51-.27-.34-.65-.51-1.17-.51s-.89.18-1.16.54c-.26.36-.39.9-.39,1.6s.13,1.18.39,1.53c.26.35.65.52,1.16.52s.9-.17,1.16-.51.4-.84.4-1.5l.35,1.38h-.4c-.07.38-.23.68-.51.9s-.65.33-1.14.33ZM124.53,117.06l-.1-1.25v-6.13h.65v7.34l-.55.03Z"/>
    <path class="cls-6" d="M129.36,117.1c-.86,0-1.52-.24-1.99-.71s-.7-1.15-.7-2.02.2-1.49.59-1.95c.39-.46.95-.69,1.67-.69.67,0,1.19.21,1.56.62.37.42.55,1.01.55,1.78,0,.2,0,.37-.03.51h-3.82v-.56h3.22c0-.56-.13-.99-.39-1.3-.26-.3-.62-.46-1.09-.46-.52,0-.92.18-1.21.53s-.43.85-.43,1.49c0,.68.19,1.21.57,1.58.38.37.92.56,1.61.56.19,0,.39-.01.61-.04.21-.03.42-.06.61-.1l.09.6c-.22.05-.46.08-.71.11-.25.02-.49.03-.72.03Z"/>
    <path class="cls-6" d="M139.88,117.1c-.52,0-.92-.12-1.21-.36-.29-.24-.43-.59-.43-1.03,0-.54.19-.95.58-1.23s.95-.42,1.69-.42c.35,0,.67.02.96.05.29.03.52.08.7.15l-.1.5c-.21-.07-.46-.11-.75-.12-.29-.01-.56-.02-.83-.02-1.07,0-1.61.35-1.61,1.04,0,.27.09.48.28.63.18.15.44.22.77.22.36,0,.67-.06.95-.18.27-.12.48-.29.64-.49s.23-.43.23-.67v-.6l.34,1.33h-.42l.11-.12c-.02.26-.11.49-.28.69-.17.2-.39.35-.67.46-.28.11-.6.16-.95.16ZM141.88,117.06l-.08-1.87-.06-.06v-1.19c0-.53-.14-.91-.43-1.15-.29-.24-.73-.37-1.34-.38l-1.1-.02.1-.61h.97c.85.03,1.46.21,1.86.58s.59.92.59,1.67v2.41l.89.08v.48l-1.39.05Z"/>
    <path class="cls-6" d="M144.02,117.01v-.6h3.38v.6h-3.38ZM144.22,112.43v-.6h1.46l.03.6h-1.49ZM145.29,117.01v-5.18h.52l.13,1.48v3.69h-.65ZM145.94,114.78l-.3-1.62h.36c.12-.95.62-1.43,1.52-1.43.55,0,.95.15,1.2.46.25.31.37.8.37,1.48h-.65c0-.48-.08-.82-.24-1.04-.16-.21-.42-.32-.77-.32-.5,0-.88.21-1.13.64s-.37,1.03-.37,1.82Z"/>
    <path class="cls-6" d="M149.83,112.43v-.6h4.53v.6h-4.53ZM151.32,114.57v-4.3h.65v4.3h-.65ZM153.28,117.1c-.67,0-1.16-.17-1.48-.51s-.48-.87-.48-1.57v-.84h.65v.83c0,.5.11.88.34,1.12s.58.37,1.06.37c.19,0,.37,0,.55-.03.18-.02.36-.04.56-.07l.07.59c-.21.04-.42.07-.63.09s-.42.03-.65.03Z"/>
    <path class="cls-6" d="M156.13,117.01v-.6h2.19v.6h-2.19ZM156.42,112.43v-.6h2.45v.6h-2.45ZM158.49,110.7c-.16,0-.29-.06-.4-.17s-.17-.24-.17-.4.06-.29.17-.4.24-.17.4-.17.29.06.4.17.17.24.17.4-.06.29-.17.4-.24.17-.4.17ZM158.22,117.01v-4.92h.65v4.92h-.65ZM158.77,117.01v-.6h1.81v.6h-1.81Z"/>
    <path class="cls-6" d="M163.66,117.1c-.38,0-.7-.01-.97-.03-.27-.02-.51-.06-.72-.11l.08-.62c.33.05.63.09.88.12s.5.04.73.04c.64,0,1.1-.07,1.39-.2.29-.13.43-.35.43-.64,0-.21-.07-.37-.2-.5s-.35-.23-.64-.3l-1.16-.29c-.5-.13-.87-.3-1.09-.51s-.34-.49-.34-.83c0-.52.21-.9.63-1.13.42-.23,1.1-.35,2.04-.35.23,0,.44,0,.64.02.2.02.42.04.65.08l-.07.58c-.26-.03-.49-.04-.69-.05-.2,0-.38-.01-.55-.01-.69,0-1.2.07-1.51.2-.31.14-.47.35-.47.65,0,.18.08.33.23.45s.41.23.76.31l.93.22c.53.13.92.31,1.15.54s.36.53.36.92c0,.51-.2.88-.59,1.11-.39.23-1.03.35-1.9.35Z"/>
    <path class="cls-6" d="M167.41,112.43v-.6h4.53v.6h-4.53ZM168.9,114.57v-4.3h.65v4.3h-.65ZM170.86,117.1c-.67,0-1.16-.17-1.48-.51s-.48-.87-.48-1.57v-.84h.65v.83c0,.5.11.88.34,1.12s.58.37,1.06.37c.19,0,.37,0,.55-.03.18-.02.36-.04.56-.07l.07.59c-.21.04-.42.07-.63.09s-.42.03-.65.03Z"/>
    <path class="cls-6" d="M175.03,117.1c-.52,0-.92-.12-1.21-.36-.29-.24-.43-.59-.43-1.03,0-.54.19-.95.58-1.23s.95-.42,1.69-.42c.35,0,.67.02.96.05.29.03.52.08.7.15l-.1.5c-.21-.07-.46-.11-.75-.12-.29-.01-.56-.02-.83-.02-1.07,0-1.61.35-1.61,1.04,0,.27.09.48.28.63.18.15.44.22.77.22.36,0,.67-.06.95-.18.27-.12.48-.29.64-.49s.23-.43.23-.67v-.6l.34,1.33h-.42l.11-.12c-.02.26-.11.49-.28.69-.17.2-.39.35-.67.46-.28.11-.6.16-.95.16ZM177.04,117.06l-.08-1.87-.06-.06v-1.19c0-.53-.14-.91-.43-1.15-.29-.24-.73-.37-1.34-.38l-1.1-.02.1-.61h.97c.85.03,1.46.21,1.86.58s.59.92.59,1.67v2.41l.89.08v.48l-1.39.05Z"/>
    <path class="cls-6" d="M181.24,117.1c-.38,0-.7-.01-.97-.03-.27-.02-.51-.06-.72-.11l.08-.62c.33.05.63.09.88.12s.5.04.73.04c.64,0,1.1-.07,1.39-.2.29-.13.43-.35.43-.64,0-.21-.07-.37-.2-.5s-.35-.23-.64-.3l-1.16-.29c-.5-.13-.87-.3-1.09-.51s-.34-.49-.34-.83c0-.52.21-.9.63-1.13.42-.23,1.1-.35,2.04-.35.23,0,.44,0,.64.02.2.02.42.04.65.08l-.07.58c-.26-.03-.49-.04-.69-.05-.2,0-.38-.01-.55-.01-.69,0-1.2.07-1.51.2-.31.14-.47.35-.47.65,0,.18.08.33.23.45s.41.23.76.31l.93.22c.53.13.92.31,1.15.54s.36.53.36.92c0,.51-.2.88-.59,1.11-.39.23-1.03.35-1.9.35Z"/>
    <path class="cls-6" d="M186.81,119.14l.39-3.37h.69l-.47,3.37h-.61Z"/>
    <path class="cls-6" d="M56.16,128.1c-.87,0-1.54-.23-2-.69s-.69-1.13-.69-2.01.22-1.5.66-1.97c.44-.47,1.07-.7,1.89-.7.49,0,.9.09,1.25.28.35.19.59.45.74.79l-.54.37c-.17-.3-.38-.51-.64-.64-.26-.13-.54-.2-.85-.2-.58,0-1.04.17-1.36.52-.33.35-.49.85-.49,1.49,0,.7.18,1.23.53,1.59.35.36.87.54,1.55.54.26,0,.51-.01.77-.04.26-.03.5-.06.75-.11l.08.6c-.27.07-.54.11-.82.13-.28.02-.55.03-.83.03Z"/>
    <path class="cls-6" d="M59.45,128.01v-.6h2.19v.6h-2.19ZM59.74,123.43v-.6h2.45v.6h-2.45ZM61.81,121.7c-.16,0-.29-.06-.4-.17s-.17-.24-.17-.4.06-.29.17-.4.24-.17.4-.17.29.06.4.17.17.24.17.4-.06.29-.17.4-.24.17-.4.17ZM61.54,128.01v-4.92h.65v4.92h-.65ZM62.09,128.01v-.6h1.81v.6h-1.81Z"/>
    <path class="cls-6" d="M65.35,128.01v-5.18h.59l.06,1.09v4.08h-.65ZM68.76,128.01v-3.38c0-.41-.11-.73-.33-.95s-.52-.33-.91-.33c-1.02,0-1.53.58-1.53,1.74l-.31-1.31h.37c.08-.35.24-.61.49-.78.25-.17.6-.26,1.04-.26.58,0,1.03.17,1.35.5s.48.8.48,1.41v3.37h-.65Z"/>
    <path class="cls-6" d="M73.69,128.1c-.86,0-1.52-.24-1.99-.71s-.7-1.15-.7-2.02.2-1.49.59-1.95c.39-.46.95-.69,1.67-.69.67,0,1.19.21,1.56.62.37.42.55,1.01.55,1.78,0,.2,0,.37-.03.51h-3.82v-.56h3.22c0-.56-.13-.99-.39-1.3-.26-.3-.62-.46-1.09-.46-.52,0-.92.18-1.21.53s-.43.85-.43,1.49c0,.68.19,1.21.57,1.58.38.37.92.56,1.61.56.19,0,.39-.01.61-.04.21-.03.42-.06.61-.1l.09.6c-.22.05-.46.08-.71.11-.25.02-.49.03-.72.03Z"/>
    <path class="cls-6" d="M78.35,128.1c-.52,0-.92-.12-1.21-.36-.29-.24-.43-.59-.43-1.03,0-.54.19-.95.58-1.23s.95-.42,1.69-.42c.35,0,.67.02.96.05.29.03.52.08.7.15l-.1.5c-.21-.07-.46-.11-.75-.12-.29-.01-.56-.02-.83-.02-1.07,0-1.61.35-1.61,1.04,0,.27.09.48.28.63.18.15.44.22.77.22.36,0,.67-.06.95-.18.27-.12.48-.29.64-.49s.23-.43.23-.67v-.6l.34,1.33h-.42l.11-.12c-.02.26-.11.49-.28.69-.17.2-.39.35-.67.46-.28.11-.6.16-.95.16ZM80.36,128.06l-.08-1.87-.06-.06v-1.19c0-.53-.14-.91-.43-1.15-.29-.24-.73-.37-1.34-.38l-1.1-.02.1-.61h.97c.85.03,1.46.21,1.86.58s.59.92.59,1.67v2.41l.89.08v.48l-1.39.05Z"/>
    <path class="cls-6" d="M84.56,128.1c-.38,0-.7-.01-.97-.03-.27-.02-.51-.06-.72-.11l.08-.62c.33.05.63.09.88.12s.5.04.73.04c.64,0,1.1-.07,1.39-.2.29-.13.43-.35.43-.64,0-.21-.07-.37-.2-.5s-.35-.23-.64-.3l-1.16-.29c-.5-.13-.87-.3-1.09-.51s-.34-.49-.34-.83c0-.52.21-.9.63-1.13.42-.23,1.1-.35,2.04-.35.23,0,.44,0,.64.02.2.02.42.04.65.08l-.07.58c-.26-.03-.49-.04-.69-.05-.2,0-.38-.01-.55-.01-.69,0-1.2.07-1.51.2-.31.14-.47.35-.47.65,0,.18.08.33.23.45s.41.23.76.31l.93.22c.53.13.92.31,1.15.54s.36.53.36.92c0,.51-.2.88-.59,1.11-.39.23-1.03.35-1.9.35Z"/>
    <path class="cls-6" d="M88.31,123.43v-.6h4.53v.6h-4.53ZM89.8,125.57v-4.3h.65v4.3h-.65ZM91.76,128.1c-.67,0-1.16-.17-1.48-.51s-.48-.87-.48-1.57v-.84h.65v.83c0,.5.11.88.34,1.12s.58.37,1.06.37c.19,0,.37,0,.55-.03.18-.02.36-.04.56-.07l.07.59c-.21.04-.42.07-.63.09s-.42.03-.65.03Z"/>
    <path class="cls-6" d="M95.93,128.1c-.52,0-.92-.12-1.21-.36-.29-.24-.43-.59-.43-1.03,0-.54.19-.95.58-1.23s.95-.42,1.69-.42c.35,0,.67.02.96.05.29.03.52.08.7.15l-.1.5c-.21-.07-.46-.11-.75-.12-.29-.01-.56-.02-.83-.02-1.07,0-1.61.35-1.61,1.04,0,.27.09.48.28.63.18.15.44.22.77.22.36,0,.67-.06.95-.18.27-.12.48-.29.64-.49s.23-.43.23-.67v-.6l.34,1.33h-.42l.11-.12c-.02.26-.11.49-.28.69-.17.2-.39.35-.67.46-.28.11-.6.16-.95.16ZM97.94,128.06l-.08-1.87-.06-.06v-1.19c0-.53-.14-.91-.43-1.15-.29-.24-.73-.37-1.34-.38l-1.1-.02.1-.61h.97c.85.03,1.46.21,1.86.58s.59.92.59,1.67v2.41l.89.08v.48l-1.39.05Z"/>
    <path class="cls-6" d="M102.14,128.1c-.38,0-.7-.01-.97-.03-.27-.02-.51-.06-.72-.11l.08-.62c.33.05.63.09.88.12s.5.04.73.04c.64,0,1.1-.07,1.39-.2.29-.13.43-.35.43-.64,0-.21-.07-.37-.2-.5s-.35-.23-.64-.3l-1.16-.29c-.5-.13-.87-.3-1.09-.51s-.34-.49-.34-.83c0-.52.21-.9.63-1.13.42-.23,1.1-.35,2.04-.35.23,0,.44,0,.64.02.2.02.42.04.65.08l-.07.58c-.26-.03-.49-.04-.69-.05-.2,0-.38-.01-.55-.01-.69,0-1.2.07-1.51.2-.31.14-.47.35-.47.65,0,.18.08.33.23.45s.41.23.76.31l.93.22c.53.13.92.31,1.15.54s.36.53.36.92c0,.51-.2.88-.59,1.11-.39.23-1.03.35-1.9.35Z"/>
    <path class="cls-6" d="M113.87,128.01l-2.19-5.18h.7l1.91,4.62h.12v.55h-.55ZM111.77,130.35l-.03-.61.49-.07c.33-.05.61-.16.87-.33.25-.17.48-.42.69-.74.21-.33.41-.76.61-1.3l1.6-4.47h.7l-1.78,4.72c-.23.62-.48,1.12-.72,1.5s-.52.67-.82.86-.64.31-1.03.37l-.58.07Z"/>
    <path class="cls-6" d="M126.43,128.1c-.86,0-1.52-.24-1.99-.71s-.7-1.15-.7-2.02.2-1.49.59-1.95c.39-.46.95-.69,1.67-.69.67,0,1.19.21,1.56.62.37.42.55,1.01.55,1.78,0,.2,0,.37-.03.51h-3.82v-.56h3.22c0-.56-.13-.99-.39-1.3-.26-.3-.62-.46-1.09-.46-.52,0-.92.18-1.21.53s-.43.85-.43,1.49c0,.68.19,1.21.57,1.58.38.37.92.56,1.61.56.19,0,.39-.01.61-.04.21-.03.42-.06.61-.1l.09.6c-.22.05-.46.08-.71.11-.25.02-.49.03-.72.03Z"/>
    <path class="cls-6" d="M131.43,128.1c-.38,0-.7-.01-.97-.03-.27-.02-.51-.06-.72-.11l.08-.62c.33.05.63.09.88.12s.5.04.73.04c.64,0,1.1-.07,1.39-.2.29-.13.43-.35.43-.64,0-.21-.07-.37-.2-.5s-.35-.23-.64-.3l-1.16-.29c-.5-.13-.87-.3-1.09-.51s-.34-.49-.34-.83c0-.52.21-.9.63-1.13.42-.23,1.1-.35,2.04-.35.23,0,.44,0,.64.02.2.02.42.04.65.08l-.07.58c-.26-.03-.49-.04-.69-.05-.2,0-.38-.01-.55-.01-.69,0-1.2.07-1.51.2-.31.14-.47.35-.47.65,0,.18.08.33.23.45s.41.23.76.31l.93.22c.53.13.92.31,1.15.54s.36.53.36.92c0,.51-.2.88-.59,1.11-.39.23-1.03.35-1.9.35Z"/>
    <path class="cls-6" d="M138.19,128.1c-.87,0-1.54-.23-2-.69s-.69-1.13-.69-2.01.22-1.5.66-1.97c.44-.47,1.07-.7,1.89-.7.49,0,.9.09,1.25.28.35.19.59.45.74.79l-.54.37c-.17-.3-.38-.51-.64-.64-.26-.13-.54-.2-.85-.2-.58,0-1.04.17-1.36.52-.33.35-.49.85-.49,1.49,0,.7.18,1.23.53,1.59.35.36.87.54,1.55.54.26,0,.51-.01.77-.04.26-.03.5-.06.75-.11l.08.6c-.27.07-.54.11-.82.13-.28.02-.55.03-.83.03Z"/>
    <path class="cls-6" d="M141.09,128.01v-.6h3.38v.6h-3.38ZM141.29,123.43v-.6h1.46l.03.6h-1.49ZM142.36,128.01v-5.18h.52l.13,1.48v3.69h-.65ZM143.01,125.78l-.3-1.62h.36c.12-.95.62-1.43,1.52-1.43.55,0,.95.15,1.2.46.25.31.37.8.37,1.48h-.65c0-.48-.08-.82-.24-1.04-.16-.21-.42-.32-.77-.32-.5,0-.88.21-1.13.64s-.37,1.03-.37,1.82Z"/>
    <path class="cls-6" d="M147.34,128.01v-.6h2.19v.6h-2.19ZM147.63,123.43v-.6h2.45v.6h-2.45ZM149.7,121.7c-.16,0-.29-.06-.4-.17s-.17-.24-.17-.4.06-.29.17-.4.24-.17.4-.17.29.06.4.17.17.24.17.4-.06.29-.17.4-.24.17-.4.17ZM149.43,128.01v-4.92h.65v4.92h-.65ZM149.98,128.01v-.6h1.81v.6h-1.81Z"/>
    <path class="cls-6" d="M152.76,123.43v-.6h4.53v.6h-4.53ZM154.25,125.57v-4.3h.65v4.3h-.65ZM156.21,128.1c-.67,0-1.16-.17-1.48-.51s-.48-.87-.48-1.57v-.84h.65v.83c0,.5.11.88.34,1.12s.58.37,1.06.37c.19,0,.37,0,.55-.03.18-.02.36-.04.56-.07l.07.59c-.21.04-.42.07-.63.09s-.42.03-.65.03Z"/>
    <path class="cls-6" d="M161.13,128.1c-.69,0-1.23-.23-1.61-.7s-.58-1.13-.58-1.98.19-1.52.58-1.98c.38-.47.92-.7,1.61-.7s1.23.23,1.61.7c.38.47.57,1.13.57,1.98s-.19,1.51-.57,1.98c-.38.47-.92.7-1.61.7ZM161.13,127.49c.48,0,.86-.18,1.12-.54.26-.36.4-.87.4-1.53s-.13-1.18-.4-1.54c-.27-.36-.64-.54-1.12-.54s-.86.18-1.12.54c-.26.36-.4.87-.4,1.54s.13,1.17.4,1.53c.27.36.64.54,1.12.54Z"/>
    <path class="cls-6" d="M164.53,128.01v-.6h3.38v.6h-3.38ZM164.72,123.43v-.6h1.46l.03.6h-1.49ZM165.79,128.01v-5.18h.52l.13,1.48v3.69h-.65ZM166.45,125.78l-.3-1.62h.36c.12-.95.62-1.43,1.52-1.43.55,0,.95.15,1.2.46.25.31.37.8.37,1.48h-.65c0-.48-.08-.82-.24-1.04-.16-.21-.42-.32-.77-.32-.5,0-.88.21-1.13.64s-.37,1.03-.37,1.82Z"/>
    <path class="cls-6" d="M173.3,128.1c-.86,0-1.52-.24-1.99-.71s-.7-1.15-.7-2.02.2-1.49.59-1.95c.39-.46.95-.69,1.67-.69.67,0,1.19.21,1.56.62.37.42.55,1.01.55,1.78,0,.2,0,.37-.03.51h-3.82v-.56h3.22c0-.56-.13-.99-.39-1.3-.26-.3-.62-.46-1.09-.46-.52,0-.92.18-1.21.53s-.43.85-.43,1.49c0,.68.19,1.21.57,1.58.38.37.92.56,1.61.56.19,0,.39-.01.61-.04.21-.03.42-.06.61-.1l.09.6c-.22.05-.46.08-.71.11-.25.02-.49.03-.72.03Z"/>
    <path class="cls-6" d="M178.31,128.1c-.38,0-.7-.01-.97-.03-.27-.02-.51-.06-.72-.11l.08-.62c.33.05.63.09.88.12s.5.04.73.04c.64,0,1.1-.07,1.39-.2.29-.13.43-.35.43-.64,0-.21-.07-.37-.2-.5s-.35-.23-.64-.3l-1.16-.29c-.5-.13-.87-.3-1.09-.51s-.34-.49-.34-.83c0-.52.21-.9.63-1.13.42-.23,1.1-.35,2.04-.35.23,0,.44,0,.64.02.2.02.42.04.65.08l-.07.58c-.26-.03-.49-.04-.69-.05-.2,0-.38-.01-.55-.01-.69,0-1.2.07-1.51.2-.31.14-.47.35-.47.65,0,.18.08.33.23.45s.41.23.76.31l.93.22c.53.13.92.31,1.15.54s.36.53.36.92c0,.51-.2.88-.59,1.11-.39.23-1.03.35-1.9.35Z"/>
    <path class="cls-6" d="M49.53,139.1c-.67,0-1.19-.23-1.56-.69-.37-.46-.55-1.11-.55-1.95s.18-1.54.55-2.02c.37-.48.89-.71,1.57-.71.43,0,.78.09,1.05.27.27.18.45.43.53.77h.36l-.3,1.26c0-.55-.13-.97-.4-1.27-.27-.29-.65-.44-1.14-.44s-.88.19-1.16.56c-.27.37-.41.9-.41,1.58s.14,1.16.41,1.52c.27.35.66.53,1.17.53s.87-.1,1.14-.3.4-.49.4-.86v-.57l.35,1.43h-.41c-.07.29-.24.51-.52.67-.28.16-.64.23-1.07.23ZM51.18,141.25v-6.33l.1-1.09h.55v7.42h-.65Z"/>
    <path class="cls-6" d="M55.32,139.1c-.57,0-1.01-.16-1.32-.49-.31-.32-.47-.78-.47-1.37v-3.42h.65v3.42c0,.4.11.71.34.92s.54.32.94.32c.48,0,.84-.14,1.08-.43.24-.29.37-.77.37-1.45l.26,1.4h-.31c-.09.35-.28.62-.54.81-.27.19-.6.29-.99.29ZM56.9,137.54v-3.71h.65v3.75l-.65-.03ZM56.99,139.06l-.06-1.24-.02-.91h.65v1.55l.71.07v.48l-1.27.05Z"/>
    <path class="cls-6" d="M61.98,139.1c-.86,0-1.52-.24-1.99-.71s-.7-1.15-.7-2.02.2-1.49.59-1.95c.39-.46.95-.69,1.67-.69.67,0,1.19.21,1.56.62.37.42.55,1.01.55,1.78,0,.2,0,.37-.03.51h-3.82v-.56h3.22c0-.56-.13-.99-.39-1.3-.26-.3-.62-.46-1.09-.46-.52,0-.92.18-1.21.53s-.43.85-.43,1.49c0,.68.19,1.21.57,1.58.38.37.92.56,1.61.56.19,0,.39-.01.61-.04.21-.03.42-.06.61-.1l.09.6c-.22.05-.46.08-.71.11-.25.02-.49.03-.72.03Z"/>
    <path class="cls-6" d="M71.17,139.01v-.6h2.19v.6h-2.19ZM71.46,134.43v-.6h2.45v.6h-2.45ZM73.53,132.7c-.16,0-.29-.06-.4-.17s-.17-.24-.17-.4.06-.29.17-.4.24-.17.4-.17.29.06.4.17.17.24.17.4-.06.29-.17.4-.24.17-.4.17ZM73.25,139.01v-4.92h.65v4.92h-.65ZM73.81,139.01v-.6h1.81v.6h-1.81Z"/>
    <path class="cls-6" d="M76.73,132.28v-.6h1.72v.6h-1.72ZM80.1,139.1c-.59,0-1.03-.15-1.31-.46s-.42-.78-.42-1.43v-5.53h.65v5.52c0,.29.04.54.12.72.08.19.22.33.4.43s.42.14.72.14c.27,0,.6-.05,1-.16l.07.6c-.21.06-.42.1-.61.13-.2.03-.4.04-.62.04Z"/>
    <path class="cls-6" d="M84.61,139.1c-.57,0-1.01-.16-1.32-.49-.31-.32-.47-.78-.47-1.37v-3.42h.65v3.42c0,.4.11.71.34.92s.54.32.94.32c.48,0,.84-.14,1.08-.43.24-.29.37-.77.37-1.45l.26,1.4h-.31c-.09.35-.28.62-.54.81-.27.19-.6.29-.99.29ZM86.19,137.54v-3.71h.65v3.75l-.65-.03ZM86.28,139.06l-.06-1.24-.02-.91h.65v1.55l.71.07v.48l-1.27.05Z"/>
    <path class="cls-6" d="M88.51,139.01v-5.18h.57l.08,1.09v4.08h-.65ZM90.52,139.01v-4.05c0-.44-.21-.66-.62-.66-.5,0-.74.31-.74.92l-.3-.74h.32c.09-.5.42-.74.98-.74.32,0,.55.09.72.28.16.19.24.47.24.84v4.15h-.6ZM92.47,139.01v-3.96c0-.5-.2-.76-.61-.76-.5,0-.75.31-.75.92l-.35-.74h.36c.04-.23.14-.42.3-.55.16-.13.38-.2.65-.2.35,0,.62.1.79.3.17.2.26.51.26.92v4.05h-.65Z"/>
    <path class="cls-6" d="M94.61,139.01v-.6h2.19v.6h-2.19ZM94.9,134.43v-.6h2.45v.6h-2.45ZM96.97,132.7c-.16,0-.29-.06-.4-.17s-.17-.24-.17-.4.06-.29.17-.4.24-.17.4-.17.29.06.4.17.17.24.17.4-.06.29-.17.4-.24.17-.4.17ZM96.69,139.01v-4.92h.65v4.92h-.65ZM97.24,139.01v-.6h1.81v.6h-1.81Z"/>
    <path class="cls-6" d="M100.51,139.01v-5.18h.59l.06,1.09v4.08h-.65ZM103.92,139.01v-3.38c0-.41-.11-.73-.33-.95s-.52-.33-.91-.33c-1.02,0-1.53.58-1.53,1.74l-.31-1.31h.37c.08-.35.24-.61.49-.78.25-.17.6-.26,1.04-.26.58,0,1.03.17,1.35.5s.48.8.48,1.41v3.37h-.65Z"/>
    <path class="cls-6" d="M107.65,139.1c-.52,0-.92-.12-1.21-.36-.29-.24-.43-.59-.43-1.03,0-.54.19-.95.58-1.23s.95-.42,1.69-.42c.35,0,.67.02.96.05.29.03.52.08.7.15l-.1.5c-.21-.07-.46-.11-.75-.12-.29-.01-.56-.02-.83-.02-1.07,0-1.61.35-1.61,1.04,0,.27.09.48.28.63.18.15.44.22.77.22.36,0,.67-.06.95-.18.27-.12.48-.29.64-.49s.23-.43.23-.67v-.6l.34,1.33h-.42l.11-.12c-.02.26-.11.49-.28.69-.17.2-.39.35-.67.46-.28.11-.6.16-.95.16ZM109.66,139.06l-.08-1.87-.06-.06v-1.19c0-.53-.14-.91-.43-1.15-.29-.24-.73-.37-1.34-.38l-1.1-.02.1-.61h.97c.85.03,1.46.21,1.86.58s.59.92.59,1.67v2.41l.89.08v.48l-1.39.05Z"/>
    <path class="cls-6" d="M111.79,139.01v-.6h3.38v.6h-3.38ZM111.99,134.43v-.6h1.46l.03.6h-1.49ZM113.06,139.01v-5.18h.52l.13,1.48v3.69h-.65ZM113.71,136.78l-.3-1.62h.36c.12-.95.62-1.43,1.52-1.43.55,0,.95.15,1.2.46.25.31.37.8.37,1.48h-.65c0-.48-.08-.82-.24-1.04-.16-.21-.42-.32-.77-.32-.5,0-.88.21-1.13.64s-.37,1.03-.37,1.82Z"/>
    <path class="cls-6" d="M119.37,139.1c-.52,0-.92-.12-1.21-.36-.29-.24-.43-.59-.43-1.03,0-.54.19-.95.58-1.23s.95-.42,1.69-.42c.35,0,.67.02.96.05.29.03.52.08.7.15l-.1.5c-.21-.07-.46-.11-.75-.12-.29-.01-.56-.02-.83-.02-1.07,0-1.61.35-1.61,1.04,0,.27.09.48.28.63.18.15.44.22.77.22.36,0,.67-.06.95-.18.27-.12.48-.29.64-.49s.23-.43.23-.67v-.6l.34,1.33h-.42l.11-.12c-.02.26-.11.49-.28.69-.17.2-.39.35-.67.46-.28.11-.6.16-.95.16ZM121.37,139.06l-.08-1.87-.06-.06v-1.19c0-.53-.14-.91-.43-1.15-.29-.24-.73-.37-1.34-.38l-1.1-.02.1-.61h.97c.85.03,1.46.21,1.86.58s.59.92.59,1.67v2.41l.89.08v.48l-1.39.05ZM119.67,132.91l1.06-1.86h.7l-1.12,1.86h-.64Z"/>
    <path class="cls-6" d="M123.94,139.01v-5.18h.59l.06,1.09v4.08h-.65ZM127.36,139.01v-3.38c0-.41-.11-.73-.33-.95s-.52-.33-.91-.33c-1.02,0-1.53.58-1.53,1.74l-.31-1.31h.37c.08-.35.24-.61.49-.78.25-.17.6-.26,1.04-.26.58,0,1.03.17,1.35.5s.48.8.48,1.41v3.37h-.65Z"/>
    <path class="cls-6" d="M135.18,134.43v-.6h4.53v.6h-4.53ZM136.67,136.57v-4.3h.65v4.3h-.65ZM138.63,139.1c-.67,0-1.16-.17-1.48-.51s-.48-.87-.48-1.57v-.84h.65v.83c0,.5.11.88.34,1.12s.58.37,1.06.37c.19,0,.37,0,.55-.03.18-.02.36-.04.56-.07l.07.59c-.21.04-.42.07-.63.09s-.42.03-.65.03Z"/>
    <path class="cls-6" d="M143.21,139.1c-.57,0-1.01-.16-1.32-.49-.31-.32-.47-.78-.47-1.37v-3.42h.65v3.42c0,.4.11.71.34.92s.54.32.94.32c.48,0,.84-.14,1.08-.43.24-.29.37-.77.37-1.45l.26,1.4h-.31c-.09.35-.28.62-.54.81-.27.19-.6.29-.99.29ZM144.79,137.54v-3.71h.65v3.75l-.65-.03ZM144.88,139.06l-.06-1.24-.02-.91h.65v1.55l.71.07v.48l-1.27.05Z"/>
    <path class="cls-6" d="M149.01,139.1c-.38,0-.7-.01-.97-.03-.27-.02-.51-.06-.72-.11l.08-.62c.33.05.63.09.88.12s.5.04.73.04c.64,0,1.1-.07,1.39-.2.29-.13.43-.35.43-.64,0-.21-.07-.37-.2-.5s-.35-.23-.64-.3l-1.16-.29c-.5-.13-.87-.3-1.09-.51s-.34-.49-.34-.83c0-.52.21-.9.63-1.13.42-.23,1.1-.35,2.04-.35.23,0,.44,0,.64.02.2.02.42.04.65.08l-.07.58c-.26-.03-.49-.04-.69-.05-.2,0-.38-.01-.55-.01-.69,0-1.2.07-1.51.2-.31.14-.47.35-.47.65,0,.18.08.33.23.45s.41.23.76.31l.93.22c.53.13.92.31,1.15.54s.36.53.36.92c0,.51-.2.88-.59,1.11-.39.23-1.03.35-1.9.35Z"/>
    <path class="cls-6" d="M160.81,139.1c-.68,0-1.19-.22-1.54-.67-.35-.45-.53-1.1-.53-1.97s.18-1.58.53-2.04c.35-.46.87-.69,1.56-.69.46,0,.82.1,1.1.3.28.2.45.5.52.88h.36l-.3,1.43c0-.66-.13-1.17-.4-1.51-.27-.34-.65-.51-1.17-.51s-.89.18-1.16.54c-.26.36-.39.9-.39,1.6s.13,1.18.39,1.53c.26.35.65.52,1.16.52s.9-.17,1.16-.51.4-.84.4-1.5l.35,1.38h-.4c-.07.38-.23.68-.51.9s-.65.33-1.14.33ZM162.62,139.06l-.1-1.25v-6.13h.65v7.34l-.55.03Z"/>
    <path class="cls-6" d="M164.92,139.01v-.6h2.19v.6h-2.19ZM165.21,134.43v-.6h2.45v.6h-2.45ZM166.89,132.91l1.06-1.86h.7l-1.12,1.86h-.64ZM167,139.01v-5.08h.65v5.08h-.65ZM167.56,139.01v-.6h1.81v.6h-1.81Z"/>
    <path class="cls-6" d="M172.1,139.1c-.52,0-.92-.12-1.21-.36-.29-.24-.43-.59-.43-1.03,0-.54.19-.95.58-1.23s.95-.42,1.69-.42c.35,0,.67.02.96.05.29.03.52.08.7.15l-.1.5c-.21-.07-.46-.11-.75-.12-.29-.01-.56-.02-.83-.02-1.07,0-1.61.35-1.61,1.04,0,.27.09.48.28.63.18.15.44.22.77.22.36,0,.67-.06.95-.18.27-.12.48-.29.64-.49s.23-.43.23-.67v-.6l.34,1.33h-.42l.11-.12c-.02.26-.11.49-.28.69-.17.2-.39.35-.67.46-.28.11-.6.16-.95.16ZM174.11,139.06l-.08-1.87-.06-.06v-1.19c0-.53-.14-.91-.43-1.15-.29-.24-.73-.37-1.34-.38l-1.1-.02.1-.61h.97c.85.03,1.46.21,1.86.58s.59.92.59,1.67v2.41l.89.08v.48l-1.39.05Z"/>
    <path class="cls-6" d="M178.31,139.1c-.38,0-.7-.01-.97-.03-.27-.02-.51-.06-.72-.11l.08-.62c.33.05.63.09.88.12s.5.04.73.04c.64,0,1.1-.07,1.39-.2.29-.13.43-.35.43-.64,0-.21-.07-.37-.2-.5s-.35-.23-.64-.3l-1.16-.29c-.5-.13-.87-.3-1.09-.51s-.34-.49-.34-.83c0-.52.21-.9.63-1.13.42-.23,1.1-.35,2.04-.35.23,0,.44,0,.64.02.2.02.42.04.65.08l-.07.58c-.26-.03-.49-.04-.69-.05-.2,0-.38-.01-.55-.01-.69,0-1.2.07-1.51.2-.31.14-.47.35-.47.65,0,.18.08.33.23.45s.41.23.76.31l.93.22c.53.13.92.31,1.15.54s.36.53.36.92c0,.51-.2.88-.59,1.11-.39.23-1.03.35-1.9.35Z"/>
    <path class="cls-6" d="M184.57,139.1c-.16,0-.29-.06-.4-.17s-.17-.24-.17-.4.06-.29.17-.4.24-.17.4-.17.29.06.4.17.17.24.17.4-.06.29-.17.4-.24.17-.4.17Z"/>
    <path class="cls-6" d="M57.42,155.68c.3,0,.55.1.76.31s.31.46.31.75-.1.55-.31.76-.46.31-.76.31-.55-.1-.76-.31-.31-.46-.31-.76.1-.54.31-.75.46-.31.76-.31ZM56.52,164.17l.19-5.12h1.39l.22,5.12h-1.8Z"/>
    <path class="cls-6" d="M61.77,162.01v-8.32h1.55v8.32h-1.55ZM61.77,155.11v-1.42h5.71v1.42h-5.71ZM61.77,158.56v-1.43h4.65v1.43h-4.65ZM61.77,162.01v-1.42h5.71v1.42h-5.71Z"/>
    <path class="cls-6" d="M72.63,162.01l-1.59-2.64-2.6-3.57h1.89l1.62,2.74,2.57,3.47h-1.89ZM68.44,162.01l2.57-3.47,1.62-2.74h1.89l-2.67,3.57-1.52,2.64h-1.89Z"/>
    <path class="cls-6" d="M75.88,164.7v-8.91h1.47l.12,1.31v7.59h-1.59ZM79.13,162.12c-.43,0-.78-.1-1.04-.31s-.42-.52-.49-.93h-.55l.42-1.97c0,.6.09,1.04.27,1.31s.49.41.94.41c.41,0,.73-.14.94-.43s.32-.72.32-1.29-.11-.98-.33-1.28-.53-.45-.93-.45-.71.14-.91.42-.3.72-.3,1.32l-.36-1.99h.46c.07-.42.23-.73.48-.93s.6-.31,1.08-.31c.78,0,1.38.28,1.81.84s.64,1.36.64,2.38-.21,1.83-.64,2.38-1.03.83-1.8.83Z"/>
    <path class="cls-6" d="M82.5,154.68v-1.46h1.86v1.46h-1.86ZM86.47,162.12c-.78,0-1.34-.21-1.69-.64s-.52-1.12-.52-2.06v-6.2h1.58v6.14c0,.26.03.47.08.63s.16.29.32.36.39.12.7.12c.34,0,.78-.07,1.3-.22l.18,1.63c-.33.09-.65.15-.96.19s-.64.06-.99.06Z"/>
    <path class="cls-6" d="M92.58,162.12c-.89,0-1.59-.28-2.08-.84s-.74-1.36-.74-2.38.25-1.82.74-2.38,1.19-.84,2.08-.84,1.59.28,2.08.84.74,1.35.74,2.38-.25,1.82-.74,2.38-1.19.84-2.08.84ZM92.58,160.62c.38,0,.68-.15.88-.45s.31-.72.31-1.27-.1-.97-.31-1.27-.5-.45-.88-.45-.67.15-.88.45-.31.72-.31,1.27.1.97.31,1.27.5.45.88.45Z"/>
    <path class="cls-6" d="M96.46,162.01v-1.36h4.35v1.36h-4.35ZM96.7,157.16v-1.36h2.34l.12,1.36h-2.46ZM97.77,162.01v-6.21h1.35l.23,1.78v4.43h-1.58ZM99.36,159.33l-.36-2.14h.53c.06-1.01.59-1.52,1.59-1.52.59,0,1.04.22,1.36.65s.47,1.06.47,1.88h-1.58c0-.37-.07-.63-.2-.79s-.35-.24-.65-.24c-.39,0-.68.19-.87.56s-.29.91-.29,1.6Z"/>
    <path class="cls-6" d="M105.68,162.12c-.66,0-1.17-.16-1.54-.49s-.55-.79-.55-1.38c0-.7.24-1.23.72-1.6s1.16-.56,2.04-.56c.34,0,.63.02.88.05s.5.09.75.16l-.26,1.24c-.25-.06-.47-.09-.67-.1s-.41-.01-.63-.01c-.82,0-1.23.23-1.23.7,0,.21.07.37.22.48s.37.17.65.17c.34,0,.63-.06.86-.19s.4-.29.52-.49.17-.4.17-.62v-.39l.22,1.59h-.5l.21-.19c-.01.36-.09.66-.25.9s-.37.42-.64.54-.6.18-.99.18ZM107.78,162.07l-.13-1.84-.02-.81v-1.21c0-.33-.14-.58-.42-.73s-.7-.24-1.26-.25l-1.59-.04.12-1.44,1.35.02c1.12.02,1.96.24,2.51.67s.82,1.05.82,1.87v2.3l.86.13v1.29l-2.23.06Z"/>
    <path class="cls-6" d="M112.37,164.56l.47-4.04h1.75l-.7,4.04h-1.51Z"/>
    <path class="cls-6" d="M127.12,162.12c-.77,0-1.37-.28-1.8-.83s-.64-1.35-.64-2.38.21-1.82.64-2.38,1.03-.84,1.81-.84c.45,0,.8.1,1.03.31s.39.52.46.93h.52l-.36,1.99c0-.6-.1-1.04-.3-1.32s-.5-.42-.91-.42-.71.15-.93.45-.33.73-.33,1.28.11,1,.32,1.29.53.43.94.43c.45,0,.77-.14.95-.41s.27-.71.27-1.31l.42,1.97h-.55c-.06.41-.22.72-.49.93s-.61.31-1.04.31ZM129,162.07l-.23-1.23v-7.62h1.59v8.79l-1.36.06Z"/>
    <path class="cls-6" d="M135.26,162.12c-1.07,0-1.9-.28-2.49-.83s-.88-1.36-.88-2.4.25-1.8.75-2.37,1.2-.84,2.11-.84,1.57.26,2.06.78.73,1.28.73,2.27c0,.28-.01.55-.04.8h-4.56v-1.1h3.04c0-.42-.11-.74-.32-.96s-.51-.33-.89-.33c-.41,0-.74.15-.96.44s-.34.71-.34,1.26c0,.59.17,1.03.51,1.34s.82.46,1.44.46c.28,0,.56-.01.83-.04s.55-.07.84-.12l.15,1.5c-.4.07-.76.12-1.09.13s-.62.03-.87.03Z"/>
    <path class="cls-6" d="M141.31,162.12c-.47,0-.89-.01-1.26-.04s-.69-.07-.96-.13l.19-1.52c.49.06.91.11,1.24.14s.6.05.79.05c.53,0,.92-.04,1.15-.11s.36-.19.36-.35c0-.09-.03-.17-.09-.22s-.15-.1-.28-.14l-2.02-.59c-.41-.12-.73-.31-.93-.55s-.31-.58-.31-1c0-.67.28-1.17.84-1.49s1.42-.49,2.56-.49c.27,0,.54,0,.83.03s.59.05.91.09l-.17,1.47c-.36-.03-.67-.05-.93-.06s-.49-.02-.67-.02c-.61,0-1.06.03-1.33.1s-.41.18-.41.34c0,.1.03.17.08.23s.15.1.27.13l1.74.48c.54.14.93.35,1.2.63s.4.63.4,1.08c0,.66-.26,1.15-.79,1.47s-1.32.48-2.4.48Z"/>
    <path class="cls-6" d="M149.55,162.12c-1.13,0-2-.28-2.62-.83s-.93-1.36-.93-2.4.28-1.8.84-2.37,1.37-.84,2.41-.84c.64,0,1.19.12,1.65.38s.78.6.98,1.06l-1.15.91c-.17-.27-.39-.48-.65-.62s-.55-.22-.87-.22c-.5,0-.88.14-1.16.43s-.42.69-.42,1.22c0,.58.18,1.03.54,1.33s.87.46,1.53.46c.28,0,.56-.01.84-.04s.55-.06.82-.11l.16,1.48c-.32.07-.64.12-.98.14s-.66.04-.98.04Z"/>
    <path class="cls-6" d="M154.95,162.12c-.59,0-1.05-.19-1.37-.58s-.49-.94-.49-1.64v-4.1h1.59v3.71c0,.36.08.63.24.82s.39.29.67.29c.37,0,.65-.14.84-.43s.28-.77.28-1.44l.32,2.07h-.48c-.1.42-.29.75-.57.97s-.63.34-1.04.34ZM156.72,160.25v-4.45h1.59v4.1l-1.59.35ZM156.83,162.07l-.11-1.49v-1.09h1.59v1.1l.86.13v1.29l-2.34.06Z"/>
    <path class="cls-6" d="M160.23,162.01v-8.79h1.59v8.68l-1.59.11ZM161.99,162.12c-.3,0-.59-.01-.88-.03s-.58-.05-.88-.08l.58-1.58c.21.1.44.16.69.17s.5.03.74.03c.65,0,1.16-.19,1.51-.56s.54-.9.54-1.58c0-.42-.1-.75-.3-.98s-.48-.34-.84-.34c-.89,0-1.34.45-1.34,1.34l-.36-1.59h.53c.11-.83.6-1.24,1.48-1.24.78,0,1.39.24,1.81.73s.64,1.18.64,2.08c0,1.15-.34,2.05-1.02,2.68s-1.65.95-2.9.95Z"/>
    <path class="cls-6" d="M166.77,162.01v-1.36h4.35v1.36h-4.35ZM167.01,157.16v-1.36h2.34l.12,1.36h-2.46ZM168.09,162.01v-6.21h1.35l.23,1.78v4.43h-1.58ZM169.67,159.33l-.36-2.14h.53c.06-1.01.59-1.52,1.59-1.52.59,0,1.04.22,1.36.65s.47,1.06.47,1.88h-1.58c0-.37-.07-.63-.2-.79s-.35-.24-.65-.24c-.39,0-.68.19-.87.56s-.29.91-.29,1.6Z"/>
    <path class="cls-6" d="M177.44,162.12c-1.07,0-1.9-.28-2.49-.83s-.88-1.36-.88-2.4.25-1.8.75-2.37,1.2-.84,2.11-.84,1.57.26,2.06.78.73,1.28.73,2.27c0,.28-.01.55-.04.8h-4.56v-1.1h3.04c0-.42-.11-.74-.32-.96s-.51-.33-.89-.33c-.41,0-.74.15-.96.44s-.34.71-.34,1.26c0,.59.17,1.03.51,1.34s.82.46,1.44.46c.28,0,.56-.01.83-.04s.55-.07.84-.12l.15,1.5c-.4.07-.76.12-1.09.13s-.62.03-.87.03Z"/>
    <path class="cls-6" d="M80.82,176.01l-2.09-6.21h1.68l1.54,4.86h.28v1.35h-1.42ZM78.85,178.82l-.06-1.38,1.07-.12c.37-.04.68-.14.94-.29s.49-.38.67-.68.35-.7.48-1.19l1.5-5.37h1.68l-1.75,5.66c-.23.75-.5,1.35-.81,1.8s-.67.79-1.08,1.02-.92.37-1.5.42l-1.15.12Z"/>
    <path class="cls-6" d="M95.48,176.12c-.77,0-1.37-.28-1.8-.83s-.64-1.35-.64-2.38.21-1.82.64-2.38,1.03-.84,1.81-.84c.45,0,.8.1,1.03.31s.39.52.46.93h.52l-.36,1.99c0-.6-.1-1.04-.3-1.32s-.5-.42-.91-.42-.71.15-.93.45-.33.73-.33,1.28.11,1,.32,1.29.53.43.94.43c.45,0,.77-.14.95-.41s.27-.71.27-1.31l.42,1.97h-.55c-.06.41-.22.72-.49.93s-.61.31-1.04.31ZM97.36,176.07l-.23-1.23v-7.62h1.59v8.79l-1.36.06Z"/>
    <path class="cls-6" d="M100.45,176.01v-1.46h2.41v1.46h-2.41ZM100.8,171.26v-1.46h3.53v1.46h-3.53ZM103.46,168.96c-.3,0-.54-.09-.73-.28s-.28-.43-.28-.73.09-.54.28-.73.43-.28.73-.28.54.09.73.28.28.43.28.73-.09.54-.28.73-.43.28-.73.28ZM102.74,176.01v-5.86h1.58v5.86h-1.58ZM104.21,176.01v-1.46h1.96v1.46h-1.96Z"/>
    <path class="cls-6" d="M109.67,176.12c-.47,0-.89-.01-1.26-.04s-.69-.07-.96-.13l.19-1.52c.49.06.91.11,1.24.14s.6.05.79.05c.53,0,.92-.04,1.15-.11s.36-.19.36-.35c0-.09-.03-.17-.09-.22s-.15-.1-.28-.14l-2.02-.59c-.41-.12-.73-.31-.93-.55s-.31-.58-.31-1c0-.67.28-1.17.84-1.49s1.42-.49,2.56-.49c.27,0,.54,0,.83.03s.59.05.91.09l-.17,1.47c-.36-.03-.67-.05-.93-.06s-.49-.02-.67-.02c-.61,0-1.06.03-1.33.1s-.41.18-.41.34c0,.1.03.17.08.23s.15.1.27.13l1.74.48c.54.14.93.35,1.2.63s.4.63.4,1.08c0,.66-.26,1.15-.79,1.47s-1.32.48-2.4.48Z"/>
    <path class="cls-6" d="M113.97,172.39v-1.36h5.94v1.36h-5.94ZM115.86,176.01v-5.68c0-2.15,1.04-3.22,3.11-3.22.48,0,.94.04,1.39.12l-.15,1.47c-.26-.03-.49-.05-.69-.06s-.39-.02-.58-.02c-1,0-1.49.55-1.49,1.66v5.74h-1.58Z"/>
    <path class="cls-6" d="M121.07,176.01v-1.36h4.35v1.36h-4.35ZM121.3,171.16v-1.36h2.34l.12,1.36h-2.46ZM122.38,176.01v-6.21h1.35l.23,1.78v4.43h-1.58ZM123.96,173.33l-.36-2.14h.53c.06-1.01.59-1.52,1.59-1.52.59,0,1.04.22,1.36.65s.47,1.06.47,1.88h-1.58c0-.37-.07-.63-.2-.79s-.35-.24-.65-.24c-.39,0-.68.19-.87.56s-.29.91-.29,1.6Z"/>
    <path class="cls-6" d="M130.35,176.12c-.59,0-1.05-.19-1.37-.58s-.49-.94-.49-1.64v-4.1h1.59v3.71c0,.36.08.63.24.82s.39.29.67.29c.37,0,.65-.14.84-.43s.28-.77.28-1.44l.32,2.07h-.48c-.1.42-.29.75-.57.97s-.63.34-1.04.34ZM132.12,174.25v-4.45h1.59v4.1l-1.59.35ZM132.22,176.07l-.11-1.49v-1.09h1.59v1.1l.86.13v1.29l-2.34.06Z"/>
    <path class="cls-6" d="M135.07,171.25v-1.46h5.82v1.46h-5.82ZM136.56,172.98v-5.06h1.58v5.06h-1.58ZM139.6,176.12c-1.07,0-1.84-.21-2.32-.64s-.71-1.12-.71-2.06v-.81h1.58v.66c0,.47.12.82.37,1.03s.65.32,1.2.32c.18,0,.37-.01.58-.03s.44-.05.7-.08l.14,1.48c-.26.05-.51.08-.75.11s-.5.04-.78.04Z"/>
    <path class="cls-6" d="M144.35,176.12c-.66,0-1.17-.16-1.54-.49s-.55-.79-.55-1.38c0-.7.24-1.23.72-1.6s1.16-.56,2.04-.56c.34,0,.63.02.88.05s.5.09.75.16l-.26,1.24c-.25-.06-.47-.09-.67-.1s-.41-.01-.63-.01c-.82,0-1.23.23-1.23.7,0,.21.07.37.22.48s.37.17.65.17c.34,0,.63-.06.86-.19s.4-.29.52-.49.17-.4.17-.62v-.39l.22,1.59h-.5l.21-.19c-.01.36-.09.66-.25.9s-.37.42-.64.54-.6.18-.99.18ZM146.45,176.07l-.13-1.84-.02-.81v-1.21c0-.33-.14-.58-.42-.73s-.7-.24-1.26-.25l-1.59-.04.12-1.44,1.35.02c1.12.02,1.96.24,2.51.67s.82,1.05.82,1.87v2.3l.86.13v1.29l-2.23.06Z"/>
    <path class="cls-6" d="M152.34,176.12c-.3,0-.55-.1-.76-.31s-.31-.46-.31-.75.1-.55.31-.76.46-.31.76-.31.55.1.76.31.31.46.31.76-.1.54-.31.75-.46.31-.76.31ZM151.63,172.75l-.19-5.12h1.8l-.22,5.12h-1.39Z"/>
  </g>
</svg>