<?xml version="1.0" encoding="UTF-8"?>
<svg id="Capa_1" data-name="Capa 1" xmlns="http://www.w3.org/2000/svg" viewBox="0 0 237.45 243.58">
  <defs>
    <style>
      .cls-1 {
        fill: #fff;
      }

      .cls-2 {
        stroke-width: 2px;
      }

      .cls-2, .cls-3, .cls-4 {
        stroke-miterlimit: 10;
      }

      .cls-2, .cls-5 {
        fill: none;
        stroke: #f9f4f4;
      }

      .cls-3, .cls-4 {
        stroke: #1d1d1b;
      }

      .cls-4 {
        fill: #9500cc;
      }

      .cls-6 {
        fill: #f9f4f4;
      }

      .cls-7 {
        opacity: .64;
      }

      .cls-5 {
        stroke-linecap: round;
        stroke-linejoin: round;
        stroke-width: 3px;
      }
    </style>
  </defs>
  <rect class="cls-3" x="9.34" y="16.28" width="219.78" height="219.78" rx="14.48" ry="14.48"/>
  <rect class="cls-4" x="9.34" y="10.27" width="219.78" height="219.78" rx="14.48" ry="14.48"/>
  <g>
    <path class="cls-1" d="M34.85,49.95c.45,0,.82.16,1.13.47.31.31.47.69.47,1.13s-.16.82-.47,1.13-.69.47-1.13.47-.82-.16-1.13-.47-.47-.69-.47-1.13.16-.82.47-1.13c.31-.31.69-.47,1.13-.47ZM33.5,62.7l.29-7.68h2.09l.33,7.68h-2.71Z"/>
    <path class="cls-1" d="M41.38,59.45v-12.48h2.32v12.48h-2.32ZM41.38,59.45v-2.14h8.56v2.14h-8.56Z"/>
    <path class="cls-1" d="M55.95,59.62c-3.17,0-4.75-2.11-4.75-6.33s1.58-6.5,4.75-6.5,4.75,2.17,4.75,6.5-1.58,6.33-4.75,6.33ZM55.95,57.41c1.55,0,2.32-1.37,2.32-4.11s-.77-4.29-2.32-4.29-2.32,1.43-2.32,4.29.77,4.11,2.32,4.11Z"/>
    <path class="cls-1" d="M72.92,59.45v-12.48h2.23v12.48h-2.23ZM77.67,59.45l-2.2-9.76h-.96v-2.72h1.89l2.2,9.76h.59v2.72h-1.52ZM78.93,59.45v-12.48h2.23v12.48h-2.23Z"/>
    <path class="cls-1" d="M87.55,59.62c-2.77,0-4.16-1.39-4.16-4.18v-8.47h2.32v8.47c0,.65.15,1.14.45,1.47s.78.49,1.42.49c1.25,0,1.87-.65,1.87-1.96v-8.47h2.32v8.47c0,1.39-.36,2.44-1.08,3.14s-1.77,1.05-3.15,1.05Z"/>
    <path class="cls-1" d="M94.12,59.45v-12.48h2.32v12.48h-2.32ZM94.12,49.1v-2.13h8.56v2.13h-8.56ZM94.12,54.27v-2.14h6.98v2.14h-6.98ZM94.12,59.45v-2.14h8.56v2.14h-8.56Z"/>
    <path class="cls-1" d="M106.88,59.45l-3.23-12.48h2.4l2.55,10.4h.16l2.55-10.4h2.4l-3.23,12.48h-3.6Z"/>
    <path class="cls-1" d="M119.23,59.62c-3.17,0-4.75-2.11-4.75-6.33s1.58-6.5,4.75-6.5,4.75,2.17,4.75,6.5-1.58,6.33-4.75,6.33ZM119.23,57.41c1.55,0,2.32-1.37,2.32-4.11s-.77-4.29-2.32-4.29-2.32,1.43-2.32,4.29.77,4.11,2.32,4.11Z"/>
    <path class="cls-1" d="M136.13,59.45v-12.48h2.32v12.48h-2.32ZM138.33,59.45v-2.21h.98c1.14,0,2-.33,2.57-.98.57-.65.86-1.61.86-2.87,0-1.38-.29-2.43-.86-3.14-.57-.71-1.43-1.06-2.57-1.06h-.94l-.21-2.21h1.15c3.91,0,5.86,2.14,5.86,6.42,0,4.04-1.95,6.06-5.86,6.06h-.98Z"/>
    <path class="cls-1" d="M146.85,59.45v-12.48h2.32v12.48h-2.32ZM146.85,49.1v-2.13h8.56v2.13h-8.56ZM146.85,54.27v-2.14h6.98v2.14h-6.98ZM146.85,59.45v-2.14h8.56v2.14h-8.56Z"/>
    <path class="cls-1" d="M167.95,59.45v-12.48h2.32v12.48h-2.32ZM167.95,49.1v-2.13h8.56v2.13h-8.56ZM167.95,54.27v-2.14h6.98v2.14h-6.98ZM167.95,59.45v-2.14h8.56v2.14h-8.56Z"/>
    <path class="cls-1" d="M182.08,59.62c-.71,0-1.4-.06-2.07-.18-.67-.12-1.27-.29-1.79-.51l.32-2.37c.64.27,1.28.48,1.92.62s1.22.22,1.76.22c.63,0,1.11-.11,1.44-.33s.5-.54.5-.96c0-.54-.34-.98-1.03-1.3l-1.79-.87c-.88-.43-1.57-.97-2.06-1.61s-.73-1.34-.73-2.12c0-1.09.36-1.93,1.08-2.53s1.74-.9,3.06-.9c.77,0,1.5.13,2.18.4.69.27,1.3.66,1.83,1.17l-1.6,1.84c-.4-.39-.81-.68-1.22-.89-.41-.21-.81-.31-1.19-.31-.52,0-.92.11-1.2.33-.29.22-.43.54-.43.95,0,.28.1.54.3.78.2.25.49.47.87.67l1.69.87c.88.46,1.56.99,2.03,1.6s.72,1.26.72,1.96c0,1.11-.4,1.96-1.2,2.56-.8.6-1.93.9-3.4.9Z"/>
    <path class="cls-1" d="M188.34,49.1v-2.13h9.44v2.13h-9.44ZM191.9,59.45v-12.48h2.32v12.48h-2.32Z"/>
    <path class="cls-1" d="M199.59,59.45v-12.48h2.32v12.48h-2.32ZM199.59,49.1v-2.13h8.56v2.13h-8.56ZM199.59,54.27v-2.14h6.98v2.14h-6.98ZM199.59,59.45v-2.14h8.56v2.14h-8.56Z"/>
    <path class="cls-1" d="M46.38,80.45v-12.48h2.16v12.48h-2.16ZM49.87,76.08l-1.05-5.9h-.55l.14-2.21h1.29l.91,5.58h.07l.25,2.53h-1.05ZM50.37,76.08l.26-2.53h.11l.91-5.58h1.29l.14,2.21h-.55l-1.05,5.9h-1.11ZM52.81,80.45v-12.48h2.16v12.48h-2.16Z"/>
    <path class="cls-1" d="M57.2,80.45v-12.48h2.32v12.48h-2.32ZM57.2,70.1v-2.13h8.56v2.13h-8.56ZM57.2,75.27v-2.14h6.98v2.14h-6.98ZM57.2,80.45v-2.14h8.56v2.14h-8.56Z"/>
    <path class="cls-1" d="M71.34,80.62c-.71,0-1.4-.06-2.07-.18-.67-.12-1.27-.29-1.79-.51l.32-2.37c.64.27,1.28.48,1.92.62s1.22.22,1.76.22c.63,0,1.11-.11,1.44-.33s.5-.54.5-.96c0-.54-.34-.98-1.03-1.3l-1.79-.87c-.88-.43-1.57-.97-2.06-1.61s-.73-1.34-.73-2.12c0-1.09.36-1.93,1.08-2.53s1.74-.9,3.06-.9c.77,0,1.5.13,2.18.4.69.27,1.3.66,1.83,1.17l-1.6,1.84c-.4-.39-.81-.68-1.22-.89-.41-.21-.81-.31-1.19-.31-.52,0-.92.11-1.2.33-.29.22-.43.54-.43.95,0,.28.1.54.3.78.2.25.49.47.87.67l1.69.87c.88.46,1.56.99,2.03,1.6s.72,1.26.72,1.96c0,1.11-.4,1.96-1.2,2.56-.8.6-1.93.9-3.4.9Z"/>
    <path class="cls-1" d="M88.84,80.45v-12.48h2.32v12.48h-2.32ZM88.84,70.1v-2.13h8.56v2.13h-8.56ZM88.84,75.27v-2.14h6.98v2.14h-6.98ZM88.84,80.45v-2.14h8.56v2.14h-8.56Z"/>
    <path class="cls-1" d="M102.98,80.62c-.71,0-1.4-.06-2.07-.18-.67-.12-1.27-.29-1.79-.51l.32-2.37c.64.27,1.28.48,1.92.62s1.22.22,1.76.22c.63,0,1.11-.11,1.44-.33s.5-.54.5-.96c0-.54-.34-.98-1.03-1.3l-1.79-.87c-.88-.43-1.57-.97-2.06-1.61s-.73-1.34-.73-2.12c0-1.09.36-1.93,1.08-2.53s1.74-.9,3.06-.9c.77,0,1.5.13,2.18.4.69.27,1.3.66,1.83,1.17l-1.6,1.84c-.4-.39-.81-.68-1.22-.89-.41-.21-.81-.31-1.19-.31-.52,0-.92.11-1.2.33-.29.22-.43.54-.43.95,0,.28.1.54.3.78.2.25.49.47.87.67l1.69.87c.88.46,1.56.99,2.03,1.6s.72,1.26.72,1.96c0,1.11-.4,1.96-1.2,2.56-.8.6-1.93.9-3.4.9Z"/>
    <path class="cls-1" d="M109.24,70.1v-2.13h9.44v2.13h-9.44ZM112.79,80.45v-12.48h2.32v12.48h-2.32Z"/>
    <path class="cls-1" d="M119.47,80.45l3.6-12.48h2.85l3.6,12.48h-2.5l-2.44-9.43h-.16l-2.44,9.43h-2.5ZM121.29,78.08v-2.14h6.33v2.14h-6.33ZM123.2,66.56l1.95-2.42h3.2l-2.67,2.42h-2.48Z"/>
    <path class="cls-1" d="M140.57,80.45l3.6-12.48h2.85l3.6,12.48h-2.5l-2.44-9.43h-.16l-2.44,9.43h-2.5ZM142.39,78.08v-2.14h6.33v2.14h-6.33Z"/>
    <path class="cls-1" d="M156.14,80.62c-3.17,0-4.75-2.11-4.75-6.33s1.58-6.5,4.75-6.5,4.75,2.17,4.75,6.5-1.58,6.33-4.75,6.33ZM156.14,78.41c1.55,0,2.32-1.37,2.32-4.11s-.77-4.29-2.32-4.29-2.32,1.43-2.32,4.29.77,4.11,2.32,4.11ZM159.19,84.49c-1.41,0-2.48-.32-3.19-.97s-1.07-1.61-1.07-2.9v-.72h2.34v.74c0,.54.16.96.48,1.23s.8.41,1.45.41h.9l-.18,2.21h-.72Z"/>
    <path class="cls-1" d="M166.65,80.62c-2.77,0-4.16-1.39-4.16-4.18v-8.47h2.32v8.47c0,.65.15,1.14.45,1.47s.78.49,1.42.49c1.25,0,1.87-.65,1.87-1.96v-8.47h2.32v8.47c0,1.39-.36,2.44-1.08,3.14s-1.77,1.05-3.15,1.05Z"/>
    <path class="cls-1" d="M173.29,70.05v-2.08h7.89v2.08h-7.89ZM173.29,80.45v-2.09h7.89v2.09h-7.89ZM175.94,66.56l1.95-2.42h3.2l-2.67,2.42h-2.48ZM176.07,80.45v-12.48h2.32v12.48h-2.32Z"/>
    <path class="cls-1" d="M187.78,80.62c-.45,0-.82-.16-1.13-.47s-.47-.69-.47-1.13.16-.82.47-1.13.69-.46,1.13-.46.82.15,1.13.46.47.69.47,1.13-.16.82-.47,1.13-.69.47-1.13.47ZM186.72,75.56l-.29-7.68h2.71l-.33,7.68h-2.09Z"/>
  </g>
  <g class="cls-7">
    <path class="cls-6" d="M68.36,217.08l.73-4.16h.71l-.73,4.16h-.71ZM68.99,217.08l.1-.67h.18c.36,0,.66-.07.92-.21.26-.14.45-.35.58-.61s.2-.58.2-.96c0-.35-.11-.62-.33-.82-.22-.19-.53-.29-.93-.29-.2,0-.4.02-.59.06l-.03-.67c.22-.04.45-.06.69-.06.61,0,1.08.15,1.42.45s.51.72.51,1.27-.1.97-.3,1.34-.5.66-.88.86-.84.3-1.38.3h-.16Z"/>
    <path class="cls-6" d="M71.93,217.08l.73-4.16h.71l-.73,4.16h-.71ZM71.93,217.08l.12-.65h2.81l-.11.65h-2.81ZM72.25,215.32l.11-.65h2.29l-.11.65h-2.29ZM72.55,213.57l.11-.65h2.81l-.11.65h-2.81Z"/>
    <path class="cls-6" d="M76.68,217.14c-.51,0-.93-.09-1.28-.26l.18-.66c.4.17.79.25,1.16.25.28,0,.5-.04.64-.12.14-.08.22-.2.22-.36,0-.09-.02-.16-.06-.23-.04-.06-.11-.13-.2-.19l-.85-.58c-.17-.12-.29-.26-.36-.42-.07-.17-.11-.33-.11-.49,0-.4.12-.7.36-.91.24-.21.59-.31,1.04-.31.55,0,.98.16,1.3.48l-.42.57c-.14-.12-.29-.22-.45-.29-.15-.06-.31-.1-.46-.1-.21,0-.36.04-.47.11s-.16.19-.16.34c0,.09.02.18.07.26.05.09.12.17.22.24l.76.52c.19.13.33.27.4.42s.12.31.12.49c0,.41-.14.71-.42.92s-.69.31-1.23.31Z"/>
    <path class="cls-6" d="M78.97,217.08l.73-4.16h.71l-.73,4.16h-.71ZM78.97,217.08l.11-.65h2.81l-.11.65h-2.81Z"/>
    <path class="cls-6" d="M82.5,217.08l.11-.65h2.59l-.11.65h-2.59ZM83.12,213.57l.11-.65h2.59l-.11.65h-2.59ZM83.44,217.08l.73-4.16h.71l-.73,4.16h-.71Z"/>
    <path class="cls-6" d="M86.66,216.77l-.61-.26,2.69-3.35.6.31-2.68,3.29ZM86.25,217.08l-.2-.56.57-.09h2.19l-.11.65h-2.45ZM86.66,213.57l.11-.65h2.38l.19.56-.49.09h-2.2Z"/>
    <path class="cls-6" d="M89.18,217.08l1.9-4.16h.96c.05.25.09.52.13.8s.08.56.11.85.07.58.1.87c.03.29.05.57.07.85.02.28.04.54.05.79h-.72c0-.2-.01-.42-.03-.64s-.03-.46-.05-.7-.04-.48-.06-.72-.05-.48-.07-.71-.05-.44-.07-.65h-.08l-1.49,3.42h-.74ZM89.94,216.2l.11-.65h2.11l-.11.65h-2.11Z"/>
    <path class="cls-6" d="M96.54,217.08l.73-4.16h.71l-.73,4.16h-.71ZM96.54,217.08l.12-.65h2.81l-.11.65h-2.81ZM96.85,215.32l.11-.65h2.29l-.11.65h-2.29ZM97.16,213.57l.11-.65h2.81l-.11.65h-2.81Z"/>
    <path class="cls-6" d="M100.06,217.08l.73-4.16h.71l-.73,4.16h-.71ZM100.06,217.08l.11-.65h2.81l-.11.65h-2.81Z"/>
    <path class="cls-6" d="M108.8,217.14c-.36,0-.65-.06-.89-.18-.24-.12-.42-.29-.53-.53s-.18-.53-.18-.88c0-.4.06-.76.17-1.09s.28-.61.49-.85c.21-.24.46-.42.76-.55.29-.13.61-.2.96-.2.45,0,.8.14,1.05.43l-.44.57c-.2-.23-.43-.34-.69-.34-.3,0-.57.09-.8.26s-.42.41-.55.71c-.13.3-.2.65-.2,1.03,0,.21.04.39.11.53s.19.25.34.32.34.11.56.11c.33,0,.67-.06,1.02-.18l.04.64c-.4.13-.8.2-1.21.2Z"/>
    <path class="cls-6" d="M112.02,217.14c-.49,0-.84-.12-1.04-.35-.21-.23-.27-.58-.19-1.04l.5-2.82h.71l-.5,2.82c-.04.24-.02.42.08.55s.26.19.49.19c.21,0,.38-.06.5-.19s.21-.31.25-.55l.5-2.82h.71l-.5,2.82c-.08.46-.25.81-.5,1.04s-.59.35-1.01.35Z"/>
    <path class="cls-6" d="M114.06,217.08l.73-4.16h.71l-.73,4.16h-.71ZM114.43,215.81l.1-.66h.33c.61,0,1.07-.09,1.39-.26s.47-.43.47-.76c0-.2-.08-.35-.25-.45-.16-.1-.4-.15-.72-.15-.43,0-.78.02-1.05.06l.1-.67c.26-.04.59-.06.99-.06.55,0,.96.1,1.24.31.28.21.42.51.42.92,0,.56-.23.99-.68,1.28s-1.13.44-2.01.44h-.33ZM116.27,217.08l-.57-1.85h.75l.62,1.85h-.79Z"/>
    <path class="cls-6" d="M118.87,217.14c-.51,0-.93-.09-1.28-.26l.18-.66c.4.17.79.25,1.16.25.28,0,.5-.04.64-.12.14-.08.22-.2.22-.36,0-.09-.02-.16-.06-.23-.04-.06-.11-.13-.2-.19l-.85-.58c-.17-.12-.29-.26-.36-.42-.07-.17-.11-.33-.11-.49,0-.4.12-.7.36-.91.24-.21.59-.31,1.04-.31.55,0,.98.16,1.3.48l-.42.57c-.14-.12-.29-.22-.45-.29-.15-.06-.31-.1-.46-.1-.21,0-.36.04-.47.11s-.16.19-.16.34c0,.09.02.18.07.26.05.09.12.17.22.24l.76.52c.19.13.33.27.4.42s.12.31.12.49c0,.41-.14.71-.42.92s-.69.31-1.23.31Z"/>
    <path class="cls-6" d="M122.49,217.14c-.4,0-.71-.13-.94-.4s-.34-.63-.34-1.1c0-.58.08-1.08.23-1.5s.38-.73.68-.95.65-.33,1.06-.33.71.13.93.39.33.62.33,1.08c0,.59-.08,1.09-.23,1.51s-.38.74-.67.96c-.29.22-.64.34-1.06.34ZM122.58,216.48c.24,0,.44-.08.61-.25.17-.17.3-.4.39-.71s.13-.68.13-1.12c0-.28-.05-.49-.16-.64-.11-.15-.26-.23-.45-.23-.24,0-.45.08-.62.24s-.3.4-.39.7c-.09.31-.14.67-.14,1.11,0,.29.06.51.17.67s.27.24.46.24Z"/>
    <path class="cls-6" d="M124.61,217.08l.73-4.16h.71l-.73,4.16h-.71ZM124.97,215.81l.1-.66h.33c.61,0,1.07-.09,1.39-.26s.47-.43.47-.76c0-.2-.08-.35-.25-.45-.16-.1-.4-.15-.72-.15-.43,0-.78.02-1.05.06l.1-.67c.26-.04.59-.06.99-.06.55,0,.96.1,1.24.31.28.21.42.51.42.92,0,.56-.23.99-.68,1.28s-1.13.44-2.01.44h-.33ZM126.82,217.08l-.57-1.85h.75l.62,1.85h-.79Z"/>
    <path class="cls-6" d="M131.64,217.08l.73-4.16h.71l-.73,4.16h-.71ZM132.14,215.33l.1-.65h2.41l-.1.65h-2.41ZM133.68,217.08l.73-4.16h.71l-.73,4.16h-.71Z"/>
    <path class="cls-6" d="M134.88,217.08l1.9-4.16h.96c.05.25.09.52.13.8s.08.56.11.85.07.58.1.87c.03.29.05.57.07.85.02.28.04.54.05.79h-.72c0-.2-.01-.42-.03-.64s-.03-.46-.05-.7-.04-.48-.06-.72-.05-.48-.07-.71-.05-.44-.07-.65h-.08l-1.49,3.42h-.74ZM135.64,216.2l.11-.65h2.11l-.11.65h-2.11Z"/>
    <path class="cls-6" d="M140.44,217.14c-.36,0-.65-.06-.89-.18-.24-.12-.42-.29-.53-.53s-.18-.53-.18-.88c0-.4.06-.76.17-1.09s.28-.61.49-.85c.21-.24.46-.42.76-.55.29-.13.61-.2.96-.2.45,0,.8.14,1.05.43l-.44.57c-.2-.23-.43-.34-.69-.34-.3,0-.57.09-.8.26s-.42.41-.55.71c-.13.3-.2.65-.2,1.03,0,.21.04.39.11.53s.19.25.34.32.34.11.56.11c.33,0,.67-.06,1.02-.18l.04.64c-.4.13-.8.2-1.21.2Z"/>
    <path class="cls-6" d="M142.27,217.08l.11-.65h2.59l-.11.65h-2.59ZM142.89,213.57l.11-.65h2.59l-.11.65h-2.59ZM143.21,217.08l.73-4.16h.71l-.73,4.16h-.71Z"/>
    <path class="cls-6" d="M145.43,217.08l1.9-4.16h.96c.05.25.09.52.13.8s.08.56.11.85.07.58.1.87c.03.29.05.57.07.85.02.28.04.54.05.79h-.72c0-.2-.01-.42-.03-.64s-.03-.46-.05-.7-.04-.48-.06-.72-.05-.48-.07-.71-.05-.44-.07-.65h-.08l-1.49,3.42h-.74ZM146.19,216.2l.11-.65h2.11l-.11.65h-2.11Z"/>
    <path class="cls-6" d="M152.46,217.08l1.9-4.16h.96c.05.25.09.52.13.8s.08.56.11.85.07.58.1.87c.03.29.05.57.07.85.02.28.04.54.05.79h-.72c0-.2-.01-.42-.03-.64s-.03-.46-.05-.7-.04-.48-.06-.72-.05-.48-.07-.71-.05-.44-.07-.65h-.08l-1.49,3.42h-.74ZM153.22,216.2l.11-.65h2.11l-.11.65h-2.11Z"/>
    <path class="cls-6" d="M156.31,217.08l.73-4.16h.71l-.73,4.16h-.71ZM156.85,217.08l.1-.65h.47c.42,0,.73-.06.94-.17.21-.11.31-.28.31-.51,0-.18-.07-.31-.22-.4s-.36-.14-.63-.14h-.61l-.03-.28h.98c.41,0,.72.08.93.24.21.16.32.39.32.68,0,.41-.16.72-.48.93s-.8.31-1.45.31h-.63ZM156.95,214.84l.1-.28h.82c.29,0,.5-.05.65-.14.15-.09.22-.23.22-.41,0-.32-.28-.49-.83-.49-.39,0-.71.02-.96.06l.1-.65c.22-.04.49-.06.82-.06.53,0,.93.09,1.2.26.27.17.41.42.41.75s-.13.56-.39.72-.64.25-1.14.25h-.99ZM157.02,215.03l.05-.29h1.22l-.05.29h-1.22Z"/>
    <path class="cls-6" d="M159.49,217.08l1.9-4.16h.96c.05.25.09.52.13.8s.08.56.11.85.07.58.1.87c.03.29.05.57.07.85.02.28.04.54.05.79h-.72c0-.2-.01-.42-.03-.64s-.03-.46-.05-.7-.04-.48-.06-.72-.05-.48-.07-.71-.05-.44-.07-.65h-.08l-1.49,3.42h-.74ZM160.25,216.2l.11-.65h2.11l-.11.65h-2.11Z"/>
    <path class="cls-6" d="M164.63,217.14c-.48,0-.84-.13-1.06-.38s-.29-.62-.19-1.08h.73c-.04.26-.01.46.09.6s.27.21.5.21c.25,0,.45-.06.59-.19.14-.13.24-.33.29-.6l.49-2.77h.71l-.49,2.77c-.09.5-.27.87-.53,1.1-.27.24-.64.35-1.13.35ZM164.96,213.57l.11-.65h1.35l-.11.65h-1.35Z"/>
    <path class="cls-6" d="M168.19,217.14c-.4,0-.71-.13-.94-.4s-.34-.63-.34-1.1c0-.58.08-1.08.23-1.5s.38-.73.68-.95.65-.33,1.06-.33.71.13.93.39.33.62.33,1.08c0,.59-.08,1.09-.23,1.51s-.38.74-.67.96c-.29.22-.64.34-1.06.34ZM168.29,216.48c.24,0,.44-.08.61-.25.17-.17.3-.4.39-.71s.13-.68.13-1.12c0-.28-.05-.49-.16-.64-.11-.15-.26-.23-.45-.23-.24,0-.45.08-.62.24s-.3.4-.39.7c-.09.31-.14.67-.14,1.11,0,.29.06.51.17.67s.27.24.46.24Z"/>
  </g>
  <line class="cls-2" x1="39.85" y1="93.71" x2="198.61" y2="93.71"/>
  <polyline class="cls-5" points="112.48 195.53 118.99 202.04 125.97 195.06"/>
  <g>
    <path class="cls-6" d="M38.06,112.73v-6.93h.64v6.93h-.64ZM38.06,106.4v-.6h4.43v.6h-4.43ZM38.06,109.56v-.61h3.55v.61h-3.55ZM38.06,112.73v-.6h4.43v.6h-4.43Z"/>
    <path class="cls-6" d="M43.95,112.73v-5.18h.59l.06,1.09v4.08h-.65ZM47.37,112.73v-3.38c0-.41-.11-.73-.33-.95s-.52-.33-.91-.33c-1.02,0-1.53.58-1.53,1.74l-.31-1.31h.37c.08-.35.24-.61.49-.78.25-.17.6-.26,1.04-.26.58,0,1.03.17,1.35.5s.48.8.48,1.41v3.37h-.65Z"/>
    <path class="cls-6" d="M55.18,109.45v-.6h4.63v.6h-4.63ZM56.93,112.73v-4.74c0-1.79.75-2.69,2.26-2.69.34,0,.68.03,1,.1l-.11.58c-.19-.03-.35-.04-.5-.05s-.28-.01-.42-.01c-1.05,0-1.58.68-1.58,2.03v4.79h-.65Z"/>
    <path class="cls-6" d="M64.02,112.83c-.86,0-1.52-.24-1.99-.71s-.7-1.15-.7-2.02.2-1.49.59-1.95c.39-.46.95-.69,1.67-.69.67,0,1.19.21,1.56.62.37.42.55,1.01.55,1.78,0,.2,0,.37-.03.51h-3.82v-.56h3.22c0-.56-.13-.99-.39-1.3-.26-.3-.62-.46-1.09-.46-.52,0-.92.18-1.21.53s-.43.85-.43,1.49c0,.68.19,1.21.57,1.58.38.37.92.56,1.61.56.19,0,.39-.01.61-.04.21-.03.42-.06.61-.1l.09.6c-.22.05-.46.08-.71.11-.25.02-.49.03-.72.03Z"/>
    <path class="cls-6" d="M67.37,112.73v-7.32h.64v7.24s-.64.09-.64.09ZM68.51,112.83c-.2,0-.39,0-.57-.03-.19-.02-.38-.04-.58-.07l.34-.6c.15.04.31.07.49.08.18.01.35.02.53.02.76,0,1.36-.21,1.78-.64.42-.42.63-1.02.63-1.8,0-.56-.13-.99-.39-1.3-.26-.3-.62-.46-1.1-.46-1.08,0-1.63.59-1.63,1.77l-.3-1.33h.37c.17-.69.7-1.04,1.61-1.04.66,0,1.18.2,1.54.61s.55.98.55,1.73c0,.96-.29,1.71-.85,2.23-.57.53-1.37.79-2.41.79Z"/>
    <path class="cls-6" d="M72.82,112.73v-.6h3.38v.6h-3.38ZM73.02,108.15v-.6h1.46l.03.6h-1.49ZM74.09,112.73v-5.18h.52l.13,1.48v3.69h-.65ZM74.74,110.51l-.3-1.62h.36c.12-.95.62-1.43,1.52-1.43.55,0,.95.15,1.2.46.25.31.37.8.37,1.48h-.65c0-.48-.08-.82-.24-1.04-.16-.21-.42-.32-.77-.32-.5,0-.88.21-1.13.64s-.37,1.03-.37,1.82Z"/>
    <path class="cls-6" d="M81.6,112.83c-.86,0-1.52-.24-1.99-.71s-.7-1.15-.7-2.02.2-1.49.59-1.95c.39-.46.95-.69,1.67-.69.67,0,1.19.21,1.56.62.37.42.55,1.01.55,1.78,0,.2,0,.37-.03.51h-3.82v-.56h3.22c0-.56-.13-.99-.39-1.3-.26-.3-.62-.46-1.09-.46-.52,0-.92.18-1.21.53s-.43.85-.43,1.49c0,.68.19,1.21.57,1.58.38.37.92.56,1.61.56.19,0,.39-.01.61-.04.21-.03.42-.06.61-.1l.09.6c-.22.05-.46.08-.71.11-.25.02-.49.03-.72.03Z"/>
    <path class="cls-6" d="M84.54,112.73v-.6h3.38v.6h-3.38ZM84.74,108.15v-.6h1.46l.03.6h-1.49ZM85.8,112.73v-5.18h.52l.13,1.48v3.69h-.65ZM86.46,110.51l-.3-1.62h.36c.12-.95.62-1.43,1.52-1.43.55,0,.95.15,1.2.46.25.31.37.8.37,1.48h-.65c0-.48-.08-.82-.24-1.04-.16-.21-.42-.32-.77-.32-.5,0-.88.21-1.13.64s-.37,1.03-.37,1.82Z"/>
    <path class="cls-6" d="M92.86,112.83c-.69,0-1.23-.23-1.61-.7s-.58-1.13-.58-1.98.19-1.52.58-1.98c.38-.47.92-.7,1.61-.7s1.23.23,1.61.7c.38.47.57,1.13.57,1.98s-.19,1.51-.57,1.98c-.38.47-.92.7-1.61.7ZM92.86,112.22c.48,0,.86-.18,1.12-.54.26-.36.4-.87.4-1.53s-.13-1.18-.4-1.54c-.27-.36-.64-.54-1.12-.54s-.86.18-1.12.54c-.26.36-.4.87-.4,1.54s.13,1.17.4,1.53c.27.36.64.54,1.12.54Z"/>
    <path class="cls-6" d="M105.08,112.83c-.87,0-1.54-.23-2-.69s-.69-1.13-.69-2.01.22-1.5.66-1.97c.44-.47,1.07-.7,1.89-.7.49,0,.9.09,1.25.28.35.19.59.45.74.79l-.54.37c-.17-.3-.38-.51-.64-.64-.26-.13-.54-.2-.85-.2-.58,0-1.04.17-1.36.52-.33.35-.49.85-.49,1.49,0,.7.18,1.23.53,1.59.35.36.87.54,1.55.54.26,0,.51-.01.77-.04.26-.03.5-.06.75-.11l.08.6c-.27.07-.54.11-.82.13-.28.02-.55.03-.83.03Z"/>
    <path class="cls-6" d="M110.44,112.83c-.69,0-1.23-.23-1.61-.7s-.58-1.13-.58-1.98.19-1.52.58-1.98c.38-.47.92-.7,1.61-.7s1.23.23,1.61.7c.38.47.57,1.13.57,1.98s-.19,1.51-.57,1.98c-.38.47-.92.7-1.61.7ZM110.44,112.22c.48,0,.86-.18,1.12-.54.26-.36.4-.87.4-1.53s-.13-1.18-.4-1.54c-.27-.36-.64-.54-1.12-.54s-.86.18-1.12.54c-.26.36-.4.87-.4,1.54s.13,1.17.4,1.53c.27.36.64.54,1.12.54Z"/>
    <path class="cls-6" d="M114.27,112.73v-5.18h.59l.06,1.09v4.08h-.65ZM117.68,112.73v-3.38c0-.41-.11-.73-.33-.95s-.52-.33-.91-.33c-1.02,0-1.53.58-1.53,1.74l-.31-1.31h.37c.08-.35.24-.61.49-.78.25-.17.6-.26,1.04-.26.58,0,1.03.17,1.35.5s.48.8.48,1.41v3.37h-.65Z"/>
    <path class="cls-6" d="M119.65,108.15v-.6h4.53v.6h-4.53ZM121.14,110.29v-4.3h.65v4.3h-.65ZM123.09,112.83c-.67,0-1.16-.17-1.48-.51s-.48-.87-.48-1.57v-.84h.65v.83c0,.5.11.88.34,1.12s.58.37,1.06.37c.19,0,.37,0,.55-.03.18-.02.36-.04.56-.07l.07.59c-.21.04-.42.07-.63.09s-.42.03-.65.03Z"/>
    <path class="cls-6" d="M125.95,112.73v-.6h2.19v.6h-2.19ZM126.24,108.15v-.6h2.45v.6h-2.45ZM128.31,106.43c-.16,0-.29-.06-.4-.17s-.17-.24-.17-.4.06-.29.17-.4.24-.17.4-.17.29.06.4.17.17.24.17.4-.06.29-.17.4-.24.17-.4.17ZM128.03,112.73v-4.92h.65v4.92h-.65ZM128.58,112.73v-.6h1.81v.6h-1.81Z"/>
    <path class="cls-6" d="M131.84,112.73v-5.18h.59l.06,1.09v4.08h-.65ZM135.26,112.73v-3.38c0-.41-.11-.73-.33-.95s-.52-.33-.91-.33c-1.02,0-1.53.58-1.53,1.74l-.31-1.31h.37c.08-.35.24-.61.49-.78.25-.17.6-.26,1.04-.26.58,0,1.03.17,1.35.5s.48.8.48,1.41v3.37h-.65Z"/>
    <path class="cls-6" d="M139.39,112.83c-.57,0-1.01-.16-1.32-.49-.31-.32-.47-.78-.47-1.37v-3.42h.65v3.42c0,.4.11.71.34.92s.54.32.94.32c.48,0,.84-.14,1.08-.43.24-.29.37-.77.37-1.45l.26,1.4h-.31c-.09.35-.28.62-.54.81-.27.19-.6.29-.99.29ZM140.97,111.27v-3.71h.65v3.75l-.65-.03ZM141.06,112.78l-.06-1.24-.02-.91h.65v1.55l.71.07v.48l-1.27.05Z"/>
    <path class="cls-6" d="M144.85,112.83c-.52,0-.92-.12-1.21-.36-.29-.24-.43-.59-.43-1.03,0-.54.19-.95.58-1.23s.95-.42,1.69-.42c.35,0,.67.02.96.05.29.03.52.08.7.15l-.1.5c-.21-.07-.46-.11-.75-.12-.29-.01-.56-.02-.83-.02-1.07,0-1.61.35-1.61,1.04,0,.27.09.48.28.63.18.15.44.22.77.22.36,0,.67-.06.95-.18.27-.12.48-.29.64-.49s.23-.43.23-.67v-.6l.34,1.33h-.42l.11-.12c-.02.26-.11.49-.28.69-.17.2-.39.35-.67.46-.28.11-.6.16-.95.16ZM146.85,112.78l-.08-1.87-.06-.06v-1.19c0-.53-.14-.91-.43-1.15-.29-.24-.73-.37-1.34-.38l-1.1-.02.1-.61h.97c.85.03,1.46.21,1.86.58s.59.92.59,1.67v2.41l.89.08v.48l-1.39.05Z"/>
    <path class="cls-6" d="M149.15,112.73v-5.18h.57l.08,1.09v4.08h-.65ZM151.16,112.73v-4.05c0-.44-.21-.66-.62-.66-.5,0-.74.31-.74.92l-.3-.74h.32c.09-.5.42-.74.98-.74.32,0,.55.09.72.28.16.19.24.47.24.84v4.15h-.6ZM153.11,112.73v-3.96c0-.5-.2-.76-.61-.76-.5,0-.75.31-.75.92l-.35-.74h.36c.04-.23.14-.42.3-.55.16-.13.38-.2.65-.2.35,0,.62.1.79.3.17.2.26.51.26.92v4.05h-.65Z"/>
    <path class="cls-6" d="M157.31,112.83c-.69,0-1.23-.23-1.61-.7s-.58-1.13-.58-1.98.19-1.52.58-1.98c.38-.47.92-.7,1.61-.7s1.23.23,1.61.7c.38.47.57,1.13.57,1.98s-.19,1.51-.57,1.98c-.38.47-.92.7-1.61.7ZM157.31,112.22c.48,0,.86-.18,1.12-.54.26-.36.4-.87.4-1.53s-.13-1.18-.4-1.54c-.27-.36-.64-.54-1.12-.54s-.86.18-1.12.54c-.26.36-.4.87-.4,1.54s.13,1.17.4,1.53c.27.36.64.54,1.12.54Z"/>
    <path class="cls-6" d="M162.77,112.83c-.38,0-.7-.01-.97-.03-.27-.02-.51-.06-.72-.11l.08-.62c.33.05.63.09.88.12s.5.04.73.04c.64,0,1.1-.07,1.39-.2.29-.13.43-.35.43-.64,0-.21-.07-.37-.2-.5s-.35-.23-.64-.3l-1.16-.29c-.5-.13-.87-.3-1.09-.51s-.34-.49-.34-.83c0-.52.21-.9.63-1.13.42-.23,1.1-.35,2.04-.35.23,0,.44,0,.64.02.2.02.42.04.65.08l-.07.58c-.26-.03-.49-.04-.69-.05-.2,0-.38-.01-.55-.01-.69,0-1.2.07-1.51.2-.31.14-.47.35-.47.65,0,.18.08.33.23.45s.41.23.76.31l.93.22c.53.13.92.31,1.15.54s.36.53.36.92c0,.51-.2.88-.59,1.11-.39.23-1.03.35-1.9.35Z"/>
    <path class="cls-6" d="M174.89,112.83c-.69,0-1.23-.23-1.61-.7s-.58-1.13-.58-1.98.19-1.52.58-1.98c.38-.47.92-.7,1.61-.7s1.23.23,1.61.7c.38.47.57,1.13.57,1.98s-.19,1.51-.57,1.98c-.38.47-.92.7-1.61.7ZM174.89,112.22c.48,0,.86-.18,1.12-.54.26-.36.4-.87.4-1.53s-.13-1.18-.4-1.54c-.27-.36-.64-.54-1.12-.54s-.86.18-1.12.54c-.26.36-.4.87-.4,1.54s.13,1.17.4,1.53c.27.36.64.54,1.12.54Z"/>
    <path class="cls-6" d="M178.23,109.45v-.6h4.63v.6h-4.63ZM179.97,112.73v-4.74c0-1.79.75-2.69,2.26-2.69.34,0,.68.03,1,.1l-.11.58c-.19-.03-.35-.04-.5-.05s-.28-.01-.42-.01c-1.05,0-1.58.68-1.58,2.03v4.79h-.65Z"/>
    <path class="cls-6" d="M184.15,112.73v-.6h3.38v.6h-3.38ZM184.34,108.15v-.6h1.46l.03.6h-1.49ZM185.41,112.73v-5.18h.52l.13,1.48v3.69h-.65ZM186.07,110.51l-.3-1.62h.36c.12-.95.62-1.43,1.52-1.43.55,0,.95.15,1.2.46.25.31.37.8.37,1.48h-.65c0-.48-.08-.82-.24-1.04-.16-.21-.42-.32-.77-.32-.5,0-.88.21-1.13.64s-.37,1.03-.37,1.82Z"/>
    <path class="cls-6" d="M192.92,112.83c-.86,0-1.52-.24-1.99-.71s-.7-1.15-.7-2.02.2-1.49.59-1.95c.39-.46.95-.69,1.67-.69.67,0,1.19.21,1.56.62.37.42.55,1.01.55,1.78,0,.2,0,.37-.03.51h-3.82v-.56h3.22c0-.56-.13-.99-.39-1.3-.26-.3-.62-.46-1.09-.46-.52,0-.92.18-1.21.53s-.43.85-.43,1.49c0,.68.19,1.21.57,1.58.38.37.92.56,1.61.56.19,0,.39-.01.61-.04.21-.03.42-.06.61-.1l.09.6c-.22.05-.46.08-.71.11-.25.02-.49.03-.72.03Z"/>
    <path class="cls-6" d="M195.97,109.57v-.6h4.73v.6h-4.73Z"/>
    <path class="cls-6" d="M46.48,123.83c-.87,0-1.54-.23-2-.69s-.69-1.13-.69-2.01.22-1.5.66-1.97c.44-.47,1.07-.7,1.89-.7.49,0,.9.09,1.25.28.35.19.59.45.74.79l-.54.37c-.17-.3-.38-.51-.64-.64-.26-.13-.54-.2-.85-.2-.58,0-1.04.17-1.36.52-.33.35-.49.85-.49,1.49,0,.7.18,1.23.53,1.59.35.36.87.54,1.55.54.26,0,.51-.01.77-.04.26-.03.5-.06.75-.11l.08.6c-.27.07-.54.11-.82.13-.28.02-.55.03-.83.03Z"/>
    <path class="cls-6" d="M49.77,123.73v-.6h2.19v.6h-2.19ZM50.07,119.15v-.6h2.45v.6h-2.45ZM52.14,117.43c-.16,0-.29-.06-.4-.17s-.17-.24-.17-.4.06-.29.17-.4.24-.17.4-.17.29.06.4.17.17.24.17.4-.06.29-.17.4-.24.17-.4.17ZM51.86,123.73v-4.92h.65v4.92h-.65ZM52.41,123.73v-.6h1.81v.6h-1.81Z"/>
    <path class="cls-6" d="M58.16,123.83c-.86,0-1.52-.24-1.99-.71s-.7-1.15-.7-2.02.2-1.49.59-1.95c.39-.46.95-.69,1.67-.69.67,0,1.19.21,1.56.62.37.42.55,1.01.55,1.78,0,.2,0,.37-.03.51h-3.82v-.56h3.22c0-.56-.13-.99-.39-1.3-.26-.3-.62-.46-1.09-.46-.52,0-.92.18-1.21.53s-.43.85-.43,1.49c0,.68.19,1.21.57,1.58.38.37.92.56,1.61.56.19,0,.39-.01.61-.04.21-.03.42-.06.61-.1l.09.6c-.22.05-.46.08-.71.11-.25.02-.49.03-.72.03Z"/>
    <path class="cls-6" d="M61.53,123.73v-5.18h.59l.06,1.09v4.08h-.65ZM64.95,123.73v-3.38c0-.41-.11-.73-.33-.95s-.52-.33-.91-.33c-1.02,0-1.53.58-1.53,1.74l-.31-1.31h.37c.08-.35.24-.61.49-.78.25-.17.6-.26,1.04-.26.58,0,1.03.17,1.35.5s.48.8.48,1.41v3.37h-.65Z"/>
    <path class="cls-6" d="M69.11,123.83c-.68,0-1.19-.22-1.54-.67-.35-.45-.53-1.1-.53-1.97s.18-1.58.53-2.04c.35-.46.87-.69,1.56-.69.46,0,.82.1,1.1.3.28.2.45.5.52.88h.36l-.3,1.43c0-.66-.13-1.17-.4-1.51-.27-.34-.65-.51-1.17-.51s-.89.18-1.16.54c-.26.36-.39.9-.39,1.6s.13,1.18.39,1.53c.26.35.65.52,1.16.52s.9-.17,1.16-.51.4-.84.4-1.5l.35,1.38h-.4c-.07.38-.23.68-.51.9s-.65.33-1.14.33ZM70.91,123.78l-.1-1.25v-6.13h.65v7.34l-.55.03Z"/>
    <path class="cls-6" d="M75.28,123.83c-.69,0-1.23-.23-1.61-.7s-.58-1.13-.58-1.98.19-1.52.58-1.98c.38-.47.92-.7,1.61-.7s1.23.23,1.61.7c.38.47.57,1.13.57,1.98s-.19,1.51-.57,1.98c-.38.47-.92.7-1.61.7ZM75.28,123.22c.48,0,.86-.18,1.12-.54.26-.36.4-.87.4-1.53s-.13-1.18-.4-1.54c-.27-.36-.64-.54-1.12-.54s-.86.18-1.12.54c-.26.36-.4.87-.4,1.54s.13,1.17.4,1.53c.27.36.64.54,1.12.54Z"/>
    <path class="cls-6" d="M86.65,123.83c-.57,0-1.01-.16-1.32-.49-.31-.32-.47-.78-.47-1.37v-3.42h.65v3.42c0,.4.11.71.34.92s.54.32.94.32c.48,0,.84-.14,1.08-.43.24-.29.37-.77.37-1.45l.26,1.4h-.31c-.09.35-.28.62-.54.81-.27.19-.6.29-.99.29ZM88.24,122.27v-3.71h.65v3.75l-.65-.03ZM88.32,123.78l-.06-1.24-.02-.91h.65v1.55l.71.07v.48l-1.27.05Z"/>
    <path class="cls-6" d="M90.83,123.73v-5.18h.59l.06,1.09v4.08h-.65ZM94.24,123.73v-3.38c0-.41-.11-.73-.33-.95s-.52-.33-.91-.33c-1.02,0-1.53.58-1.53,1.74l-.31-1.31h.37c.08-.35.24-.61.49-.78.25-.17.6-.26,1.04-.26.58,0,1.03.17,1.35.5s.48.8.48,1.41v3.37h-.65Z"/>
    <path class="cls-6" d="M97.97,123.83c-.52,0-.92-.12-1.21-.36-.29-.24-.43-.59-.43-1.03,0-.54.19-.95.58-1.23s.95-.42,1.69-.42c.35,0,.67.02.96.05.29.03.52.08.7.15l-.1.5c-.21-.07-.46-.11-.75-.12-.29-.01-.56-.02-.83-.02-1.07,0-1.61.35-1.61,1.04,0,.27.09.48.28.63.18.15.44.22.77.22.36,0,.67-.06.95-.18.27-.12.48-.29.64-.49s.23-.43.23-.67v-.6l.34,1.33h-.42l.11-.12c-.02.26-.11.49-.28.69-.17.2-.39.35-.67.46-.28.11-.6.16-.95.16ZM99.98,123.78l-.08-1.87-.06-.06v-1.19c0-.53-.14-.91-.43-1.15-.29-.24-.73-.37-1.34-.38l-1.1-.02.1-.61h.97c.85.03,1.46.21,1.86.58s.59.92.59,1.67v2.41l.89.08v.48l-1.39.05Z"/>
    <path class="cls-6" d="M109.69,123.83c-.52,0-.92-.12-1.21-.36-.29-.24-.43-.59-.43-1.03,0-.54.19-.95.58-1.23s.95-.42,1.69-.42c.35,0,.67.02.96.05.29.03.52.08.7.15l-.1.5c-.21-.07-.46-.11-.75-.12-.29-.01-.56-.02-.83-.02-1.07,0-1.61.35-1.61,1.04,0,.27.09.48.28.63.18.15.44.22.77.22.36,0,.67-.06.95-.18.27-.12.48-.29.64-.49s.23-.43.23-.67v-.6l.34,1.33h-.42l.11-.12c-.02.26-.11.49-.28.69-.17.2-.39.35-.67.46-.28.11-.6.16-.95.16ZM111.7,123.78l-.08-1.87-.06-.06v-1.19c0-.53-.14-.91-.43-1.15-.29-.24-.73-.37-1.34-.38l-1.1-.02.1-.61h.97c.85.03,1.46.21,1.86.58s.59.92.59,1.67v2.41l.89.08v.48l-1.39.05Z"/>
    <path class="cls-6" d="M115.98,123.83c-.68,0-1.19-.22-1.54-.67-.35-.45-.53-1.1-.53-1.97s.18-1.58.53-2.04c.35-.46.87-.69,1.56-.69.46,0,.83.1,1.11.3s.45.5.52.88h.36l-.32,1.43c0-.66-.13-1.17-.4-1.51-.27-.34-.65-.51-1.17-.51s-.89.18-1.16.54c-.26.36-.39.9-.39,1.6s.13,1.18.39,1.53c.26.35.65.52,1.16.52s.9-.17,1.16-.51.4-.84.4-1.5l.35,1.38h-.42c-.07.38-.23.68-.51.9-.27.22-.65.33-1.13.33ZM114.33,126.07l-.03-.6,1.56-.06c.63-.02,1.09-.2,1.38-.52.29-.33.43-.81.44-1.45v-3.72l.06-1.16h.59v4.72c0,.92-.2,1.6-.61,2.04-.41.44-1.06.67-1.95.71l-1.44.05Z"/>
    <path class="cls-6" d="M122.61,123.83c-.86,0-1.52-.24-1.99-.71s-.7-1.15-.7-2.02.2-1.49.59-1.95c.39-.46.95-.69,1.67-.69.67,0,1.19.21,1.56.62.37.42.55,1.01.55,1.78,0,.2,0,.37-.03.51h-3.82v-.56h3.22c0-.56-.13-.99-.39-1.3-.26-.3-.62-.46-1.09-.46-.52,0-.92.18-1.21.53s-.43.85-.43,1.49c0,.68.19,1.21.57,1.58.38.37.92.56,1.61.56.19,0,.39-.01.61-.04.21-.03.42-.06.61-.1l.09.6c-.22.05-.46.08-.71.11-.25.02-.49.03-.72.03Z"/>
    <path class="cls-6" d="M125.99,123.73v-5.18h.59l.06,1.09v4.08h-.65ZM129.4,123.73v-3.38c0-.41-.11-.73-.33-.95s-.52-.33-.91-.33c-1.02,0-1.53.58-1.53,1.74l-.31-1.31h.37c.08-.35.24-.61.49-.78.25-.17.6-.26,1.04-.26.58,0,1.03.17,1.35.5s.48.8.48,1.41v3.37h-.65Z"/>
    <path class="cls-6" d="M133.56,123.83c-.68,0-1.19-.22-1.54-.67-.35-.45-.53-1.1-.53-1.97s.18-1.58.53-2.04c.35-.46.87-.69,1.56-.69.46,0,.82.1,1.1.3.28.2.45.5.52.88h.36l-.3,1.43c0-.66-.13-1.17-.4-1.51-.27-.34-.65-.51-1.17-.51s-.89.18-1.16.54c-.26.36-.39.9-.39,1.6s.13,1.18.39,1.53c.26.35.65.52,1.16.52s.9-.17,1.16-.51.4-.84.4-1.5l.35,1.38h-.4c-.07.38-.23.68-.51.9s-.65.33-1.14.33ZM135.36,123.78l-.1-1.25v-6.13h.65v7.34l-.55.03Z"/>
    <path class="cls-6" d="M138.99,123.83c-.52,0-.92-.12-1.21-.36-.29-.24-.43-.59-.43-1.03,0-.54.19-.95.58-1.23s.95-.42,1.69-.42c.35,0,.67.02.96.05.29.03.52.08.7.15l-.1.5c-.21-.07-.46-.11-.75-.12-.29-.01-.56-.02-.83-.02-1.07,0-1.61.35-1.61,1.04,0,.27.09.48.28.63.18.15.44.22.77.22.36,0,.67-.06.95-.18.27-.12.48-.29.64-.49s.23-.43.23-.67v-.6l.34,1.33h-.42l.11-.12c-.02.26-.11.49-.28.69-.17.2-.39.35-.67.46-.28.11-.6.16-.95.16ZM141,123.78l-.08-1.87-.06-.06v-1.19c0-.53-.14-.91-.43-1.15-.29-.24-.73-.37-1.34-.38l-1.1-.02.1-.61h.97c.85.03,1.46.21,1.86.58s.59.92.59,1.67v2.41l.89.08v.48l-1.39.05Z"/>
    <path class="cls-6" d="M151.14,123.83c-.68,0-1.19-.22-1.54-.67-.35-.45-.53-1.1-.53-1.97s.18-1.58.53-2.04c.35-.46.87-.69,1.56-.69.46,0,.82.1,1.1.3.28.2.45.5.52.88h.36l-.3,1.43c0-.66-.13-1.17-.4-1.51-.27-.34-.65-.51-1.17-.51s-.89.18-1.16.54c-.26.36-.39.9-.39,1.6s.13,1.18.39,1.53c.26.35.65.52,1.16.52s.9-.17,1.16-.51.4-.84.4-1.5l.35,1.38h-.4c-.07.38-.23.68-.51.9s-.65.33-1.14.33ZM152.94,123.78l-.1-1.25v-6.13h.65v7.34l-.55.03Z"/>
    <path class="cls-6" d="M155.24,123.73v-.6h2.19v.6h-2.19ZM155.54,119.15v-.6h2.45v.6h-2.45ZM157.61,117.43c-.16,0-.29-.06-.4-.17s-.17-.24-.17-.4.06-.29.17-.4.24-.17.4-.17.29.06.4.17.17.24.17.4-.06.29-.17.4-.24.17-.4.17ZM157.33,123.73v-4.92h.65v4.92h-.65ZM157.88,123.73v-.6h1.81v.6h-1.81Z"/>
    <path class="cls-6" d="M162.73,123.73l-2.02-5.18h.7l1.74,4.62h.05l1.73-4.62h.7l-2.02,5.18h-.89Z"/>
    <path class="cls-6" d="M169.49,123.83c-.86,0-1.52-.24-1.99-.71s-.7-1.15-.7-2.02.2-1.49.59-1.95c.39-.46.95-.69,1.67-.69.67,0,1.19.21,1.56.62.37.42.55,1.01.55,1.78,0,.2,0,.37-.03.51h-3.82v-.56h3.22c0-.56-.13-.99-.39-1.3-.26-.3-.62-.46-1.09-.46-.52,0-.92.18-1.21.53s-.43.85-.43,1.49c0,.68.19,1.21.57,1.58.38.37.92.56,1.61.56.19,0,.39-.01.61-.04.21-.03.42-.06.61-.1l.09.6c-.22.05-.46.08-.71.11-.25.02-.49.03-.72.03Z"/>
    <path class="cls-6" d="M172.43,123.73v-.6h3.38v.6h-3.38ZM172.63,119.15v-.6h1.46l.03.6h-1.49ZM173.7,123.73v-5.18h.52l.13,1.48v3.69h-.65ZM174.35,121.51l-.3-1.62h.36c.12-.95.62-1.43,1.52-1.43.55,0,.95.15,1.2.46.25.31.37.8.37,1.48h-.65c0-.48-.08-.82-.24-1.04-.16-.21-.42-.32-.77-.32-.5,0-.88.21-1.13.64s-.37,1.03-.37,1.82Z"/>
    <path class="cls-6" d="M180.35,123.83c-.38,0-.7-.01-.97-.03-.27-.02-.51-.06-.72-.11l.08-.62c.33.05.63.09.88.12s.5.04.73.04c.64,0,1.1-.07,1.39-.2.29-.13.43-.35.43-.64,0-.21-.07-.37-.2-.5s-.35-.23-.64-.3l-1.16-.29c-.5-.13-.87-.3-1.09-.51s-.34-.49-.34-.83c0-.52.21-.9.63-1.13.42-.23,1.1-.35,2.04-.35.23,0,.44,0,.64.02.2.02.42.04.65.08l-.07.58c-.26-.03-.49-.04-.69-.05-.2,0-.38-.01-.55-.01-.69,0-1.2.07-1.51.2-.31.14-.47.35-.47.65,0,.18.08.33.23.45s.41.23.76.31l.93.22c.53.13.92.31,1.15.54s.36.53.36.92c0,.51-.2.88-.59,1.11-.39.23-1.03.35-1.9.35Z"/>
    <path class="cls-6" d="M185.86,123.83c-.52,0-.92-.12-1.21-.36-.29-.24-.43-.59-.43-1.03,0-.54.19-.95.58-1.23s.95-.42,1.69-.42c.35,0,.67.02.96.05.29.03.52.08.7.15l-.1.5c-.21-.07-.46-.11-.75-.12-.29-.01-.56-.02-.83-.02-1.07,0-1.61.35-1.61,1.04,0,.27.09.48.28.63.18.15.44.22.77.22.36,0,.67-.06.95-.18.27-.12.48-.29.64-.49s.23-.43.23-.67v-.6l.34,1.33h-.42l.11-.12c-.02.26-.11.49-.28.69-.17.2-.39.35-.67.46-.28.11-.6.16-.95.16ZM187.87,123.78l-.08-1.87-.06-.06v-1.19c0-.53-.14-.91-.43-1.15-.29-.24-.73-.37-1.34-.38l-1.1-.02.1-.61h.97c.85.03,1.46.21,1.86.58s.59.92.59,1.67v2.41l.89.08v.48l-1.39.05Z"/>
    <path class="cls-6" d="M191.78,125.86l.39-3.37h.69l-.47,3.37h-.61Z"/>
    <path class="cls-6" d="M43.55,134.83c-.87,0-1.54-.23-2-.69s-.69-1.13-.69-2.01.22-1.5.66-1.97c.44-.47,1.07-.7,1.89-.7.49,0,.9.09,1.25.28.35.19.59.45.74.79l-.54.37c-.17-.3-.38-.51-.64-.64-.26-.13-.54-.2-.85-.2-.58,0-1.04.17-1.36.52-.33.35-.49.85-.49,1.49,0,.7.18,1.23.53,1.59.35.36.87.54,1.55.54.26,0,.51-.01.77-.04.26-.03.5-.06.75-.11l.08.6c-.27.07-.54.11-.82.13-.28.02-.55.03-.83.03Z"/>
    <path class="cls-6" d="M48.91,134.83c-.69,0-1.23-.23-1.61-.7s-.58-1.13-.58-1.98.19-1.52.58-1.98c.38-.47.92-.7,1.61-.7s1.23.23,1.61.7c.38.47.57,1.13.57,1.98s-.19,1.51-.57,1.98c-.38.47-.92.7-1.61.7ZM48.91,134.22c.48,0,.86-.18,1.12-.54.26-.36.4-.87.4-1.53s-.13-1.18-.4-1.54c-.27-.36-.64-.54-1.12-.54s-.86.18-1.12.54c-.26.36-.4.87-.4,1.54s.13,1.17.4,1.53c.27.36.64.54,1.12.54Z"/>
    <path class="cls-6" d="M52.74,134.73v-5.18h.59l.06,1.09v4.08h-.65ZM56.16,134.73v-3.38c0-.41-.11-.73-.33-.95s-.52-.33-.91-.33c-1.02,0-1.53.58-1.53,1.74l-.31-1.31h.37c.08-.35.24-.61.49-.78.25-.17.6-.26,1.04-.26.58,0,1.03.17,1.35.5s.48.8.48,1.41v3.37h-.65Z"/>
    <path class="cls-6" d="M65.75,134.83c-.52,0-.92-.12-1.21-.36-.29-.24-.43-.59-.43-1.03,0-.54.19-.95.58-1.23s.95-.42,1.69-.42c.35,0,.67.02.96.05.29.03.52.08.7.15l-.1.5c-.21-.07-.46-.11-.75-.12-.29-.01-.56-.02-.83-.02-1.07,0-1.61.35-1.61,1.04,0,.27.09.48.28.63.18.15.44.22.77.22.36,0,.67-.06.95-.18.27-.12.48-.29.64-.49s.23-.43.23-.67v-.6l.34,1.33h-.42l.11-.12c-.02.26-.11.49-.28.69-.17.2-.39.35-.67.46-.28.11-.6.16-.95.16ZM67.75,134.78l-.08-1.87-.06-.06v-1.19c0-.53-.14-.91-.43-1.15-.29-.24-.73-.37-1.34-.38l-1.1-.02.1-.61h.97c.85.03,1.46.21,1.86.58s.59.92.59,1.67v2.41l.89.08v.48l-1.39.05Z"/>
    <path class="cls-6" d="M72.85,134.83c-.87,0-1.54-.23-2-.69s-.69-1.13-.69-2.01.22-1.5.66-1.97c.44-.47,1.07-.7,1.89-.7.49,0,.9.09,1.25.28.35.19.59.45.74.79l-.54.37c-.17-.3-.38-.51-.64-.64-.26-.13-.54-.2-.85-.2-.58,0-1.04.17-1.36.52-.33.35-.49.85-.49,1.49,0,.7.18,1.23.53,1.59.35.36.87.54,1.55.54.26,0,.51-.01.77-.04.26-.03.5-.06.75-.11l.08.6c-.27.07-.54.11-.82.13-.28.02-.55.03-.83.03Z"/>
    <path class="cls-6" d="M75.7,130.15v-.6h4.53v.6h-4.53ZM77.19,132.29v-4.3h.65v4.3h-.65ZM79.15,134.83c-.67,0-1.16-.17-1.48-.51s-.48-.87-.48-1.57v-.84h.65v.83c0,.5.11.88.34,1.12s.58.37,1.06.37c.19,0,.37,0,.55-.03.18-.02.36-.04.56-.07l.07.59c-.21.04-.42.07-.63.09s-.42.03-.65.03Z"/>
    <path class="cls-6" d="M82,134.73v-.6h2.19v.6h-2.19ZM82.29,130.15v-.6h2.45v.6h-2.45ZM84.36,128.43c-.16,0-.29-.06-.4-.17s-.17-.24-.17-.4.06-.29.17-.4.24-.17.4-.17.29.06.4.17.17.24.17.4-.06.29-.17.4-.24.17-.4.17ZM84.09,134.73v-4.92h.65v4.92h-.65ZM84.64,134.73v-.6h1.81v.6h-1.81Z"/>
    <path class="cls-6" d="M89.49,134.73l-2.02-5.18h.7l1.74,4.62h.05l1.73-4.62h.7l-2.02,5.18h-.89Z"/>
    <path class="cls-6" d="M93.72,134.73v-.6h2.19v.6h-2.19ZM94.01,130.15v-.6h2.45v.6h-2.45ZM96.08,128.43c-.16,0-.29-.06-.4-.17s-.17-.24-.17-.4.06-.29.17-.4.24-.17.4-.17.29.06.4.17.17.24.17.4-.06.29-.17.4-.24.17-.4.17ZM95.8,134.73v-4.92h.65v4.92h-.65ZM96.36,134.73v-.6h1.81v.6h-1.81Z"/>
    <path class="cls-6" d="M101.33,134.83c-.68,0-1.19-.22-1.54-.67-.35-.45-.53-1.1-.53-1.97s.18-1.58.53-2.04c.35-.46.87-.69,1.56-.69.46,0,.82.1,1.1.3.28.2.45.5.52.88h.36l-.3,1.43c0-.66-.13-1.17-.4-1.51-.27-.34-.65-.51-1.17-.51s-.89.18-1.16.54c-.26.36-.39.9-.39,1.6s.13,1.18.39,1.53c.26.35.65.52,1.16.52s.9-.17,1.16-.51.4-.84.4-1.5l.35,1.38h-.4c-.07.38-.23.68-.51.9s-.65.33-1.14.33ZM103.13,134.78l-.1-1.25v-6.13h.65v7.34l-.55.03Z"/>
    <path class="cls-6" d="M106.76,134.83c-.52,0-.92-.12-1.21-.36-.29-.24-.43-.59-.43-1.03,0-.54.19-.95.58-1.23s.95-.42,1.69-.42c.35,0,.67.02.96.05.29.03.52.08.7.15l-.1.5c-.21-.07-.46-.11-.75-.12-.29-.01-.56-.02-.83-.02-1.07,0-1.61.35-1.61,1.04,0,.27.09.48.28.63.18.15.44.22.77.22.36,0,.67-.06.95-.18.27-.12.48-.29.64-.49s.23-.43.23-.67v-.6l.34,1.33h-.42l.11-.12c-.02.26-.11.49-.28.69-.17.2-.39.35-.67.46-.28.11-.6.16-.95.16ZM108.77,134.78l-.08-1.87-.06-.06v-1.19c0-.53-.14-.91-.43-1.15-.29-.24-.73-.37-1.34-.38l-1.1-.02.1-.61h.97c.85.03,1.46.21,1.86.58s.59.92.59,1.67v2.41l.89.08v.48l-1.39.05Z"/>
    <path class="cls-6" d="M113.05,134.83c-.68,0-1.19-.22-1.54-.67-.35-.45-.53-1.1-.53-1.97s.18-1.58.53-2.04c.35-.46.87-.69,1.56-.69.46,0,.82.1,1.1.3.28.2.45.5.52.88h.36l-.3,1.43c0-.66-.13-1.17-.4-1.51-.27-.34-.65-.51-1.17-.51s-.89.18-1.16.54c-.26.36-.39.9-.39,1.6s.13,1.18.39,1.53c.26.35.65.52,1.16.52s.9-.17,1.16-.51.4-.84.4-1.5l.35,1.38h-.4c-.07.38-.23.68-.51.9s-.65.33-1.14.33ZM114.85,134.78l-.1-1.25v-6.13h.65v7.34l-.55.03Z"/>
    <path class="cls-6" d="M119.68,134.83c-.86,0-1.52-.24-1.99-.71s-.7-1.15-.7-2.02.2-1.49.59-1.95c.39-.46.95-.69,1.67-.69.67,0,1.19.21,1.56.62.37.42.55,1.01.55,1.78,0,.2,0,.37-.03.51h-3.82v-.56h3.22c0-.56-.13-.99-.39-1.3-.26-.3-.62-.46-1.09-.46-.52,0-.92.18-1.21.53s-.43.85-.43,1.49c0,.68.19,1.21.57,1.58.38.37.92.56,1.61.56.19,0,.39-.01.61-.04.21-.03.42-.06.61-.1l.09.6c-.22.05-.46.08-.71.11-.25.02-.49.03-.72.03Z"/>
    <path class="cls-6" d="M124.69,134.83c-.38,0-.7-.01-.97-.03-.27-.02-.51-.06-.72-.11l.08-.62c.33.05.63.09.88.12s.5.04.73.04c.64,0,1.1-.07,1.39-.2.29-.13.43-.35.43-.64,0-.21-.07-.37-.2-.5s-.35-.23-.64-.3l-1.16-.29c-.5-.13-.87-.3-1.09-.51s-.34-.49-.34-.83c0-.52.21-.9.63-1.13.42-.23,1.1-.35,2.04-.35.23,0,.44,0,.64.02.2.02.42.04.65.08l-.07.58c-.26-.03-.49-.04-.69-.05-.2,0-.38-.01-.55-.01-.69,0-1.2.07-1.51.2-.31.14-.47.35-.47.65,0,.18.08.33.23.45s.41.23.76.31l.93.22c.53.13.92.31,1.15.54s.36.53.36.92c0,.51-.2.88-.59,1.11-.39.23-1.03.35-1.9.35Z"/>
    <path class="cls-6" d="M134.74,134.73v-.6h2.19v.6h-2.19ZM135.03,130.15v-.6h2.45v.6h-2.45ZM137.1,128.43c-.16,0-.29-.06-.4-.17s-.17-.24-.17-.4.06-.29.17-.4.24-.17.4-.17.29.06.4.17.17.24.17.4-.06.29-.17.4-.24.17-.4.17ZM136.82,134.73v-4.92h.65v4.92h-.65ZM137.37,134.73v-.6h1.81v.6h-1.81Z"/>
    <path class="cls-6" d="M140.36,134.73v-5.18h.57l.08,1.09v4.08h-.65ZM142.37,134.73v-4.05c0-.44-.21-.66-.62-.66-.5,0-.74.31-.74.92l-.3-.74h.32c.09-.5.42-.74.98-.74.32,0,.55.09.72.28.16.19.24.47.24.84v4.15h-.6ZM144.32,134.73v-3.96c0-.5-.2-.76-.61-.76-.5,0-.75.31-.75.92l-.35-.74h.36c.04-.23.14-.42.3-.55.16-.13.38-.2.65-.2.35,0,.62.1.79.3.17.2.26.51.26.92v4.05h-.65Z"/>
    <path class="cls-6" d="M146.49,136.98v-7.42h.55l.1,1.19v6.23h-.65ZM148.84,134.83c-.48,0-.86-.11-1.13-.33s-.44-.52-.51-.9h-.42l.35-1.38c0,.66.13,1.16.4,1.5s.65.51,1.16.51.9-.17,1.16-.52c.26-.35.39-.85.39-1.53,0-.71-.13-1.24-.39-1.6-.26-.36-.65-.54-1.16-.54s-.9.17-1.17.51c-.26.34-.4.84-.4,1.51l-.32-1.43h.36c.07-.39.24-.68.52-.88s.65-.3,1.11-.3c.69,0,1.21.23,1.56.69s.53,1.14.53,2.04-.17,1.52-.52,1.97-.86.67-1.54.67Z"/>
    <path class="cls-6" d="M154.84,134.83c-.86,0-1.52-.24-1.99-.71s-.7-1.15-.7-2.02.2-1.49.59-1.95c.39-.46.95-.69,1.67-.69.67,0,1.19.21,1.56.62.37.42.55,1.01.55,1.78,0,.2,0,.37-.03.51h-3.82v-.56h3.22c0-.56-.13-.99-.39-1.3-.26-.3-.62-.46-1.09-.46-.52,0-.92.18-1.21.53s-.43.85-.43,1.49c0,.68.19,1.21.57,1.58.38.37.92.56,1.61.56.19,0,.39-.01.61-.04.21-.03.42-.06.61-.1l.09.6c-.22.05-.46.08-.71.11-.25.02-.49.03-.72.03Z"/>
    <path class="cls-6" d="M157.78,134.73v-.6h3.38v.6h-3.38ZM157.98,130.15v-.6h1.46l.03.6h-1.49ZM159.05,134.73v-5.18h.52l.13,1.48v3.69h-.65ZM159.7,132.51l-.3-1.62h.36c.12-.95.62-1.43,1.52-1.43.55,0,.95.15,1.2.46.25.31.37.8.37,1.48h-.65c0-.48-.08-.82-.24-1.04-.16-.21-.42-.32-.77-.32-.5,0-.88.21-1.13.64s-.37,1.03-.37,1.82Z"/>
    <path class="cls-6" d="M165.79,134.83c-.68,0-1.19-.22-1.54-.67-.35-.45-.53-1.1-.53-1.97s.18-1.58.53-2.04c.35-.46.87-.69,1.56-.69.46,0,.82.1,1.1.3.28.2.45.5.52.88h.36l-.3,1.43c0-.66-.13-1.17-.4-1.51-.27-.34-.65-.51-1.17-.51s-.89.18-1.16.54c-.26.36-.39.9-.39,1.6s.13,1.18.39,1.53c.26.35.65.52,1.16.52s.9-.17,1.16-.51.4-.84.4-1.5l.35,1.38h-.4c-.07.38-.23.68-.51.9s-.65.33-1.14.33ZM167.59,134.78l-.1-1.25v-6.13h.65v7.34l-.55.03Z"/>
    <path class="cls-6" d="M169.89,134.73v-.6h2.19v.6h-2.19ZM170.18,130.15v-.6h2.45v.6h-2.45ZM172.25,128.43c-.16,0-.29-.06-.4-.17s-.17-.24-.17-.4.06-.29.17-.4.24-.17.4-.17.29.06.4.17.17.24.17.4-.06.29-.17.4-.24.17-.4.17ZM171.98,134.73v-4.92h.65v4.92h-.65ZM172.53,134.73v-.6h1.81v.6h-1.81Z"/>
    <path class="cls-6" d="M175.77,134.73v-7.32h.64v7.24s-.64.09-.64.09ZM176.91,134.83c-.2,0-.39,0-.57-.03-.19-.02-.38-.04-.58-.07l.34-.6c.15.04.31.07.49.08.18.01.35.02.53.02.76,0,1.36-.21,1.78-.64.42-.42.63-1.02.63-1.8,0-.56-.13-.99-.39-1.3-.26-.3-.62-.46-1.1-.46-1.08,0-1.63.59-1.63,1.77l-.3-1.33h.37c.17-.69.7-1.04,1.61-1.04.66,0,1.18.2,1.54.61s.55.98.55,1.73c0,.96-.29,1.71-.85,2.23-.57.53-1.37.79-2.41.79Z"/>
    <path class="cls-6" d="M181.31,128v-.6h1.72v.6h-1.72ZM184.68,134.83c-.59,0-1.03-.15-1.31-.46s-.42-.78-.42-1.43v-5.53h.65v5.52c0,.29.04.54.12.72.08.19.22.33.4.43s.42.14.72.14c.27,0,.6-.05,1-.16l.07.6c-.21.06-.42.1-.61.13-.2.03-.4.04-.62.04Z"/>
    <path class="cls-6" d="M189.99,134.83c-.86,0-1.52-.24-1.99-.71s-.7-1.15-.7-2.02.2-1.49.59-1.95c.39-.46.95-.69,1.67-.69.67,0,1.19.21,1.56.62.37.42.55,1.01.55,1.78,0,.2,0,.37-.03.51h-3.82v-.56h3.22c0-.56-.13-.99-.39-1.3-.26-.3-.62-.46-1.09-.46-.52,0-.92.18-1.21.53s-.43.85-.43,1.49c0,.68.19,1.21.57,1.58.38.37.92.56,1.61.56.19,0,.39-.01.61-.04.21-.03.42-.06.61-.1l.09.6c-.22.05-.46.08-.71.11-.25.02-.49.03-.72.03Z"/>
    <path class="cls-6" d="M195,134.83c-.38,0-.7-.01-.97-.03-.27-.02-.51-.06-.72-.11l.08-.62c.33.05.63.09.88.12s.5.04.73.04c.64,0,1.1-.07,1.39-.2.29-.13.43-.35.43-.64,0-.21-.07-.37-.2-.5s-.35-.23-.64-.3l-1.16-.29c-.5-.13-.87-.3-1.09-.51s-.34-.49-.34-.83c0-.52.21-.9.63-1.13.42-.23,1.1-.35,2.04-.35.23,0,.44,0,.64.02.2.02.42.04.65.08l-.07.58c-.26-.03-.49-.04-.69-.05-.2,0-.38-.01-.55-.01-.69,0-1.2.07-1.51.2-.31.14-.47.35-.47.65,0,.18.08.33.23.45s.41.23.76.31l.93.22c.53.13.92.31,1.15.54s.36.53.36.92c0,.51-.2.88-.59,1.11-.39.23-1.03.35-1.9.35Z"/>
    <path class="cls-6" d="M55.67,147.98v-7.42h.55l.1,1.19v6.23h-.65ZM58.02,145.83c-.48,0-.86-.11-1.13-.33s-.44-.52-.51-.9h-.42l.35-1.38c0,.66.13,1.16.4,1.5s.65.51,1.16.51.9-.17,1.16-.52c.26-.35.39-.85.39-1.53,0-.71-.13-1.24-.39-1.6-.26-.36-.65-.54-1.16-.54s-.9.17-1.17.51c-.26.34-.4.84-.4,1.51l-.32-1.43h.36c.07-.39.24-.68.52-.88s.65-.3,1.11-.3c.69,0,1.21.23,1.56.69s.53,1.14.53,2.04-.17,1.52-.52,1.97-.86.67-1.54.67Z"/>
    <path class="cls-6" d="M62.82,145.83c-.52,0-.92-.12-1.21-.36-.29-.24-.43-.59-.43-1.03,0-.54.19-.95.58-1.23s.95-.42,1.69-.42c.35,0,.67.02.96.05.29.03.52.08.7.15l-.1.5c-.21-.07-.46-.11-.75-.12-.29-.01-.56-.02-.83-.02-1.07,0-1.61.35-1.61,1.04,0,.27.09.48.28.63.18.15.44.22.77.22.36,0,.67-.06.95-.18.27-.12.48-.29.64-.49s.23-.43.23-.67v-.6l.34,1.33h-.42l.11-.12c-.02.26-.11.49-.28.69-.17.2-.39.35-.67.46-.28.11-.6.16-.95.16ZM64.82,145.78l-.08-1.87-.06-.06v-1.19c0-.53-.14-.91-.43-1.15-.29-.24-.73-.37-1.34-.38l-1.1-.02.1-.61h.97c.85.03,1.46.21,1.86.58s.59.92.59,1.67v2.41l.89.08v.48l-1.39.05Z"/>
    <path class="cls-6" d="M66.96,145.73v-.6h3.38v.6h-3.38ZM67.16,141.15v-.6h1.46l.03.6h-1.49ZM68.23,145.73v-5.18h.52l.13,1.48v3.69h-.65ZM68.88,143.51l-.3-1.62h.36c.12-.95.62-1.43,1.52-1.43.55,0,.95.15,1.2.46.25.31.37.8.37,1.48h-.65c0-.48-.08-.82-.24-1.04-.16-.21-.42-.32-.77-.32-.5,0-.88.21-1.13.64s-.37,1.03-.37,1.82Z"/>
    <path class="cls-6" d="M74.54,145.83c-.52,0-.92-.12-1.21-.36-.29-.24-.43-.59-.43-1.03,0-.54.19-.95.58-1.23s.95-.42,1.69-.42c.35,0,.67.02.96.05.29.03.52.08.7.15l-.1.5c-.21-.07-.46-.11-.75-.12-.29-.01-.56-.02-.83-.02-1.07,0-1.61.35-1.61,1.04,0,.27.09.48.28.63.18.15.44.22.77.22.36,0,.67-.06.95-.18.27-.12.48-.29.64-.49s.23-.43.23-.67v-.6l.34,1.33h-.42l.11-.12c-.02.26-.11.49-.28.69-.17.2-.39.35-.67.46-.28.11-.6.16-.95.16ZM76.54,145.78l-.08-1.87-.06-.06v-1.19c0-.53-.14-.91-.43-1.15-.29-.24-.73-.37-1.34-.38l-1.1-.02.1-.61h.97c.85.03,1.46.21,1.86.58s.59.92.59,1.67v2.41l.89.08v.48l-1.39.05Z"/>
    <path class="cls-6" d="M84.49,141.15v-.6h4.53v.6h-4.53ZM85.98,143.29v-4.3h.65v4.3h-.65ZM87.94,145.83c-.67,0-1.16-.17-1.48-.51s-.48-.87-.48-1.57v-.84h.65v.83c0,.5.11.88.34,1.12s.58.37,1.06.37c.19,0,.37,0,.55-.03.18-.02.36-.04.56-.07l.07.59c-.21.04-.42.07-.63.09s-.42.03-.65.03Z"/>
    <path class="cls-6" d="M92.86,145.83c-.69,0-1.23-.23-1.61-.7s-.58-1.13-.58-1.98.19-1.52.58-1.98c.38-.47.92-.7,1.61-.7s1.23.23,1.61.7c.38.47.57,1.13.57,1.98s-.19,1.51-.57,1.98c-.38.47-.92.7-1.61.7ZM92.86,145.22c.48,0,.86-.18,1.12-.54.26-.36.4-.87.4-1.53s-.13-1.18-.4-1.54c-.27-.36-.64-.54-1.12-.54s-.86.18-1.12.54c-.26.36-.4.87-.4,1.54s.13,1.17.4,1.53c.27.36.64.54,1.12.54Z"/>
    <path class="cls-6" d="M98.4,145.83c-.68,0-1.19-.22-1.54-.67-.35-.45-.53-1.1-.53-1.97s.18-1.58.53-2.04c.35-.46.87-.69,1.56-.69.46,0,.82.1,1.1.3.28.2.45.5.52.88h.36l-.3,1.43c0-.66-.13-1.17-.4-1.51-.27-.34-.65-.51-1.17-.51s-.89.18-1.16.54c-.26.36-.39.9-.39,1.6s.13,1.18.39,1.53c.26.35.65.52,1.16.52s.9-.17,1.16-.51.4-.84.4-1.5l.35,1.38h-.4c-.07.38-.23.68-.51.9s-.65.33-1.14.33ZM100.2,145.78l-.1-1.25v-6.13h.65v7.34l-.55.03Z"/>
    <path class="cls-6" d="M104.58,145.83c-.69,0-1.23-.23-1.61-.7s-.58-1.13-.58-1.98.19-1.52.58-1.98c.38-.47.92-.7,1.61-.7s1.23.23,1.61.7c.38.47.57,1.13.57,1.98s-.19,1.51-.57,1.98c-.38.47-.92.7-1.61.7ZM104.58,145.22c.48,0,.86-.18,1.12-.54.26-.36.4-.87.4-1.53s-.13-1.18-.4-1.54c-.27-.36-.64-.54-1.12-.54s-.86.18-1.12.54c-.26.36-.4.87-.4,1.54s.13,1.17.4,1.53c.27.36.64.54,1.12.54Z"/>
    <path class="cls-6" d="M110.04,145.83c-.38,0-.7-.01-.97-.03-.27-.02-.51-.06-.72-.11l.08-.62c.33.05.63.09.88.12s.5.04.73.04c.64,0,1.1-.07,1.39-.2.29-.13.43-.35.43-.64,0-.21-.07-.37-.2-.5s-.35-.23-.64-.3l-1.16-.29c-.5-.13-.87-.3-1.09-.51s-.34-.49-.34-.83c0-.52.21-.9.63-1.13.42-.23,1.1-.35,2.04-.35.23,0,.44,0,.64.02.2.02.42.04.65.08l-.07.58c-.26-.03-.49-.04-.69-.05-.2,0-.38-.01-.55-.01-.69,0-1.2.07-1.51.2-.31.14-.47.35-.47.65,0,.18.08.33.23.45s.41.23.76.31l.93.22c.53.13.92.31,1.15.54s.36.53.36.92c0,.51-.2.88-.59,1.11-.39.23-1.03.35-1.9.35Z"/>
    <path class="cls-6" d="M119.78,139v-.6h1.72v.6h-1.72ZM123.16,145.83c-.59,0-1.03-.15-1.31-.46s-.42-.78-.42-1.43v-5.53h.65v5.52c0,.29.04.54.12.72.08.19.22.33.4.43s.42.14.72.14c.27,0,.6-.05,1-.16l.07.6c-.21.06-.42.1-.61.13-.2.03-.4.04-.62.04Z"/>
    <path class="cls-6" d="M128.02,145.83c-.69,0-1.23-.23-1.61-.7s-.58-1.13-.58-1.98.19-1.52.58-1.98c.38-.47.92-.7,1.61-.7s1.23.23,1.61.7c.38.47.57,1.13.57,1.98s-.19,1.51-.57,1.98c-.38.47-.92.7-1.61.7ZM128.02,145.22c.48,0,.86-.18,1.12-.54.26-.36.4-.87.4-1.53s-.13-1.18-.4-1.54c-.27-.36-.64-.54-1.12-.54s-.86.18-1.12.54c-.26.36-.4.87-.4,1.54s.13,1.17.4,1.53c.27.36.64.54,1.12.54Z"/>
    <path class="cls-6" d="M133.48,145.83c-.38,0-.7-.01-.97-.03-.27-.02-.51-.06-.72-.11l.08-.62c.33.05.63.09.88.12s.5.04.73.04c.64,0,1.1-.07,1.39-.2.29-.13.43-.35.43-.64,0-.21-.07-.37-.2-.5s-.35-.23-.64-.3l-1.16-.29c-.5-.13-.87-.3-1.09-.51s-.34-.49-.34-.83c0-.52.21-.9.63-1.13.42-.23,1.1-.35,2.04-.35.23,0,.44,0,.64.02.2.02.42.04.65.08l-.07.58c-.26-.03-.49-.04-.69-.05-.2,0-.38-.01-.55-.01-.69,0-1.2.07-1.51.2-.31.14-.47.35-.47.65,0,.18.08.33.23.45s.41.23.76.31l.93.22c.53.13.92.31,1.15.54s.36.53.36.92c0,.51-.2.88-.59,1.11-.39.23-1.03.35-1.9.35Z"/>
    <path class="cls-6" d="M145.28,145.83c-.68,0-1.19-.22-1.54-.67-.35-.45-.53-1.1-.53-1.97s.18-1.58.53-2.04c.35-.46.87-.69,1.56-.69.46,0,.83.1,1.11.3s.45.5.52.88h.36l-.32,1.43c0-.66-.13-1.17-.4-1.51-.27-.34-.65-.51-1.17-.51s-.89.18-1.16.54c-.26.36-.39.9-.39,1.6s.13,1.18.39,1.53c.26.35.65.52,1.16.52s.9-.17,1.16-.51.4-.84.4-1.5l.35,1.38h-.42c-.07.38-.23.68-.51.9-.27.22-.65.33-1.13.33ZM143.63,148.07l-.03-.6,1.56-.06c.63-.02,1.09-.2,1.38-.52.29-.33.43-.81.44-1.45v-3.72l.06-1.16h.59v4.72c0,.92-.2,1.6-.61,2.04-.41.44-1.06.67-1.95.71l-1.44.05Z"/>
    <path class="cls-6" d="M151.11,145.83c-.57,0-1.01-.16-1.32-.49-.31-.32-.47-.78-.47-1.37v-3.42h.65v3.42c0,.4.11.71.34.92s.54.32.94.32c.48,0,.84-.14,1.08-.43.24-.29.37-.77.37-1.45l.26,1.4h-.31c-.09.35-.28.62-.54.81-.27.19-.6.29-.99.29ZM152.69,144.27v-3.71h.65v3.75l-.65-.03ZM152.78,145.78l-.06-1.24-.02-.91h.65v1.55l.71.07v.48l-1.27.05Z"/>
    <path class="cls-6" d="M156.91,145.83c-.38,0-.7-.01-.97-.03-.27-.02-.51-.06-.72-.11l.08-.62c.33.05.63.09.88.12s.5.04.73.04c.64,0,1.1-.07,1.39-.2.29-.13.43-.35.43-.64,0-.21-.07-.37-.2-.5s-.35-.23-.64-.3l-1.16-.29c-.5-.13-.87-.3-1.09-.51s-.34-.49-.34-.83c0-.52.21-.9.63-1.13.42-.23,1.1-.35,2.04-.35.23,0,.44,0,.64.02.2.02.42.04.65.08l-.07.58c-.26-.03-.49-.04-.69-.05-.2,0-.38-.01-.55-.01-.69,0-1.2.07-1.51.2-.31.14-.47.35-.47.65,0,.18.08.33.23.45s.41.23.76.31l.93.22c.53.13.92.31,1.15.54s.36.53.36.92c0,.51-.2.88-.59,1.11-.39.23-1.03.35-1.9.35Z"/>
    <path class="cls-6" d="M160.66,141.15v-.6h4.53v.6h-4.53ZM162.15,143.29v-4.3h.65v4.3h-.65ZM164.11,145.83c-.67,0-1.16-.17-1.48-.51s-.48-.87-.48-1.57v-.84h.65v.83c0,.5.11.88.34,1.12s.58.37,1.06.37c.19,0,.37,0,.55-.03.18-.02.36-.04.56-.07l.07.59c-.21.04-.42.07-.63.09s-.42.03-.65.03Z"/>
    <path class="cls-6" d="M169.03,145.83c-.69,0-1.23-.23-1.61-.7s-.58-1.13-.58-1.98.19-1.52.58-1.98c.38-.47.92-.7,1.61-.7s1.23.23,1.61.7c.38.47.57,1.13.57,1.98s-.19,1.51-.57,1.98c-.38.47-.92.7-1.61.7ZM169.03,145.22c.48,0,.86-.18,1.12-.54.26-.36.4-.87.4-1.53s-.13-1.18-.4-1.54c-.27-.36-.64-.54-1.12-.54s-.86.18-1.12.54c-.26.36-.4.87-.4,1.54s.13,1.17.4,1.53c.27.36.64.54,1.12.54Z"/>
    <path class="cls-6" d="M174.49,145.83c-.38,0-.7-.01-.97-.03-.27-.02-.51-.06-.72-.11l.08-.62c.33.05.63.09.88.12s.5.04.73.04c.64,0,1.1-.07,1.39-.2.29-.13.43-.35.43-.64,0-.21-.07-.37-.2-.5s-.35-.23-.64-.3l-1.16-.29c-.5-.13-.87-.3-1.09-.51s-.34-.49-.34-.83c0-.52.21-.9.63-1.13.42-.23,1.1-.35,2.04-.35.23,0,.44,0,.64.02.2.02.42.04.65.08l-.07.58c-.26-.03-.49-.04-.69-.05-.2,0-.38-.01-.55-.01-.69,0-1.2.07-1.51.2-.31.14-.47.35-.47.65,0,.18.08.33.23.45s.41.23.76.31l.93.22c.53.13.92.31,1.15.54s.36.53.36.92c0,.51-.2.88-.59,1.11-.39.23-1.03.35-1.9.35Z"/>
    <path class="cls-6" d="M180.75,145.83c-.16,0-.29-.06-.4-.17s-.17-.24-.17-.4.06-.29.17-.4.24-.17.4-.17.29.06.4.17.17.24.17.4-.06.29-.17.4-.24.17-.4.17Z"/>
    <path class="cls-6" d="M59.46,159.41c.3,0,.55.1.76.31s.31.46.31.75-.1.55-.31.76-.46.31-.76.31-.55-.1-.76-.31-.31-.46-.31-.76.1-.54.31-.75.46-.31.76-.31ZM58.56,167.9l.19-5.12h1.39l.22,5.12h-1.8Z"/>
    <path class="cls-6" d="M63.75,165.73v-8.32h1.49v8.32h-1.49ZM66.91,165.73l-1.46-6.5h-.64v-1.82h1.26l1.46,6.5h.39v1.82h-1.01ZM67.75,165.73v-8.32h1.49v8.32h-1.49Z"/>
    <path class="cls-6" d="M73.52,165.85c-.89,0-1.59-.28-2.08-.84s-.74-1.36-.74-2.38.25-1.82.74-2.38,1.19-.84,2.08-.84,1.59.28,2.08.84.74,1.35.74,2.38-.25,1.82-.74,2.38-1.19.84-2.08.84ZM73.52,164.34c.38,0,.68-.15.88-.45s.31-.72.31-1.27-.1-.97-.31-1.27-.5-.45-.88-.45-.67.15-.88.45-.31.72-.31,1.27.1.97.31,1.27.5.45.88.45Z"/>
    <path class="cls-6" d="M84.38,160.98v-1.46h5.82v1.46h-5.82ZM85.87,162.7v-5.06h1.58v5.06h-1.58ZM88.91,165.85c-1.07,0-1.84-.21-2.32-.64s-.71-1.12-.71-2.06v-.81h1.58v.66c0,.47.12.82.37,1.03s.65.32,1.2.32c.18,0,.37-.01.58-.03s.44-.05.7-.08l.14,1.48c-.26.05-.51.08-.75.11s-.5.04-.78.04Z"/>
    <path class="cls-6" d="M95.11,165.85c-1.07,0-1.9-.28-2.49-.83s-.88-1.36-.88-2.4.25-1.8.75-2.37,1.2-.84,2.11-.84,1.57.26,2.06.78.73,1.28.73,2.27c0,.28-.01.55-.04.8h-4.56v-1.1h3.04c0-.42-.11-.74-.32-.96s-.51-.33-.89-.33c-.41,0-.74.15-.96.44s-.34.71-.34,1.26c0,.59.17,1.03.51,1.34s.82.46,1.44.46c.28,0,.56-.01.83-.04s.55-.07.84-.12l.15,1.5c-.4.07-.76.12-1.09.13s-.62.03-.87.03Z"/>
    <path class="cls-6" d="M105.64,158.4v-1.46h1.86v1.46h-1.86ZM109.61,165.85c-.78,0-1.34-.21-1.69-.64s-.52-1.12-.52-2.06v-6.2h1.58v6.14c0,.26.03.47.08.63s.16.29.32.36.39.12.7.12c.34,0,.78-.07,1.3-.22l.18,1.63c-.33.09-.65.15-.96.19s-.64.06-.99.06Z"/>
    <path class="cls-6" d="M114.75,165.85c-.66,0-1.17-.16-1.54-.49s-.55-.79-.55-1.38c0-.7.24-1.23.72-1.6s1.16-.56,2.04-.56c.34,0,.63.02.88.05s.5.09.75.16l-.26,1.24c-.25-.06-.47-.09-.67-.1s-.41-.01-.63-.01c-.82,0-1.23.23-1.23.7,0,.21.07.37.22.48s.37.17.65.17c.34,0,.63-.06.86-.19s.4-.29.52-.49.17-.4.17-.62v-.39l.22,1.59h-.5l.21-.19c-.01.36-.09.66-.25.9s-.37.42-.64.54-.6.18-.99.18ZM116.85,165.79l-.13-1.84-.02-.81v-1.21c0-.33-.14-.58-.42-.73s-.7-.24-1.26-.25l-1.59-.04.12-1.44,1.35.02c1.12.02,1.96.24,2.51.67s.82,1.05.82,1.87v2.3l.86.13v1.29l-2.23.06Z"/>
    <path class="cls-6" d="M122.26,165.85c-.47,0-.89-.01-1.26-.04s-.69-.07-.96-.13l.19-1.52c.49.06.91.11,1.24.14s.6.05.79.05c.53,0,.92-.04,1.15-.11s.36-.19.36-.35c0-.09-.03-.17-.09-.22s-.15-.1-.28-.14l-2.02-.59c-.41-.12-.73-.31-.93-.55s-.31-.58-.31-1c0-.67.28-1.17.84-1.49s1.42-.49,2.56-.49c.27,0,.54,0,.83.03s.59.05.91.09l-.17,1.47c-.36-.03-.67-.05-.93-.06s-.49-.02-.67-.02c-.61,0-1.06.03-1.33.1s-.41.18-.41.34c0,.1.03.17.08.23s.15.1.27.13l1.74.48c.54.14.93.35,1.2.63s.4.63.4,1.08c0,.66-.26,1.15-.79,1.47s-1.32.48-2.4.48Z"/>
    <path class="cls-6" d="M134.17,168.43v-8.91h1.47l.12,1.31v7.59h-1.59ZM137.42,165.85c-.43,0-.78-.1-1.04-.31s-.42-.52-.49-.93h-.55l.42-1.97c0,.6.09,1.04.27,1.31s.49.41.94.41c.41,0,.73-.14.94-.43s.32-.72.32-1.29-.11-.98-.33-1.28-.53-.45-.93-.45-.71.14-.91.42-.3.72-.3,1.32l-.36-1.99h.46c.07-.42.23-.73.48-.93s.6-.31,1.08-.31c.78,0,1.38.28,1.81.84s.64,1.36.64,2.38-.21,1.83-.64,2.38-1.03.83-1.8.83Z"/>
    <path class="cls-6" d="M141.16,165.73v-1.46h2.41v1.46h-2.41ZM141.51,160.99v-1.46h3.53v1.46h-3.53ZM144.18,158.68c-.3,0-.54-.09-.73-.28s-.28-.43-.28-.73.09-.54.28-.73.43-.28.73-.28.54.09.73.28.28.43.28.73-.09.54-.28.73-.43.28-.73.28ZM143.46,165.73v-5.86h1.58v5.86h-1.58ZM144.92,165.73v-1.46h1.96v1.46h-1.96Z"/>
    <path class="cls-6" d="M151.36,165.85c-1.07,0-1.9-.28-2.49-.83s-.88-1.36-.88-2.4.25-1.8.75-2.37,1.2-.84,2.11-.84,1.57.26,2.06.78.73,1.28.73,2.27c0,.28-.01.55-.04.8h-4.56v-1.1h3.04c0-.42-.11-.74-.32-.96s-.51-.33-.89-.33c-.41,0-.74.15-.96.44s-.34.71-.34,1.26c0,.59.17,1.03.51,1.34s.82.46,1.44.46c.28,0,.56-.01.83-.04s.55-.07.84-.12l.15,1.5c-.4.07-.76.12-1.09.13s-.62.03-.87.03Z"/>
    <path class="cls-6" d="M154.75,165.73v-1.36h4.35v1.36h-4.35ZM154.99,160.88v-1.36h2.34l.12,1.36h-2.46ZM156.07,165.73v-6.21h1.35l.23,1.78v4.43h-1.58ZM157.65,163.06l-.36-2.14h.53c.06-1.01.59-1.52,1.59-1.52.59,0,1.04.22,1.36.65s.47,1.06.47,1.88h-1.58c0-.37-.07-.63-.2-.79s-.35-.24-.65-.24c-.39,0-.68.19-.87.56s-.29.91-.29,1.6Z"/>
    <path class="cls-6" d="M164.32,165.85c-.77,0-1.37-.28-1.8-.83s-.64-1.35-.64-2.38.21-1.82.64-2.38,1.03-.84,1.81-.84c.45,0,.8.1,1.03.31s.39.52.46.93h.52l-.36,1.99c0-.6-.1-1.04-.3-1.32s-.5-.42-.91-.42-.71.15-.93.45-.33.73-.33,1.28.11,1,.32,1.29.53.43.94.43c.45,0,.77-.14.95-.41s.27-.71.27-1.31l.42,1.97h-.55c-.06.41-.22.72-.49.93s-.61.31-1.04.31ZM166.2,165.79l-.23-1.23v-7.62h1.59v8.79l-1.36.06Z"/>
    <path class="cls-6" d="M171,165.85c-.66,0-1.17-.16-1.54-.49s-.55-.79-.55-1.38c0-.7.24-1.23.72-1.6s1.16-.56,2.04-.56c.34,0,.63.02.88.05s.5.09.75.16l-.26,1.24c-.25-.06-.47-.09-.67-.1s-.41-.01-.63-.01c-.82,0-1.23.23-1.23.7,0,.21.07.37.22.48s.37.17.65.17c.34,0,.63-.06.86-.19s.4-.29.52-.49.17-.4.17-.62v-.39l.22,1.59h-.5l.21-.19c-.01.36-.09.66-.25.9s-.37.42-.64.54-.6.18-.99.18ZM173.1,165.79l-.13-1.84-.02-.81v-1.21c0-.33-.14-.58-.42-.73s-.7-.24-1.26-.25l-1.59-.04.12-1.44,1.35.02c1.12.02,1.96.24,2.51.67s.82,1.05.82,1.87v2.3l.86.13v1.29l-2.23.06Z"/>
    <path class="cls-6" d="M178.51,165.85c-.47,0-.89-.01-1.26-.04s-.69-.07-.96-.13l.19-1.52c.49.06.91.11,1.24.14s.6.05.79.05c.53,0,.92-.04,1.15-.11s.36-.19.36-.35c0-.09-.03-.17-.09-.22s-.15-.1-.28-.14l-2.02-.59c-.41-.12-.73-.31-.93-.55s-.31-.58-.31-1c0-.67.28-1.17.84-1.49s1.42-.49,2.56-.49c.27,0,.54,0,.83.03s.59.05.91.09l-.17,1.47c-.36-.03-.67-.05-.93-.06s-.49-.02-.67-.02c-.61,0-1.06.03-1.33.1s-.41.18-.41.34c0,.1.03.17.08.23s.15.1.27.13l1.74.48c.54.14.93.35,1.2.63s.4.63.4,1.08c0,.66-.26,1.15-.79,1.47s-1.32.48-2.4.48Z"/>
    <path class="cls-6" d="M186.02,165.85c-.3,0-.55-.1-.76-.31s-.31-.46-.31-.75.1-.55.31-.76.46-.31.76-.31.55.1.76.31.31.46.31.76-.1.54-.31.75-.46.31-.76.31ZM185.32,162.48l-.19-5.12h1.8l-.22,5.12h-1.39Z"/>
  </g>
</svg>