<?xml version="1.0" encoding="UTF-8"?>
<svg id="Capa_1" data-name="Capa 1" xmlns="http://www.w3.org/2000/svg" xmlns:xlink="http://www.w3.org/1999/xlink" viewBox="0 0 471.64 85.62">
  <defs>
    <style>
      .cls-1 {
        opacity: .12;
      }

      .cls-2, .cls-3 {
        fill: none;
      }

      .cls-3 {
        stroke: #1d1d1b;
        stroke-miterlimit: 10;
      }

      .cls-4 {
        clip-path: url(#clippath);
      }
    </style>
    <clipPath id="clippath">
      <rect class="cls-2" x="-906.99" y="35.19" width="857.42" height="267.18" rx="9.54" ry="9.54"/>
    </clipPath>
  </defs>
  <g class="cls-4">
    <g>
      <g class="cls-1">
        <line class="cls-3" x1="8.84" y1="-22.33" x2="8.84" y2="359.89"/>
        <line class="cls-3" x1="43.59" y1="-22.33" x2="43.59" y2="359.89"/>
        <line class="cls-3" x1="78.34" y1="-22.33" x2="78.34" y2="359.89"/>
      </g>
      <g class="cls-1">
        <line class="cls-3" x1="78.34" y1="12.41" x2="-964.08" y2="12.41"/>
        <line class="cls-3" x1="78.34" y1="47.16" x2="-964.08" y2="47.16"/>
        <line class="cls-3" x1="78.34" y1="81.91" x2="-964.08" y2="81.91"/>
      </g>
    </g>
  </g>
  <g>
    <path d="M134.12,27.53c0,1.75-.23,3.68-.7,5.77-.47,2.09-.92,3.14-1.35,3.14-.34,0-.51-.17-.51-.51,0-.1.03-.25.1-.46.91-2.36,1.37-4.91,1.37-7.64,0-4.25-1.27-7.66-3.8-10.25-2.53-2.58-5.87-3.87-10.03-3.87-5.57,0-11.31,1.84-17.22,5.51,4.72,3.51,7.08,7.61,7.08,12.29,0,7.52-5.11,11.99-15.33,13.41,8.4,2.93,12.6,8.31,12.6,16.14,0,5.8-2.47,10.88-7.41,15.23-4.94,4.35-10.72,6.53-17.33,6.53-3.17,0-5.69-.82-7.56-2.45-1.87-1.64-2.81-3.85-2.81-6.65,0-4.32,1.98-8.59,5.95-12.83,3.96-4.23,7.95-6.35,11.96-6.35,2.23,0,4.05.7,5.46,2.1,1.42,1.4,2.12,3.2,2.12,5.39,0,1.32-.4,2.95-1.21,4.91-.81,1.96-1.47,2.93-1.97,2.93-.37,0-.56-.13-.56-.4,0-.13.07-.34.2-.61,1.75-2.56,2.63-4.87,2.63-6.93,0-1.92-.62-3.47-1.87-4.65-1.25-1.18-2.88-1.77-4.9-1.77-3.8,0-7.52,2.01-11.16,6.02-3.63,4.01-5.45,8.11-5.45,12.29,0,2.23.76,4.08,2.27,5.57,1.51,1.48,3.4,2.23,5.66,2.23,5.15,0,9.87-2.5,14.17-7.51,4.29-5.01,6.44-10.51,6.44-16.52,0-5.6-2.7-9.71-8.09-12.34l-2.93.35c-.81.1-1.62.15-2.43.15-2.56,0-3.84-.42-3.84-1.26,0-.61,1.06-.91,3.19-.91,1.52,0,3.52.3,6.02.91,3.51-1.08,6.28-2.97,8.32-5.67,2.04-2.7,3.06-5.8,3.06-9.31s-1.3-6.43-3.9-9.16c-7.39,5.67-14.33,15.28-20.84,28.84-4.01,8.33-7.69,14.37-11.03,18.11-3.24,3.61-7.84,6.9-13.81,9.87-7.05,3.44-13.34,5.16-18.87,5.16-4.52,0-8.28-1.04-11.28-3.11-3-2.07-4.5-4.66-4.5-7.77,0-1.72.51-3.2,1.54-4.45,1.03-1.25,2.25-1.87,3.67-1.87,2.06,0,3.09,1.15,3.09,3.44,0,1.15-.35,2.12-1.04,2.93s-1.54,1.21-2.55,1.21c-1.75,0-2.6-.91-2.53-2.73.03-.74-.03-1.11-.2-1.11-.54,0-.81.89-.81,2.68,0,2.8,1.37,5.13,4.12,6.98,2.75,1.85,6.21,2.78,10.4,2.78,7.39,0,14.08-2.73,20.08-8.2,2.6-2.36,4.86-4.83,6.78-7.41,1.92-2.58,6.32-9.13,13.21-19.66,3.34-5.03,7.35-10.14,12.04-15.33,4.69-5.19,8.62-8.89,11.79-11.08-5.33-4.49-13.05-6.73-23.17-6.73-14.23,0-26.61,5.14-37.14,15.43-8.63,8.43-12.95,16.38-12.95,23.83,0,3.78,1.21,6.78,3.64,9.01s5.72,3.34,9.87,3.34c6.78,0,13.79-3.25,21.02-9.76,7.23-6.51,10.85-12.83,10.85-18.97,0-4.89-2.51-7.34-7.54-7.34s-10.41,2.79-16.16,8.37c-5.75,5.58-8.63,10.83-8.63,15.75,0,1.21.4,2.26,1.21,3.13s1.75,1.31,2.83,1.31c.57.1.86.24.86.4,0,.3-.32.46-.96.46-1.62,0-2.99-.73-4.1-2.2-1.11-1.47-1.67-3.26-1.67-5.38,0-5.22,2.88-10.32,8.65-15.29,5.77-4.97,11.69-7.46,17.76-7.46s8.7,2.68,8.7,8.04c0,6.54-3.69,13.15-11.08,19.83s-14.67,10.02-21.86,10.02c-4.69,0-8.44-1.41-11.26-4.22-2.82-2.82-4.22-6.58-4.22-11.31,0-9.54,5.39-18.26,16.16-26.13,10.78-7.88,22.69-11.81,35.74-11.81,9.81,0,18.14,2.21,24.99,6.63,6.17-3.85,12.14-5.77,17.91-5.77,4.52,0,8.15,1.35,10.9,4.05,2.75,2.7,4.12,6.26,4.12,10.67Z"/>
    <path d="M142.8,64.29c0,.27-1.01,1.51-3.04,3.71-2.57,2.84-4.98,4.26-7.25,4.26-2.57,0-3.85-1.48-3.85-4.45,0-.94.2-2.14.61-3.59-2.12,1.85-3.85,3.69-5.19,5.51-1.33,1.82-3.63,5.53-6.91,11.13-1.79-.14-2.83-.2-3.14-.2-.13,0-1.16.07-3.09.2l8.3-13.46c4.15-6.75,6.22-10.93,6.22-12.55,0-.94-.39-1.42-1.17-1.42-1.89,0-5.32,3.63-10.29,10.9-.3.47-.57.71-.81.71-.14-.03-.2-.13-.2-.3.03-.17.1-.3.2-.41l.91-1.27c5.2-6.93,8.73-10.39,10.59-10.39,2.7,0,4.05,1.74,4.05,5.21,0,2.6-1.38,6.04-4.15,10.32,1.75-2.02,3.42-3.68,5.01-4.96,1.28-3,2.88-5.51,4.78-7.54,1.91-2.02,3.62-3.04,5.13-3.04,1.04,0,1.57.46,1.57,1.37,0,1.62-2.34,3.93-7.03,6.93-.74.47-1.86,1.16-3.34,2.07l-.61.51c-.47,1.55-.71,2.83-.71,3.84,0,2.83,1.06,4.25,3.19,4.25,2.64,0,5.51-2.18,8.62-6.55.68-.74,1.1-1.12,1.27-1.12.2,0,.3.1.3.3Z"/>
    <path d="M168.25,64.34c0,.1-.3.54-.91,1.31l-2.18,2.73c-6.99,8.62-12.98,12.93-17.98,12.93-2.36,0-4.35-.85-5.95-2.55-1.6-1.7-2.4-3.84-2.4-6.4,0-6.07,4.23-11.42,12.7-16.04,4.45-2.43,8.08-3.64,10.88-3.64,1.21,0,2.25.36,3.11,1.09.86.73,1.29,1.61,1.29,2.66,0,2.43-1.59,4.49-4.76,6.2-3.17,1.7-8.47,3.3-15.89,4.78-2.29,3.47-3.44,6.38-3.44,8.7,0,2.9,1.57,4.35,4.71,4.35,5.33,0,11.87-5.2,19.6-15.61.41-.54.74-.81,1.01-.81.13.03.2.14.2.3ZM163.97,54.95c0-1.08-.59-1.62-1.77-1.62-1.79,0-4.14,1.24-7.06,3.72s-5.78,5.69-8.58,9.64c4.86-1.25,8.97-3.01,12.34-5.29,3.37-2.28,5.06-4.43,5.06-6.45Z"/>
    <path d="M203.82,64.29c0,.71-2.46,3.99-7.39,9.83-3.99,4.8-7.13,7.2-9.42,7.2-1.55,0-2.82-.58-3.8-1.75-.98-1.16-1.47-2.62-1.47-4.38s.54-3.79,1.62-5.92c-3.37,4.72-5.95,7.91-7.74,9.56-1.79,1.65-3.52,2.48-5.21,2.48-1.79,0-3.29-.77-4.5-2.3-1.21-1.53-1.82-3.47-1.82-5.79,0-6.48,4.57-12.21,13.71-17.2,4.01-2.23,7.25-3.34,9.71-3.34,2.09,0,3.14,1.01,3.14,3.04,0,.57-.14,1.33-.41,2.28l2.58-4.91c1.01.24,1.9.35,2.68.35.91,0,2.09-.12,3.54-.35l-8.96,14.82c-3.1,5.19-4.65,8.62-4.65,10.27s.66,2.38,1.98,2.38,3.51-1.55,6.49-4.64c2.97-3.09,6-6.9,9.07-11.43.2-.34.39-.51.56-.51.2,0,.3.1.3.3ZM189.88,55.91c0-1.65-.76-2.48-2.28-2.48-3.1,0-7.18,3.04-12.22,9.11-5.04,6.07-7.56,10.98-7.56,14.72,0,2.19.98,3.29,2.93,3.29,2.33,0,6.36-3.86,12.09-11.59,4.69-6.34,7.03-10.69,7.03-13.05Z"/>
    <path d="M230.76,28.44c-.27.47-.69,1.16-1.26,2.07-.88,1.42-2.19,3.52-3.95,6.32-.84,1.45-2.14,3.63-3.9,6.53l-8.7,14.06c-2.9,4.69-5.36,8.94-7.39,12.75-2.26,4.25-4.08,7.54-5.46,9.87l-.66,1.01c-.91-.2-1.8-.3-2.68-.3-.74,0-1.84.1-3.29.3.78-1.32,1.64-2.8,2.58-4.45l5.87-10.22c.88-1.52,2.19-3.81,3.95-6.88l18.57-31.06c1.38.27,2.41.4,3.09.4s1.75-.13,3.24-.4ZM235.13,64.29c-.03.1-.2.37-.51.81l-2.18,2.99c-6.38,8.82-11.19,13.22-14.43,13.22-1.45,0-2.74-.49-3.85-1.47-1.12-.98-1.67-2.09-1.67-3.34,0-1.08.94-3.5,2.83-7.25l.05-.2c.64-1.25.96-2.18.96-2.79,0-.74-.56-1.44-1.67-2.08-1.28.54-2.34.81-3.19.81-1.18,0-1.77-.34-1.77-1.01,0-.57.56-.86,1.67-.86s2.07.17,2.98.51c1.69-.74,4.38-3.25,8.1-7.52,1.99-2.29,4.03-3.43,6.12-3.43,2.56,0,3.85,1.21,3.85,3.64,0,1.62-.65,3.23-1.95,4.83-1.3,1.6-2.59,2.4-3.87,2.4-1.45,0-2.18-.66-2.18-1.97,0-1.21,1.1-2.51,3.29-3.9.91-.57,1.37-1.38,1.37-2.43,0-.81-.52-1.21-1.57-1.21-1.45,0-3.27,1.28-5.46,3.83-2.8,3.2-5.08,5.18-6.83,5.95,3.51,1.62,5.26,3.5,5.26,5.62,0,1.18-.83,3.46-2.48,6.84-.71,1.42-1.06,2.4-1.06,2.94,0,.88.56,1.32,1.67,1.32,3.17,0,8.35-5.35,15.53-16.06.24-.34.46-.51.66-.51.22,0,.33.1.33.3Z"/>
  </g>
  <g>
    <path d="M271.59,59.08h-8.39v-1.69c0-1.44-.08-2.35-.25-2.73s-.57-.57-1.23-.57c-.53,0-.93.18-1.2.53s-.4.88-.4,1.58c0,.95.07,1.65.2,2.1s.53.93,1.2,1.46,2.03,1.3,4.09,2.32c2.75,1.34,4.55,2.61,5.41,3.8s1.29,2.91,1.29,5.18c0,2.53-.33,4.44-.98,5.73s-1.75,2.28-3.29,2.98-3.39,1.04-5.57,1.04c-2.41,0-4.46-.38-6.18-1.12s-2.89-1.77-3.53-3.05-.96-3.22-.96-5.81v-1.5h8.39v1.97c0,1.67.11,2.76.32,3.26s.63.75,1.25.75c.67,0,1.14-.17,1.41-.5s.4-1.04.4-2.12c0-1.48-.17-2.41-.52-2.79-.36-.38-2.2-1.48-5.51-3.33-2.78-1.56-4.48-2.98-5.09-4.25s-.91-2.79-.91-4.54c0-2.48.33-4.32.98-5.5s1.77-2.09,3.34-2.73,3.39-.96,5.47-.96,3.82.26,5.26.79,2.55,1.21,3.33,2.07,1.24,1.66,1.41,2.39.25,1.88.25,3.45v1.8Z"/>
    <path d="M284.59,42.3v4.95h-9.75v-4.95h9.75ZM284.59,49.15v31.1h-9.75v-31.1h9.75Z"/>
    <path d="M297.62,49.15l-.16,2.87c.69-1.14,1.53-2,2.52-2.57s2.14-.86,3.43-.86c1.62,0,2.95.38,3.98,1.15s1.7,1.73,1.99,2.89.45,3.11.45,5.82v21.8h-9.47v-21.54c0-2.14-.07-3.45-.21-3.91s-.53-.7-1.17-.7-1.09.27-1.27.81-.26,1.98-.26,4.32v21.02h-9.47v-31.1h9.63Z"/>
    <path d="M330.02,61.19h-8.88v-2.09c0-2.41.28-4.26.83-5.57s1.67-2.46,3.34-3.46,3.84-1.5,6.52-1.5c3.2,0,5.62.57,7.24,1.7s2.6,2.52,2.93,4.17.49,5.04.49,10.18v15.61h-9.21v-2.77c-.58,1.11-1.32,1.94-2.24,2.5s-2,.83-3.27.83c-1.66,0-3.18-.46-4.56-1.39s-2.07-2.96-2.07-6.11v-2.55c0-2.33.37-3.91,1.1-4.76s2.55-1.83,5.46-2.95c3.11-1.22,4.77-2.04,4.99-2.46s.33-1.28.33-2.58c0-1.62-.12-2.68-.36-3.18s-.64-.74-1.21-.74c-.64,0-1.04.21-1.2.62s-.23,1.49-.23,3.22v3.26ZM333.02,65.46c-1.52,1.11-2.39,2.04-2.64,2.79s-.36,1.83-.36,3.23c0,1.61.11,2.65.32,3.12s.63.7,1.25.7.98-.18,1.16-.55.27-1.33.27-2.89v-6.4Z"/>
    <path d="M367.26,49.15v23.95c0,3.23-.07,5.32-.22,6.27s-.68,1.95-1.58,3-2.17,1.86-3.79,2.41-3.65.83-6.11.83c-3.02,0-5.44-.51-7.27-1.54s-2.77-3.04-2.84-6.04h9.19c0,1.38.5,2.06,1.5,2.06.72,0,1.2-.21,1.43-.63.23-.42.35-1.31.35-2.65v-2.35c-.81.74-1.67,1.29-2.57,1.67-.9.38-1.84.56-2.82.56-1.7,0-3.11-.34-4.21-1.03s-1.86-1.59-2.26-2.71-.61-2.71-.61-4.77v-11.3c0-2.95.53-5.08,1.59-6.38s2.68-1.95,4.85-1.95c1.19,0,2.27.24,3.25.73.98.49,1.85,1.21,2.61,2.18l.68-2.35h8.81ZM357.77,57.4c0-1.42-.08-2.33-.25-2.72s-.53-.59-1.09-.59-.93.22-1.16.67-.34,1.32-.34,2.64v10.45c0,1.39.09,2.29.26,2.71s.53.62,1.08.62c.62,0,1.03-.25,1.22-.75s.28-1.63.28-3.4v-9.63Z"/>
    <path d="M392.08,65.25h-12.26v6.73c0,1.41.1,2.31.3,2.72s.59.61,1.17.61c.72,0,1.2-.27,1.44-.81s.36-1.58.36-3.13v-4.1h8.98v2.3c0,1.92-.12,3.4-.36,4.43s-.81,2.13-1.7,3.3-2.02,2.05-3.39,2.64-3.08.88-5.14.88-3.77-.29-5.3-.87-2.72-1.37-3.57-2.38-1.44-2.12-1.77-3.33-.49-2.97-.49-5.29v-9.07c0-2.72.37-4.86,1.1-6.43s1.94-2.77,3.61-3.61,3.59-1.25,5.77-1.25c2.66,0,4.85.5,6.57,1.51s2.94,2.34,3.63,4.01,1.04,4,1.04,7.02v4.12ZM382.59,60.19v-2.27c0-1.61-.09-2.65-.26-3.12s-.52-.7-1.05-.7c-.66,0-1.06.2-1.22.6s-.23,1.47-.23,3.22v2.27h2.77Z"/>
    <path d="M404.8,49.15l-.16,2.87c.69-1.14,1.53-2,2.52-2.57s2.14-.86,3.43-.86c1.62,0,2.95.38,3.98,1.15s1.7,1.73,1.99,2.89.45,3.11.45,5.82v21.8h-9.47v-21.54c0-2.14-.07-3.45-.21-3.91s-.53-.7-1.17-.7-1.09.27-1.27.81-.26,1.98-.26,4.32v21.02h-9.47v-31.1h9.63Z"/>
    <path d="M441.81,42.3v37.95h-9.47v-2.26c-.91.94-1.86,1.64-2.86,2.11s-2.05.7-3.14.7c-1.47,0-2.74-.39-3.82-1.16s-1.77-1.67-2.07-2.68-.46-2.67-.46-4.97v-14.55c0-2.39.15-4.09.46-5.09s1-1.88,2.1-2.64,2.4-1.14,3.91-1.14c1.17,0,2.25.21,3.22.63.98.42,1.86,1.06,2.66,1.9v-8.82h9.47ZM432.34,56.97c0-1.14-.1-1.91-.29-2.3s-.58-.59-1.16-.59-.94.18-1.14.53-.29,1.14-.29,2.36v15.23c0,1.27.09,2.1.28,2.5s.55.6,1.08.6c.61,0,1.02-.22,1.22-.67s.3-1.54.3-3.27v-14.39Z"/>
    <path d="M453.67,61.19h-8.88v-2.09c0-2.41.28-4.26.83-5.57s1.67-2.46,3.34-3.46,3.84-1.5,6.52-1.5c3.2,0,5.62.57,7.24,1.7s2.6,2.52,2.93,4.17.49,5.04.49,10.18v15.61h-9.21v-2.77c-.58,1.11-1.32,1.94-2.24,2.5s-2,.83-3.27.83c-1.66,0-3.18-.46-4.56-1.39s-2.07-2.96-2.07-6.11v-2.55c0-2.33.37-3.91,1.1-4.76s2.55-1.83,5.46-2.95c3.11-1.22,4.77-2.04,4.99-2.46s.33-1.28.33-2.58c0-1.62-.12-2.68-.36-3.18s-.64-.74-1.21-.74c-.64,0-1.04.21-1.2.62s-.23,1.49-.23,3.22v3.26ZM456.67,65.46c-1.52,1.11-2.39,2.04-2.64,2.79s-.36,1.83-.36,3.23c0,1.61.11,2.65.32,3.12s.63.7,1.25.7.98-.18,1.16-.55.27-1.33.27-2.89v-6.4Z"/>
  </g>
  <image width="2000" height="1333" transform="translate(-75.08 52.71) scale(.27)" xlink:href="../../representacion-3d-persona-noche.png"/>
</svg>