<?xml version="1.0" encoding="UTF-8"?>
<svg id="Capa_1" data-name="Capa 1" xmlns="http://www.w3.org/2000/svg" viewBox="0 0 320.23 190.31">
  <defs>
    <style>
      .cls-1 {
        fill: #ff769d;
      }

      .cls-2 {
        fill: none;
      }

      .cls-2, .cls-3, .cls-4, .cls-5 {
        stroke: #000;
        stroke-miterlimit: 10;
      }

      .cls-3 {
        fill: #b6d3f2;
      }

      .cls-4 {
        fill: #fff;
      }

      .cls-6 {
        fill: #ffda30;
      }

      .cls-7 {
        fill: #32d65d;
      }

      .cls-5 {
        fill: #1100ca;
      }
    </style>
  </defs>
  <g>
    <path d="M66.5,51.33c-1.19-.92-2.39-1.8-3.61-2.65,4.65-1.06,9.3-2.49,13.95-4.74-4.85-2.35-9.69-3.81-14.54-4.88,4.04-2.89,7.92-6.13,11.46-10.19-5.15-.25-9.98.26-14.67,1.11,2.53-4.03,4.81-8.32,6.5-13.2-5.09,1.76-9.54,4.16-13.73,6.83.81-4.9,1.27-9.94.9-15.31-3.82,3.47-6.88,7.24-9.59,11.16-1.06-4.64-2.49-9.29-4.74-13.93-2.35,4.85-3.81,9.69-4.88,14.54-2.89-4.04-6.13-7.92-10.19-11.46-.25,5.16.26,9.98,1.11,14.67-4.03-2.53-8.32-4.81-13.2-6.5,1.76,5.09,4.16,9.54,6.83,13.73-4.9-.81-9.94-1.27-15.31-.9,3.47,3.83,7.25,6.88,11.17,9.6-1.45.34-2.89.71-4.34,1.11-3.2.95-6.4,2.01-9.61,3.61,3.2,1.61,6.4,2.67,9.61,3.61,1.66.47,3.31.89,4.97,1.26-1.38.99-2.73,2.03-4.07,3.11-2.57,2.13-5.1,4.36-7.42,7.09,3.57.22,6.94-.06,10.25-.45,1.5-.19,2.99-.42,4.46-.68-.79,1.27-1.56,2.56-2.3,3.88-1.59,2.93-3.11,5.95-4.24,9.35,3.4-1.13,6.41-2.64,9.35-4.24,1.5-.84,2.97-1.72,4.4-2.62-.27,1.68-.5,3.37-.68,5.08-.32,3.32-.53,6.69-.23,10.26,2.68-2.37,4.86-4.95,6.93-7.56.92-1.19,1.81-2.41,2.66-3.63.34,1.45.71,2.91,1.12,4.36.95,3.2,2.01,6.4,3.61,9.61,1.6-3.2,2.67-6.4,3.61-9.61.47-1.66.89-3.31,1.26-4.97.99,1.38,2.03,2.73,3.11,4.07,2.13,2.57,4.36,5.1,7.09,7.42.22-3.57-.06-6.94-.45-10.25-.19-1.5-.42-2.99-.68-4.46,1.27.79,2.56,1.56,3.88,2.3,2.93,1.59,5.95,3.11,9.35,4.24-1.13-3.4-2.64-6.41-4.24-9.35-.84-1.5-1.72-2.97-2.62-4.4,1.68.27,3.37.5,5.08.68,3.32.32,6.69.53,10.26.23-2.37-2.68-4.95-4.86-7.56-6.93ZM38.42,59.98c-8.86,0-16.04-7.18-16.04-16.04s7.18-16.04,16.04-16.04,16.04,7.18,16.04,16.04-7.18,16.04-16.04,16.04Z"/>
    <circle cx="38.42" cy="43.93" r="16.04" transform="translate(-19.15 53.52) rotate(-58.28)"/>
  </g>
  <g>
    <rect x="37.78" y="43.93" width="277.98" height="140.58" rx="14.63" ry="14.63"/>
    <rect class="cls-4" x="31.65" y="37.29" width="277.98" height="140.58" rx="15.82" ry="15.82"/>
    <path class="cls-3" d="M31.65,162.83h277.98v5.16c0,5.46-4.43,9.88-9.88,9.88H41.54c-5.46,0-9.88-4.43-9.88-9.88v-5.16h0Z"/>
    <path class="cls-5" d="M39.18,37.29h262.93c4.15,0,7.52,3.37,7.52,7.52v11.31H31.65v-11.31c0-4.15,3.37-7.52,7.52-7.52Z"/>
    <g>
      <g>
        <circle class="cls-1" cx="257.7" cy="47.23" r="5.11"/>
        <circle class="cls-2" cx="257.7" cy="47.23" r="5.11"/>
      </g>
      <g>
        <circle class="cls-6" cx="275.23" cy="47.23" r="5.11"/>
        <circle class="cls-2" cx="275.23" cy="47.23" r="5.11"/>
      </g>
      <g>
        <circle class="cls-7" cx="292.76" cy="47.23" r="5.11"/>
        <circle class="cls-2" cx="292.76" cy="47.23" r="5.11"/>
      </g>
    </g>
  </g>
  <g>
    <path d="M64.12,81.91c-2.1,0-3.15-1.19-3.15-3.57,0-1.13.26-2,.8-2.62.53-.62,1.28-.93,2.24-.93.46,0,.86.08,1.2.23s.59.37.75.65l-.45.46c-.17-.23-.38-.42-.64-.55-.26-.13-.54-.2-.84-.2-.72,0-1.3.25-1.74.76s-.65,1.22-.65,2.16c0,2.02.86,3.03,2.59,3.03.53,0,1.05-.12,1.56-.35l.16.58c-.58.24-1.18.36-1.82.36Z"/>
    <path d="M69.29,81.91c-.69,0-1.23-.23-1.61-.7-.38-.47-.58-1.13-.58-1.98s.19-1.52.58-1.98c.38-.47.92-.7,1.61-.7s1.23.23,1.61.7c.38.47.57,1.13.57,1.98s-.19,1.51-.57,1.98c-.38.47-.92.7-1.61.7ZM69.29,81.3c.48,0,.86-.18,1.12-.54.27-.36.4-.87.4-1.53s-.13-1.18-.4-1.54c-.26-.36-.64-.54-1.12-.54s-.86.18-1.12.54c-.26.36-.4.87-.4,1.54s.13,1.17.4,1.53c.27.36.64.54,1.12.54Z"/>
    <path d="M73.12,81.81v-5.18h.59l.06,1.09v4.08h-.65ZM76.54,81.81v-3.38c0-.41-.11-.73-.33-.95-.22-.22-.52-.33-.91-.33-1.02,0-1.53.58-1.53,1.74l-.31-1.31h.37c.07-.35.24-.61.49-.78.25-.17.6-.26,1.04-.26.58,0,1.03.17,1.35.5.32.33.48.8.48,1.41v3.37h-.65Z"/>
    <path d="M86.47,81.91c-.38,0-.7-.01-.97-.03-.26-.02-.5-.06-.72-.11l.08-.62c.33.05.63.09.88.12s.5.04.73.04c.64,0,1.1-.07,1.39-.2s.43-.35.43-.64c0-.21-.07-.37-.2-.5-.13-.13-.35-.23-.64-.3l-1.16-.29c-.5-.13-.87-.3-1.09-.51s-.34-.49-.34-.83c0-.52.21-.9.63-1.13.42-.23,1.1-.35,2.04-.35.23,0,.44,0,.64.02.2.01.41.04.65.08l-.07.58c-.26-.03-.49-.04-.69-.05-.2,0-.38-.01-.55-.01-.69,0-1.2.07-1.51.2s-.47.35-.47.65c0,.18.08.33.23.45s.41.23.76.31l.93.22c.53.13.91.31,1.15.54.24.23.36.53.36.92,0,.51-.2.88-.59,1.11-.39.23-1.03.35-1.9.35Z"/>
    <path d="M92.39,81.91c-.57,0-1.01-.16-1.32-.49s-.47-.78-.47-1.37v-3.42h.65v3.42c0,.4.11.71.34.92s.54.32.94.32c.48,0,.84-.14,1.08-.43s.37-.77.37-1.45l.26,1.4h-.31c-.09.35-.28.62-.54.81-.27.19-.6.29-.99.29ZM93.97,80.35v-3.71h.65v3.75l-.65-.03ZM94.06,81.86l-.06-1.24-.02-.91h.65v1.55l.71.07v.48l-1.27.05Z"/>
    <path d="M102.08,75.08v-.6h1.72v.6h-1.72ZM105.45,81.91c-.59,0-1.03-.15-1.31-.46s-.42-.78-.42-1.43v-5.53h.65v5.52c0,.29.04.53.12.73s.22.33.4.43c.18.09.42.14.72.14.27,0,.6-.05,1-.16l.07.6c-.21.06-.42.1-.61.13s-.4.04-.62.04Z"/>
    <path d="M109.56,81.91c-.52,0-.92-.12-1.21-.36-.28-.24-.43-.58-.43-1.03,0-.54.19-.95.58-1.23.38-.28.95-.42,1.69-.42.35,0,.67.02.96.05.29.03.53.08.7.15l-.1.5c-.21-.07-.46-.11-.75-.12-.29-.01-.56-.02-.83-.02-1.07,0-1.61.35-1.61,1.04,0,.27.09.48.28.63.18.15.44.22.77.22.36,0,.67-.06.94-.18.27-.12.48-.29.64-.49.15-.21.23-.43.23-.67v-.6l.34,1.33h-.42l.11-.12c-.02.26-.11.49-.28.69-.17.2-.39.35-.67.46s-.59.16-.95.16ZM111.57,81.86l-.08-1.87-.06-.06v-1.19c0-.53-.14-.91-.43-1.15-.28-.24-.73-.37-1.34-.38l-1.1-.02.1-.61h.97c.85.03,1.46.21,1.86.58s.59.92.59,1.67v2.41l.89.08v.48l-1.39.05Z"/>
    <path d="M114.11,81.81v-7.32h.64v7.24s-.64.09-.64.09ZM115.26,81.91c-.2,0-.39,0-.57-.03s-.38-.04-.58-.07l.34-.6c.15.04.31.07.49.08.18.01.35.02.53.02.76,0,1.36-.21,1.78-.64s.63-1.02.63-1.8c0-.56-.13-.99-.39-1.3-.26-.3-.62-.46-1.1-.46-1.08,0-1.63.59-1.63,1.77l-.3-1.33h.37c.17-.69.7-1.04,1.61-1.04.66,0,1.18.2,1.54.61.36.41.55.98.55,1.73,0,.96-.29,1.71-.85,2.23-.57.53-1.37.79-2.41.79Z"/>
    <path d="M122.03,81.91c-.69,0-1.23-.23-1.61-.7-.38-.47-.58-1.13-.58-1.98s.19-1.52.58-1.98c.38-.47.92-.7,1.61-.7s1.23.23,1.61.7c.38.47.57,1.13.57,1.98s-.19,1.51-.57,1.98c-.38.47-.92.7-1.61.7ZM122.03,81.3c.48,0,.86-.18,1.12-.54.27-.36.4-.87.4-1.53s-.13-1.18-.4-1.54c-.26-.36-.64-.54-1.12-.54s-.86.18-1.12.54c-.26.36-.4.87-.4,1.54s.13,1.17.4,1.53c.27.36.64.54,1.12.54Z"/>
    <path d="M125.43,81.81v-.6h3.38v.6h-3.38ZM125.62,77.23v-.6h1.46l.03.6h-1.49ZM126.69,81.81v-5.18h.52l.13,1.48v3.69h-.65ZM127.35,79.58l-.3-1.62h.36c.12-.95.62-1.43,1.52-1.43.55,0,.95.15,1.2.46s.37.8.37,1.48h-.65c0-.48-.08-.82-.24-1.04-.16-.21-.41-.32-.77-.32-.5,0-.88.21-1.13.64-.25.43-.37,1.03-.37,1.82Z"/>
    <path d="M140.06,81.91c-.86,0-1.52-.24-1.99-.71s-.7-1.15-.7-2.02.2-1.49.59-1.95c.39-.46.95-.69,1.67-.69.67,0,1.19.21,1.56.62.37.42.55,1.01.55,1.78,0,.2,0,.37-.03.51h-3.82v-.56h3.22c0-.56-.13-.99-.39-1.3s-.62-.46-1.09-.46c-.52,0-.92.18-1.21.53-.29.35-.43.85-.43,1.49,0,.68.19,1.21.57,1.58.38.37.92.56,1.61.56.19,0,.39-.01.61-.04.21-.02.42-.06.61-.1l.09.6c-.22.05-.46.08-.71.1s-.49.03-.72.03Z"/>
    <path d="M145.15,81.91c-.68,0-1.19-.22-1.54-.67-.35-.45-.52-1.1-.52-1.97s.18-1.58.53-2.04c.35-.46.87-.69,1.56-.69.46,0,.82.1,1.1.3s.45.5.52.88h.36l-.3,1.43c0-.66-.13-1.17-.4-1.51-.26-.34-.65-.51-1.16-.51s-.89.18-1.16.54c-.26.36-.39.9-.39,1.6s.13,1.18.39,1.53c.26.35.65.52,1.16.52s.9-.17,1.16-.51.4-.84.4-1.5l.35,1.38h-.4c-.07.38-.23.68-.51.9s-.65.33-1.14.33ZM146.95,81.86l-.1-1.25v-6.13h.65v7.34l-.55.03Z"/>
    <path d="M150.98,81.91c-.57,0-1.01-.16-1.32-.49s-.47-.78-.47-1.37v-3.42h.65v3.42c0,.4.11.71.34.92s.54.32.94.32c.48,0,.84-.14,1.08-.43s.37-.77.37-1.45l.26,1.4h-.31c-.09.35-.28.62-.54.81-.27.19-.6.29-.99.29ZM152.56,80.35v-3.71h.65v3.75l-.65-.03ZM152.65,81.86l-.06-1.24-.02-.91h.65v1.55l.71.07v.48l-1.27.05Z"/>
    <path d="M157.68,81.91c-.87,0-1.54-.23-2-.69s-.69-1.13-.69-2.01.22-1.5.66-1.97c.44-.47,1.07-.7,1.89-.7.48,0,.9.09,1.25.28s.59.45.74.79l-.54.37c-.17-.3-.38-.51-.64-.64s-.54-.2-.85-.2c-.58,0-1.04.17-1.36.52-.33.35-.49.85-.49,1.49,0,.7.18,1.23.53,1.59.35.36.87.54,1.55.54.26,0,.51-.01.77-.04.26-.03.5-.06.75-.11l.08.6c-.27.06-.54.11-.82.13-.28.02-.56.03-.83.03Z"/>
    <path d="M162.3,81.91c-.52,0-.92-.12-1.21-.36-.28-.24-.43-.58-.43-1.03,0-.54.19-.95.58-1.23.38-.28.95-.42,1.69-.42.35,0,.67.02.96.05.29.03.53.08.7.15l-.1.5c-.21-.07-.46-.11-.75-.12-.29-.01-.56-.02-.83-.02-1.07,0-1.61.35-1.61,1.04,0,.27.09.48.28.63.18.15.44.22.77.22.36,0,.67-.06.94-.18.27-.12.48-.29.64-.49.15-.21.23-.43.23-.67v-.6l.34,1.33h-.42l.11-.12c-.02.26-.11.49-.28.69-.17.2-.39.35-.67.46s-.59.16-.95.16ZM164.3,81.86l-.08-1.87-.06-.06v-1.19c0-.53-.14-.91-.43-1.15-.28-.24-.73-.37-1.34-.38l-1.1-.02.1-.61h.97c.85.03,1.46.21,1.86.58s.59.92.59,1.67v2.41l.89.08v.48l-1.39.05Z"/>
    <path d="M166.39,77.23v-.6h4.53v.6h-4.53ZM167.88,79.37v-4.3h.65v4.3h-.65ZM169.84,81.91c-.67,0-1.16-.17-1.48-.51-.32-.34-.48-.87-.48-1.57v-.84h.65v.83c0,.5.11.88.34,1.12.23.24.58.37,1.06.37.19,0,.37,0,.55-.03.18-.02.36-.04.56-.07l.07.59c-.21.04-.42.07-.63.09s-.42.03-.65.03Z"/>
    <path d="M172.69,81.81v-.6h2.19v.6h-2.19ZM172.99,77.23v-.6h2.45v.6h-2.45ZM175.06,75.51c-.16,0-.29-.06-.4-.17-.11-.11-.17-.24-.17-.4s.05-.29.17-.4c.11-.11.24-.17.4-.17s.29.06.4.17c.11.11.17.24.17.4s-.06.29-.17.4c-.11.11-.24.17-.4.17ZM174.78,81.81v-4.92h.65v4.92h-.65ZM175.33,81.81v-.6h1.81v.6h-1.81Z"/>
    <path d="M180.18,81.81l-2.02-5.18h.7l1.74,4.62h.05l1.73-4.62h.7l-2.02,5.18h-.89Z"/>
    <path d="M185.73,81.91c-.52,0-.92-.12-1.21-.36-.28-.24-.43-.58-.43-1.03,0-.54.19-.95.58-1.23.38-.28.95-.42,1.69-.42.35,0,.67.02.96.05.29.03.53.08.7.15l-.1.5c-.21-.07-.46-.11-.75-.12-.29-.01-.56-.02-.83-.02-1.07,0-1.61.35-1.61,1.04,0,.27.09.48.28.63.18.15.44.22.77.22.36,0,.67-.06.94-.18.27-.12.48-.29.64-.49.15-.21.23-.43.23-.67v-.6l.34,1.33h-.42l.11-.12c-.02.26-.11.49-.28.69-.17.2-.39.35-.67.46s-.59.16-.95.16ZM187.74,81.86l-.08-1.87-.06-.06v-1.19c0-.53-.14-.91-.43-1.15-.28-.24-.73-.37-1.34-.38l-1.1-.02.1-.61h.97c.85.03,1.46.21,1.86.58s.59.92.59,1.67v2.41l.89.08v.48l-1.39.05Z"/>
    <path d="M197.81,81.81l-2.19-5.18h.7l1.91,4.62h.12v.55h-.55ZM195.72,84.16l-.03-.61.49-.07c.33-.05.61-.16.87-.33.25-.17.48-.42.69-.74.21-.33.41-.76.61-1.3l1.6-4.47h.7l-1.78,4.72c-.23.62-.48,1.12-.72,1.5-.25.38-.52.67-.82.86-.3.19-.64.31-1.03.37l-.58.07Z"/>
    <path d="M210.42,81.91c-.87,0-1.54-.23-2-.69s-.69-1.13-.69-2.01.22-1.5.66-1.97c.44-.47,1.07-.7,1.89-.7.48,0,.9.09,1.25.28s.59.45.74.79l-.54.37c-.17-.3-.38-.51-.64-.64s-.54-.2-.85-.2c-.58,0-1.04.17-1.36.52-.33.35-.49.85-.49,1.49,0,.7.18,1.23.53,1.59.35.36.87.54,1.55.54.26,0,.51-.01.77-.04.26-.03.5-.06.75-.11l.08.6c-.27.06-.54.11-.82.13-.28.02-.56.03-.83.03Z"/>
    <path d="M215.78,81.91c-.69,0-1.23-.23-1.61-.7-.38-.47-.58-1.13-.58-1.98s.19-1.52.58-1.98c.38-.47.92-.7,1.61-.7s1.23.23,1.61.7c.38.47.57,1.13.57,1.98s-.19,1.51-.57,1.98c-.38.47-.92.7-1.61.7ZM215.78,81.3c.48,0,.86-.18,1.12-.54.27-.36.4-.87.4-1.53s-.13-1.18-.4-1.54c-.26-.36-.64-.54-1.12-.54s-.86.18-1.12.54c-.26.36-.4.87-.4,1.54s.13,1.17.4,1.53c.27.36.64.54,1.12.54Z"/>
    <path d="M219.33,81.81v-5.18h.57l.08,1.09v4.08h-.65ZM221.34,81.81v-4.05c0-.44-.21-.66-.62-.66-.5,0-.74.31-.74.92l-.3-.74h.32c.09-.49.42-.74.98-.74.32,0,.55.09.71.28s.24.47.24.84v4.15h-.6ZM223.29,81.81v-3.96c0-.5-.2-.76-.61-.76-.5,0-.75.31-.75.92l-.35-.74h.36c.04-.23.14-.42.3-.55.16-.13.38-.2.65-.2.35,0,.62.1.79.3s.26.51.26.92v4.05h-.65Z"/>
    <path d="M227.15,81.91c-.57,0-1.01-.16-1.32-.49s-.47-.78-.47-1.37v-3.42h.65v3.42c0,.4.11.71.34.92s.54.32.94.32c.48,0,.84-.14,1.08-.43s.37-.77.37-1.45l.26,1.4h-.31c-.09.35-.28.62-.54.81-.27.19-.6.29-.99.29ZM228.73,80.35v-3.71h.65v3.75l-.65-.03ZM228.82,81.86l-.06-1.24-.02-.91h.65v1.55l.71.07v.48l-1.27.05Z"/>
    <path d="M231.33,81.81v-5.18h.59l.06,1.09v4.08h-.65ZM234.74,81.81v-3.38c0-.41-.11-.73-.33-.95-.22-.22-.52-.33-.91-.33-1.02,0-1.53.58-1.53,1.74l-.31-1.31h.37c.07-.35.24-.61.49-.78.25-.17.6-.26,1.04-.26.58,0,1.03.17,1.35.5.32.33.48.8.48,1.41v3.37h-.65Z"/>
    <path d="M237.15,81.81v-.6h2.19v.6h-2.19ZM237.44,77.23v-.6h2.45v.6h-2.45ZM239.51,75.51c-.16,0-.29-.06-.4-.17-.11-.11-.17-.24-.17-.4s.05-.29.17-.4c.11-.11.24-.17.4-.17s.29.06.4.17c.11.11.17.24.17.4s-.06.29-.17.4c-.11.11-.24.17-.4.17ZM239.23,81.81v-4.92h.65v4.92h-.65ZM239.78,81.81v-.6h1.81v.6h-1.81Z"/>
    <path d="M242.57,77.23v-.6h4.53v.6h-4.53ZM244.06,79.37v-4.3h.65v4.3h-.65ZM246.01,81.91c-.67,0-1.16-.17-1.48-.51-.32-.34-.48-.87-.48-1.57v-.84h.65v.83c0,.5.11.88.34,1.12.23.24.58.37,1.06.37.19,0,.37,0,.55-.03.18-.02.36-.04.56-.07l.07.59c-.21.04-.42.07-.63.09s-.42.03-.65.03Z"/>
    <path d="M250.19,81.91c-.52,0-.92-.12-1.21-.36-.28-.24-.43-.58-.43-1.03,0-.54.19-.95.58-1.23.38-.28.95-.42,1.69-.42.35,0,.67.02.96.05.29.03.53.08.7.15l-.1.5c-.21-.07-.46-.11-.75-.12-.29-.01-.56-.02-.83-.02-1.07,0-1.61.35-1.61,1.04,0,.27.09.48.28.63.18.15.44.22.77.22.36,0,.67-.06.94-.18.27-.12.48-.29.64-.49.15-.21.23-.43.23-.67v-.6l.34,1.33h-.42l.11-.12c-.02.26-.11.49-.28.69-.17.2-.39.35-.67.46s-.59.16-.95.16ZM252.19,81.86l-.08-1.87-.06-.06v-1.19c0-.53-.14-.91-.43-1.15-.28-.24-.73-.37-1.34-.38l-1.1-.02.1-.61h.97c.85.03,1.46.21,1.86.58s.59.92.59,1.67v2.41l.89.08v.48l-1.39.05Z"/>
    <path d="M254.33,81.81v-.6h3.38v.6h-3.38ZM254.53,77.23v-.6h1.46l.03.6h-1.49ZM255.6,81.81v-5.18h.52l.13,1.48v3.69h-.65ZM256.25,79.58l-.3-1.62h.36c.12-.95.62-1.43,1.52-1.43.55,0,.95.15,1.2.46s.37.8.37,1.48h-.65c0-.48-.08-.82-.24-1.04-.16-.21-.41-.32-.77-.32-.5,0-.88.21-1.13.64-.25.43-.37,1.03-.37,1.82Z"/>
    <path d="M260.58,81.81v-.6h2.19v.6h-2.19ZM260.88,77.23v-.6h2.45v.6h-2.45ZM262.95,75.51c-.16,0-.29-.06-.4-.17-.11-.11-.17-.24-.17-.4s.05-.29.17-.4c.11-.11.24-.17.4-.17s.29.06.4.17c.11.11.17.24.17.4s-.06.29-.17.4c-.11.11-.24.17-.4.17ZM262.67,81.81v-4.92h.65v4.92h-.65ZM263.22,81.81v-.6h1.81v.6h-1.81Z"/>
    <path d="M267.77,81.91c-.52,0-.92-.12-1.21-.36-.28-.24-.43-.58-.43-1.03,0-.54.19-.95.58-1.23.38-.28.95-.42,1.69-.42.35,0,.67.02.96.05.29.03.53.08.7.15l-.1.5c-.21-.07-.46-.11-.75-.12-.29-.01-.56-.02-.83-.02-1.07,0-1.61.35-1.61,1.04,0,.27.09.48.28.63.18.15.44.22.77.22.36,0,.67-.06.94-.18.27-.12.48-.29.64-.49.15-.21.23-.43.23-.67v-.6l.34,1.33h-.42l.11-.12c-.02.26-.11.49-.28.69-.17.2-.39.35-.67.46s-.59.16-.95.16ZM269.77,81.86l-.08-1.87-.06-.06v-1.19c0-.53-.14-.91-.43-1.15-.28-.24-.73-.37-1.34-.38l-1.1-.02.1-.61h.97c.85.03,1.46.21,1.86.58s.59.92.59,1.67v2.41l.89.08v.48l-1.39.05Z"/>
    <path d="M273.68,83.94l.39-3.37h.69l-.47,3.37h-.61Z"/>
    <path d="M69.85,86.08v-.6h1.72v.6h-1.72ZM73.23,92.91c-.59,0-1.03-.15-1.31-.46s-.42-.78-.42-1.43v-5.53h.65v5.52c0,.29.04.53.12.73s.22.33.4.43c.18.09.42.14.72.14.27,0,.6-.05,1-.16l.07.6c-.21.06-.42.1-.61.13s-.4.04-.62.04Z"/>
    <path d="M77.34,92.91c-.52,0-.92-.12-1.21-.36-.28-.24-.43-.58-.43-1.03,0-.54.19-.95.58-1.23.38-.28.95-.42,1.69-.42.35,0,.67.02.96.05.29.03.53.08.7.15l-.1.5c-.21-.07-.46-.11-.75-.12-.29-.01-.56-.02-.83-.02-1.07,0-1.61.35-1.61,1.04,0,.27.09.48.28.63.18.15.44.22.77.22.36,0,.67-.06.94-.18.27-.12.48-.29.64-.49.15-.21.23-.43.23-.67v-.6l.34,1.33h-.42l.11-.12c-.02.26-.11.49-.28.69-.17.2-.39.35-.67.46s-.59.16-.95.16ZM79.34,92.86l-.08-1.87-.06-.06v-1.19c0-.53-.14-.91-.43-1.15-.28-.24-.73-.37-1.34-.38l-1.1-.02.1-.61h.97c.85.03,1.46.21,1.86.58s.59.92.59,1.67v2.41l.89.08v.48l-1.39.05Z"/>
    <path d="M83.54,92.91c-.38,0-.7-.01-.97-.03-.26-.02-.5-.06-.72-.11l.08-.62c.33.05.63.09.88.12s.5.04.73.04c.64,0,1.1-.07,1.39-.2s.43-.35.43-.64c0-.21-.07-.37-.2-.5-.13-.13-.35-.23-.64-.3l-1.16-.29c-.5-.13-.87-.3-1.09-.51s-.34-.49-.34-.83c0-.52.21-.9.63-1.13.42-.23,1.1-.35,2.04-.35.23,0,.44,0,.64.02.2.01.41.04.65.08l-.07.58c-.26-.03-.49-.04-.69-.05-.2,0-.38-.01-.55-.01-.69,0-1.2.07-1.51.2s-.47.35-.47.65c0,.18.08.33.23.45s.41.23.76.31l.93.22c.53.13.91.31,1.15.54.24.23.36.53.36.92,0,.51-.2.88-.59,1.11-.39.23-1.03.35-1.9.35Z"/>
    <path d="M95.66,92.91c-1.65,0-2.48-1.17-2.48-3.52s.83-3.61,2.48-3.61,2.48,1.2,2.48,3.61-.83,3.52-2.48,3.52ZM95.66,92.32c1.21,0,1.82-.98,1.82-2.92s-.61-3.02-1.82-3.02-1.82,1.01-1.82,3.02.61,2.92,1.82,2.92Z"/>
    <path d="M99.39,92.81v-6.93h.64v6.93h-.64ZM102.69,92.81l-2.6-6.09h-.34v-.84h.6l2.6,6.09h.21v.84h-.47ZM103.01,92.81v-6.93h.64v6.93h-.64Z"/>
    <path d="M107.84,92.91c-.98,0-1.73-.31-2.25-.92-.52-.61-.78-1.5-.78-2.65s.26-2,.78-2.62,1.26-.93,2.21-.93c.46,0,.86.07,1.21.21.35.14.62.33.8.59l-.46.46c-.18-.21-.39-.38-.65-.49s-.54-.17-.84-.17c-.76,0-1.34.25-1.76.76-.42.51-.62,1.23-.62,2.15,0,.98.21,1.73.64,2.25.43.52,1.04.78,1.84.78.31,0,.58-.03.81-.09s.43-.11.58-.15l.31.54c-.14.04-.37.1-.69.18-.33.08-.7.11-1.12.11ZM107.4,90.1v-.6h2.24v.6h-2.24ZM109.04,92.62v-3.11h.62v3.11h-.62Z"/>
    <path d="M119.6,92.91c-.87,0-1.54-.23-2-.69s-.69-1.13-.69-2.01.22-1.5.66-1.97c.44-.47,1.07-.7,1.89-.7.48,0,.9.09,1.25.28s.59.45.74.79l-.54.37c-.17-.3-.38-.51-.64-.64s-.54-.2-.85-.2c-.58,0-1.04.17-1.36.52-.33.35-.49.85-.49,1.49,0,.7.18,1.23.53,1.59.35.36.87.54,1.55.54.26,0,.51-.01.77-.04.26-.03.5-.06.75-.11l.08.6c-.27.06-.54.11-.82.13-.28.02-.56.03-.83.03Z"/>
    <path d="M124.96,92.91c-.69,0-1.23-.23-1.61-.7-.38-.47-.58-1.13-.58-1.98s.19-1.52.58-1.98c.38-.47.92-.7,1.61-.7s1.23.23,1.61.7c.38.47.57,1.13.57,1.98s-.19,1.51-.57,1.98c-.38.47-.92.7-1.61.7ZM124.96,92.3c.48,0,.86-.18,1.12-.54.27-.36.4-.87.4-1.53s-.13-1.18-.4-1.54c-.26-.36-.64-.54-1.12-.54s-.86.18-1.12.54c-.26.36-.4.87-.4,1.54s.13,1.17.4,1.53c.27.36.64.54,1.12.54Z"/>
    <path d="M128.51,92.81v-5.18h.57l.08,1.09v4.08h-.65ZM130.52,92.81v-4.05c0-.44-.21-.66-.62-.66-.5,0-.74.31-.74.92l-.3-.74h.32c.09-.49.42-.74.98-.74.32,0,.55.09.71.28s.24.47.24.84v4.15h-.6ZM132.47,92.81v-3.96c0-.5-.2-.76-.61-.76-.5,0-.75.31-.75.92l-.35-.74h.36c.04-.23.14-.42.3-.55.16-.13.38-.2.65-.2.35,0,.62.1.79.3s.26.51.26.92v4.05h-.65Z"/>
    <path d="M134.65,95.06v-7.42h.55l.1,1.19v6.23h-.65ZM136.99,92.91c-.48,0-.86-.11-1.13-.33-.27-.22-.44-.52-.51-.9h-.42l.35-1.38c0,.66.13,1.16.4,1.5s.65.51,1.16.51.9-.17,1.16-.52c.26-.35.39-.86.39-1.53,0-.71-.13-1.24-.39-1.6-.26-.36-.65-.54-1.15-.54s-.9.17-1.17.51c-.26.34-.4.84-.4,1.51l-.32-1.43h.36c.07-.39.24-.68.52-.88.28-.2.65-.3,1.11-.3.69,0,1.21.23,1.56.69s.53,1.14.53,2.04-.17,1.52-.52,1.97c-.35.45-.86.67-1.54.67Z"/>
    <path d="M140.16,86.08v-.6h1.72v.6h-1.72ZM143.54,92.91c-.59,0-1.03-.15-1.31-.46s-.42-.78-.42-1.43v-5.53h.65v5.52c0,.29.04.53.12.73s.22.33.4.43c.18.09.42.14.72.14.27,0,.6-.05,1-.16l.07.6c-.21.06-.42.1-.61.13s-.4.04-.62.04Z"/>
    <path d="M148.85,92.91c-.86,0-1.52-.24-1.99-.71s-.7-1.15-.7-2.02.2-1.49.59-1.95c.39-.46.95-.69,1.67-.69.67,0,1.19.21,1.56.62.37.42.55,1.01.55,1.78,0,.2,0,.37-.03.51h-3.82v-.56h3.22c0-.56-.13-.99-.39-1.3s-.62-.46-1.09-.46c-.52,0-.92.18-1.21.53-.29.35-.43.85-.43,1.49,0,.68.19,1.21.57,1.58.38.37.92.56,1.61.56.19,0,.39-.01.61-.04.21-.02.42-.06.61-.1l.09.6c-.22.05-.46.08-.71.1s-.49.03-.72.03Z"/>
    <path d="M151.95,92.81v-5.18h.57l.08,1.09v4.08h-.65ZM153.96,92.81v-4.05c0-.44-.21-.66-.62-.66-.5,0-.74.31-.74.92l-.3-.74h.32c.09-.49.42-.74.98-.74.32,0,.55.09.71.28s.24.47.24.84v4.15h-.6ZM155.91,92.81v-3.96c0-.5-.2-.76-.61-.76-.5,0-.75.31-.75.92l-.35-.74h.36c.04-.23.14-.42.3-.55.16-.13.38-.2.65-.2.35,0,.62.1.79.3s.26.51.26.92v4.05h-.65Z"/>
    <path d="M160.57,92.91c-.86,0-1.52-.24-1.99-.71s-.7-1.15-.7-2.02.2-1.49.59-1.95c.39-.46.95-.69,1.67-.69.67,0,1.19.21,1.56.62.37.42.55,1.01.55,1.78,0,.2,0,.37-.03.51h-3.82v-.56h3.22c0-.56-.13-.99-.39-1.3s-.62-.46-1.09-.46c-.52,0-.92.18-1.21.53-.29.35-.43.85-.43,1.49,0,.68.19,1.21.57,1.58.38.37.92.56,1.61.56.19,0,.39-.01.61-.04.21-.02.42-.06.61-.1l.09.6c-.22.05-.46.08-.71.1s-.49.03-.72.03Z"/>
    <path d="M163.94,92.81v-5.18h.59l.06,1.09v4.08h-.65ZM167.36,92.81v-3.38c0-.41-.11-.73-.33-.95-.22-.22-.52-.33-.91-.33-1.02,0-1.53.58-1.53,1.74l-.31-1.31h.37c.07-.35.24-.61.49-.78.25-.17.6-.26,1.04-.26.58,0,1.03.17,1.35.5.32.33.48.8.48,1.41v3.37h-.65Z"/>
    <path d="M169.32,88.23v-.6h4.53v.6h-4.53ZM170.81,90.37v-4.3h.65v4.3h-.65ZM172.77,92.91c-.67,0-1.16-.17-1.48-.51-.32-.34-.48-.87-.48-1.57v-.84h.65v.83c0,.5.11.88.34,1.12.23.24.58.37,1.06.37.19,0,.37,0,.55-.03.18-.02.36-.04.56-.07l.07.59c-.21.04-.42.07-.63.09s-.42.03-.65.03Z"/>
    <path d="M176.95,92.91c-.52,0-.92-.12-1.21-.36-.28-.24-.43-.58-.43-1.03,0-.54.19-.95.58-1.23.38-.28.95-.42,1.69-.42.35,0,.67.02.96.05.29.03.53.08.7.15l-.1.5c-.21-.07-.46-.11-.75-.12-.29-.01-.56-.02-.83-.02-1.07,0-1.61.35-1.61,1.04,0,.27.09.48.28.63.18.15.44.22.77.22.36,0,.67-.06.94-.18.27-.12.48-.29.64-.49.15-.21.23-.43.23-.67v-.6l.34,1.33h-.42l.11-.12c-.02.26-.11.49-.28.69-.17.2-.39.35-.67.46s-.59.16-.95.16ZM178.95,92.86l-.08-1.87-.06-.06v-1.19c0-.53-.14-.91-.43-1.15-.28-.24-.73-.37-1.34-.38l-1.1-.02.1-.61h.97c.85.03,1.46.21,1.86.58s.59.92.59,1.67v2.41l.89.08v.48l-1.39.05Z"/>
    <path d="M181.52,92.81v-5.18h.59l.06,1.09v4.08h-.65ZM184.93,92.81v-3.38c0-.41-.11-.73-.33-.95-.22-.22-.52-.33-.91-.33-1.02,0-1.53.58-1.53,1.74l-.31-1.31h.37c.07-.35.24-.61.49-.78.25-.17.6-.26,1.04-.26.58,0,1.03.17,1.35.5.32.33.48.8.48,1.41v3.37h-.65Z"/>
    <path d="M192.9,86.08v-.6h1.72v.6h-1.72ZM196.27,92.91c-.59,0-1.03-.15-1.31-.46s-.42-.78-.42-1.43v-5.53h.65v5.52c0,.29.04.53.12.73s.22.33.4.43c.18.09.42.14.72.14.27,0,.6-.05,1-.16l.07.6c-.21.06-.42.1-.61.13s-.4.04-.62.04Z"/>
    <path d="M201.13,92.91c-.69,0-1.23-.23-1.61-.7-.38-.47-.58-1.13-.58-1.98s.19-1.52.58-1.98c.38-.47.92-.7,1.61-.7s1.23.23,1.61.7c.38.47.57,1.13.57,1.98s-.19,1.51-.57,1.98c-.38.47-.92.7-1.61.7ZM201.13,92.3c.48,0,.86-.18,1.12-.54.27-.36.4-.87.4-1.53s-.13-1.18-.4-1.54c-.26-.36-.64-.54-1.12-.54s-.86.18-1.12.54c-.26.36-.4.87-.4,1.54s.13,1.17.4,1.53c.27.36.64.54,1.12.54Z"/>
    <path d="M206.59,92.91c-.38,0-.7-.01-.97-.03-.26-.02-.5-.06-.72-.11l.08-.62c.33.05.63.09.88.12s.5.04.73.04c.64,0,1.1-.07,1.39-.2s.43-.35.43-.64c0-.21-.07-.37-.2-.5-.13-.13-.35-.23-.64-.3l-1.16-.29c-.5-.13-.87-.3-1.09-.51s-.34-.49-.34-.83c0-.52.21-.9.63-1.13.42-.23,1.1-.35,2.04-.35.23,0,.44,0,.64.02.2.01.41.04.65.08l-.07.58c-.26-.03-.49-.04-.69-.05-.2,0-.38-.01-.55-.01-.69,0-1.2.07-1.51.2s-.47.35-.47.65c0,.18.08.33.23.45s.41.23.76.31l.93.22c.53.13.91.31,1.15.54.24.23.36.53.36.92,0,.51-.2.88-.59,1.11-.39.23-1.03.35-1.9.35Z"/>
    <path d="M219.16,92.91c-.86,0-1.52-.24-1.99-.71s-.7-1.15-.7-2.02.2-1.49.59-1.95c.39-.46.95-.69,1.67-.69.67,0,1.19.21,1.56.62.37.42.55,1.01.55,1.78,0,.2,0,.37-.03.51h-3.82v-.56h3.22c0-.56-.13-.99-.39-1.3s-.62-.46-1.09-.46c-.52,0-.92.18-1.21.53-.29.35-.43.85-.43,1.49,0,.68.19,1.21.57,1.58.38.37.92.56,1.61.56.19,0,.39-.01.61-.04.21-.02.42-.06.61-.1l.09.6c-.22.05-.46.08-.71.1s-.49.03-.72.03Z"/>
    <path d="M224.17,92.91c-.38,0-.7-.01-.97-.03-.26-.02-.5-.06-.72-.11l.08-.62c.33.05.63.09.88.12s.5.04.73.04c.64,0,1.1-.07,1.39-.2s.43-.35.43-.64c0-.21-.07-.37-.2-.5-.13-.13-.35-.23-.64-.3l-1.16-.29c-.5-.13-.87-.3-1.09-.51s-.34-.49-.34-.83c0-.52.21-.9.63-1.13.42-.23,1.1-.35,2.04-.35.23,0,.44,0,.64.02.2.01.41.04.65.08l-.07.58c-.26-.03-.49-.04-.69-.05-.2,0-.38-.01-.55-.01-.69,0-1.2.07-1.51.2s-.47.35-.47.65c0,.18.08.33.23.45s.41.23.76.31l.93.22c.53.13.91.31,1.15.54.24.23.36.53.36.92,0,.51-.2.88-.59,1.11-.39.23-1.03.35-1.9.35Z"/>
    <path d="M227.91,89.53v-.6h4.63v.6h-4.63ZM229.65,92.81v-4.74c0-1.79.75-2.69,2.26-2.69.34,0,.68.03,1,.1l-.11.58c-.19-.03-.36-.04-.5-.05-.14,0-.28-.01-.42-.01-1.05,0-1.58.68-1.58,2.03v4.79h-.65Z"/>
    <path d="M235.94,92.91c-.57,0-1.01-.16-1.32-.49s-.47-.78-.47-1.37v-3.42h.65v3.42c0,.4.11.71.34.92s.54.32.94.32c.48,0,.84-.14,1.08-.43s.37-.77.37-1.45l.26,1.4h-.31c-.09.35-.28.62-.54.81-.27.19-.6.29-.99.29ZM237.52,91.35v-3.71h.65v3.75l-.65-.03ZM237.61,92.86l-.06-1.24-.02-.91h.65v1.55l.71.07v.48l-1.27.05Z"/>
    <path d="M242.6,92.91c-.86,0-1.52-.24-1.99-.71s-.7-1.15-.7-2.02.2-1.49.59-1.95c.39-.46.95-.69,1.67-.69.67,0,1.19.21,1.56.62.37.42.55,1.01.55,1.78,0,.2,0,.37-.03.51h-3.82v-.56h3.22c0-.56-.13-.99-.39-1.3s-.62-.46-1.09-.46c-.52,0-.92.18-1.21.53-.29.35-.43.85-.43,1.49,0,.68.19,1.21.57,1.58.38.37.92.56,1.61.56.19,0,.39-.01.61-.04.21-.02.42-.06.61-.1l.09.6c-.22.05-.46.08-.71.1s-.49.03-.72.03Z"/>
    <path d="M245.54,92.81v-.6h3.38v.6h-3.38ZM245.74,88.23v-.6h1.46l.03.6h-1.49ZM246.81,92.81v-5.18h.52l.13,1.48v3.69h-.65ZM247.46,90.58l-.3-1.62h.36c.12-.95.62-1.43,1.52-1.43.55,0,.95.15,1.2.46s.37.8.37,1.48h-.65c0-.48-.08-.82-.24-1.04-.16-.21-.41-.32-.77-.32-.5,0-.88.21-1.13.64-.25.43-.37,1.03-.37,1.82Z"/>
    <path d="M251.81,88.24v-.6h4v.6h-4ZM252.26,92.6l-.45-.39,3.55-4.35.45.37-3.55,4.36ZM251.81,92.81v-.6h4.1v.6h-4.1Z"/>
    <path d="M259.72,92.91c-.69,0-1.23-.23-1.61-.7-.38-.47-.58-1.13-.58-1.98s.19-1.52.58-1.98c.38-.47.92-.7,1.61-.7s1.23.23,1.61.7c.38.47.57,1.13.57,1.98s-.19,1.51-.57,1.98c-.38.47-.92.7-1.61.7ZM259.72,92.3c.48,0,.86-.18,1.12-.54.27-.36.4-.87.4-1.53s-.13-1.18-.4-1.54c-.26-.36-.64-.54-1.12-.54s-.86.18-1.12.54c-.26.36-.4.87-.4,1.54s.13,1.17.4,1.53c.27.36.64.54,1.12.54Z"/>
    <path d="M265.18,92.91c-.38,0-.7-.01-.97-.03-.26-.02-.5-.06-.72-.11l.08-.62c.33.05.63.09.88.12s.5.04.73.04c.64,0,1.1-.07,1.39-.2s.43-.35.43-.64c0-.21-.07-.37-.2-.5-.13-.13-.35-.23-.64-.3l-1.16-.29c-.5-.13-.87-.3-1.09-.51s-.34-.49-.34-.83c0-.52.21-.9.63-1.13.42-.23,1.1-.35,2.04-.35.23,0,.44,0,.64.02.2.01.41.04.65.08l-.07.58c-.26-.03-.49-.04-.69-.05-.2,0-.38-.01-.55-.01-.69,0-1.2.07-1.51.2s-.47.35-.47.65c0,.18.08.33.23.45s.41.23.76.31l.93.22c.53.13.91.31,1.15.54.24.23.36.53.36.92,0,.51-.2.88-.59,1.11-.39.23-1.03.35-1.9.35Z"/>
    <path d="M76.01,103.81v-.6h2.19v.6h-2.19ZM76.31,99.23v-.6h2.45v.6h-2.45ZM78.38,97.51c-.16,0-.29-.06-.4-.17-.11-.11-.17-.24-.17-.4s.05-.29.17-.4c.11-.11.24-.17.4-.17s.29.06.4.17c.11.11.17.24.17.4s-.06.29-.17.4c-.11.11-.24.17-.4.17ZM78.1,103.81v-4.92h.65v4.92h-.65ZM78.65,103.81v-.6h1.81v.6h-1.81Z"/>
    <path d="M81.91,103.81v-5.18h.59l.06,1.09v4.08h-.65ZM85.32,103.81v-3.38c0-.41-.11-.73-.33-.95-.22-.22-.52-.33-.91-.33-1.02,0-1.53.58-1.53,1.74l-.31-1.31h.37c.07-.35.24-.61.49-.78.25-.17.6-.26,1.04-.26.58,0,1.03.17,1.35.5.32.33.48.8.48,1.41v3.37h-.65Z"/>
    <path d="M89.4,103.91c-.38,0-.7-.01-.97-.03-.26-.02-.5-.06-.72-.11l.08-.62c.33.05.63.09.88.12s.5.04.73.04c.64,0,1.1-.07,1.39-.2s.43-.35.43-.64c0-.21-.07-.37-.2-.5-.13-.13-.35-.23-.64-.3l-1.16-.29c-.5-.13-.87-.3-1.09-.51s-.34-.49-.34-.83c0-.52.21-.9.63-1.13.42-.23,1.1-.35,2.04-.35.23,0,.44,0,.64.02.2.01.41.04.65.08l-.07.58c-.26-.03-.49-.04-.69-.05-.2,0-.38-.01-.55-.01-.69,0-1.2.07-1.51.2s-.47.35-.47.65c0,.18.08.33.23.45s.41.23.76.31l.93.22c.53.13.91.31,1.15.54.24.23.36.53.36.92,0,.51-.2.88-.59,1.11-.39.23-1.03.35-1.9.35Z"/>
    <path d="M93.15,99.23v-.6h4.53v.6h-4.53ZM94.64,101.37v-4.3h.65v4.3h-.65ZM96.6,103.91c-.67,0-1.16-.17-1.48-.51-.32-.34-.48-.87-.48-1.57v-.84h.65v.83c0,.5.11.88.34,1.12.23.24.58.37,1.06.37.19,0,.37,0,.55-.03.18-.02.36-.04.56-.07l.07.59c-.21.04-.42.07-.63.09s-.42.03-.65.03Z"/>
    <path d="M99.45,103.81v-.6h2.19v.6h-2.19ZM99.74,99.23v-.6h2.45v.6h-2.45ZM101.81,97.51c-.16,0-.29-.06-.4-.17-.11-.11-.17-.24-.17-.4s.05-.29.17-.4c.11-.11.24-.17.4-.17s.29.06.4.17c.11.11.17.24.17.4s-.06.29-.17.4c-.11.11-.24.17-.4.17ZM101.54,103.81v-4.92h.65v4.92h-.65ZM102.09,103.81v-.6h1.81v.6h-1.81Z"/>
    <path d="M104.87,99.23v-.6h4.53v.6h-4.53ZM106.36,101.37v-4.3h.65v4.3h-.65ZM108.32,103.91c-.67,0-1.16-.17-1.48-.51-.32-.34-.48-.87-.48-1.57v-.84h.65v.83c0,.5.11.88.34,1.12.23.24.58.37,1.06.37.19,0,.37,0,.55-.03.18-.02.36-.04.56-.07l.07.59c-.21.04-.42.07-.63.09s-.42.03-.65.03Z"/>
    <path d="M112.89,103.91c-.57,0-1.01-.16-1.32-.49s-.47-.78-.47-1.37v-3.42h.65v3.42c0,.4.11.71.34.92s.54.32.94.32c.48,0,.84-.14,1.08-.43s.37-.77.37-1.45l.26,1.4h-.31c-.09.35-.28.62-.54.81-.27.19-.6.29-.99.29ZM114.48,102.35v-3.71h.65v3.75l-.65-.03ZM114.56,103.86l-.06-1.24-.02-.91h.65v1.55l.71.07v.48l-1.27.05Z"/>
    <path d="M119.6,103.91c-.87,0-1.54-.23-2-.69s-.69-1.13-.69-2.01.22-1.5.66-1.97c.44-.47,1.07-.7,1.89-.7.48,0,.9.09,1.25.28s.59.45.74.79l-.54.37c-.17-.3-.38-.51-.64-.64s-.54-.2-.85-.2c-.58,0-1.04.17-1.36.52-.33.35-.49.85-.49,1.49,0,.7.18,1.23.53,1.59.35.36.87.54,1.55.54.26,0,.51-.01.77-.04.26-.03.5-.06.75-.11l.08.6c-.27.06-.54.11-.82.13-.28.02-.56.03-.83.03Z"/>
    <path d="M122.89,103.81v-.6h2.19v.6h-2.19ZM123.18,99.23v-.6h2.45v.6h-2.45ZM125.25,97.51c-.16,0-.29-.06-.4-.17-.11-.11-.17-.24-.17-.4s.05-.29.17-.4c.11-.11.24-.17.4-.17s.29.06.4.17c.11.11.17.24.17.4s-.06.29-.17.4c-.11.11-.24.17-.4.17ZM124.97,103.81v-4.92h.65v4.92h-.65ZM125.52,103.81v-.6h1.81v.6h-1.81Z"/>
    <path d="M130.82,103.91c-.69,0-1.23-.23-1.61-.7-.38-.47-.58-1.13-.58-1.98s.19-1.52.58-1.98c.38-.47.92-.7,1.61-.7s1.23.23,1.61.7c.38.47.57,1.13.57,1.98s-.19,1.51-.57,1.98c-.38.47-.92.7-1.61.7ZM130.82,103.3c.48,0,.86-.18,1.12-.54.27-.36.4-.87.4-1.53s-.13-1.18-.4-1.54c-.26-.36-.64-.54-1.12-.54s-.86.18-1.12.54c-.26.36-.4.87-.4,1.54s.13,1.17.4,1.53c.27.36.64.54,1.12.54Z"/>
    <path d="M134.65,103.81v-5.18h.59l.06,1.09v4.08h-.65ZM138.06,103.81v-3.38c0-.41-.11-.73-.33-.95-.22-.22-.52-.33-.91-.33-1.02,0-1.53.58-1.53,1.74l-.31-1.31h.37c.07-.35.24-.61.49-.78.25-.17.6-.26,1.04-.26.58,0,1.03.17,1.35.5.32.33.48.8.48,1.41v3.37h-.65Z"/>
    <path d="M141.79,103.91c-.52,0-.92-.12-1.21-.36-.28-.24-.43-.58-.43-1.03,0-.54.19-.95.58-1.23.38-.28.95-.42,1.69-.42.35,0,.67.02.96.05.29.03.53.08.7.15l-.1.5c-.21-.07-.46-.11-.75-.12-.29-.01-.56-.02-.83-.02-1.07,0-1.61.35-1.61,1.04,0,.27.09.48.28.63.18.15.44.22.77.22.36,0,.67-.06.94-.18.27-.12.48-.29.64-.49.15-.21.23-.43.23-.67v-.6l.34,1.33h-.42l.11-.12c-.02.26-.11.49-.28.69-.17.2-.39.35-.67.46s-.59.16-.95.16ZM143.8,103.86l-.08-1.87-.06-.06v-1.19c0-.53-.14-.91-.43-1.15-.28-.24-.73-.37-1.34-.38l-1.1-.02.1-.61h.97c.85.03,1.46.21,1.86.58s.59.92.59,1.67v2.41l.89.08v.48l-1.39.05Z"/>
    <path d="M146.02,97.08v-.6h1.72v.6h-1.72ZM149.4,103.91c-.59,0-1.03-.15-1.31-.46s-.42-.78-.42-1.43v-5.53h.65v5.52c0,.29.04.53.12.73s.22.33.4.43c.18.09.42.14.72.14.27,0,.6-.05,1-.16l.07.6c-.21.06-.42.1-.61.13s-.4.04-.62.04Z"/>
    <path d="M154.71,103.91c-.86,0-1.52-.24-1.99-.71s-.7-1.15-.7-2.02.2-1.49.59-1.95c.39-.46.95-.69,1.67-.69.67,0,1.19.21,1.56.62.37.42.55,1.01.55,1.78,0,.2,0,.37-.03.51h-3.82v-.56h3.22c0-.56-.13-.99-.39-1.3s-.62-.46-1.09-.46c-.52,0-.92.18-1.21.53-.29.35-.43.85-.43,1.49,0,.68.19,1.21.57,1.58.38.37.92.56,1.61.56.19,0,.39-.01.61-.04.21-.02.42-.06.61-.1l.09.6c-.22.05-.46.08-.71.1s-.49.03-.72.03Z"/>
    <path d="M159.71,103.91c-.38,0-.7-.01-.97-.03-.26-.02-.5-.06-.72-.11l.08-.62c.33.05.63.09.88.12s.5.04.73.04c.64,0,1.1-.07,1.39-.2s.43-.35.43-.64c0-.21-.07-.37-.2-.5-.13-.13-.35-.23-.64-.3l-1.16-.29c-.5-.13-.87-.3-1.09-.51s-.34-.49-.34-.83c0-.52.21-.9.63-1.13.42-.23,1.1-.35,2.04-.35.23,0,.44,0,.64.02.2.01.41.04.65.08l-.07.58c-.26-.03-.49-.04-.69-.05-.2,0-.38-.01-.55-.01-.69,0-1.2.07-1.51.2s-.47.35-.47.65c0,.18.08.33.23.45s.41.23.76.31l.93.22c.53.13.91.31,1.15.54.24.23.36.53.36.92,0,.51-.2.88-.59,1.11-.39.23-1.03.35-1.9.35Z"/>
    <path d="M165.29,105.94l.39-3.37h.69l-.47,3.37h-.61Z"/>
    <path d="M177.38,103.91c-.68,0-1.19-.22-1.54-.67-.35-.45-.52-1.1-.52-1.97s.18-1.58.53-2.04c.35-.46.87-.69,1.56-.69.46,0,.83.1,1.11.3.28.2.45.5.52.88h.36l-.32,1.43c0-.66-.13-1.17-.4-1.51-.26-.34-.65-.51-1.16-.51s-.89.18-1.16.54c-.26.36-.39.9-.39,1.6s.13,1.18.39,1.53c.26.35.65.52,1.16.52s.9-.17,1.16-.51.4-.84.4-1.5l.35,1.38h-.42c-.07.38-.23.68-.51.9-.27.22-.65.33-1.13.33ZM175.73,106.15l-.03-.6,1.56-.06c.63-.02,1.09-.2,1.37-.52s.43-.81.44-1.45v-3.72l.06-1.16h.59v4.72c0,.92-.2,1.6-.61,2.04-.41.44-1.06.67-1.95.71l-1.44.05Z"/>
    <path d="M184.01,103.91c-.86,0-1.52-.24-1.99-.71s-.7-1.15-.7-2.02.2-1.49.59-1.95c.39-.46.95-.69,1.67-.69.67,0,1.19.21,1.56.62.37.42.55,1.01.55,1.78,0,.2,0,.37-.03.51h-3.82v-.56h3.22c0-.56-.13-.99-.39-1.3s-.62-.46-1.09-.46c-.52,0-.92.18-1.21.53-.29.35-.43.85-.43,1.49,0,.68.19,1.21.57,1.58.38.37.92.56,1.61.56.19,0,.39-.01.61-.04.21-.02.42-.06.61-.1l.09.6c-.22.05-.46.08-.71.1s-.49.03-.72.03Z"/>
    <path d="M187.38,103.81v-5.18h.59l.06,1.09v4.08h-.65ZM190.79,103.81v-3.38c0-.41-.11-.73-.33-.95-.22-.22-.52-.33-.91-.33-1.02,0-1.53.58-1.53,1.74l-.31-1.31h.37c.07-.35.24-.61.49-.78.25-.17.6-.26,1.04-.26.58,0,1.03.17,1.35.5.32.33.48.8.48,1.41v3.37h-.65Z"/>
    <path d="M195.73,103.91c-.86,0-1.52-.24-1.99-.71s-.7-1.15-.7-2.02.2-1.49.59-1.95c.39-.46.95-.69,1.67-.69.67,0,1.19.21,1.56.62.37.42.55,1.01.55,1.78,0,.2,0,.37-.03.51h-3.82v-.56h3.22c0-.56-.13-.99-.39-1.3s-.62-.46-1.09-.46c-.52,0-.92.18-1.21.53-.29.35-.43.85-.43,1.49,0,.68.19,1.21.57,1.58.38.37.92.56,1.61.56.19,0,.39-.01.61-.04.21-.02.42-.06.61-.1l.09.6c-.22.05-.46.08-.71.1s-.49.03-.72.03Z"/>
    <path d="M198.67,103.81v-.6h3.38v.6h-3.38ZM198.86,99.23v-.6h1.46l.03.6h-1.49ZM199.93,103.81v-5.18h.52l.13,1.48v3.69h-.65ZM200.59,101.58l-.3-1.62h.36c.12-.95.62-1.43,1.52-1.43.55,0,.95.15,1.2.46s.37.8.37,1.48h-.65c0-.48-.08-.82-.24-1.04-.16-.21-.41-.32-.77-.32-.5,0-.88.21-1.13.64-.25.43-.37,1.03-.37,1.82Z"/>
    <path d="M206.24,103.91c-.52,0-.92-.12-1.21-.36-.28-.24-.43-.58-.43-1.03,0-.54.19-.95.58-1.23.38-.28.95-.42,1.69-.42.35,0,.67.02.96.05.29.03.53.08.7.15l-.1.5c-.21-.07-.46-.11-.75-.12-.29-.01-.56-.02-.83-.02-1.07,0-1.61.35-1.61,1.04,0,.27.09.48.28.63.18.15.44.22.77.22.36,0,.67-.06.94-.18.27-.12.48-.29.64-.49.15-.21.23-.43.23-.67v-.6l.34,1.33h-.42l.11-.12c-.02.26-.11.49-.28.69-.17.2-.39.35-.67.46s-.59.16-.95.16ZM208.25,103.86l-.08-1.87-.06-.06v-1.19c0-.53-.14-.91-.43-1.15-.28-.24-.73-.37-1.34-.38l-1.1-.02.1-.61h.97c.85.03,1.46.21,1.86.58s.59.92.59,1.67v2.41l.89.08v.48l-1.39.05Z"/>
    <path d="M210.82,103.81v-5.18h.59l.06,1.09v4.08h-.65ZM214.23,103.81v-3.38c0-.41-.11-.73-.33-.95-.22-.22-.52-.33-.91-.33-1.02,0-1.53.58-1.53,1.74l-.31-1.31h.37c.07-.35.24-.61.49-.78.25-.17.6-.26,1.04-.26.58,0,1.03.17,1.35.5.32.33.48.8.48,1.41v3.37h-.65Z"/>
    <path d="M222.26,103.81v-5.18h.57l.08,1.09v4.08h-.65ZM224.27,103.81v-4.05c0-.44-.21-.66-.62-.66-.5,0-.74.31-.74.92l-.3-.74h.32c.09-.49.42-.74.98-.74.32,0,.55.09.71.28s.24.47.24.84v4.15h-.6ZM226.22,103.81v-3.96c0-.5-.2-.76-.61-.76-.5,0-.75.31-.75.92l-.35-.74h.36c.04-.23.14-.42.3-.55.16-.13.38-.2.65-.2.35,0,.62.1.79.3s.26.51.26.92v4.05h-.65Z"/>
    <path d="M229.68,103.91c-.52,0-.92-.12-1.21-.36-.28-.24-.43-.58-.43-1.03,0-.54.19-.95.58-1.23.38-.28.95-.42,1.69-.42.35,0,.67.02.96.05.29.03.53.08.7.15l-.1.5c-.21-.07-.46-.11-.75-.12-.29-.01-.56-.02-.83-.02-1.07,0-1.61.35-1.61,1.04,0,.27.09.48.28.63.18.15.44.22.77.22.36,0,.67-.06.94-.18.27-.12.48-.29.64-.49.15-.21.23-.43.23-.67v-.6l.34,1.33h-.42l.11-.12c-.02.26-.11.49-.28.69-.17.2-.39.35-.67.46s-.59.16-.95.16ZM231.69,103.86l-.08-1.87-.06-.06v-1.19c0-.53-.14-.91-.43-1.15-.28-.24-.73-.37-1.34-.38l-1.1-.02.1-.61h.97c.85.03,1.46.21,1.86.58s.59.92.59,1.67v2.41l.89.08v.48l-1.39.05Z"/>
    <path d="M235.9,103.81l-2.19-5.18h.7l1.91,4.62h.12v.55h-.55ZM233.8,106.16l-.03-.61.49-.07c.33-.05.61-.16.87-.33.25-.17.48-.42.69-.74.21-.33.41-.76.61-1.3l1.6-4.47h.7l-1.78,4.72c-.23.62-.48,1.12-.72,1.5-.25.38-.52.67-.82.86-.3.19-.64.31-1.03.37l-.58.07Z"/>
    <path d="M242.15,103.91c-.69,0-1.23-.23-1.61-.7-.38-.47-.58-1.13-.58-1.98s.19-1.52.58-1.98c.38-.47.92-.7,1.61-.7s1.23.23,1.61.7c.38.47.57,1.13.57,1.98s-.19,1.51-.57,1.98c-.38.47-.92.7-1.61.7ZM242.15,103.3c.48,0,.86-.18,1.12-.54.27-.36.4-.87.4-1.53s-.13-1.18-.4-1.54c-.26-.36-.64-.54-1.12-.54s-.86.18-1.12.54c-.26.36-.4.87-.4,1.54s.13,1.17.4,1.53c.27.36.64.54,1.12.54Z"/>
    <path d="M245.54,103.81v-.6h3.38v.6h-3.38ZM245.74,99.23v-.6h1.46l.03.6h-1.49ZM246.81,103.81v-5.18h.52l.13,1.48v3.69h-.65ZM247.46,101.58l-.3-1.62h.36c.12-.95.62-1.43,1.52-1.43.55,0,.95.15,1.2.46s.37.8.37,1.48h-.65c0-.48-.08-.82-.24-1.04-.16-.21-.41-.32-.77-.32-.5,0-.88.21-1.13.64-.25.43-.37,1.03-.37,1.82Z"/>
    <path d="M254.32,103.91c-.86,0-1.52-.24-1.99-.71s-.7-1.15-.7-2.02.2-1.49.59-1.95c.39-.46.95-.69,1.67-.69.67,0,1.19.21,1.56.62.37.42.55,1.01.55,1.78,0,.2,0,.37-.03.51h-3.82v-.56h3.22c0-.56-.13-.99-.39-1.3s-.62-.46-1.09-.46c-.52,0-.92.18-1.21.53-.29.35-.43.85-.43,1.49,0,.68.19,1.21.57,1.58.38.37.92.56,1.61.56.19,0,.39-.01.61-.04.21-.02.42-.06.61-.1l.09.6c-.22.05-.46.08-.71.1s-.49.03-.72.03Z"/>
    <path d="M259.32,103.91c-.38,0-.7-.01-.97-.03-.26-.02-.5-.06-.72-.11l.08-.62c.33.05.63.09.88.12s.5.04.73.04c.64,0,1.1-.07,1.39-.2s.43-.35.43-.64c0-.21-.07-.37-.2-.5-.13-.13-.35-.23-.64-.3l-1.16-.29c-.5-.13-.87-.3-1.09-.51s-.34-.49-.34-.83c0-.52.21-.9.63-1.13.42-.23,1.1-.35,2.04-.35.23,0,.44,0,.64.02.2.01.41.04.65.08l-.07.58c-.26-.03-.49-.04-.69-.05-.2,0-.38-.01-.55-.01-.69,0-1.2.07-1.51.2s-.47.35-.47.65c0,.18.08.33.23.45s.41.23.76.31l.93.22c.53.13.91.31,1.15.54.24.23.36.53.36.92,0,.51-.2.88-.59,1.11-.39.23-1.03.35-1.9.35Z"/>
    <path d="M54.65,114.91c-.69,0-1.23-.23-1.61-.7-.38-.47-.58-1.13-.58-1.98s.19-1.52.58-1.98c.38-.47.92-.7,1.61-.7s1.23.23,1.61.7c.38.47.57,1.13.57,1.98s-.19,1.51-.57,1.98c-.38.47-.92.7-1.61.7ZM54.65,114.3c.48,0,.86-.18,1.12-.54.27-.36.4-.87.4-1.53s-.13-1.18-.4-1.54c-.26-.36-.64-.54-1.12-.54s-.86.18-1.12.54c-.26.36-.4.87-.4,1.54s.13,1.17.4,1.53c.27.36.64.54,1.12.54Z"/>
    <path d="M58.47,117.06v-7.42h.55l.1,1.19v6.23h-.65ZM60.82,114.91c-.48,0-.86-.11-1.13-.33-.27-.22-.44-.52-.51-.9h-.42l.35-1.38c0,.66.13,1.16.4,1.5s.65.51,1.16.51.9-.17,1.16-.52c.26-.35.39-.86.39-1.53,0-.71-.13-1.24-.39-1.6-.26-.36-.65-.54-1.15-.54s-.9.17-1.17.51c-.26.34-.4.84-.4,1.51l-.32-1.43h.36c.07-.39.24-.68.52-.88.28-.2.65-.3,1.11-.3.69,0,1.21.23,1.56.69s.53,1.14.53,2.04-.17,1.52-.52,1.97c-.35.45-.86.67-1.54.67Z"/>
    <path d="M66.36,114.91c-.69,0-1.23-.23-1.61-.7-.38-.47-.58-1.13-.58-1.98s.19-1.52.58-1.98c.38-.47.92-.7,1.61-.7s1.23.23,1.61.7c.38.47.57,1.13.57,1.98s-.19,1.51-.57,1.98c-.38.47-.92.7-1.61.7ZM66.36,114.3c.48,0,.86-.18,1.12-.54.27-.36.4-.87.4-1.53s-.13-1.18-.4-1.54c-.26-.36-.64-.54-1.12-.54s-.86.18-1.12.54c-.26.36-.4.87-.4,1.54s.13,1.17.4,1.53c.27.36.64.54,1.12.54Z"/>
    <path d="M69.76,114.81v-.6h3.38v.6h-3.38ZM69.96,110.23v-.6h1.46l.03.6h-1.49ZM71.03,114.81v-5.18h.52l.13,1.48v3.69h-.65ZM71.68,112.58l-.3-1.62h.36c.12-.95.62-1.43,1.52-1.43.55,0,.95.15,1.2.46s.37.8.37,1.48h-.65c0-.48-.08-.82-.24-1.04-.16-.21-.41-.32-.77-.32-.5,0-.88.21-1.13.64-.25.43-.37,1.03-.37,1.82Z"/>
    <path d="M75.57,110.23v-.6h4.53v.6h-4.53ZM77.06,112.37v-4.3h.65v4.3h-.65ZM79.02,114.91c-.67,0-1.16-.17-1.48-.51-.32-.34-.48-.87-.48-1.57v-.84h.65v.83c0,.5.11.88.34,1.12.23.24.58.37,1.06.37.19,0,.37,0,.55-.03.18-.02.36-.04.56-.07l.07.59c-.21.04-.42.07-.63.09s-.42.03-.65.03Z"/>
    <path d="M83.6,114.91c-.57,0-1.01-.16-1.32-.49s-.47-.78-.47-1.37v-3.42h.65v3.42c0,.4.11.71.34.92s.54.32.94.32c.48,0,.84-.14,1.08-.43s.37-.77.37-1.45l.26,1.4h-.31c-.09.35-.28.62-.54.81-.27.19-.6.29-.99.29ZM85.18,113.35v-3.71h.65v3.75l-.65-.03ZM85.27,114.86l-.06-1.24-.02-.91h.65v1.55l.71.07v.48l-1.27.05Z"/>
    <path d="M87.77,114.81v-5.18h.59l.06,1.09v4.08h-.65ZM91.18,114.81v-3.38c0-.41-.11-.73-.33-.95-.22-.22-.52-.33-.91-.33-1.02,0-1.53.58-1.53,1.74l-.31-1.31h.37c.07-.35.24-.61.49-.78.25-.17.6-.26,1.04-.26.58,0,1.03.17,1.35.5.32.33.48.8.48,1.41v3.37h-.65Z"/>
    <path d="M93.59,114.81v-.6h2.19v.6h-2.19ZM93.88,110.23v-.6h2.45v.6h-2.45ZM95.95,108.51c-.16,0-.29-.06-.4-.17-.11-.11-.17-.24-.17-.4s.05-.29.17-.4c.11-.11.24-.17.4-.17s.29.06.4.17c.11.11.17.24.17.4s-.06.29-.17.4c-.11.11-.24.17-.4.17ZM95.68,114.81v-4.92h.65v4.92h-.65ZM96.23,114.81v-.6h1.81v.6h-1.81Z"/>
    <path d="M101.2,114.91c-.68,0-1.19-.22-1.54-.67-.35-.45-.52-1.1-.52-1.97s.18-1.58.53-2.04c.35-.46.87-.69,1.56-.69.46,0,.82.1,1.1.3s.45.5.52.88h.36l-.3,1.43c0-.66-.13-1.17-.4-1.51-.26-.34-.65-.51-1.16-.51s-.89.18-1.16.54c-.26.36-.39.9-.39,1.6s.13,1.18.39,1.53c.26.35.65.52,1.16.52s.9-.17,1.16-.51.4-.84.4-1.5l.35,1.38h-.4c-.07.38-.23.68-.51.9s-.65.33-1.14.33ZM103.01,114.86l-.1-1.25v-6.13h.65v7.34l-.55.03Z"/>
    <path d="M106.63,114.91c-.52,0-.92-.12-1.21-.36-.28-.24-.43-.58-.43-1.03,0-.54.19-.95.58-1.23.38-.28.95-.42,1.69-.42.35,0,.67.02.96.05.29.03.53.08.7.15l-.1.5c-.21-.07-.46-.11-.75-.12-.29-.01-.56-.02-.83-.02-1.07,0-1.61.35-1.61,1.04,0,.27.09.48.28.63.18.15.44.22.77.22.36,0,.67-.06.94-.18.27-.12.48-.29.64-.49.15-.21.23-.43.23-.67v-.6l.34,1.33h-.42l.11-.12c-.02.26-.11.49-.28.69-.17.2-.39.35-.67.46s-.59.16-.95.16ZM108.64,114.86l-.08-1.87-.06-.06v-1.19c0-.53-.14-.91-.43-1.15-.28-.24-.73-.37-1.34-.38l-1.1-.02.1-.61h.97c.85.03,1.46.21,1.86.58s.59.92.59,1.67v2.41l.89.08v.48l-1.39.05Z"/>
    <path d="M112.92,114.91c-.68,0-1.19-.22-1.54-.67-.35-.45-.52-1.1-.52-1.97s.18-1.58.53-2.04c.35-.46.87-.69,1.56-.69.46,0,.82.1,1.1.3s.45.5.52.88h.36l-.3,1.43c0-.66-.13-1.17-.4-1.51-.26-.34-.65-.51-1.16-.51s-.89.18-1.16.54c-.26.36-.39.9-.39,1.6s.13,1.18.39,1.53c.26.35.65.52,1.16.52s.9-.17,1.16-.51.4-.84.4-1.5l.35,1.38h-.4c-.07.38-.23.68-.51.9s-.65.33-1.14.33ZM114.72,114.86l-.1-1.25v-6.13h.65v7.34l-.55.03Z"/>
    <path d="M119.55,114.91c-.86,0-1.52-.24-1.99-.71s-.7-1.15-.7-2.02.2-1.49.59-1.95c.39-.46.95-.69,1.67-.69.67,0,1.19.21,1.56.62.37.42.55,1.01.55,1.78,0,.2,0,.37-.03.51h-3.82v-.56h3.22c0-.56-.13-.99-.39-1.3s-.62-.46-1.09-.46c-.52,0-.92.18-1.21.53-.29.35-.43.85-.43,1.49,0,.68.19,1.21.57,1.58.38.37.92.56,1.61.56.19,0,.39-.01.61-.04.21-.02.42-.06.61-.1l.09.6c-.22.05-.46.08-.71.1s-.49.03-.72.03Z"/>
    <path d="M124.56,114.91c-.38,0-.7-.01-.97-.03-.26-.02-.5-.06-.72-.11l.08-.62c.33.05.63.09.88.12s.5.04.73.04c.64,0,1.1-.07,1.39-.2s.43-.35.43-.64c0-.21-.07-.37-.2-.5-.13-.13-.35-.23-.64-.3l-1.16-.29c-.5-.13-.87-.3-1.09-.51s-.34-.49-.34-.83c0-.52.21-.9.63-1.13.42-.23,1.1-.35,2.04-.35.23,0,.44,0,.64.02.2.01.41.04.65.08l-.07.58c-.26-.03-.49-.04-.69-.05-.2,0-.38-.01-.55-.01-.69,0-1.2.07-1.51.2s-.47.35-.47.65c0,.18.08.33.23.45s.41.23.76.31l.93.22c.53.13.91.31,1.15.54.24.23.36.53.36.92,0,.51-.2.88-.59,1.11-.39.23-1.03.35-1.9.35Z"/>
    <path d="M136.36,114.91c-.68,0-1.19-.22-1.54-.67-.35-.45-.52-1.1-.52-1.97s.18-1.58.53-2.04c.35-.46.87-.69,1.56-.69.46,0,.82.1,1.1.3s.45.5.52.88h.36l-.3,1.43c0-.66-.13-1.17-.4-1.51-.26-.34-.65-.51-1.16-.51s-.89.18-1.16.54c-.26.36-.39.9-.39,1.6s.13,1.18.39,1.53c.26.35.65.52,1.16.52s.9-.17,1.16-.51.4-.84.4-1.5l.35,1.38h-.4c-.07.38-.23.68-.51.9s-.65.33-1.14.33ZM138.16,114.86l-.1-1.25v-6.13h.65v7.34l-.55.03Z"/>
    <path d="M142.99,114.91c-.86,0-1.52-.24-1.99-.71s-.7-1.15-.7-2.02.2-1.49.59-1.95c.39-.46.95-.69,1.67-.69.67,0,1.19.21,1.56.62.37.42.55,1.01.55,1.78,0,.2,0,.37-.03.51h-3.82v-.56h3.22c0-.56-.13-.99-.39-1.3s-.62-.46-1.09-.46c-.52,0-.92.18-1.21.53-.29.35-.43.85-.43,1.49,0,.68.19,1.21.57,1.58.38.37.92.56,1.61.56.19,0,.39-.01.61-.04.21-.02.42-.06.61-.1l.09.6c-.22.05-.46.08-.71.1s-.49.03-.72.03Z"/>
    <path d="M153.94,114.91c-.68,0-1.19-.22-1.54-.67-.35-.45-.52-1.1-.52-1.97s.18-1.58.53-2.04c.35-.46.87-.69,1.56-.69.46,0,.82.1,1.1.3s.45.5.52.88h.36l-.3,1.43c0-.66-.13-1.17-.4-1.51-.26-.34-.65-.51-1.16-.51s-.89.18-1.16.54c-.26.36-.39.9-.39,1.6s.13,1.18.39,1.53c.26.35.65.52,1.16.52s.9-.17,1.16-.51.4-.84.4-1.5l.35,1.38h-.4c-.07.38-.23.68-.51.9s-.65.33-1.14.33ZM155.74,114.86l-.1-1.25v-6.13h.65v7.34l-.55.03Z"/>
    <path d="M160.57,114.91c-.86,0-1.52-.24-1.99-.71s-.7-1.15-.7-2.02.2-1.49.59-1.95c.39-.46.95-.69,1.67-.69.67,0,1.19.21,1.56.62.37.42.55,1.01.55,1.78,0,.2,0,.37-.03.51h-3.82v-.56h3.22c0-.56-.13-.99-.39-1.3s-.62-.46-1.09-.46c-.52,0-.92.18-1.21.53-.29.35-.43.85-.43,1.49,0,.68.19,1.21.57,1.58.38.37.92.56,1.61.56.19,0,.39-.01.61-.04.21-.02.42-.06.61-.1l.09.6c-.22.05-.46.08-.71.1s-.49.03-.72.03Z"/>
    <path d="M165.57,114.91c-.38,0-.7-.01-.97-.03-.26-.02-.5-.06-.72-.11l.08-.62c.33.05.63.09.88.12s.5.04.73.04c.64,0,1.1-.07,1.39-.2s.43-.35.43-.64c0-.21-.07-.37-.2-.5-.13-.13-.35-.23-.64-.3l-1.16-.29c-.5-.13-.87-.3-1.09-.51s-.34-.49-.34-.83c0-.52.21-.9.63-1.13.42-.23,1.1-.35,2.04-.35.23,0,.44,0,.64.02.2.01.41.04.65.08l-.07.58c-.26-.03-.49-.04-.69-.05-.2,0-.38-.01-.55-.01-.69,0-1.2.07-1.51.2s-.47.35-.47.65c0,.18.08.33.23.45s.41.23.76.31l.93.22c.53.13.91.31,1.15.54.24.23.36.53.36.92,0,.51-.2.88-.59,1.11-.39.23-1.03.35-1.9.35Z"/>
    <path d="M171.09,114.91c-.52,0-.92-.12-1.21-.36-.28-.24-.43-.58-.43-1.03,0-.54.19-.95.58-1.23.38-.28.95-.42,1.69-.42.35,0,.67.02.96.05.29.03.53.08.7.15l-.1.5c-.21-.07-.46-.11-.75-.12-.29-.01-.56-.02-.83-.02-1.07,0-1.61.35-1.61,1.04,0,.27.09.48.28.63.18.15.44.22.77.22.36,0,.67-.06.94-.18.27-.12.48-.29.64-.49.15-.21.23-.43.23-.67v-.6l.34,1.33h-.42l.11-.12c-.02.26-.11.49-.28.69-.17.2-.39.35-.67.46s-.59.16-.95.16ZM173.09,114.86l-.08-1.87-.06-.06v-1.19c0-.53-.14-.91-.43-1.15-.28-.24-.73-.37-1.34-.38l-1.1-.02.1-.61h.97c.85.03,1.46.21,1.86.58s.59.92.59,1.67v2.41l.89.08v.48l-1.39.05Z"/>
    <path d="M175.23,114.81v-.6h3.38v.6h-3.38ZM175.43,110.23v-.6h1.46l.03.6h-1.49ZM176.5,114.81v-5.18h.52l.13,1.48v3.69h-.65ZM177.15,112.58l-.3-1.62h.36c.12-.95.62-1.43,1.52-1.43.55,0,.95.15,1.2.46s.37.8.37,1.48h-.65c0-.48-.08-.82-.24-1.04-.16-.21-.41-.32-.77-.32-.5,0-.88.21-1.13.64-.25.43-.37,1.03-.37,1.82Z"/>
    <path d="M181.09,114.81v-.6h3.38v.6h-3.38ZM181.29,110.23v-.6h1.46l.03.6h-1.49ZM182.36,114.81v-5.18h.52l.13,1.48v3.69h-.65ZM183.01,112.58l-.3-1.62h.36c.12-.95.62-1.43,1.52-1.43.55,0,.95.15,1.2.46s.37.8.37,1.48h-.65c0-.48-.08-.82-.24-1.04-.16-.21-.41-.32-.77-.32-.5,0-.88.21-1.13.64-.25.43-.37,1.03-.37,1.82Z"/>
    <path d="M189.41,114.91c-.69,0-1.23-.23-1.61-.7-.38-.47-.58-1.13-.58-1.98s.19-1.52.58-1.98c.38-.47.92-.7,1.61-.7s1.23.23,1.61.7c.38.47.57,1.13.57,1.98s-.19,1.51-.57,1.98c-.38.47-.92.7-1.61.7ZM189.41,114.3c.48,0,.86-.18,1.12-.54.27-.36.4-.87.4-1.53s-.13-1.18-.4-1.54c-.26-.36-.64-.54-1.12-.54s-.86.18-1.12.54c-.26.36-.4.87-.4,1.54s.13,1.17.4,1.53c.27.36.64.54,1.12.54Z"/>
    <path d="M192.9,108.08v-.6h1.72v.6h-1.72ZM196.27,114.91c-.59,0-1.03-.15-1.31-.46s-.42-.78-.42-1.43v-5.53h.65v5.52c0,.29.04.53.12.73s.22.33.4.43c.18.09.42.14.72.14.27,0,.6-.05,1-.16l.07.6c-.21.06-.42.1-.61.13s-.4.04-.62.04Z"/>
    <path d="M198.76,108.08v-.6h1.72v.6h-1.72ZM202.13,114.91c-.59,0-1.03-.15-1.31-.46s-.42-.78-.42-1.43v-5.53h.65v5.52c0,.29.04.53.12.73s.22.33.4.43c.18.09.42.14.72.14.27,0,.6-.05,1-.16l.07.6c-.21.06-.42.1-.61.13s-.4.04-.62.04Z"/>
    <path d="M206.99,114.91c-.69,0-1.23-.23-1.61-.7-.38-.47-.58-1.13-.58-1.98s.19-1.52.58-1.98c.38-.47.92-.7,1.61-.7s1.23.23,1.61.7c.38.47.57,1.13.57,1.98s-.19,1.51-.57,1.98c-.38.47-.92.7-1.61.7ZM206.99,114.3c.48,0,.86-.18,1.12-.54.27-.36.4-.87.4-1.53s-.13-1.18-.4-1.54c-.26-.36-.64-.54-1.12-.54s-.86.18-1.12.54c-.26.36-.4.87-.4,1.54s.13,1.17.4,1.53c.27.36.64.54,1.12.54Z"/>
    <path d="M218.32,114.81l-2.19-5.18h.7l1.91,4.62h.12v.55h-.55ZM216.22,117.16l-.03-.61.49-.07c.33-.05.61-.16.87-.33.25-.17.48-.42.69-.74.21-.33.41-.76.61-1.3l1.6-4.47h.7l-1.78,4.72c-.23.62-.48,1.12-.72,1.5-.25.38-.52.67-.82.86-.3.19-.64.31-1.03.37l-.58.07Z"/>
    <path d="M227.91,111.53v-.6h4.63v.6h-4.63ZM229.65,114.81v-4.74c0-1.79.75-2.69,2.26-2.69.34,0,.68.03,1,.1l-.11.58c-.19-.03-.36-.04-.5-.05-.14,0-.28-.01-.42-.01-1.05,0-1.58.68-1.58,2.03v4.79h-.65Z"/>
    <path d="M236.29,114.91c-.69,0-1.23-.23-1.61-.7-.38-.47-.58-1.13-.58-1.98s.19-1.52.58-1.98c.38-.47.92-.7,1.61-.7s1.23.23,1.61.7c.38.47.57,1.13.57,1.98s-.19,1.51-.57,1.98c-.38.47-.92.7-1.61.7ZM236.29,114.3c.48,0,.86-.18,1.12-.54.27-.36.4-.87.4-1.53s-.13-1.18-.4-1.54c-.26-.36-.64-.54-1.12-.54s-.86.18-1.12.54c-.26.36-.4.87-.4,1.54s.13,1.17.4,1.53c.27.36.64.54,1.12.54Z"/>
    <path d="M239.69,114.81v-.6h3.38v.6h-3.38ZM239.88,110.23v-.6h1.46l.03.6h-1.49ZM240.95,114.81v-5.18h.52l.13,1.48v3.69h-.65ZM241.6,112.58l-.3-1.62h.36c.12-.95.62-1.43,1.52-1.43.55,0,.95.15,1.2.46s.37.8.37,1.48h-.65c0-.48-.08-.82-.24-1.04-.16-.21-.41-.32-.77-.32-.5,0-.88.21-1.13.64-.25.43-.37,1.03-.37,1.82Z"/>
    <path d="M245.5,110.23v-.6h4.53v.6h-4.53ZM246.98,112.37v-4.3h.65v4.3h-.65ZM248.94,114.91c-.67,0-1.16-.17-1.48-.51-.32-.34-.48-.87-.48-1.57v-.84h.65v.83c0,.5.11.88.34,1.12.23.24.58.37,1.06.37.19,0,.37,0,.55-.03.18-.02.36-.04.56-.07l.07.59c-.21.04-.42.07-.63.09s-.42.03-.65.03Z"/>
    <path d="M253.12,114.91c-.52,0-.92-.12-1.21-.36-.28-.24-.43-.58-.43-1.03,0-.54.19-.95.58-1.23.38-.28.95-.42,1.69-.42.35,0,.67.02.96.05.29.03.53.08.7.15l-.1.5c-.21-.07-.46-.11-.75-.12-.29-.01-.56-.02-.83-.02-1.07,0-1.61.35-1.61,1.04,0,.27.09.48.28.63.18.15.44.22.77.22.36,0,.67-.06.94-.18.27-.12.48-.29.64-.49.15-.21.23-.43.23-.67v-.6l.34,1.33h-.42l.11-.12c-.02.26-.11.49-.28.69-.17.2-.39.35-.67.46s-.59.16-.95.16ZM255.12,114.86l-.08-1.87-.06-.06v-1.19c0-.53-.14-.91-.43-1.15-.28-.24-.73-.37-1.34-.38l-1.1-.02.1-.61h.97c.85.03,1.46.21,1.86.58s.59.92.59,1.67v2.41l.89.08v.48l-1.39.05Z"/>
    <path d="M257.35,108.08v-.6h1.72v.6h-1.72ZM260.73,114.91c-.59,0-1.03-.15-1.31-.46s-.42-.78-.42-1.43v-5.53h.65v5.52c0,.29.04.53.12.73s.22.33.4.43c.18.09.42.14.72.14.27,0,.6-.05,1-.16l.07.6c-.21.06-.42.1-.61.13s-.4.04-.62.04Z"/>
    <path d="M266.04,114.91c-.86,0-1.52-.24-1.99-.71s-.7-1.15-.7-2.02.2-1.49.59-1.95c.39-.46.95-.69,1.67-.69.67,0,1.19.21,1.56.62.37.42.55,1.01.55,1.78,0,.2,0,.37-.03.51h-3.82v-.56h3.22c0-.56-.13-.99-.39-1.3s-.62-.46-1.09-.46c-.52,0-.92.18-1.21.53-.29.35-.43.85-.43,1.49,0,.68.19,1.21.57,1.58.38.37.92.56,1.61.56.19,0,.39-.01.61-.04.21-.02.42-.06.61-.1l.09.6c-.22.05-.46.08-.71.1s-.49.03-.72.03Z"/>
    <path d="M271.94,114.91c-.87,0-1.54-.23-2-.69s-.69-1.13-.69-2.01.22-1.5.66-1.97c.44-.47,1.07-.7,1.89-.7.48,0,.9.09,1.25.28s.59.45.74.79l-.54.37c-.17-.3-.38-.51-.64-.64s-.54-.2-.85-.2c-.58,0-1.04.17-1.36.52-.33.35-.49.85-.49,1.49,0,.7.18,1.23.53,1.59.35.36.87.54,1.55.54.26,0,.51-.01.77-.04.26-.03.5-.06.75-.11l.08.6c-.27.06-.54.11-.82.13-.28.02-.56.03-.83.03Z"/>
    <path d="M277.76,114.91c-.86,0-1.52-.24-1.99-.71s-.7-1.15-.7-2.02.2-1.49.59-1.95c.39-.46.95-.69,1.67-.69.67,0,1.19.21,1.56.62.37.42.55,1.01.55,1.78,0,.2,0,.37-.03.51h-3.82v-.56h3.22c0-.56-.13-.99-.39-1.3s-.62-.46-1.09-.46c-.52,0-.92.18-1.21.53-.29.35-.43.85-.43,1.49,0,.68.19,1.21.57,1.58.38.37.92.56,1.61.56.19,0,.39-.01.61-.04.21-.02.42-.06.61-.1l.09.6c-.22.05-.46.08-.71.1s-.49.03-.72.03Z"/>
    <path d="M281.13,114.81v-5.18h.59l.06,1.09v4.08h-.65ZM284.54,114.81v-3.38c0-.41-.11-.73-.33-.95-.22-.22-.52-.33-.91-.33-1.02,0-1.53.58-1.53,1.74l-.31-1.31h.37c.07-.35.24-.61.49-.78.25-.17.6-.26,1.04-.26.58,0,1.03.17,1.35.5.32.33.48.8.48,1.41v3.37h-.65Z"/>
    <path d="M75.71,119.08v-.6h1.72v.6h-1.72ZM79.08,125.91c-.59,0-1.03-.15-1.31-.46s-.42-.78-.42-1.43v-5.53h.65v5.52c0,.29.04.53.12.73s.22.33.4.43c.18.09.42.14.72.14.27,0,.6-.05,1-.16l.07.6c-.21.06-.42.1-.61.13s-.4.04-.62.04Z"/>
    <path d="M83.2,125.91c-.52,0-.92-.12-1.21-.36-.28-.24-.43-.58-.43-1.03,0-.54.19-.95.58-1.23.38-.28.95-.42,1.69-.42.35,0,.67.02.96.05.29.03.53.08.7.15l-.1.5c-.21-.07-.46-.11-.75-.12-.29-.01-.56-.02-.83-.02-1.07,0-1.61.35-1.61,1.04,0,.27.09.48.28.63.18.15.44.22.77.22.36,0,.67-.06.94-.18.27-.12.48-.29.64-.49.15-.21.23-.43.23-.67v-.6l.34,1.33h-.42l.11-.12c-.02.26-.11.49-.28.69-.17.2-.39.35-.67.46s-.59.16-.95.16ZM85.2,125.86l-.08-1.87-.06-.06v-1.19c0-.53-.14-.91-.43-1.15-.28-.24-.73-.37-1.34-.38l-1.1-.02.1-.61h.97c.85.03,1.46.21,1.86.58s.59.92.59,1.67v2.41l.89.08v.48l-1.39.05Z"/>
    <path d="M89.4,125.91c-.38,0-.7-.01-.97-.03-.26-.02-.5-.06-.72-.11l.08-.62c.33.05.63.09.88.12s.5.04.73.04c.64,0,1.1-.07,1.39-.2s.43-.35.43-.64c0-.21-.07-.37-.2-.5-.13-.13-.35-.23-.64-.3l-1.16-.29c-.5-.13-.87-.3-1.09-.51s-.34-.49-.34-.83c0-.52.21-.9.63-1.13.42-.23,1.1-.35,2.04-.35.23,0,.44,0,.64.02.2.01.41.04.65.08l-.07.58c-.26-.03-.49-.04-.69-.05-.2,0-.38-.01-.55-.01-.69,0-1.2.07-1.51.2s-.47.35-.47.65c0,.18.08.33.23.45s.41.23.76.31l.93.22c.53.13.91.31,1.15.54.24.23.36.53.36.92,0,.51-.2.88-.59,1.11-.39.23-1.03.35-1.9.35Z"/>
    <path d="M102.02,125.91c-.87,0-1.54-.23-2-.69s-.69-1.13-.69-2.01.22-1.5.66-1.97c.44-.47,1.07-.7,1.89-.7.48,0,.9.09,1.25.28s.59.45.74.79l-.54.37c-.17-.3-.38-.51-.64-.64s-.54-.2-.85-.2c-.58,0-1.04.17-1.36.52-.33.35-.49.85-.49,1.49,0,.7.18,1.23.53,1.59.35.36.87.54,1.55.54.26,0,.51-.01.77-.04.26-.03.5-.06.75-.11l.08.6c-.27.06-.54.11-.82.13-.28.02-.56.03-.83.03Z"/>
    <path d="M106.63,125.91c-.52,0-.92-.12-1.21-.36-.28-.24-.43-.58-.43-1.03,0-.54.19-.95.58-1.23.38-.28.95-.42,1.69-.42.35,0,.67.02.96.05.29.03.53.08.7.15l-.1.5c-.21-.07-.46-.11-.75-.12-.29-.01-.56-.02-.83-.02-1.07,0-1.61.35-1.61,1.04,0,.27.09.48.28.63.18.15.44.22.77.22.36,0,.67-.06.94-.18.27-.12.48-.29.64-.49.15-.21.23-.43.23-.67v-.6l.34,1.33h-.42l.11-.12c-.02.26-.11.49-.28.69-.17.2-.39.35-.67.46s-.59.16-.95.16ZM108.64,125.86l-.08-1.87-.06-.06v-1.19c0-.53-.14-.91-.43-1.15-.28-.24-.73-.37-1.34-.38l-1.1-.02.1-.61h.97c.85.03,1.46.21,1.86.58s.59.92.59,1.67v2.41l.89.08v.48l-1.39.05Z"/>
    <path d="M111.21,128.06v-7.42h.55l.1,1.19v6.23h-.65ZM113.56,125.91c-.48,0-.86-.11-1.13-.33-.27-.22-.44-.52-.51-.9h-.42l.35-1.38c0,.66.13,1.16.4,1.5s.65.51,1.16.51.9-.17,1.16-.52c.26-.35.39-.86.39-1.53,0-.71-.13-1.24-.39-1.6-.26-.36-.65-.54-1.15-.54s-.9.17-1.17.51c-.26.34-.4.84-.4,1.51l-.32-1.43h.36c.07-.39.24-.68.52-.88.28-.2.65-.3,1.11-.3.69,0,1.21.23,1.56.69s.53,1.14.53,2.04-.17,1.52-.52,1.97c-.35.45-.86.67-1.54.67Z"/>
    <path d="M118.35,125.91c-.52,0-.92-.12-1.21-.36-.28-.24-.43-.58-.43-1.03,0-.54.19-.95.58-1.23.38-.28.95-.42,1.69-.42.35,0,.67.02.96.05.29.03.53.08.7.15l-.1.5c-.21-.07-.46-.11-.75-.12-.29-.01-.56-.02-.83-.02-1.07,0-1.61.35-1.61,1.04,0,.27.09.48.28.63.18.15.44.22.77.22.36,0,.67-.06.94-.18.27-.12.48-.29.64-.49.15-.21.23-.43.23-.67v-.6l.34,1.33h-.42l.11-.12c-.02.26-.11.49-.28.69-.17.2-.39.35-.67.46s-.59.16-.95.16ZM120.36,125.86l-.08-1.87-.06-.06v-1.19c0-.53-.14-.91-.43-1.15-.28-.24-.73-.37-1.34-.38l-1.1-.02.1-.61h.97c.85.03,1.46.21,1.86.58s.59.92.59,1.67v2.41l.89.08v.48l-1.39.05Z"/>
    <path d="M125.46,125.91c-.87,0-1.54-.23-2-.69s-.69-1.13-.69-2.01.22-1.5.66-1.97c.44-.47,1.07-.7,1.89-.7.48,0,.9.09,1.25.28s.59.45.74.79l-.54.37c-.17-.3-.38-.51-.64-.64s-.54-.2-.85-.2c-.58,0-1.04.17-1.36.52-.33.35-.49.85-.49,1.49,0,.7.18,1.23.53,1.59.35.36.87.54,1.55.54.26,0,.51-.01.77-.04.26-.03.5-.06.75-.11l.08.6c-.27.06-.54.11-.82.13-.28.02-.56.03-.83.03Z"/>
    <path d="M128.75,125.81v-.6h2.19v.6h-2.19ZM129.04,121.23v-.6h2.45v.6h-2.45ZM131.11,119.51c-.16,0-.29-.06-.4-.17-.11-.11-.17-.24-.17-.4s.05-.29.17-.4c.11-.11.24-.17.4-.17s.29.06.4.17c.11.11.17.24.17.4s-.06.29-.17.4c-.11.11-.24.17-.4.17ZM130.83,125.81v-4.92h.65v4.92h-.65ZM131.38,125.81v-.6h1.81v.6h-1.81Z"/>
    <path d="M136.36,125.91c-.68,0-1.19-.22-1.54-.67-.35-.45-.52-1.1-.52-1.97s.18-1.58.53-2.04c.35-.46.87-.69,1.56-.69.46,0,.82.1,1.1.3s.45.5.52.88h.36l-.3,1.43c0-.66-.13-1.17-.4-1.51-.26-.34-.65-.51-1.16-.51s-.89.18-1.16.54c-.26.36-.39.9-.39,1.6s.13,1.18.39,1.53c.26.35.65.52,1.16.52s.9-.17,1.16-.51.4-.84.4-1.5l.35,1.38h-.4c-.07.38-.23.68-.51.9s-.65.33-1.14.33ZM138.16,125.86l-.1-1.25v-6.13h.65v7.34l-.55.03Z"/>
    <path d="M141.79,125.91c-.52,0-.92-.12-1.21-.36-.28-.24-.43-.58-.43-1.03,0-.54.19-.95.58-1.23.38-.28.95-.42,1.69-.42.35,0,.67.02.96.05.29.03.53.08.7.15l-.1.5c-.21-.07-.46-.11-.75-.12-.29-.01-.56-.02-.83-.02-1.07,0-1.61.35-1.61,1.04,0,.27.09.48.28.63.18.15.44.22.77.22.36,0,.67-.06.94-.18.27-.12.48-.29.64-.49.15-.21.23-.43.23-.67v-.6l.34,1.33h-.42l.11-.12c-.02.26-.11.49-.28.69-.17.2-.39.35-.67.46s-.59.16-.95.16ZM143.8,125.86l-.08-1.87-.06-.06v-1.19c0-.53-.14-.91-.43-1.15-.28-.24-.73-.37-1.34-.38l-1.1-.02.1-.61h.97c.85.03,1.46.21,1.86.58s.59.92.59,1.67v2.41l.89.08v.48l-1.39.05Z"/>
    <path d="M148.08,125.91c-.68,0-1.19-.22-1.54-.67-.35-.45-.52-1.1-.52-1.97s.18-1.58.53-2.04c.35-.46.87-.69,1.56-.69.46,0,.82.1,1.1.3s.45.5.52.88h.36l-.3,1.43c0-.66-.13-1.17-.4-1.51-.26-.34-.65-.51-1.16-.51s-.89.18-1.16.54c-.26.36-.39.9-.39,1.6s.13,1.18.39,1.53c.26.35.65.52,1.16.52s.9-.17,1.16-.51.4-.84.4-1.5l.35,1.38h-.4c-.07.38-.23.68-.51.9s-.65.33-1.14.33ZM149.88,125.86l-.1-1.25v-6.13h.65v7.34l-.55.03Z"/>
    <path d="M154.71,125.91c-.86,0-1.52-.24-1.99-.71s-.7-1.15-.7-2.02.2-1.49.59-1.95c.39-.46.95-.69,1.67-.69.67,0,1.19.21,1.56.62.37.42.55,1.01.55,1.78,0,.2,0,.37-.03.51h-3.82v-.56h3.22c0-.56-.13-.99-.39-1.3s-.62-.46-1.09-.46c-.52,0-.92.18-1.21.53-.29.35-.43.85-.43,1.49,0,.68.19,1.21.57,1.58.38.37.92.56,1.61.56.19,0,.39-.01.61-.04.21-.02.42-.06.61-.1l.09.6c-.22.05-.46.08-.71.1s-.49.03-.72.03Z"/>
    <path d="M159.71,125.91c-.38,0-.7-.01-.97-.03-.26-.02-.5-.06-.72-.11l.08-.62c.33.05.63.09.88.12s.5.04.73.04c.64,0,1.1-.07,1.39-.2s.43-.35.43-.64c0-.21-.07-.37-.2-.5-.13-.13-.35-.23-.64-.3l-1.16-.29c-.5-.13-.87-.3-1.09-.51s-.34-.49-.34-.83c0-.52.21-.9.63-1.13.42-.23,1.1-.35,2.04-.35.23,0,.44,0,.64.02.2.01.41.04.65.08l-.07.58c-.26-.03-.49-.04-.69-.05-.2,0-.38-.01-.55-.01-.69,0-1.2.07-1.51.2s-.47.35-.47.65c0,.18.08.33.23.45s.41.23.76.31l.93.22c.53.13.91.31,1.15.54.24.23.36.53.36.92,0,.51-.2.88-.59,1.11-.39.23-1.03.35-1.9.35Z"/>
    <path d="M172.29,125.91c-.86,0-1.52-.24-1.99-.71s-.7-1.15-.7-2.02.2-1.49.59-1.95c.39-.46.95-.69,1.67-.69.67,0,1.19.21,1.56.62.37.42.55,1.01.55,1.78,0,.2,0,.37-.03.51h-3.82v-.56h3.22c0-.56-.13-.99-.39-1.3s-.62-.46-1.09-.46c-.52,0-.92.18-1.21.53-.29.35-.43.85-.43,1.49,0,.68.19,1.21.57,1.58.38.37.92.56,1.61.56.19,0,.39-.01.61-.04.21-.02.42-.06.61-.1l.09.6c-.22.05-.46.08-.71.1s-.49.03-.72.03Z"/>
    <path d="M178.19,125.91c-.87,0-1.54-.23-2-.69s-.69-1.13-.69-2.01.22-1.5.66-1.97c.44-.47,1.07-.7,1.89-.7.48,0,.9.09,1.25.28s.59.45.74.79l-.54.37c-.17-.3-.38-.51-.64-.64s-.54-.2-.85-.2c-.58,0-1.04.17-1.36.52-.33.35-.49.85-.49,1.49,0,.7.18,1.23.53,1.59.35.36.87.54,1.55.54.26,0,.51-.01.77-.04.26-.03.5-.06.75-.11l.08.6c-.27.06-.54.11-.82.13-.28.02-.56.03-.83.03Z"/>
    <path d="M183.55,125.91c-.69,0-1.23-.23-1.61-.7-.38-.47-.58-1.13-.58-1.98s.19-1.52.58-1.98c.38-.47.92-.7,1.61-.7s1.23.23,1.61.7c.38.47.57,1.13.57,1.98s-.19,1.51-.57,1.98c-.38.47-.92.7-1.61.7ZM183.55,125.3c.48,0,.86-.18,1.12-.54.27-.36.4-.87.4-1.53s-.13-1.18-.4-1.54c-.26-.36-.64-.54-1.12-.54s-.86.18-1.12.54c-.26.36-.4.87-.4,1.54s.13,1.17.4,1.53c.27.36.64.54,1.12.54Z"/>
    <path d="M187.38,125.81v-5.18h.59l.06,1.09v4.08h-.65ZM190.79,125.81v-3.38c0-.41-.11-.73-.33-.95-.22-.22-.52-.33-.91-.33-1.02,0-1.53.58-1.53,1.74l-.31-1.31h.37c.07-.35.24-.61.49-.78.25-.17.6-.26,1.04-.26.58,0,1.03.17,1.35.5.32.33.48.8.48,1.41v3.37h-.65Z"/>
    <path d="M195.27,125.91c-.69,0-1.23-.23-1.61-.7-.38-.47-.58-1.13-.58-1.98s.19-1.52.58-1.98c.38-.47.92-.7,1.61-.7s1.23.23,1.61.7c.38.47.57,1.13.57,1.98s-.19,1.51-.57,1.98c-.38.47-.92.7-1.61.7ZM195.27,125.3c.48,0,.86-.18,1.12-.54.27-.36.4-.87.4-1.53s-.13-1.18-.4-1.54c-.26-.36-.64-.54-1.12-.54s-.86.18-1.12.54c-.26.36-.4.87-.4,1.54s.13,1.17.4,1.53c.27.36.64.54,1.12.54ZM194.92,119.72l1.06-1.86h.7l-1.12,1.86h-.64Z"/>
    <path d="M198.83,125.81v-5.18h.57l.08,1.09v4.08h-.65ZM200.83,125.81v-4.05c0-.44-.21-.66-.62-.66-.5,0-.74.31-.74.92l-.3-.74h.32c.09-.49.42-.74.98-.74.32,0,.55.09.71.28s.24.47.24.84v4.15h-.6ZM202.79,125.81v-3.96c0-.5-.2-.76-.61-.76-.5,0-.75.31-.75.92l-.35-.74h.36c.04-.23.14-.42.3-.55.16-.13.38-.2.65-.2.35,0,.62.1.79.3s.26.51.26.92v4.05h-.65Z"/>
    <path d="M204.92,125.81v-.6h2.19v.6h-2.19ZM205.21,121.23v-.6h2.45v.6h-2.45ZM207.28,119.51c-.16,0-.29-.06-.4-.17-.11-.11-.17-.24-.17-.4s.05-.29.17-.4c.11-.11.24-.17.4-.17s.29.06.4.17c.11.11.17.24.17.4s-.06.29-.17.4c-.11.11-.24.17-.4.17ZM207,125.81v-4.92h.65v4.92h-.65ZM207.56,125.81v-.6h1.81v.6h-1.81Z"/>
    <path d="M213.35,125.91c-.87,0-1.54-.23-2-.69s-.69-1.13-.69-2.01.22-1.5.66-1.97c.44-.47,1.07-.7,1.89-.7.48,0,.9.09,1.25.28s.59.45.74.79l-.54.37c-.17-.3-.38-.51-.64-.64s-.54-.2-.85-.2c-.58,0-1.04.17-1.36.52-.33.35-.49.85-.49,1.49,0,.7.18,1.23.53,1.59.35.36.87.54,1.55.54.26,0,.51-.01.77-.04.26-.03.5-.06.75-.11l.08.6c-.27.06-.54.11-.82.13-.28.02-.56.03-.83.03Z"/>
    <path d="M217.96,125.91c-.52,0-.92-.12-1.21-.36-.28-.24-.43-.58-.43-1.03,0-.54.19-.95.58-1.23.38-.28.95-.42,1.69-.42.35,0,.67.02.96.05.29.03.53.08.7.15l-.1.5c-.21-.07-.46-.11-.75-.12-.29-.01-.56-.02-.83-.02-1.07,0-1.61.35-1.61,1.04,0,.27.09.48.28.63.18.15.44.22.77.22.36,0,.67-.06.94-.18.27-.12.48-.29.64-.49.15-.21.23-.43.23-.67v-.6l.34,1.33h-.42l.11-.12c-.02.26-.11.49-.28.69-.17.2-.39.35-.67.46s-.59.16-.95.16ZM219.97,125.86l-.08-1.87-.06-.06v-1.19c0-.53-.14-.91-.43-1.15-.28-.24-.73-.37-1.34-.38l-1.1-.02.1-.61h.97c.85.03,1.46.21,1.86.58s.59.92.59,1.67v2.41l.89.08v.48l-1.39.05Z"/>
    <path d="M224.17,125.91c-.38,0-.7-.01-.97-.03-.26-.02-.5-.06-.72-.11l.08-.62c.33.05.63.09.88.12s.5.04.73.04c.64,0,1.1-.07,1.39-.2s.43-.35.43-.64c0-.21-.07-.37-.2-.5-.13-.13-.35-.23-.64-.3l-1.16-.29c-.5-.13-.87-.3-1.09-.51s-.34-.49-.34-.83c0-.52.21-.9.63-1.13.42-.23,1.1-.35,2.04-.35.23,0,.44,0,.64.02.2.01.41.04.65.08l-.07.58c-.26-.03-.49-.04-.69-.05-.2,0-.38-.01-.55-.01-.69,0-1.2.07-1.51.2s-.47.35-.47.65c0,.18.08.33.23.45s.41.23.76.31l.93.22c.53.13.91.31,1.15.54.24.23.36.53.36.92,0,.51-.2.88-.59,1.11-.39.23-1.03.35-1.9.35Z"/>
    <path d="M235.97,125.91c-.68,0-1.19-.22-1.54-.67-.35-.45-.52-1.1-.52-1.97s.18-1.58.53-2.04c.35-.46.87-.69,1.56-.69.46,0,.82.1,1.1.3s.45.5.52.88h.36l-.3,1.43c0-.66-.13-1.17-.4-1.51-.26-.34-.65-.51-1.16-.51s-.89.18-1.16.54c-.26.36-.39.9-.39,1.6s.13,1.18.39,1.53c.26.35.65.52,1.16.52s.9-.17,1.16-.51.4-.84.4-1.5l.35,1.38h-.4c-.07.38-.23.68-.51.9s-.65.33-1.14.33ZM237.77,125.86l-.1-1.25v-6.13h.65v7.34l-.55.03Z"/>
    <path d="M242.6,125.91c-.86,0-1.52-.24-1.99-.71s-.7-1.15-.7-2.02.2-1.49.59-1.95c.39-.46.95-.69,1.67-.69.67,0,1.19.21,1.56.62.37.42.55,1.01.55,1.78,0,.2,0,.37-.03.51h-3.82v-.56h3.22c0-.56-.13-.99-.39-1.3s-.62-.46-1.09-.46c-.52,0-.92.18-1.21.53-.29.35-.43.85-.43,1.49,0,.68.19,1.21.57,1.58.38.37.92.56,1.61.56.19,0,.39-.01.61-.04.21-.02.42-.06.61-.1l.09.6c-.22.05-.46.08-.71.1s-.49.03-.72.03Z"/>
    <path d="M251.49,119.08v-.6h1.72v.6h-1.72ZM254.87,125.91c-.59,0-1.03-.15-1.31-.46s-.42-.78-.42-1.43v-5.53h.65v5.52c0,.29.04.53.12.73s.22.33.4.43c.18.09.42.14.72.14.27,0,.6-.05,1-.16l.07.6c-.21.06-.42.1-.61.13s-.4.04-.62.04Z"/>
    <path d="M258.98,125.91c-.52,0-.92-.12-1.21-.36-.28-.24-.43-.58-.43-1.03,0-.54.19-.95.58-1.23.38-.28.95-.42,1.69-.42.35,0,.67.02.96.05.29.03.53.08.7.15l-.1.5c-.21-.07-.46-.11-.75-.12-.29-.01-.56-.02-.83-.02-1.07,0-1.61.35-1.61,1.04,0,.27.09.48.28.63.18.15.44.22.77.22.36,0,.67-.06.94-.18.27-.12.48-.29.64-.49.15-.21.23-.43.23-.67v-.6l.34,1.33h-.42l.11-.12c-.02.26-.11.49-.28.69-.17.2-.39.35-.67.46s-.59.16-.95.16ZM260.98,125.86l-.08-1.87-.06-.06v-1.19c0-.53-.14-.91-.43-1.15-.28-.24-.73-.37-1.34-.38l-1.1-.02.1-.61h.97c.85.03,1.46.21,1.86.58s.59.92.59,1.67v2.41l.89.08v.48l-1.39.05Z"/>
    <path d="M58.47,139.06v-7.42h.55l.1,1.19v6.23h-.65ZM60.82,136.91c-.48,0-.86-.11-1.13-.33-.27-.22-.44-.52-.51-.9h-.42l.35-1.38c0,.66.13,1.16.4,1.5s.65.51,1.16.51.9-.17,1.16-.52c.26-.35.39-.86.39-1.53,0-.71-.13-1.24-.39-1.6-.26-.36-.65-.54-1.15-.54s-.9.17-1.17.51c-.26.34-.4.84-.4,1.51l-.32-1.43h.36c.07-.39.24-.68.52-.88.28-.2.65-.3,1.11-.3.69,0,1.21.23,1.56.69s.53,1.14.53,2.04-.17,1.52-.52,1.97c-.35.45-.86.67-1.54.67Z"/>
    <path d="M66.36,136.91c-.69,0-1.23-.23-1.61-.7-.38-.47-.58-1.13-.58-1.98s.19-1.52.58-1.98c.38-.47.92-.7,1.61-.7s1.23.23,1.61.7c.38.47.57,1.13.57,1.98s-.19,1.51-.57,1.98c-.38.47-.92.7-1.61.7ZM66.36,136.3c.48,0,.86-.18,1.12-.54.27-.36.4-.87.4-1.53s-.13-1.18-.4-1.54c-.26-.36-.64-.54-1.12-.54s-.86.18-1.12.54c-.26.36-.4.87-.4,1.54s.13,1.17.4,1.53c.27.36.64.54,1.12.54Z"/>
    <path d="M70.17,136.81v-7.32h.64v7.24s-.64.09-.64.09ZM71.32,136.91c-.2,0-.39,0-.57-.03s-.38-.04-.58-.07l.34-.6c.15.04.31.07.49.08.18.01.35.02.53.02.76,0,1.36-.21,1.78-.64s.63-1.02.63-1.8c0-.56-.13-.99-.39-1.3-.26-.3-.62-.46-1.1-.46-1.08,0-1.63.59-1.63,1.77l-.3-1.33h.37c.17-.69.7-1.04,1.61-1.04.66,0,1.18.2,1.54.61.36.41.55.98.55,1.73,0,.96-.29,1.71-.85,2.23-.57.53-1.37.79-2.41.79Z"/>
    <path d="M75.71,130.08v-.6h1.72v.6h-1.72ZM79.08,136.91c-.59,0-1.03-.15-1.31-.46s-.42-.78-.42-1.43v-5.53h.65v5.52c0,.29.04.53.12.73s.22.33.4.43c.18.09.42.14.72.14.27,0,.6-.05,1-.16l.07.6c-.21.06-.42.1-.61.13s-.4.04-.62.04Z"/>
    <path d="M83.2,136.91c-.52,0-.92-.12-1.21-.36-.28-.24-.43-.58-.43-1.03,0-.54.19-.95.58-1.23.38-.28.95-.42,1.69-.42.35,0,.67.02.96.05.29.03.53.08.7.15l-.1.5c-.21-.07-.46-.11-.75-.12-.29-.01-.56-.02-.83-.02-1.07,0-1.61.35-1.61,1.04,0,.27.09.48.28.63.18.15.44.22.77.22.36,0,.67-.06.94-.18.27-.12.48-.29.64-.49.15-.21.23-.43.23-.67v-.6l.34,1.33h-.42l.11-.12c-.02.26-.11.49-.28.69-.17.2-.39.35-.67.46s-.59.16-.95.16ZM85.2,136.86l-.08-1.87-.06-.06v-1.19c0-.53-.14-.91-.43-1.15-.28-.24-.73-.37-1.34-.38l-1.1-.02.1-.61h.97c.85.03,1.46.21,1.86.58s.59.92.59,1.67v2.41l.89.08v.48l-1.39.05Z"/>
    <path d="M90.3,136.91c-.87,0-1.54-.23-2-.69s-.69-1.13-.69-2.01.22-1.5.66-1.97c.44-.47,1.07-.7,1.89-.7.48,0,.9.09,1.25.28s.59.45.74.79l-.54.37c-.17-.3-.38-.51-.64-.64s-.54-.2-.85-.2c-.58,0-1.04.17-1.36.52-.33.35-.49.85-.49,1.49,0,.7.18,1.23.53,1.59.35.36.87.54,1.55.54.26,0,.51-.01.77-.04.26-.03.5-.06.75-.11l.08.6c-.27.06-.54.11-.82.13-.28.02-.56.03-.83.03Z"/>
    <path d="M93.59,136.81v-.6h2.19v.6h-2.19ZM93.88,132.23v-.6h2.45v.6h-2.45ZM95.95,130.51c-.16,0-.29-.06-.4-.17-.11-.11-.17-.24-.17-.4s.05-.29.17-.4c.11-.11.24-.17.4-.17s.29.06.4.17c.11.11.17.24.17.4s-.06.29-.17.4c-.11.11-.24.17-.4.17ZM95.68,136.81v-4.92h.65v4.92h-.65ZM96.23,136.81v-.6h1.81v.6h-1.81Z"/>
    <path d="M101.52,136.91c-.69,0-1.23-.23-1.61-.7-.38-.47-.58-1.13-.58-1.98s.19-1.52.58-1.98c.38-.47.92-.7,1.61-.7s1.23.23,1.61.7c.38.47.57,1.13.57,1.98s-.19,1.51-.57,1.98c-.38.47-.92.7-1.61.7ZM101.52,136.3c.48,0,.86-.18,1.12-.54.27-.36.4-.87.4-1.53s-.13-1.18-.4-1.54c-.26-.36-.64-.54-1.12-.54s-.86.18-1.12.54c-.26.36-.4.87-.4,1.54s.13,1.17.4,1.53c.27.36.64.54,1.12.54ZM101.17,130.72l1.06-1.86h.7l-1.12,1.86h-.64Z"/>
    <path d="M105.35,136.81v-5.18h.59l.06,1.09v4.08h-.65ZM108.76,136.81v-3.38c0-.41-.11-.73-.33-.95-.22-.22-.52-.33-.91-.33-1.02,0-1.53.58-1.53,1.74l-.31-1.31h.37c.07-.35.24-.61.49-.78.25-.17.6-.26,1.04-.26.58,0,1.03.17,1.35.5.32.33.48.8.48,1.41v3.37h-.65Z"/>
    <path d="M112.55,138.94l.39-3.37h.69l-.47,3.37h-.61Z"/>
    <path d="M125.41,136.91c-.86,0-1.52-.24-1.99-.71s-.7-1.15-.7-2.02.2-1.49.59-1.95c.39-.46.95-.69,1.67-.69.67,0,1.19.21,1.56.62.37.42.55,1.01.55,1.78,0,.2,0,.37-.03.51h-3.82v-.56h3.22c0-.56-.13-.99-.39-1.3s-.62-.46-1.09-.46c-.52,0-.92.18-1.21.53-.29.35-.43.85-.43,1.49,0,.68.19,1.21.57,1.58.38.37.92.56,1.61.56.19,0,.39-.01.61-.04.21-.02.42-.06.61-.1l.09.6c-.22.05-.46.08-.71.1s-.49.03-.72.03Z"/>
    <path d="M130.42,136.91c-.38,0-.7-.01-.97-.03-.26-.02-.5-.06-.72-.11l.08-.62c.33.05.63.09.88.12s.5.04.73.04c.64,0,1.1-.07,1.39-.2s.43-.35.43-.64c0-.21-.07-.37-.2-.5-.13-.13-.35-.23-.64-.3l-1.16-.29c-.5-.13-.87-.3-1.09-.51s-.34-.49-.34-.83c0-.52.21-.9.63-1.13.42-.23,1.1-.35,2.04-.35.23,0,.44,0,.64.02.2.01.41.04.65.08l-.07.58c-.26-.03-.49-.04-.69-.05-.2,0-.38-.01-.55-.01-.69,0-1.2.07-1.51.2s-.47.35-.47.65c0,.18.08.33.23.45s.41.23.76.31l.93.22c.53.13.91.31,1.15.54.24.23.36.53.36.92,0,.51-.2.88-.59,1.11-.39.23-1.03.35-1.9.35Z"/>
    <path d="M134.65,139.06v-7.42h.55l.1,1.19v6.23h-.65ZM136.99,136.91c-.48,0-.86-.11-1.13-.33-.27-.22-.44-.52-.51-.9h-.42l.35-1.38c0,.66.13,1.16.4,1.5s.65.51,1.16.51.9-.17,1.16-.52c.26-.35.39-.86.39-1.53,0-.71-.13-1.24-.39-1.6-.26-.36-.65-.54-1.15-.54s-.9.17-1.17.51c-.26.34-.4.84-.4,1.51l-.32-1.43h.36c.07-.39.24-.68.52-.88.28-.2.65-.3,1.11-.3.69,0,1.21.23,1.56.69s.53,1.14.53,2.04-.17,1.52-.52,1.97c-.35.45-.86.67-1.54.67Z"/>
    <path d="M142.99,136.91c-.86,0-1.52-.24-1.99-.71s-.7-1.15-.7-2.02.2-1.49.59-1.95c.39-.46.95-.69,1.67-.69.67,0,1.19.21,1.56.62.37.42.55,1.01.55,1.78,0,.2,0,.37-.03.51h-3.82v-.56h3.22c0-.56-.13-.99-.39-1.3s-.62-.46-1.09-.46c-.52,0-.92.18-1.21.53-.29.35-.43.85-.43,1.49,0,.68.19,1.21.57,1.58.38.37.92.56,1.61.56.19,0,.39-.01.61-.04.21-.02.42-.06.61-.1l.09.6c-.22.05-.46.08-.71.1s-.49.03-.72.03Z"/>
    <path d="M148.89,136.91c-.87,0-1.54-.23-2-.69s-.69-1.13-.69-2.01.22-1.5.66-1.97c.44-.47,1.07-.7,1.89-.7.48,0,.9.09,1.25.28s.59.45.74.79l-.54.37c-.17-.3-.38-.51-.64-.64s-.54-.2-.85-.2c-.58,0-1.04.17-1.36.52-.33.35-.49.85-.49,1.49,0,.7.18,1.23.53,1.59.35.36.87.54,1.55.54.26,0,.51-.01.77-.04.26-.03.5-.06.75-.11l.08.6c-.27.06-.54.11-.82.13-.28.02-.56.03-.83.03Z"/>
    <path d="M152.19,136.81v-.6h2.19v.6h-2.19ZM152.48,132.23v-.6h2.45v.6h-2.45ZM154.55,130.51c-.16,0-.29-.06-.4-.17-.11-.11-.17-.24-.17-.4s.05-.29.17-.4c.11-.11.24-.17.4-.17s.29.06.4.17c.11.11.17.24.17.4s-.06.29-.17.4c-.11.11-.24.17-.4.17ZM154.27,136.81v-4.92h.65v4.92h-.65ZM154.82,136.81v-.6h1.81v.6h-1.81Z"/>
    <path d="M159.37,136.91c-.52,0-.92-.12-1.21-.36-.28-.24-.43-.58-.43-1.03,0-.54.19-.95.58-1.23.38-.28.95-.42,1.69-.42.35,0,.67.02.96.05.29.03.53.08.7.15l-.1.5c-.21-.07-.46-.11-.75-.12-.29-.01-.56-.02-.83-.02-1.07,0-1.61.35-1.61,1.04,0,.27.09.48.28.63.18.15.44.22.77.22.36,0,.67-.06.94-.18.27-.12.48-.29.64-.49.15-.21.23-.43.23-.67v-.6l.34,1.33h-.42l.11-.12c-.02.26-.11.49-.28.69-.17.2-.39.35-.67.46s-.59.16-.95.16ZM161.37,136.86l-.08-1.87-.06-.06v-1.19c0-.53-.14-.91-.43-1.15-.28-.24-.73-.37-1.34-.38l-1.1-.02.1-.61h.97c.85.03,1.46.21,1.86.58s.59.92.59,1.67v2.41l.89.08v.48l-1.39.05Z"/>
    <path d="M163.6,130.08v-.6h1.72v.6h-1.72ZM166.98,136.91c-.59,0-1.03-.15-1.31-.46s-.42-.78-.42-1.43v-5.53h.65v5.52c0,.29.04.53.12.73s.22.33.4.43c.18.09.42.14.72.14.27,0,.6-.05,1-.16l.07.6c-.21.06-.42.1-.61.13s-.4.04-.62.04Z"/>
    <path d="M169.53,136.81v-5.18h.57l.08,1.09v4.08h-.65ZM171.54,136.81v-4.05c0-.44-.21-.66-.62-.66-.5,0-.74.31-.74.92l-.3-.74h.32c.09-.49.42-.74.98-.74.32,0,.55.09.71.28s.24.47.24.84v4.15h-.6ZM173.49,136.81v-3.96c0-.5-.2-.76-.61-.76-.5,0-.75.31-.75.92l-.35-.74h.36c.04-.23.14-.42.3-.55.16-.13.38-.2.65-.2.35,0,.62.1.79.3s.26.51.26.92v4.05h-.65Z"/>
    <path d="M178.15,136.91c-.86,0-1.52-.24-1.99-.71s-.7-1.15-.7-2.02.2-1.49.59-1.95c.39-.46.95-.69,1.67-.69.67,0,1.19.21,1.56.62.37.42.55,1.01.55,1.78,0,.2,0,.37-.03.51h-3.82v-.56h3.22c0-.56-.13-.99-.39-1.3s-.62-.46-1.09-.46c-.52,0-.92.18-1.21.53-.29.35-.43.85-.43,1.49,0,.68.19,1.21.57,1.58.38.37.92.56,1.61.56.19,0,.39-.01.61-.04.21-.02.42-.06.61-.1l.09.6c-.22.05-.46.08-.71.1s-.49.03-.72.03Z"/>
    <path d="M181.52,136.81v-5.18h.59l.06,1.09v4.08h-.65ZM184.93,136.81v-3.38c0-.41-.11-.73-.33-.95-.22-.22-.52-.33-.91-.33-1.02,0-1.53.58-1.53,1.74l-.31-1.31h.37c.07-.35.24-.61.49-.78.25-.17.6-.26,1.04-.26.58,0,1.03.17,1.35.5.32.33.48.8.48,1.41v3.37h-.65Z"/>
    <path d="M186.9,132.23v-.6h4.53v.6h-4.53ZM188.39,134.37v-4.3h.65v4.3h-.65ZM190.35,136.91c-.67,0-1.16-.17-1.48-.51-.32-.34-.48-.87-.48-1.57v-.84h.65v.83c0,.5.11.88.34,1.12.23.24.58.37,1.06.37.19,0,.37,0,.55-.03.18-.02.36-.04.56-.07l.07.59c-.21.04-.42.07-.63.09s-.42.03-.65.03Z"/>
    <path d="M195.73,136.91c-.86,0-1.52-.24-1.99-.71s-.7-1.15-.7-2.02.2-1.49.59-1.95c.39-.46.95-.69,1.67-.69.67,0,1.19.21,1.56.62.37.42.55,1.01.55,1.78,0,.2,0,.37-.03.51h-3.82v-.56h3.22c0-.56-.13-.99-.39-1.3s-.62-.46-1.09-.46c-.52,0-.92.18-1.21.53-.29.35-.43.85-.43,1.49,0,.68.19,1.21.57,1.58.38.37.92.56,1.61.56.19,0,.39-.01.61-.04.21-.02.42-.06.61-.1l.09.6c-.22.05-.46.08-.71.1s-.49.03-.72.03Z"/>
    <path d="M207.44,136.91c-.86,0-1.52-.24-1.99-.71s-.7-1.15-.7-2.02.2-1.49.59-1.95c.39-.46.95-.69,1.67-.69.67,0,1.19.21,1.56.62.37.42.55,1.01.55,1.78,0,.2,0,.37-.03.51h-3.82v-.56h3.22c0-.56-.13-.99-.39-1.3s-.62-.46-1.09-.46c-.52,0-.92.18-1.21.53-.29.35-.43.85-.43,1.49,0,.68.19,1.21.57,1.58.38.37.92.56,1.61.56.19,0,.39-.01.61-.04.21-.02.42-.06.61-.1l.09.6c-.22.05-.46.08-.71.1s-.49.03-.72.03Z"/>
    <path d="M210.82,136.81v-5.18h.59l.06,1.09v4.08h-.65ZM214.23,136.81v-3.38c0-.41-.11-.73-.33-.95-.22-.22-.52-.33-.91-.33-1.02,0-1.53.58-1.53,1.74l-.31-1.31h.37c.07-.35.24-.61.49-.78.25-.17.6-.26,1.04-.26.58,0,1.03.17,1.35.5.32.33.48.8.48,1.41v3.37h-.65Z"/>
    <path d="M216.2,132.23v-.6h4.53v.6h-4.53ZM217.69,134.37v-4.3h.65v4.3h-.65ZM219.65,136.91c-.67,0-1.16-.17-1.48-.51-.32-.34-.48-.87-.48-1.57v-.84h.65v.83c0,.5.11.88.34,1.12.23.24.58.37,1.06.37.19,0,.37,0,.55-.03.18-.02.36-.04.56-.07l.07.59c-.21.04-.42.07-.63.09s-.42.03-.65.03Z"/>
    <path d="M222.11,136.81v-.6h3.38v.6h-3.38ZM222.3,132.23v-.6h1.46l.03.6h-1.49ZM223.37,136.81v-5.18h.52l.13,1.48v3.69h-.65ZM224.03,134.58l-.3-1.62h.36c.12-.95.62-1.43,1.52-1.43.55,0,.95.15,1.2.46s.37.8.37,1.48h-.65c0-.48-.08-.82-.24-1.04-.16-.21-.41-.32-.77-.32-.5,0-.88.21-1.13.64-.25.43-.37,1.03-.37,1.82Z"/>
    <path d="M230.88,136.91c-.86,0-1.52-.24-1.99-.71s-.7-1.15-.7-2.02.2-1.49.59-1.95c.39-.46.95-.69,1.67-.69.67,0,1.19.21,1.56.62.37.42.55,1.01.55,1.78,0,.2,0,.37-.03.51h-3.82v-.56h3.22c0-.56-.13-.99-.39-1.3s-.62-.46-1.09-.46c-.52,0-.92.18-1.21.53-.29.35-.43.85-.43,1.49,0,.68.19,1.21.57,1.58.38.37.92.56,1.61.56.19,0,.39-.01.61-.04.21-.02.42-.06.61-.1l.09.6c-.22.05-.46.08-.71.1s-.49.03-.72.03Z"/>
    <path d="M241.88,136.91c-.67,0-1.19-.23-1.56-.69-.37-.46-.55-1.11-.55-1.95s.18-1.54.55-2.02c.37-.48.89-.72,1.57-.72.43,0,.78.09,1.05.27.27.18.45.43.53.77h.36l-.3,1.26c0-.55-.13-.97-.4-1.27-.27-.29-.65-.44-1.14-.44s-.88.19-1.16.56-.41.9-.41,1.58.14,1.16.41,1.52c.27.35.66.53,1.17.53s.87-.1,1.14-.3.4-.49.4-.86v-.57l.35,1.43h-.41c-.07.29-.24.51-.52.67-.28.15-.64.23-1.07.23ZM243.53,139.06v-6.33l.1-1.09h.55v7.42h-.65Z"/>
    <path d="M247.66,136.91c-.57,0-1.01-.16-1.32-.49s-.47-.78-.47-1.37v-3.42h.65v3.42c0,.4.11.71.34.92s.54.32.94.32c.48,0,.84-.14,1.08-.43s.37-.77.37-1.45l.26,1.4h-.31c-.09.35-.28.62-.54.81-.27.19-.6.29-.99.29ZM249.24,135.35v-3.71h.65v3.75l-.65-.03ZM249.33,136.86l-.06-1.24-.02-.91h.65v1.55l.71.07v.48l-1.27.05Z"/>
    <path d="M251.79,136.81v-.6h2.19v.6h-2.19ZM252.09,132.23v-.6h2.45v.6h-2.45ZM254.16,130.51c-.16,0-.29-.06-.4-.17-.11-.11-.17-.24-.17-.4s.05-.29.17-.4c.11-.11.24-.17.4-.17s.29.06.4.17c.11.11.17.24.17.4s-.06.29-.17.4c-.11.11-.24.17-.4.17ZM253.88,136.81v-4.92h.65v4.92h-.65ZM254.43,136.81v-.6h1.81v.6h-1.81Z"/>
    <path d="M260.18,136.91c-.86,0-1.52-.24-1.99-.71s-.7-1.15-.7-2.02.2-1.49.59-1.95c.39-.46.95-.69,1.67-.69.67,0,1.19.21,1.56.62.37.42.55,1.01.55,1.78,0,.2,0,.37-.03.51h-3.82v-.56h3.22c0-.56-.13-.99-.39-1.3s-.62-.46-1.09-.46c-.52,0-.92.18-1.21.53-.29.35-.43.85-.43,1.49,0,.68.19,1.21.57,1.58.38.37.92.56,1.61.56.19,0,.39-.01.61-.04.21-.02.42-.06.61-.1l.09.6c-.22.05-.46.08-.71.1s-.49.03-.72.03Z"/>
    <path d="M263.55,136.81v-5.18h.59l.06,1.09v4.08h-.65ZM266.97,136.81v-3.38c0-.41-.11-.73-.33-.95-.22-.22-.52-.33-.91-.33-1.02,0-1.53.58-1.53,1.74l-.31-1.31h.37c.07-.35.24-.61.49-.78.25-.17.6-.26,1.04-.26.58,0,1.03.17,1.35.5.32.33.48.8.48,1.41v3.37h-.65Z"/>
    <path d="M271.9,136.91c-.86,0-1.52-.24-1.99-.71s-.7-1.15-.7-2.02.2-1.49.59-1.95c.39-.46.95-.69,1.67-.69.67,0,1.19.21,1.56.62.37.42.55,1.01.55,1.78,0,.2,0,.37-.03.51h-3.82v-.56h3.22c0-.56-.13-.99-.39-1.3s-.62-.46-1.09-.46c-.52,0-.92.18-1.21.53-.29.35-.43.85-.43,1.49,0,.68.19,1.21.57,1.58.38.37.92.56,1.61.56.19,0,.39-.01.61-.04.21-.02.42-.06.61-.1l.09.6c-.22.05-.46.08-.71.1s-.49.03-.72.03Z"/>
    <path d="M276.9,136.91c-.38,0-.7-.01-.97-.03-.26-.02-.5-.06-.72-.11l.08-.62c.33.05.63.09.88.12s.5.04.73.04c.64,0,1.1-.07,1.39-.2s.43-.35.43-.64c0-.21-.07-.37-.2-.5-.13-.13-.35-.23-.64-.3l-1.16-.29c-.5-.13-.87-.3-1.09-.51s-.34-.49-.34-.83c0-.52.21-.9.63-1.13.42-.23,1.1-.35,2.04-.35.23,0,.44,0,.64.02.2.01.41.04.65.08l-.07.58c-.26-.03-.49-.04-.69-.05-.2,0-.38-.01-.55-.01-.69,0-1.2.07-1.51.2s-.47.35-.47.65c0,.18.08.33.23.45s.41.23.76.31l.93.22c.53.13.91.31,1.15.54.24.23.36.53.36.92,0,.51-.2.88-.59,1.11-.39.23-1.03.35-1.9.35Z"/>
    <path d="M119.72,147.81v-5.18h.57l.08,1.09v4.08h-.65ZM121.73,147.81v-4.05c0-.44-.21-.66-.62-.66-.5,0-.74.31-.74.92l-.3-.74h.32c.09-.49.42-.74.98-.74.32,0,.55.09.71.28s.24.47.24.84v4.15h-.6ZM123.68,147.81v-3.96c0-.5-.2-.76-.61-.76-.5,0-.75.31-.75.92l-.35-.74h.36c.04-.23.14-.42.3-.55.16-.13.38-.2.65-.2.35,0,.62.1.79.3s.26.51.26.92v4.05h-.65Z"/>
    <path d="M127.14,147.91c-.52,0-.92-.12-1.21-.36-.28-.24-.43-.58-.43-1.03,0-.54.19-.95.58-1.23.38-.28.95-.42,1.69-.42.35,0,.67.02.96.05.29.03.53.08.7.15l-.1.5c-.21-.07-.46-.11-.75-.12-.29-.01-.56-.02-.83-.02-1.07,0-1.61.35-1.61,1.04,0,.27.09.48.28.63.18.15.44.22.77.22.36,0,.67-.06.94-.18.27-.12.48-.29.64-.49.15-.21.23-.43.23-.67v-.6l.34,1.33h-.42l.11-.12c-.02.26-.11.49-.28.69-.17.2-.39.35-.67.46s-.59.16-.95.16ZM129.15,147.86l-.08-1.87-.06-.06v-1.19c0-.53-.14-.91-.43-1.15-.28-.24-.73-.37-1.34-.38l-1.1-.02.1-.61h.97c.85.03,1.46.21,1.86.58s.59.92.59,1.67v2.41l.89.08v.48l-1.39.05ZM127.44,141.72l1.06-1.86h.7l-1.12,1.86h-.64Z"/>
    <path d="M133.35,147.91c-.38,0-.7-.01-.97-.03-.26-.02-.5-.06-.72-.11l.08-.62c.33.05.63.09.88.12s.5.04.73.04c.64,0,1.1-.07,1.39-.2s.43-.35.43-.64c0-.21-.07-.37-.2-.5-.13-.13-.35-.23-.64-.3l-1.16-.29c-.5-.13-.87-.3-1.09-.51s-.34-.49-.34-.83c0-.52.21-.9.63-1.13.42-.23,1.1-.35,2.04-.35.23,0,.44,0,.64.02.2.01.41.04.65.08l-.07.58c-.26-.03-.49-.04-.69-.05-.2,0-.38-.01-.55-.01-.69,0-1.2.07-1.51.2s-.47.35-.47.65c0,.18.08.33.23.45s.41.23.76.31l.93.22c.53.13.91.31,1.15.54.24.23.36.53.36.92,0,.51-.2.88-.59,1.11-.39.23-1.03.35-1.9.35Z"/>
    <path d="M143.09,141.08v-.6h1.72v.6h-1.72ZM146.47,147.91c-.59,0-1.03-.15-1.31-.46s-.42-.78-.42-1.43v-5.53h.65v5.52c0,.29.04.53.12.73s.22.33.4.43c.18.09.42.14.72.14.27,0,.6-.05,1-.16l.07.6c-.21.06-.42.1-.61.13s-.4.04-.62.04Z"/>
    <path d="M151.33,147.91c-.69,0-1.23-.23-1.61-.7-.38-.47-.58-1.13-.58-1.98s.19-1.52.58-1.98c.38-.47.92-.7,1.61-.7s1.23.23,1.61.7c.38.47.57,1.13.57,1.98s-.19,1.51-.57,1.98c-.38.47-.92.7-1.61.7ZM151.33,147.3c.48,0,.86-.18,1.12-.54.27-.36.4-.87.4-1.53s-.13-1.18-.4-1.54c-.26-.36-.64-.54-1.12-.54s-.86.18-1.12.54c-.26.36-.4.87-.4,1.54s.13,1.17.4,1.53c.27.36.64.54,1.12.54Z"/>
    <path d="M161.01,147.81v-5.18h.59l.06,1.09v4.08h-.65ZM164.43,147.81v-3.38c0-.41-.11-.73-.33-.95-.22-.22-.52-.33-.91-.33-1.02,0-1.53.58-1.53,1.74l-.31-1.31h.37c.07-.35.24-.61.49-.78.25-.17.6-.26,1.04-.26.58,0,1.03.17,1.35.5.32.33.48.8.48,1.41v3.37h-.65Z"/>
    <path d="M169.36,147.91c-.86,0-1.52-.24-1.99-.71s-.7-1.15-.7-2.02.2-1.49.59-1.95c.39-.46.95-.69,1.67-.69.67,0,1.19.21,1.56.62.37.42.55,1.01.55,1.78,0,.2,0,.37-.03.51h-3.82v-.56h3.22c0-.56-.13-.99-.39-1.3s-.62-.46-1.09-.46c-.52,0-.92.18-1.21.53-.29.35-.43.85-.43,1.49,0,.68.19,1.21.57,1.58.38.37.92.56,1.61.56.19,0,.39-.01.61-.04.21-.02.42-.06.61-.1l.09.6c-.22.05-.46.08-.71.1s-.49.03-.72.03Z"/>
    <path d="M175.26,147.91c-.87,0-1.54-.23-2-.69s-.69-1.13-.69-2.01.22-1.5.66-1.97c.44-.47,1.07-.7,1.89-.7.48,0,.9.09,1.25.28s.59.45.74.79l-.54.37c-.17-.3-.38-.51-.64-.64s-.54-.2-.85-.2c-.58,0-1.04.17-1.36.52-.33.35-.49.85-.49,1.49,0,.7.18,1.23.53,1.59.35.36.87.54,1.55.54.26,0,.51-.01.77-.04.26-.03.5-.06.75-.11l.08.6c-.27.06-.54.11-.82.13-.28.02-.56.03-.83.03Z"/>
    <path d="M181.08,147.91c-.86,0-1.52-.24-1.99-.71s-.7-1.15-.7-2.02.2-1.49.59-1.95c.39-.46.95-.69,1.67-.69.67,0,1.19.21,1.56.62.37.42.55,1.01.55,1.78,0,.2,0,.37-.03.51h-3.82v-.56h3.22c0-.56-.13-.99-.39-1.3s-.62-.46-1.09-.46c-.52,0-.92.18-1.21.53-.29.35-.43.85-.43,1.49,0,.68.19,1.21.57,1.58.38.37.92.56,1.61.56.19,0,.39-.01.61-.04.21-.02.42-.06.61-.1l.09.6c-.22.05-.46.08-.71.1s-.49.03-.72.03Z"/>
    <path d="M186.08,147.91c-.38,0-.7-.01-.97-.03-.26-.02-.5-.06-.72-.11l.08-.62c.33.05.63.09.88.12s.5.04.73.04c.64,0,1.1-.07,1.39-.2s.43-.35.43-.64c0-.21-.07-.37-.2-.5-.13-.13-.35-.23-.64-.3l-1.16-.29c-.5-.13-.87-.3-1.09-.51s-.34-.49-.34-.83c0-.52.21-.9.63-1.13.42-.23,1.1-.35,2.04-.35.23,0,.44,0,.64.02.2.01.41.04.65.08l-.07.58c-.26-.03-.49-.04-.69-.05-.2,0-.38-.01-.55-.01-.69,0-1.2.07-1.51.2s-.47.35-.47.65c0,.18.08.33.23.45s.41.23.76.31l.93.22c.53.13.91.31,1.15.54.24.23.36.53.36.92,0,.51-.2.88-.59,1.11-.39.23-1.03.35-1.9.35Z"/>
    <path d="M190.27,147.81v-.6h2.19v.6h-2.19ZM190.56,143.23v-.6h2.45v.6h-2.45ZM192.63,141.51c-.16,0-.29-.06-.4-.17-.11-.11-.17-.24-.17-.4s.05-.29.17-.4c.11-.11.24-.17.4-.17s.29.06.4.17c.11.11.17.24.17.4s-.06.29-.17.4c-.11.11-.24.17-.4.17ZM192.36,147.81v-4.92h.65v4.92h-.65ZM192.91,147.81v-.6h1.81v.6h-1.81Z"/>
    <path d="M195.69,143.23v-.6h4.53v.6h-4.53ZM197.18,145.37v-4.3h.65v4.3h-.65ZM199.14,147.91c-.67,0-1.16-.17-1.48-.51-.32-.34-.48-.87-.48-1.57v-.84h.65v.83c0,.5.11.88.34,1.12.23.24.58.37,1.06.37.19,0,.37,0,.55-.03.18-.02.36-.04.56-.07l.07.59c-.21.04-.42.07-.63.09s-.42.03-.65.03Z"/>
    <path d="M203.31,147.91c-.52,0-.92-.12-1.21-.36-.28-.24-.43-.58-.43-1.03,0-.54.19-.95.58-1.23.38-.28.95-.42,1.69-.42.35,0,.67.02.96.05.29.03.53.08.7.15l-.1.5c-.21-.07-.46-.11-.75-.12-.29-.01-.56-.02-.83-.02-1.07,0-1.61.35-1.61,1.04,0,.27.09.48.28.63.18.15.44.22.77.22.36,0,.67-.06.94-.18.27-.12.48-.29.64-.49.15-.21.23-.43.23-.67v-.6l.34,1.33h-.42l.11-.12c-.02.26-.11.49-.28.69-.17.2-.39.35-.67.46s-.59.16-.95.16ZM205.32,147.86l-.08-1.87-.06-.06v-1.19c0-.53-.14-.91-.43-1.15-.28-.24-.73-.37-1.34-.38l-1.1-.02.1-.61h.97c.85.03,1.46.21,1.86.58s.59.92.59,1.67v2.41l.89.08v.48l-1.39.05Z"/>
    <path d="M207.89,147.81v-5.18h.59l.06,1.09v4.08h-.65ZM211.3,147.81v-3.38c0-.41-.11-.73-.33-.95-.22-.22-.52-.33-.91-.33-1.02,0-1.53.58-1.53,1.74l-.31-1.31h.37c.07-.35.24-.61.49-.78.25-.17.6-.26,1.04-.26.58,0,1.03.17,1.35.5.32.33.48.8.48,1.41v3.37h-.65Z"/>
    <path d="M215.78,147.91c-.16,0-.29-.06-.4-.17-.11-.11-.17-.24-.17-.4s.05-.29.17-.4c.11-.11.24-.17.4-.17s.29.06.4.17c.11.11.17.24.17.4s-.06.28-.17.4c-.11.11-.24.17-.4.17Z"/>
  </g>
</svg>