<?xml version="1.0" encoding="UTF-8"?>
<svg id="Capa_1" data-name="Capa 1" xmlns="http://www.w3.org/2000/svg" xmlns:xlink="http://www.w3.org/1999/xlink" viewBox="0 0 324.41 119.49">
  <defs>
    <style>
      .cls-1 {
        opacity: .12;
      }

      .cls-2 {
        fill: #fff;
      }

      .cls-3, .cls-4 {
        fill: none;
      }

      .cls-4 {
        stroke: #1d1d1b;
        stroke-miterlimit: 10;
      }

      .cls-5 {
        clip-path: url(#clippath);
      }
    </style>
    <clipPath id="clippath">
      <rect class="cls-3" x="-898.8" y="34.68" width="857.42" height="267.18" rx="9.54" ry="9.54"/>
    </clipPath>
  </defs>
  <g class="cls-5">
    <g>
      <g class="cls-1">
        <line class="cls-4" x1="17.03" y1="-22.85" x2="17.03" y2="359.38"/>
        <line class="cls-4" x1="51.78" y1="-22.85" x2="51.78" y2="359.38"/>
        <line class="cls-4" x1="86.53" y1="-22.85" x2="86.53" y2="359.38"/>
      </g>
      <g class="cls-1">
        <line class="cls-4" x1="86.53" y1="11.9" x2="-955.89" y2="11.9"/>
        <line class="cls-4" x1="86.53" y1="46.65" x2="-955.89" y2="46.65"/>
        <line class="cls-4" x1="86.53" y1="81.4" x2="-955.89" y2="81.4"/>
        <line class="cls-4" x1="86.53" y1="116.14" x2="-955.89" y2="116.14"/>
      </g>
    </g>
  </g>
  <g>
    <path d="M168.59,59.29l-.16,2.96c.73-1.17,1.61-2.05,2.62-2.64,1.02-.59,2.17-.88,3.47-.88,2.53,0,4.52,1.17,5.98,3.52.8-1.17,1.7-2.05,2.7-2.64,1-.59,2.11-.88,3.33-.88,1.61,0,2.94.39,4,1.17s1.73,1.74,2.03,2.87.45,2.97.45,5.52v22.1h-9.19v-20.27c0-2.66-.09-4.3-.27-4.93s-.6-.95-1.25-.95-1.11.31-1.3.94-.29,2.27-.29,4.95v20.27h-9.19v-19.76c0-3.05-.07-4.88-.22-5.48s-.56-.91-1.23-.91c-.42,0-.78.16-1.08.48s-.46.71-.49,1.17-.05,1.44-.05,2.94v21.56h-9.19v-31.1h9.35Z"/>
    <path d="M217.93,59.29v31.1h-9.63l.16-2.58c-.66,1.05-1.46,1.84-2.43,2.36s-2.07.79-3.32.79c-1.42,0-2.6-.25-3.54-.75s-1.63-1.16-2.07-1.99-.72-1.69-.83-2.59-.16-2.68-.16-5.36v-20.98h9.47v21.16c0,2.42.07,3.86.22,4.31s.55.68,1.21.68c.7,0,1.12-.23,1.25-.7s.2-1.98.2-4.52v-20.93h9.47Z"/>
    <path d="M230.96,59.29l-.16,2.87c.69-1.14,1.53-2,2.52-2.57s2.14-.86,3.43-.86c1.62,0,2.95.38,3.98,1.15s1.7,1.73,1.99,2.89.45,3.11.45,5.82v21.8h-9.47v-21.54c0-2.14-.07-3.45-.21-3.91s-.53-.7-1.17-.7-1.09.27-1.27.81-.26,1.98-.26,4.32v21.02h-9.47v-31.1h9.63Z"/>
    <path d="M267.97,52.45v37.95h-9.47v-2.26c-.91.94-1.86,1.64-2.86,2.11s-2.05.7-3.14.7c-1.47,0-2.74-.39-3.82-1.16s-1.77-1.67-2.07-2.68-.46-2.67-.46-4.97v-14.55c0-2.39.15-4.09.46-5.09s1-1.88,2.1-2.64,2.4-1.14,3.91-1.14c1.17,0,2.25.21,3.22.63.98.42,1.86,1.06,2.66,1.9v-8.82h9.47ZM258.5,67.12c0-1.14-.1-1.91-.29-2.3s-.58-.59-1.16-.59-.94.18-1.14.53-.29,1.14-.29,2.36v15.23c0,1.27.09,2.1.28,2.5s.55.6,1.08.6c.61,0,1.02-.22,1.22-.67s.3-1.54.3-3.27v-14.39Z"/>
    <path d="M281.12,52.45v4.95h-9.75v-4.95h9.75ZM281.12,59.29v31.1h-9.75v-31.1h9.75Z"/>
    <path d="M292.98,71.34h-8.88v-2.09c0-2.41.28-4.26.83-5.57s1.67-2.46,3.34-3.46,3.84-1.5,6.52-1.5c3.2,0,5.62.57,7.24,1.7s2.6,2.52,2.93,4.17.49,5.04.49,10.18v15.61h-9.21v-2.77c-.58,1.11-1.32,1.94-2.24,2.5s-2,.83-3.27.83c-1.66,0-3.18-.46-4.56-1.39s-2.07-2.96-2.07-6.11v-2.55c0-2.33.37-3.91,1.1-4.76s2.55-1.83,5.46-2.95c3.11-1.22,4.77-2.04,4.99-2.46s.33-1.28.33-2.58c0-1.62-.12-2.68-.36-3.18s-.64-.74-1.21-.74c-.64,0-1.04.21-1.2.62s-.23,1.49-.23,3.22v3.26ZM295.98,75.6c-1.52,1.11-2.39,2.04-2.64,2.79s-.36,1.83-.36,3.23c0,1.61.11,2.65.32,3.12s.63.7,1.25.7.98-.18,1.16-.55.27-1.33.27-2.89v-6.4Z"/>
    <path d="M318.45,52.45v37.95h-9.75v-37.95h9.75Z"/>
  </g>
  <g>
    <path d="M165.57,116.14c-1.68,0-2.95-.55-3.82-1.66-.87-1.11-1.3-2.73-1.3-4.88s.43-3.92,1.3-5.06c.87-1.15,2.14-1.72,3.82-1.72.96,0,1.74.23,2.34.68.6.45.96,1.08,1.06,1.89h.99l-.75,3.66c0-1.32-.26-2.33-.78-3.02-.52-.69-1.29-1.03-2.3-1.03s-1.82.39-2.35,1.16c-.53.78-.8,1.92-.8,3.44,0,1.44.27,2.52.8,3.26.53.74,1.32,1.1,2.35,1.1s1.77-.34,2.3-1.03c.52-.69.78-1.69.78-3.02l.87,3.66h-1.11c-.08.81-.42,1.44-1.02,1.89-.6.45-1.4.68-2.38.68ZM169.48,116.02l-.27-2.52v-15.78h2.57v18.18l-2.3.12Z"/>
    <path d="M182.21,116.14c-2.19,0-3.88-.58-5.07-1.73-1.19-1.15-1.79-2.81-1.79-4.96s.5-3.73,1.51-4.9c1.01-1.16,2.44-1.75,4.28-1.75,1.74,0,3.08.53,4.03,1.58.95,1.05,1.42,2.58,1.42,4.58,0,.59-.02,1.14-.07,1.65h-9.02v-1.96h6.76c0-1.15-.28-2.04-.82-2.66-.55-.62-1.31-.93-2.28-.93-1.09,0-1.94.37-2.54,1.11s-.9,1.79-.9,3.15c0,1.49.41,2.62,1.24,3.39.83.78,2.01,1.16,3.53,1.16.53,0,1.06-.03,1.58-.09.52-.06,1.04-.14,1.58-.25l.32,2.25c-.76.15-1.45.24-2.08.28s-1.19.06-1.67.06Z"/>
    <path d="M204.09,99.98v-2.25h4v2.25h-4ZM212.09,116.14c-1.49,0-2.56-.4-3.22-1.21-.66-.81-.99-2.1-.99-3.88v-13.33h2.57v13.21c0,.68.06,1.23.19,1.66.13.43.38.74.76.95.38.2.93.3,1.67.3.67,0,1.53-.15,2.57-.46l.29,2.25c-.65.18-1.28.31-1.88.39s-1.25.12-1.94.12Z"/>
    <path d="M222.82,116.14c-1.34,0-2.38-.32-3.11-.97-.74-.65-1.1-1.56-1.1-2.74,0-1.36.51-2.4,1.52-3.13,1.01-.73,2.45-1.09,4.29-1.09.77,0,1.45.05,2.05.14.6.09,1.14.23,1.61.42l-.53,1.75c-.54-.12-1.07-.19-1.59-.21-.52-.02-1.05-.03-1.59-.03-2.23,0-3.34.68-3.34,2.04,0,.57.19,1,.58,1.31s.93.46,1.63.46c.8,0,1.47-.14,2.01-.41.54-.27.94-.63,1.21-1.05s.4-.87.4-1.32v-1.41l.75,3.3h-1.02l.41-.39c0,.74-.17,1.36-.52,1.86-.34.5-.83.87-1.45,1.11-.62.25-1.36.37-2.21.37ZM227.36,116.02l-.17-3.8-.34-1.07v-3.32c0-.86-.3-1.48-.9-1.88s-1.5-.62-2.68-.65l-3.08-.08.24-2.28,2.59.04c2.12.03,3.7.49,4.73,1.38,1.03.88,1.54,2.18,1.54,3.87v5.36l2.18.27v2.06l-4.12.12Z"/>
    <path d="M238.26,116.14c-.97,0-1.8-.03-2.49-.08-.69-.06-1.32-.15-1.9-.28l.29-2.33c.85.13,1.6.23,2.25.29s1.27.1,1.85.1c1.3,0,2.24-.13,2.83-.38.58-.25.88-.66.88-1.22,0-.39-.1-.68-.31-.87-.21-.19-.52-.34-.95-.44l-2.96-.75c-1.27-.32-2.2-.72-2.79-1.2-.59-.48-.89-1.2-.89-2.17,0-1.41.54-2.42,1.62-3.05,1.08-.63,2.82-.95,5.22-.95.62,0,1.2.02,1.74.05.54.04,1.09.1,1.65.19l-.27,2.23c-.65-.06-1.23-.11-1.73-.13-.5-.02-.99-.04-1.47-.04-1.44,0-2.48.12-3.13.37-.65.25-.97.65-.97,1.21,0,.37.13.64.4.81.27.17.67.32,1.22.45l2.38.58c1.35.32,2.34.76,2.96,1.3.63.54.94,1.33.94,2.36,0,1.38-.5,2.39-1.51,3.01s-2.63.94-4.86.94Z"/>
    <path d="M268.33,116.14c-4.23,0-6.35-2.91-6.35-8.72s2.12-8.97,6.35-8.97,6.35,2.99,6.35,8.97-2.12,8.72-6.35,8.72ZM268.33,113.91c2.5,0,3.76-2.16,3.76-6.49s-1.25-6.74-3.76-6.74-3.76,2.25-3.76,6.74,1.25,6.49,3.76,6.49Z"/>
    <path d="M277.4,115.9v-17.21h2.52v17.21h-2.52ZM285.1,115.9l-4.94-13.09h-1.12v-4.12h1.6l4.94,13.09h.61v4.12h-1.09ZM285.83,115.9v-17.21h2.52v17.21h-2.52Z"/>
    <path d="M298.65,116.14c-2.57,0-4.5-.74-5.78-2.22-1.29-1.48-1.93-3.7-1.93-6.65,0-2.8.67-4.97,2-6.51s3.2-2.31,5.61-2.31c1.2,0,2.26.19,3.16.56.9.38,1.57.91,2,1.59l-1.8,1.79c-.37-.55-.84-.97-1.4-1.27-.56-.3-1.17-.45-1.81-.45-1.63,0-2.9.56-3.8,1.69-.91,1.13-1.36,2.72-1.36,4.78,0,2.25.45,3.94,1.36,5.07.9,1.13,2.25,1.69,4.05,1.69.77,0,1.44-.07,2.03-.22s1.06-.28,1.44-.38l.95,2.11c-.34.11-.93.25-1.79.44-.85.19-1.82.28-2.91.28ZM297.54,109.6v-2.3h5.74v2.3h-5.74ZM300.95,115.42v-8.12h2.4v8.12h-2.4Z"/>
    <path d="M310.96,116.14c-.97,0-1.8-.03-2.49-.08-.69-.06-1.32-.15-1.9-.28l.29-2.33c.85.13,1.6.23,2.25.29s1.27.1,1.85.1c1.3,0,2.24-.13,2.83-.38.58-.25.88-.66.88-1.22,0-.39-.1-.68-.31-.87-.21-.19-.52-.34-.95-.44l-2.96-.75c-1.27-.32-2.2-.72-2.79-1.2-.59-.48-.89-1.2-.89-2.17,0-1.41.54-2.42,1.62-3.05,1.08-.63,2.82-.95,5.22-.95.62,0,1.2.02,1.74.05.54.04,1.09.1,1.65.19l-.27,2.23c-.65-.06-1.23-.11-1.73-.13-.5-.02-.99-.04-1.47-.04-1.44,0-2.48.12-3.13.37-.65.25-.97.65-.97,1.21,0,.37.13.64.4.81.27.17.67.32,1.22.45l2.38.58c1.35.32,2.34.76,2.96,1.3.63.54.94,1.33.94,2.36,0,1.38-.5,2.39-1.51,3.01s-2.63.94-4.86.94Z"/>
  </g>
  <g>
    <path d="M131.24,37.83c0,1.72-.2,3.53-.61,5.43-.4,1.9-.79,2.86-1.16,2.86-.2,0-.3-.1-.3-.3,0-.24.03-.45.1-.66.78-2.05,1.16-4.46,1.16-7.23,0-4.25-1.29-7.66-3.87-10.23-2.58-2.58-6-3.87-10.25-3.87-8.16,0-16.07,3.88-23.73,11.64,2.9,5.4,4.35,11.1,4.35,17.1,0,11.06-4.24,20.44-12.72,28.13s-18.85,11.54-31.09,11.54c-3.78,0-8.96-.52-15.53-1.57-5.7,1.04-11.16,1.57-16.39,1.57-8.9,0-13.36-.89-13.36-2.68,0-.88,1.09-1.65,3.26-2.33,2.18-.67,4.71-1.01,7.61-1.01,3.51,0,10.49,1.15,20.95,3.44,7.05-1.85,12.6-4.77,16.64-8.75,3.95-3.88,10-12.33,18.16-25.35,4.92-7.89,10.34-14.62,16.24-20.19-4.93-8.3-12.9-12.45-23.93-12.45s-21.86,4.49-31.37,13.46c-4.79,4.52-8.62,9.51-11.48,14.98-2.87,5.46-4.3,10.49-4.3,15.08,0,3.64,1.16,6.56,3.47,8.75,2.31,2.19,5.37,3.29,9.18,3.29,6.44,0,13.13-3.47,20.06-10.42,6.93-6.95,10.4-13.63,10.4-20.03,0-2.43-.67-4.38-2.02-5.87-1.35-1.48-3.12-2.23-5.31-2.23-2.5,0-3.74.4-3.74,1.21,0,.24.19.35.56.35.2,0,.37-.03.51-.1h.71c1.65,0,2.48.76,2.48,2.28,0,1.11-.42,2.08-1.26,2.91-.84.83-1.84,1.24-2.99,1.24-2.06,0-3.09-1.11-3.09-3.34,0-1.52.67-2.82,2.02-3.9,1.35-1.08,2.99-1.62,4.91-1.62,2.46,0,4.46.82,6,2.45,1.53,1.64,2.3,3.77,2.3,6.4,0,6.81-3.55,13.78-10.65,20.89-7.1,7.12-14.06,10.68-20.87,10.68-4.69,0-8.55-1.56-11.59-4.68-3.04-3.12-4.55-7.12-4.55-12.02,0-10.49,5.18-19.89,15.53-28.21,10.36-8.31,22.06-12.47,35.11-12.47,11.1,0,19.46,4.1,25.09,12.29,8.23-7.59,16.59-11.38,25.09-11.38,4.25,0,7.69,1.37,10.32,4.12s3.95,6.34,3.95,10.79ZM35.82,90.36c-9.31-1.32-16.26-1.97-20.84-1.97-4.05,0-6.07.39-6.07,1.16,0,1.18,4.42,1.77,13.25,1.77,5.06,0,9.61-.32,13.66-.96ZM94.2,48.82c0-4.32-.91-8.36-2.73-12.14-4.55,5.19-8.63,11.72-12.24,19.58-4.76,10.42-9.68,17.93-14.77,22.51-5.26,4.69-12.97,8.45-23.12,11.28,4.29.91,8.84,1.37,13.67,1.37,12.93,0,23.4-6.26,31.4-18.77,5.2-8.09,7.8-16.04,7.8-23.83Z"/>
    <path d="M115.83,73.99c-.04.1-.2.37-.51.81l-2.18,2.99c-6.35,8.82-11.2,13.22-14.54,13.22-1.59,0-2.91-.57-3.98-1.7-1.06-1.13-1.6-2.55-1.6-4.24,0-1.95,1.16-4.92,3.49-8.89l7.89-13.39c1.04.24,1.87.35,2.48.35.91,0,2.19-.12,3.84-.35l-11.49,18.85c-1.65,2.73-2.48,4.84-2.48,6.32s.79,2.3,2.38,2.3c3.01,0,8.29-5.35,15.86-16.06.17-.34.34-.51.51-.51.2,0,.3.1.3.3ZM128.25,47.1c-3.27,2.57-7.46,4.92-12.55,7.05-3.91,1.69-6.16,2.54-6.73,2.54-.14,0-.24-.03-.3-.1,0-.1.2-.25.61-.46,7.88-3.75,13.5-7.82,16.87-12.22l2.1,3.19Z"/>
    <path d="M151.5,73.99c0,.71-2.46,3.99-7.39,9.83-3.98,4.8-7.13,7.2-9.42,7.2-1.55,0-2.82-.58-3.8-1.75-.98-1.16-1.47-2.62-1.47-4.38s.54-3.79,1.62-5.92c-3.37,4.72-5.95,7.91-7.74,9.56-1.79,1.65-3.53,2.48-5.21,2.48-1.79,0-3.29-.77-4.5-2.3-1.21-1.53-1.82-3.47-1.82-5.79,0-6.48,4.57-12.21,13.71-17.2,4.01-2.23,7.25-3.34,9.71-3.34,2.09,0,3.14,1.01,3.14,3.04,0,.57-.13,1.33-.4,2.28l2.58-4.91c1.01.24,1.9.35,2.68.35.91,0,2.09-.12,3.54-.35l-8.96,14.82c-3.1,5.19-4.65,8.62-4.65,10.27s.66,2.38,1.98,2.38,3.51-1.55,6.49-4.64c2.97-3.09,6-6.9,9.07-11.43.2-.34.39-.51.56-.51.2,0,.3.1.3.3ZM137.56,65.62c0-1.65-.76-2.48-2.28-2.48-3.1,0-7.18,3.04-12.22,9.11-5.04,6.07-7.56,10.98-7.56,14.72,0,2.19.98,3.29,2.93,3.29,2.33,0,6.36-3.86,12.09-11.59,4.69-6.34,7.03-10.69,7.03-13.05Z"/>
  </g>
  <rect x="160.45" y="22.17" width="157.99" height="25.65" rx="5.76" ry="5.76"/>
  <g>
    <path class="cls-2" d="M173.38,41.41v-2c1.93-1.07,3.37-2.18,4.32-3.33s1.43-2.34,1.43-3.56c0-.71-.18-1.25-.53-1.61s-.88-.54-1.6-.54c-.47,0-.97.14-1.49.41s-.96.64-1.33,1.1l-1.21-1.2c.4-.58.98-1.05,1.72-1.4s1.52-.53,2.34-.53c1.32,0,2.3.31,2.96.94s.98,1.57.98,2.83-.4,2.47-1.2,3.63-2.02,2.27-3.65,3.34v1.93h-2.74ZM173.91,41.41v-1.67h7.59v1.67h-7.59Z"/>
    <path class="cls-2" d="M183.57,30.6v-1.67h9.16l-1.25,1.67h-7.91ZM183.57,33.31v-4.11h1.88v4.11h-1.88ZM186.43,41.41l4.29-12.48h2.01l-4.29,12.48h-2.01Z"/>
    <path class="cls-2" d="M208.24,41.59c-1.22,0-2.14-.4-2.77-1.2s-.94-1.98-.94-3.54.31-2.84.94-3.67,1.55-1.25,2.77-1.25c.7,0,1.26.16,1.7.49s.69.79.77,1.37h.72l-.54,2.65c0-.96-.19-1.69-.57-2.19s-.93-.75-1.67-.75-1.32.28-1.71.84-.58,1.39-.58,2.5c0,1.04.19,1.83.58,2.36s.96.8,1.71.8,1.29-.25,1.67-.75.57-1.23.57-2.19l.63,2.65h-.81c-.06.59-.31,1.04-.74,1.37s-1.01.49-1.73.49ZM211.08,41.5l-.19-1.83v-11.44h1.86v13.18l-1.67.09Z"/>
    <path class="cls-2" d="M220.31,41.59c-1.59,0-2.81-.42-3.68-1.25s-1.3-2.03-1.3-3.6.37-2.71,1.1-3.55,1.77-1.27,3.1-1.27c1.26,0,2.23.38,2.92,1.14s1.03,1.87,1.03,3.32c0,.43-.02.83-.05,1.2h-6.54v-1.42h4.9c0-.84-.2-1.48-.6-1.93s-.95-.67-1.65-.67c-.79,0-1.41.27-1.84.81s-.65,1.3-.65,2.29c0,1.08.3,1.9.9,2.46s1.46.84,2.56.84c.39,0,.77-.02,1.14-.07s.76-.1,1.14-.18l.23,1.63c-.55.11-1.05.17-1.51.2s-.86.04-1.21.04Z"/>
    <path class="cls-2" d="M236.91,41.41v-12.48h1.83v12.48h-1.83ZM236.91,30.6v-1.67h8.26v1.67h-8.26ZM236.91,36.52v-1.67h6.68v1.67h-6.68Z"/>
    <path class="cls-2" d="M251.95,41.59c-1.59,0-2.81-.42-3.68-1.25s-1.3-2.03-1.3-3.6.37-2.71,1.1-3.55,1.77-1.27,3.1-1.27c1.26,0,2.23.38,2.92,1.14s1.03,1.87,1.03,3.32c0,.43-.02.83-.05,1.2h-6.54v-1.42h4.9c0-.84-.2-1.48-.6-1.93s-.95-.67-1.65-.67c-.79,0-1.41.27-1.84.81s-.65,1.3-.65,2.29c0,1.08.3,1.9.9,2.46s1.46.84,2.56.84c.39,0,.77-.02,1.14-.07s.76-.1,1.14-.18l.23,1.63c-.55.11-1.05.17-1.51.2s-.86.04-1.21.04Z"/>
    <path class="cls-2" d="M257.85,41.41v-13.18h1.86v13.03l-1.86.16ZM260.34,41.59c-.42,0-.84-.02-1.25-.05s-.83-.07-1.25-.13l.72-1.71c.31.15.65.23,1.03.26s.75.04,1.12.04c1.12,0,1.99-.34,2.6-1.01s.92-1.63.92-2.86c0-.84-.19-1.49-.56-1.95s-.9-.69-1.59-.69c-1.58,0-2.37.89-2.37,2.67l-.54-2.39h.72c.09-1.24.85-1.86,2.29-1.86,1.24,0,2.2.37,2.88,1.1s1.02,1.77,1.02,3.12c0,1.73-.5,3.07-1.5,4.02s-2.41,1.43-4.23,1.43Z"/>
    <path class="cls-2" d="M267.67,41.41v-1.63h6.22v1.63h-6.22ZM268.02,33.73v-1.63h3.11l.18,1.63h-3.29ZM269.74,41.41v-9.32h1.51l.35,2.67v6.64h-1.86ZM271.6,37.4l-.54-2.92h.72c.11-1.71.96-2.57,2.57-2.57.96,0,1.66.28,2.09.83s.65,1.44.65,2.67h-1.85c0-.68-.1-1.17-.3-1.47s-.53-.45-.98-.45c-.79,0-1.38.34-1.77,1.02s-.58,1.64-.58,2.89Z"/>
    <path class="cls-2" d="M283.59,41.59c-1.59,0-2.81-.42-3.68-1.25s-1.3-2.03-1.3-3.6.37-2.71,1.1-3.55,1.77-1.27,3.1-1.27c1.26,0,2.23.38,2.92,1.14s1.03,1.87,1.03,3.32c0,.43-.02.83-.05,1.2h-6.54v-1.42h4.9c0-.84-.2-1.48-.6-1.93s-.95-.67-1.65-.67c-.79,0-1.41.27-1.84.81s-.65,1.3-.65,2.29c0,1.08.3,1.9.9,2.46s1.46.84,2.56.84c.39,0,.77-.02,1.14-.07s.76-.1,1.14-.18l.23,1.63c-.55.11-1.05.17-1.51.2s-.86.04-1.21.04Z"/>
    <path class="cls-2" d="M288.76,41.41v-1.63h6.22v1.63h-6.22ZM289.11,33.73v-1.63h3.11l.18,1.63h-3.29ZM290.83,41.41v-9.32h1.51l.35,2.67v6.64h-1.86ZM292.7,37.4l-.54-2.92h.72c.11-1.71.96-2.57,2.57-2.57.96,0,1.66.28,2.09.83s.65,1.44.65,2.67h-1.85c0-.68-.1-1.17-.3-1.47s-.53-.45-.98-.45c-.79,0-1.38.34-1.77,1.02s-.58,1.64-.58,2.89Z"/>
    <path class="cls-2" d="M303.88,41.59c-1.29,0-2.29-.42-3.01-1.27s-1.07-2.03-1.07-3.57.36-2.73,1.07-3.57,1.72-1.26,3.01-1.26,2.3.42,3.01,1.26c.71.84,1.07,2.03,1.07,3.57s-.36,2.72-1.07,3.57c-.71.84-1.71,1.27-3.01,1.27ZM303.88,39.92c.69,0,1.21-.28,1.59-.83s.56-1.33.56-2.34-.19-1.79-.56-2.34-.9-.82-1.59-.82-1.21.27-1.59.82-.56,1.33-.56,2.34.19,1.79.56,2.34.9.83,1.59.83Z"/>
  </g>
</svg>