<?xml version="1.0" encoding="UTF-8" standalone="no"?>
<!DOCTYPE svg PUBLIC "-//W3C//DTD SVG 1.1//EN" "http://www.w3.org/Graphics/SVG/1.1/DTD/svg11.dtd">
<svg width="100%" height="100%" viewBox="0 0 440 89" version="1.1" xmlns="http://www.w3.org/2000/svg" xmlns:xlink="http://www.w3.org/1999/xlink" xml:space="preserve" xmlns:serif="http://www.serif.com/" style="fill-rule:evenodd;clip-rule:evenodd;stroke-linejoin:round;stroke-miterlimit:2;">
    <g transform="matrix(1,0,0,1,-463.39,-340.33)">
        <path d="M463.39,341.33L486.71,341.33L486.71,410.89L485.13,409.31L527.68,409.31L527.68,428.68L463.39,428.68L463.39,341.33Z" style="fill:white;fill-rule:nonzero;"/>
        <path d="M559.95,341.33L587.35,341.33L621.34,428.67L596.44,428.67L589.85,411.68L591.96,413.13L555.34,413.13L557.45,411.68L550.86,428.67L526.09,428.67L559.95,341.33ZM560.87,395.34L586.56,395.34L585.51,396.79L573.13,362.27L574.18,362.27L561.8,396.79L560.88,395.34L560.87,395.34Z" style="fill:white;fill-rule:nonzero;"/>
        <path d="M705.79,341.33L730.69,341.33L698.02,428.67L672.46,428.67L639.92,341.33L664.82,341.33L685.77,404.83L684.72,404.83L705.8,341.33L705.79,341.33Z" style="fill:white;fill-rule:nonzero;"/>
        <path d="M831.73,412.07L874.81,359.5L875.34,360.69L832.66,360.69L832.66,341.32L901.96,341.32L901.96,358.31L859.54,410.48L859.01,409.29L902.62,409.29L902.62,428.66L831.74,428.66L831.74,412.06L831.73,412.07Z" style="fill:white;fill-rule:nonzero;"/>
    </g>
    <g transform="matrix(1,0,0,1,-463.39,-340.33)">
        <path d="M800.15,412.97L806.27,419.09L797.48,428.26L782.57,428.26L773.39,419.09L773.39,427.88L760.77,427.88L750.45,417.17L750.45,404.94L744.33,411.06L735.54,402.26L735.54,386.97L744.33,378.18L735.54,378.18L735.54,365.94L746.24,355.62L758.48,355.24L752.36,349.12L761.15,340.33L776.07,340.71L785.24,349.12L785.24,340.33L797.48,340.33L807.8,351.03L807.8,363.27L814.3,356.77L823.09,365.94L823.09,381.24L814.68,390.03L823.09,390.03L823.09,402.26L812.39,412.97L800.15,412.97Z" style="fill:white;fill-rule:nonzero;"/>
    </g>
</svg>
