<?xml version="1.0" encoding="UTF-8"?>
<svg id="Capa_1" data-name="Capa 1" xmlns="http://www.w3.org/2000/svg" viewBox="0 0 827.59 827.59">
  <defs>
    <style>
      .cls-1 {
        fill: #fff;
        stroke: #1d1d1b;
        stroke-miterlimit: 10;
        stroke-width: .5px;
      }

      .cls-2 {
        opacity: .6;
      }
    </style>
  </defs>
  <g class="cls-2">
    <g>
      <line class="cls-1" x2="827.59"/>
      <line class="cls-1" y1="25.86" x2="827.59" y2="25.86"/>
      <line class="cls-1" y1="51.72" x2="827.59" y2="51.72"/>
      <line class="cls-1" y1="77.59" x2="827.59" y2="77.59"/>
      <line class="cls-1" y1="103.45" x2="827.59" y2="103.45"/>
      <line class="cls-1" y1="129.31" x2="827.59" y2="129.31"/>
      <line class="cls-1" y1="155.17" x2="827.59" y2="155.17"/>
      <line class="cls-1" y1="181.03" x2="827.59" y2="181.03"/>
      <line class="cls-1" y1="206.9" x2="827.59" y2="206.9"/>
      <line class="cls-1" y1="232.76" x2="827.59" y2="232.76"/>
      <line class="cls-1" y1="258.62" x2="827.59" y2="258.62"/>
      <line class="cls-1" y1="284.48" x2="827.59" y2="284.48"/>
      <line class="cls-1" y1="310.34" x2="827.59" y2="310.34"/>
      <line class="cls-1" y1="336.21" x2="827.59" y2="336.21"/>
      <line class="cls-1" y1="362.07" x2="827.59" y2="362.07"/>
      <line class="cls-1" y1="387.93" x2="827.59" y2="387.93"/>
      <line class="cls-1" y1="413.79" x2="827.59" y2="413.79"/>
      <line class="cls-1" y1="439.66" x2="827.59" y2="439.66"/>
      <line class="cls-1" y1="465.52" x2="827.59" y2="465.52"/>
      <line class="cls-1" y1="491.38" x2="827.59" y2="491.38"/>
      <line class="cls-1" y1="517.24" x2="827.59" y2="517.24"/>
      <line class="cls-1" y1="543.1" x2="827.59" y2="543.1"/>
      <line class="cls-1" y1="568.97" x2="827.59" y2="568.97"/>
      <line class="cls-1" y1="594.83" x2="827.59" y2="594.83"/>
      <line class="cls-1" y1="620.69" x2="827.59" y2="620.69"/>
      <line class="cls-1" y1="646.55" x2="827.59" y2="646.55"/>
      <line class="cls-1" y1="672.41" x2="827.59" y2="672.41"/>
      <line class="cls-1" y1="698.28" x2="827.59" y2="698.28"/>
      <line class="cls-1" y1="724.14" x2="827.59" y2="724.14"/>
      <line class="cls-1" y1="750" x2="827.59" y2="750"/>
      <line class="cls-1" y1="775.86" x2="827.59" y2="775.86"/>
      <line class="cls-1" y1="801.72" x2="827.59" y2="801.72"/>
      <line class="cls-1" y1="827.59" x2="827.59" y2="827.59"/>
    </g>
    <g>
      <line class="cls-1" x1="827.59" y1="0" x2="827.59" y2="827.59"/>
      <line class="cls-1" x1="801.72" y1="0" x2="801.72" y2="827.59"/>
      <line class="cls-1" x1="775.86" y1="0" x2="775.86" y2="827.59"/>
      <line class="cls-1" x1="750" y1="0" x2="750" y2="827.59"/>
      <line class="cls-1" x1="724.14" y1="0" x2="724.14" y2="827.59"/>
      <line class="cls-1" x1="698.28" y1="0" x2="698.28" y2="827.59"/>
      <line class="cls-1" x1="672.41" y1="0" x2="672.41" y2="827.59"/>
      <line class="cls-1" x1="646.55" y1="0" x2="646.55" y2="827.59"/>
      <line class="cls-1" x1="620.69" y1="0" x2="620.69" y2="827.59"/>
      <line class="cls-1" x1="594.83" y1="0" x2="594.83" y2="827.59"/>
      <line class="cls-1" x1="568.97" y1="0" x2="568.97" y2="827.59"/>
      <line class="cls-1" x1="543.1" y1="0" x2="543.1" y2="827.59"/>
      <line class="cls-1" x1="517.24" y1="0" x2="517.24" y2="827.59"/>
      <line class="cls-1" x1="491.38" y1="0" x2="491.38" y2="827.59"/>
      <line class="cls-1" x1="465.52" y1="0" x2="465.52" y2="827.59"/>
      <line class="cls-1" x1="439.66" y1="0" x2="439.66" y2="827.59"/>
      <line class="cls-1" x1="413.79" y1="0" x2="413.79" y2="827.59"/>
      <line class="cls-1" x1="387.93" y1="0" x2="387.93" y2="827.59"/>
      <line class="cls-1" x1="362.07" y1="0" x2="362.07" y2="827.59"/>
      <line class="cls-1" x1="336.21" y1="0" x2="336.21" y2="827.59"/>
      <line class="cls-1" x1="310.34" y1="0" x2="310.34" y2="827.59"/>
      <line class="cls-1" x1="284.48" y1="0" x2="284.48" y2="827.59"/>
      <line class="cls-1" x1="258.62" y1="0" x2="258.62" y2="827.59"/>
      <line class="cls-1" x1="232.76" y1="0" x2="232.76" y2="827.59"/>
      <line class="cls-1" x1="206.9" y1="0" x2="206.9" y2="827.59"/>
      <line class="cls-1" x1="181.03" y1="0" x2="181.03" y2="827.59"/>
      <line class="cls-1" x1="155.17" y1="0" x2="155.17" y2="827.59"/>
      <line class="cls-1" x1="129.31" y1="0" x2="129.31" y2="827.59"/>
      <line class="cls-1" x1="103.45" y1="0" x2="103.45" y2="827.59"/>
      <line class="cls-1" x1="77.59" y1="0" x2="77.59" y2="827.59"/>
      <line class="cls-1" x1="51.72" y1="0" x2="51.72" y2="827.59"/>
      <line class="cls-1" x1="25.86" y1="0" x2="25.86" y2="827.59"/>
      <line class="cls-1" x1="0" y1="0" x2="0" y2="827.59"/>
    </g>
  </g>
</svg>